<?xml version="1.0" encoding="utf-8" standalone="no"?>
<!DOCTYPE svg PUBLIC "-//W3C//DTD SVG 1.1//EN"
  "http://www.w3.org/Graphics/SVG/1.1/DTD/svg11.dtd">
<svg xmlns:xlink="http://www.w3.org/1999/xlink" width="720pt" height="288pt" viewBox="0 0 720 288" xmlns="http://www.w3.org/2000/svg" version="1.1">
 <metadata>
  <rdf:RDF xmlns:dc="http://purl.org/dc/elements/1.1/" xmlns:cc="http://creativecommons.org/ns#" xmlns:rdf="http://www.w3.org/1999/02/22-rdf-syntax-ns#">
   <cc:Work>
    <dc:type rdf:resource="http://purl.org/dc/dcmitype/StillImage"/>
    <dc:date>2023-04-04T14:09:28.325938</dc:date>
    <dc:format>image/svg+xml</dc:format>
    <dc:creator>
     <cc:Agent>
      <dc:title>Matplotlib v3.7.1, https://matplotlib.org/</dc:title>
     </cc:Agent>
    </dc:creator>
   </cc:Work>
  </rdf:RDF>
 </metadata>
 <defs>
  <style type="text/css">*{stroke-linejoin: round; stroke-linecap: butt}</style>
 </defs>
 <g id="figure_1">
  <g id="patch_1">
   <path d="M 0 288 
L 720 288 
L 720 0 
L 0 0 
z
" style="fill: #ffffff"/>
  </g>
  <g id="axes_1">
   <g id="patch_2">
    <path d="M 54.7625 246.58 
L 639.94 246.58 
L 639.94 27.6 
L 54.7625 27.6 
z
" style="fill: #ffffff"/>
   </g>
   <g id="matplotlib.axis_1">
    <g id="xtick_1">
     <g id="line2d_1">
      <defs>
       <path id="mb122b9b356" d="M 0 0 
L 0 3.5 
" style="stroke: #000000; stroke-width: 0.8"/>
      </defs>
      <g>
       <use xlink:href="#mb122b9b356" x="100.360747" y="246.58" style="stroke: #000000; stroke-width: 0.8"/>
      </g>
     </g>
     <g id="text_1">
      <!-- 2.Mar -->
      <g transform="translate(85.282622 260.519063) scale(0.1 -0.1)">
       <defs>
        <path id="CMUSerif-Bold-32" d="M 366 0 
L 366 116 
Q 366 219 378 247 
Q 391 275 447 331 
L 1734 1644 
Q 2425 2347 2425 2975 
Q 2425 3359 2201 3625 
Q 1978 3891 1581 3891 
Q 1191 3891 922 3669 
Q 994 3650 1062 3614 
Q 1131 3578 1209 3468 
Q 1288 3359 1288 3206 
Q 1288 2981 1142 2864 
Q 997 2747 825 2747 
Q 666 2747 516 2858 
Q 366 2969 366 3219 
Q 366 3647 759 3919 
Q 1153 4191 1741 4191 
Q 2425 4191 2867 3858 
Q 3309 3525 3309 2981 
Q 3309 2756 3245 2584 
Q 3181 2413 3001 2223 
Q 2822 2034 2669 1912 
Q 2516 1791 2169 1538 
Q 1869 1319 1247 800 
L 2188 800 
Q 2769 800 2841 838 
Q 2925 881 3009 1422 
L 3309 1422 
L 3109 0 
L 366 0 
z
" transform="scale(0.015625)"/>
        <path id="CMUSerif-Bold-2e" d="M 519 500 
Q 519 719 672 858 
Q 825 997 1019 997 
Q 1216 997 1366 853 
Q 1516 709 1516 500 
Q 1516 309 1372 154 
Q 1228 0 1019 0 
Q 822 0 670 144 
Q 519 288 519 500 
z
" transform="scale(0.015625)"/>
        <path id="CMUSerif-Bold-4d" d="M 256 0 
L 256 300 
L 416 300 
Q 606 300 763 319 
Q 897 331 922 354 
Q 947 378 947 488 
L 947 4091 
L 256 4091 
L 256 4391 
L 1678 4391 
Q 1763 4391 1800 4384 
Q 1838 4378 1881 4342 
Q 1925 4306 1959 4231 
L 3494 844 
L 5031 4231 
Q 5081 4341 5136 4366 
Q 5191 4391 5313 4391 
L 6725 4391 
L 6725 4091 
L 6034 4091 
L 6034 300 
L 6725 300 
L 6725 0 
Q 6494 19 5631 19 
Q 4775 19 4544 0 
L 4544 300 
L 5234 300 
L 5234 4091 
L 5228 4091 
L 3444 153 
Q 3372 0 3237 0 
Q 3103 0 3034 159 
L 1294 4006 
L 1288 4006 
L 1288 488 
Q 1288 378 1313 354 
Q 1338 331 1478 319 
Q 1650 300 1819 300 
L 1978 300 
L 1978 0 
Q 1716 19 1113 19 
Q 500 19 256 0 
z
" transform="scale(0.015625)"/>
        <path id="CMUSerif-Bold-61" d="M 206 691 
Q 206 1606 2284 1697 
L 2284 1913 
Q 2284 2669 1581 2669 
Q 1331 2669 1119 2625 
Q 1259 2528 1259 2309 
Q 1259 2119 1139 2012 
Q 1019 1906 856 1906 
Q 709 1906 584 2012 
Q 459 2119 459 2309 
Q 459 2897 1606 2900 
Q 2297 2900 2656 2631 
Q 3016 2363 3016 1913 
L 3016 538 
Q 3016 447 3028 409 
Q 3041 372 3130 336 
Q 3219 300 3406 300 
Q 3463 300 3488 294 
Q 3513 288 3542 256 
Q 3572 225 3572 153 
Q 3572 50 3526 25 
Q 3481 0 3366 0 
L 3059 0 
Q 2822 0 2675 45 
Q 2528 91 2473 180 
Q 2419 269 2406 330 
Q 2394 391 2394 494 
Q 2119 -38 1441 -38 
Q 1250 -38 1056 -9 
Q 863 19 658 92 
Q 453 166 329 319 
Q 206 472 206 691 
z
M 953 697 
Q 953 484 1123 337 
Q 1294 191 1538 191 
Q 1622 191 1726 217 
Q 1831 244 1968 308 
Q 2106 372 2195 525 
Q 2284 678 2284 891 
L 2284 1497 
Q 2144 1491 2019 1475 
Q 1894 1459 1683 1404 
Q 1472 1350 1325 1273 
Q 1178 1197 1065 1045 
Q 953 894 953 697 
z
" transform="scale(0.015625)"/>
        <path id="CMUSerif-Bold-72" d="M 238 0 
L 238 300 
L 678 300 
L 678 2278 
Q 678 2456 611 2492 
Q 544 2528 238 2528 
L 238 2828 
L 1300 2881 
L 1300 2156 
Q 1563 2878 2150 2881 
Q 2419 2881 2623 2739 
Q 2828 2597 2828 2356 
Q 2828 2178 2709 2072 
Q 2591 1966 2437 1966 
Q 2284 1966 2165 2067 
Q 2047 2169 2047 2356 
Q 2047 2528 2169 2650 
Q 1944 2650 1778 2525 
Q 1613 2400 1530 2198 
Q 1447 1997 1408 1805 
Q 1369 1613 1369 1422 
L 1369 300 
L 1925 300 
L 1925 0 
Q 1694 19 1044 19 
Q 909 19 238 0 
z
" transform="scale(0.015625)"/>
       </defs>
       <use xlink:href="#CMUSerif-Bold-32"/>
       <use xlink:href="#CMUSerif-Bold-2e" x="57.470703"/>
       <use xlink:href="#CMUSerif-Bold-4d" x="89.355469"/>
       <use xlink:href="#CMUSerif-Bold-61" x="198.4375"/>
       <use xlink:href="#CMUSerif-Bold-72" x="254.296875"/>
      </g>
     </g>
    </g>
    <g id="xtick_2">
     <g id="line2d_2">
      <g>
       <use xlink:href="#mb122b9b356" x="161.580615" y="246.58" style="stroke: #000000; stroke-width: 0.8"/>
      </g>
     </g>
     <g id="text_2">
      <!-- 5.Mar -->
      <g transform="translate(146.50249 260.519063) scale(0.1 -0.1)">
       <defs>
        <path id="CMUSerif-Bold-35" d="M 366 1019 
Q 366 1197 458 1306 
Q 550 1416 636 1441 
Q 722 1466 794 1466 
Q 947 1466 1084 1359 
Q 1222 1253 1222 1031 
Q 1222 841 1103 728 
Q 984 616 806 603 
Q 1100 206 1631 206 
Q 1791 206 1916 243 
Q 2041 281 2122 339 
Q 2203 397 2256 495 
Q 2309 594 2339 675 
Q 2369 756 2381 890 
Q 2394 1025 2397 1101 
Q 2400 1178 2400 1313 
Q 2400 1519 2397 1626 
Q 2394 1734 2366 1904 
Q 2338 2075 2280 2161 
Q 2222 2247 2109 2317 
Q 1997 2388 1831 2388 
Q 1275 2388 972 2028 
Q 909 1950 831 1953 
Q 769 1953 736 1981 
Q 703 2009 697 2045 
Q 691 2081 691 2150 
L 691 4019 
Q 691 4081 694 4111 
Q 697 4141 717 4166 
Q 738 4191 781 4191 
Q 788 4191 863 4166 
Q 1381 3988 1856 3988 
Q 2369 3988 2834 4166 
Q 2906 4191 2931 4191 
Q 3022 4191 3022 4078 
Q 3022 4006 2909 3868 
Q 2797 3731 2611 3578 
Q 2425 3425 2125 3309 
Q 1825 3194 1497 3194 
Q 1278 3194 1031 3238 
L 1031 2394 
Q 1356 2619 1856 2619 
Q 2541 2619 2925 2241 
Q 3309 1863 3309 1288 
Q 3309 694 2861 311 
Q 2413 -72 1656 -72 
Q 1088 -72 727 259 
Q 366 591 366 1019 
z
" transform="scale(0.015625)"/>
       </defs>
       <use xlink:href="#CMUSerif-Bold-35"/>
       <use xlink:href="#CMUSerif-Bold-2e" x="57.470703"/>
       <use xlink:href="#CMUSerif-Bold-4d" x="89.355469"/>
       <use xlink:href="#CMUSerif-Bold-61" x="198.4375"/>
       <use xlink:href="#CMUSerif-Bold-72" x="254.296875"/>
      </g>
     </g>
    </g>
    <g id="xtick_3">
     <g id="line2d_3">
      <g>
       <use xlink:href="#mb122b9b356" x="222.800483" y="246.58" style="stroke: #000000; stroke-width: 0.8"/>
      </g>
     </g>
     <g id="text_3">
      <!-- 8.Mar -->
      <g transform="translate(207.722358 260.519063) scale(0.1 -0.1)">
       <defs>
        <path id="CMUSerif-Bold-38" d="M 306 1031 
Q 306 1747 1125 2106 
Q 509 2453 513 3072 
Q 513 3559 861 3875 
Q 1209 4191 1850 4191 
Q 2431 4191 2797 3955 
Q 3163 3719 3163 3250 
Q 3163 2700 2516 2369 
Q 2688 2266 2791 2198 
Q 2894 2131 3050 1984 
Q 3206 1838 3286 1639 
Q 3366 1441 3366 1197 
Q 3366 641 2962 284 
Q 2559 -72 1825 -72 
Q 1159 -72 732 204 
Q 306 481 306 1031 
z
M 856 1031 
Q 856 653 1118 429 
Q 1381 206 1850 206 
Q 2075 206 2269 247 
Q 2463 288 2639 441 
Q 2816 594 2816 844 
Q 2816 991 2736 1106 
Q 2656 1222 2570 1283 
Q 2484 1344 2297 1447 
Q 1581 1850 1422 1931 
Q 856 1613 856 1031 
z
M 991 3450 
Q 991 3225 1275 3066 
L 2234 2528 
Q 2681 2822 2681 3244 
Q 2681 3569 2454 3756 
Q 2228 3944 1825 3944 
Q 1697 3944 1581 3926 
Q 1466 3909 1319 3865 
Q 1172 3822 1081 3715 
Q 991 3609 991 3450 
z
" transform="scale(0.015625)"/>
       </defs>
       <use xlink:href="#CMUSerif-Bold-38"/>
       <use xlink:href="#CMUSerif-Bold-2e" x="57.470703"/>
       <use xlink:href="#CMUSerif-Bold-4d" x="89.355469"/>
       <use xlink:href="#CMUSerif-Bold-61" x="198.4375"/>
       <use xlink:href="#CMUSerif-Bold-72" x="254.296875"/>
      </g>
     </g>
    </g>
    <g id="xtick_4">
     <g id="line2d_4">
      <g>
       <use xlink:href="#mb122b9b356" x="284.020352" y="246.58" style="stroke: #000000; stroke-width: 0.8"/>
      </g>
     </g>
     <g id="text_4">
      <!-- 12.Mar -->
      <g transform="translate(266.068789 260.519063) scale(0.1 -0.1)">
       <defs>
        <path id="CMUSerif-Bold-31" d="M 544 3481 
L 544 3781 
L 672 3781 
Q 1466 3781 1959 4147 
Q 2016 4191 2100 4191 
Q 2216 4191 2241 4150 
Q 2266 4109 2266 3988 
L 2266 300 
L 3163 300 
L 3163 0 
Q 2881 19 1889 19 
Q 897 19 616 0 
L 616 300 
L 1503 300 
L 1503 3609 
Q 1106 3481 672 3481 
L 544 3481 
z
" transform="scale(0.015625)"/>
       </defs>
       <use xlink:href="#CMUSerif-Bold-31"/>
       <use xlink:href="#CMUSerif-Bold-32" x="57.470703"/>
       <use xlink:href="#CMUSerif-Bold-2e" x="114.941406"/>
       <use xlink:href="#CMUSerif-Bold-4d" x="146.826172"/>
       <use xlink:href="#CMUSerif-Bold-61" x="255.908203"/>
       <use xlink:href="#CMUSerif-Bold-72" x="311.767578"/>
      </g>
     </g>
    </g>
    <g id="xtick_5">
     <g id="line2d_5">
      <g>
       <use xlink:href="#mb122b9b356" x="345.24022" y="246.58" style="stroke: #000000; stroke-width: 0.8"/>
      </g>
     </g>
     <g id="text_5">
      <!-- 15.Mar -->
      <g transform="translate(327.288658 260.519063) scale(0.1 -0.1)">
       <use xlink:href="#CMUSerif-Bold-31"/>
       <use xlink:href="#CMUSerif-Bold-35" x="57.470703"/>
       <use xlink:href="#CMUSerif-Bold-2e" x="114.941406"/>
       <use xlink:href="#CMUSerif-Bold-4d" x="146.826172"/>
       <use xlink:href="#CMUSerif-Bold-61" x="255.908203"/>
       <use xlink:href="#CMUSerif-Bold-72" x="311.767578"/>
      </g>
     </g>
    </g>
    <g id="xtick_6">
     <g id="line2d_6">
      <g>
       <use xlink:href="#mb122b9b356" x="406.460088" y="246.58" style="stroke: #000000; stroke-width: 0.8"/>
      </g>
     </g>
     <g id="text_6">
      <!-- 18.Mar -->
      <g transform="translate(388.508526 260.519063) scale(0.1 -0.1)">
       <use xlink:href="#CMUSerif-Bold-31"/>
       <use xlink:href="#CMUSerif-Bold-38" x="57.470703"/>
       <use xlink:href="#CMUSerif-Bold-2e" x="114.941406"/>
       <use xlink:href="#CMUSerif-Bold-4d" x="146.826172"/>
       <use xlink:href="#CMUSerif-Bold-61" x="255.908203"/>
       <use xlink:href="#CMUSerif-Bold-72" x="311.767578"/>
      </g>
     </g>
    </g>
    <g id="xtick_7">
     <g id="line2d_7">
      <g>
       <use xlink:href="#mb122b9b356" x="467.679957" y="246.58" style="stroke: #000000; stroke-width: 0.8"/>
      </g>
     </g>
     <g id="text_7">
      <!-- 21.Mar -->
      <g transform="translate(449.728394 260.519063) scale(0.1 -0.1)">
       <use xlink:href="#CMUSerif-Bold-32"/>
       <use xlink:href="#CMUSerif-Bold-31" x="57.470703"/>
       <use xlink:href="#CMUSerif-Bold-2e" x="114.941406"/>
       <use xlink:href="#CMUSerif-Bold-4d" x="146.826172"/>
       <use xlink:href="#CMUSerif-Bold-61" x="255.908203"/>
       <use xlink:href="#CMUSerif-Bold-72" x="311.767578"/>
      </g>
     </g>
    </g>
    <g id="xtick_8">
     <g id="line2d_8">
      <g>
       <use xlink:href="#mb122b9b356" x="528.899825" y="246.58" style="stroke: #000000; stroke-width: 0.8"/>
      </g>
     </g>
     <g id="text_8">
      <!-- 25.Mar -->
      <g transform="translate(510.948263 260.519063) scale(0.1 -0.1)">
       <use xlink:href="#CMUSerif-Bold-32"/>
       <use xlink:href="#CMUSerif-Bold-35" x="57.470703"/>
       <use xlink:href="#CMUSerif-Bold-2e" x="114.941406"/>
       <use xlink:href="#CMUSerif-Bold-4d" x="146.826172"/>
       <use xlink:href="#CMUSerif-Bold-61" x="255.908203"/>
       <use xlink:href="#CMUSerif-Bold-72" x="311.767578"/>
      </g>
     </g>
    </g>
    <g id="xtick_9">
     <g id="line2d_9">
      <g>
       <use xlink:href="#mb122b9b356" x="590.119693" y="246.58" style="stroke: #000000; stroke-width: 0.8"/>
      </g>
     </g>
     <g id="text_9">
      <!-- 28.Mar -->
      <g transform="translate(572.168131 260.519063) scale(0.1 -0.1)">
       <use xlink:href="#CMUSerif-Bold-32"/>
       <use xlink:href="#CMUSerif-Bold-38" x="57.470703"/>
       <use xlink:href="#CMUSerif-Bold-2e" x="114.941406"/>
       <use xlink:href="#CMUSerif-Bold-4d" x="146.826172"/>
       <use xlink:href="#CMUSerif-Bold-61" x="255.908203"/>
       <use xlink:href="#CMUSerif-Bold-72" x="311.767578"/>
      </g>
     </g>
    </g>
    <g id="text_10">
     <!-- March, 2023 -->
     <g transform="translate(314.866875 274.785) scale(0.12 -0.12)">
      <defs>
       <path id="CMUSerif-Roman-4d" d="M 238 0 
L 238 197 
Q 469 197 616 242 
Q 763 288 817 373 
Q 872 459 884 517 
Q 897 575 897 672 
L 897 3872 
Q 897 4056 817 4114 
Q 738 4172 391 4172 
L 238 4172 
L 238 4372 
L 1319 4372 
Q 1434 4372 1465 4351 
Q 1497 4331 1544 4231 
L 2931 647 
L 4331 4250 
Q 4363 4341 4392 4356 
Q 4422 4372 4544 4372 
L 5625 4372 
L 5625 4172 
L 5472 4172 
Q 5125 4172 5045 4114 
Q 4966 4056 4966 3872 
L 4966 500 
Q 4966 316 5045 256 
Q 5125 197 5472 197 
L 5625 197 
L 5625 0 
Q 5388 19 4709 19 
Q 4025 19 3788 0 
L 3788 197 
L 3944 197 
Q 4291 197 4369 255 
Q 4447 313 4447 500 
L 4447 4172 
L 4441 4172 
L 2869 122 
Q 2825 0 2753 0 
Q 2675 0 2625 141 
L 1081 4122 
L 1075 4122 
L 1075 672 
Q 1075 575 1087 517 
Q 1100 459 1154 373 
Q 1209 288 1356 242 
Q 1503 197 1734 197 
L 1734 0 
Q 1063 19 986 19 
Q 909 19 238 0 
z
" transform="scale(0.015625)"/>
       <path id="CMUSerif-Roman-61" d="M 269 609 
Q 269 1153 909 1441 
Q 1294 1625 2088 1672 
L 2088 1906 
Q 2088 2303 1880 2514 
Q 1672 2725 1409 2725 
Q 941 2725 716 2431 
Q 906 2425 975 2329 
Q 1044 2234 1044 2138 
Q 1044 2009 964 1926 
Q 884 1844 750 1844 
Q 622 1844 537 1923 
Q 453 2003 453 2144 
Q 453 2456 736 2662 
Q 1019 2869 1422 2869 
Q 1947 2869 2297 2516 
Q 2406 2406 2461 2265 
Q 2516 2125 2522 2033 
Q 2528 1941 2528 1759 
L 2528 481 
Q 2528 444 2540 381 
Q 2553 319 2611 239 
Q 2669 159 2766 159 
Q 2997 159 2994 569 
L 2994 928 
L 3156 928 
L 3156 569 
Q 3156 228 2976 95 
Q 2797 -38 2631 -38 
Q 2419 -38 2284 118 
Q 2150 275 2131 488 
Q 2034 244 1814 86 
Q 1594 -72 1294 -72 
Q 1063 -72 845 -14 
Q 628 44 448 205 
Q 269 366 269 609 
z
M 763 616 
Q 763 378 931 225 
Q 1100 72 1338 72 
Q 1606 72 1847 280 
Q 2088 488 2088 897 
L 2088 1538 
Q 1378 1513 1070 1230 
Q 763 947 763 616 
z
" transform="scale(0.015625)"/>
       <path id="CMUSerif-Roman-72" d="M 178 0 
L 178 197 
Q 519 197 598 239 
Q 678 281 678 488 
L 678 2203 
Q 678 2441 595 2500 
Q 513 2559 178 2559 
L 178 2759 
L 1069 2828 
L 1069 2125 
Q 1159 2400 1351 2614 
Q 1544 2828 1856 2828 
Q 2063 2828 2195 2712 
Q 2328 2597 2328 2438 
Q 2328 2297 2242 2226 
Q 2156 2156 2053 2156 
Q 1938 2156 1858 2229 
Q 1778 2303 1778 2431 
Q 1778 2509 1814 2570 
Q 1850 2631 1878 2653 
Q 1906 2675 1925 2681 
Q 1913 2688 1856 2688 
Q 1503 2688 1301 2336 
Q 1100 1984 1100 1484 
L 1100 500 
Q 1100 316 1176 256 
Q 1253 197 1588 197 
L 1722 197 
L 1722 0 
Q 1466 19 909 19 
Q 831 19 709 16 
Q 588 13 428 6 
Q 269 0 178 0 
z
" transform="scale(0.015625)"/>
       <path id="CMUSerif-Roman-63" d="M 625 351 
Q 219 775 219 1383 
Q 219 1991 619 2430 
Q 1019 2869 1606 2869 
Q 1997 2869 2290 2683 
Q 2584 2497 2584 2181 
Q 2584 2041 2501 1961 
Q 2419 1881 2291 1881 
Q 2156 1881 2076 1964 
Q 1997 2047 1997 2175 
Q 1997 2231 2015 2287 
Q 2034 2344 2104 2403 
Q 2175 2463 2297 2472 
Q 2069 2706 1625 2706 
Q 1619 2706 1613 2706 
Q 1288 2706 1019 2400 
Q 750 2094 750 1394 
Q 750 1028 839 761 
Q 928 494 1075 356 
Q 1222 219 1365 155 
Q 1509 91 1650 91 
Q 2278 91 2491 763 
Q 2509 825 2572 825 
Q 2656 825 2656 763 
Q 2656 731 2631 650 
Q 2606 569 2528 441 
Q 2450 313 2339 202 
Q 2228 91 2033 9 
Q 1838 -72 1594 -72 
Q 1031 -72 625 351 
z
" transform="scale(0.015625)"/>
       <path id="CMUSerif-Roman-68" d="M 206 0 
L 206 197 
Q 547 197 625 239 
Q 703 281 703 488 
L 703 3816 
Q 703 4053 620 4112 
Q 538 4172 206 4172 
L 206 4372 
L 1125 4441 
L 1125 2216 
L 1131 2216 
Q 1234 2447 1465 2637 
Q 1697 2828 2053 2828 
Q 2534 2828 2725 2591 
Q 2866 2431 2895 2253 
Q 2925 2075 2925 1613 
L 2925 391 
Q 2931 256 3034 226 
Q 3138 197 3425 197 
L 3425 0 
Q 2772 19 2706 19 
Q 2656 19 1984 0 
L 1984 197 
Q 2325 197 2404 239 
Q 2484 281 2484 488 
L 2484 1978 
Q 2484 2303 2384 2495 
Q 2284 2688 2009 2688 
Q 1678 2688 1412 2409 
Q 1147 2131 1147 1663 
L 1147 488 
Q 1147 281 1226 239 
Q 1306 197 1644 197 
L 1644 0 
Q 991 19 928 19 
Q 878 19 206 0 
z
" transform="scale(0.015625)"/>
       <path id="CMUSerif-Roman-2c" d="M 640 103 
Q 550 206 550 340 
Q 550 475 639 576 
Q 728 678 891 678 
Q 1081 678 1190 495 
Q 1300 313 1300 6 
Q 1300 -325 1165 -633 
Q 1031 -941 900 -1087 
Q 769 -1234 716 -1234 
Q 653 -1234 653 -1166 
Q 653 -1141 697 -1094 
Q 1156 -600 1159 6 
Q 1159 103 1147 103 
L 1131 91 
Q 1022 0 891 0 
Q 731 0 640 103 
z
" transform="scale(0.015625)"/>
       <path id="CMUSerif-Roman-20" transform="scale(0.015625)"/>
       <path id="CMUSerif-Roman-32" d="M 319 0 
Q 319 116 330 150 
Q 341 184 391 238 
L 1619 1606 
Q 2291 2363 2291 3022 
Q 2291 3450 2067 3756 
Q 1844 4063 1434 4063 
Q 1153 4063 915 3891 
Q 678 3719 569 3413 
Q 588 3419 653 3419 
Q 813 3419 902 3319 
Q 991 3219 991 3084 
Q 991 2913 880 2830 
Q 769 2747 659 2747 
Q 616 2747 558 2756 
Q 500 2766 409 2855 
Q 319 2944 319 3103 
Q 319 3550 658 3906 
Q 997 4263 1516 4263 
Q 2103 4263 2489 3914 
Q 2875 3566 2875 3022 
Q 2875 2831 2817 2657 
Q 2759 2484 2682 2350 
Q 2606 2216 2400 2000 
Q 2194 1784 2028 1631 
Q 1863 1478 1491 1153 
L 813 494 
L 1966 494 
Q 2528 494 2572 544 
Q 2634 634 2713 1113 
L 2875 1113 
L 2694 0 
L 319 0 
z
" transform="scale(0.015625)"/>
       <path id="CMUSerif-Roman-30" d="M 250 2047 
Q 250 2988 488 3500 
Q 819 4263 1600 4263 
Q 1766 4263 1939 4217 
Q 2113 4172 2333 4000 
Q 2553 3828 2688 3547 
Q 2944 3003 2944 2047 
Q 2944 1113 2706 603 
Q 2359 -141 1594 -141 
Q 1306 -141 1014 6 
Q 722 153 538 506 
Q 250 1034 250 2047 
z
M 781 2125 
Q 781 1159 850 775 
Q 928 359 1142 179 
Q 1356 0 1594 0 
Q 1850 0 2064 192 
Q 2278 384 2344 800 
Q 2416 1209 2413 2125 
Q 2413 3016 2350 3372 
Q 2266 3788 2042 3955 
Q 1819 4122 1594 4122 
Q 1509 4122 1420 4097 
Q 1331 4072 1203 4000 
Q 1075 3928 976 3750 
Q 878 3572 831 3303 
Q 781 2956 781 2125 
z
" transform="scale(0.015625)"/>
       <path id="CMUSerif-Roman-33" d="M 269 863 
Q 269 1053 378 1143 
Q 488 1234 628 1234 
Q 775 1234 879 1139 
Q 984 1044 984 878 
Q 984 700 861 600 
Q 738 500 563 525 
Q 716 269 998 153 
Q 1281 38 1544 38 
Q 1819 38 2042 275 
Q 2266 513 2266 1094 
Q 2266 1588 2073 1872 
Q 1881 2156 1503 2156 
L 1222 2156 
Q 1125 2156 1097 2165 
Q 1069 2175 1069 2228 
Q 1069 2291 1166 2303 
Q 1263 2303 1416 2322 
Q 1788 2334 1984 2656 
Q 2163 2956 2163 3384 
Q 2163 3775 1977 3939 
Q 1791 4103 1550 4103 
Q 1325 4103 1078 4009 
Q 831 3916 697 3706 
Q 1094 3706 1094 3384 
Q 1094 3244 1005 3151 
Q 916 3059 769 3059 
Q 628 3059 534 3148 
Q 441 3238 441 3391 
Q 441 3756 767 4009 
Q 1094 4263 1575 4263 
Q 2050 4263 2401 4013 
Q 2753 3763 2753 3378 
Q 2753 3000 2503 2690 
Q 2253 2381 1856 2253 
Q 2344 2156 2634 1826 
Q 2925 1497 2925 1094 
Q 2925 594 2531 226 
Q 2138 -141 1563 -141 
Q 1031 -141 650 146 
Q 269 434 269 863 
z
" transform="scale(0.015625)"/>
      </defs>
      <use xlink:href="#CMUSerif-Roman-4d"/>
      <use xlink:href="#CMUSerif-Roman-61" x="91.552734"/>
      <use xlink:href="#CMUSerif-Roman-72" x="141.552734"/>
      <use xlink:href="#CMUSerif-Roman-63" x="180.615234"/>
      <use xlink:href="#CMUSerif-Roman-68" x="225"/>
      <use xlink:href="#CMUSerif-Roman-2c" x="280.46875"/>
      <use xlink:href="#CMUSerif-Roman-20" x="308.154297"/>
      <use xlink:href="#CMUSerif-Roman-32" x="341.40625"/>
      <use xlink:href="#CMUSerif-Roman-30" x="391.40625"/>
      <use xlink:href="#CMUSerif-Roman-32" x="441.40625"/>
      <use xlink:href="#CMUSerif-Roman-33" x="491.40625"/>
     </g>
    </g>
   </g>
   <g id="matplotlib.axis_2">
    <g id="ytick_1">
     <g id="line2d_10">
      <path d="M 54.7625 241.949164 
L 639.94 241.949164 
" clip-path="url(#p50cae5ecea)" style="fill: none; stroke-dasharray: 1.85,0.8; stroke-dashoffset: 0; stroke: #808080; stroke-width: 0.5"/>
     </g>
     <g id="line2d_11">
      <defs>
       <path id="mf8c441073e" d="M 0 0 
L -3.5 0 
" style="stroke: #000000; stroke-width: 0.8"/>
      </defs>
      <g>
       <use xlink:href="#mf8c441073e" x="54.7625" y="241.949164" style="stroke: #000000; stroke-width: 0.8"/>
      </g>
     </g>
     <g id="text_11">
      <!-- 0.0 -->
      <g transform="translate(33.079688 245.418695) scale(0.1 -0.1)">
       <defs>
        <path id="CMUSerif-Bold-30" d="M 291 1722 
Q 288 1850 288 2042 
Q 288 2234 291 2362 
Q 294 2491 326 2736 
Q 359 2981 414 3154 
Q 469 3328 583 3539 
Q 697 3750 855 3881 
Q 1013 4013 1264 4102 
Q 1516 4191 1836 4191 
Q 2156 4191 2409 4098 
Q 2663 4006 2819 3878 
Q 2975 3750 3090 3536 
Q 3206 3322 3261 3151 
Q 3316 2981 3347 2736 
Q 3378 2491 3381 2362 
Q 3384 2234 3384 2042 
Q 3384 1850 3381 1719 
Q 3378 1588 3347 1347 
Q 3316 1106 3261 937 
Q 3206 769 3090 564 
Q 2975 359 2815 231 
Q 2656 103 2403 15 
Q 2150 -72 1838 -72 
Q 1519 -72 1266 18 
Q 1013 109 855 234 
Q 697 359 583 567 
Q 469 775 414 940 
Q 359 1106 326 1350 
Q 294 1594 291 1722 
z
M 1106 2119 
Q 1106 1100 1166 769 
Q 1222 456 1423 307 
Q 1625 159 1838 159 
Q 1966 159 2087 201 
Q 2209 244 2346 406 
Q 2484 569 2522 844 
Q 2566 1175 2566 2119 
Q 2566 3322 2456 3559 
Q 2372 3756 2200 3859 
Q 2028 3963 1838 3963 
Q 1722 3963 1603 3930 
Q 1484 3897 1337 3740 
Q 1191 3584 1159 3328 
Q 1106 2997 1106 2119 
z
" transform="scale(0.015625)"/>
       </defs>
       <use xlink:href="#CMUSerif-Bold-30"/>
       <use xlink:href="#CMUSerif-Bold-2e" x="57.470703"/>
       <use xlink:href="#CMUSerif-Bold-30" x="89.355469"/>
      </g>
     </g>
    </g>
    <g id="ytick_2">
     <g id="line2d_12">
      <path d="M 54.7625 215.335163 
L 639.94 215.335163 
" clip-path="url(#p50cae5ecea)" style="fill: none; stroke-dasharray: 1.85,0.8; stroke-dashoffset: 0; stroke: #808080; stroke-width: 0.5"/>
     </g>
     <g id="line2d_13">
      <g>
       <use xlink:href="#mf8c441073e" x="54.7625" y="215.335163" style="stroke: #000000; stroke-width: 0.8"/>
      </g>
     </g>
     <g id="text_12">
      <!-- 2.5 -->
      <g transform="translate(33.079688 218.804694) scale(0.1 -0.1)">
       <use xlink:href="#CMUSerif-Bold-32"/>
       <use xlink:href="#CMUSerif-Bold-2e" x="57.470703"/>
       <use xlink:href="#CMUSerif-Bold-35" x="89.355469"/>
      </g>
     </g>
    </g>
    <g id="ytick_3">
     <g id="line2d_14">
      <path d="M 54.7625 188.721162 
L 639.94 188.721162 
" clip-path="url(#p50cae5ecea)" style="fill: none; stroke-dasharray: 1.85,0.8; stroke-dashoffset: 0; stroke: #808080; stroke-width: 0.5"/>
     </g>
     <g id="line2d_15">
      <g>
       <use xlink:href="#mf8c441073e" x="54.7625" y="188.721162" style="stroke: #000000; stroke-width: 0.8"/>
      </g>
     </g>
     <g id="text_13">
      <!-- 5.0 -->
      <g transform="translate(33.079688 192.190693) scale(0.1 -0.1)">
       <use xlink:href="#CMUSerif-Bold-35"/>
       <use xlink:href="#CMUSerif-Bold-2e" x="57.470703"/>
       <use xlink:href="#CMUSerif-Bold-30" x="89.355469"/>
      </g>
     </g>
    </g>
    <g id="ytick_4">
     <g id="line2d_16">
      <path d="M 54.7625 162.107161 
L 639.94 162.107161 
" clip-path="url(#p50cae5ecea)" style="fill: none; stroke-dasharray: 1.85,0.8; stroke-dashoffset: 0; stroke: #808080; stroke-width: 0.5"/>
     </g>
     <g id="line2d_17">
      <g>
       <use xlink:href="#mf8c441073e" x="54.7625" y="162.107161" style="stroke: #000000; stroke-width: 0.8"/>
      </g>
     </g>
     <g id="text_14">
      <!-- 7.5 -->
      <g transform="translate(33.079688 165.576692) scale(0.1 -0.1)">
       <defs>
        <path id="CMUSerif-Bold-37" d="M 409 2700 
L 634 4325 
L 934 4325 
Q 941 4281 950 4262 
Q 959 4244 992 4217 
Q 1025 4191 1088 4178 
Q 1144 4159 1628 4140 
Q 2113 4122 2266 4122 
L 3572 4122 
Q 3572 3950 3562 3908 
Q 3553 3866 3506 3816 
L 2516 2663 
Q 2191 2284 2100 1594 
Q 2038 1166 2034 678 
L 2034 384 
Q 2034 194 1948 81 
Q 1863 -31 1786 -51 
Q 1709 -72 1631 -72 
Q 1606 -72 1575 -67 
Q 1544 -63 1476 -41 
Q 1409 -19 1361 26 
Q 1313 72 1273 161 
Q 1234 250 1234 378 
Q 1234 1653 2309 2906 
L 2663 3322 
L 1581 3322 
Q 953 3322 884 3284 
Q 781 3234 709 2700 
L 409 2700 
z
" transform="scale(0.015625)"/>
       </defs>
       <use xlink:href="#CMUSerif-Bold-37"/>
       <use xlink:href="#CMUSerif-Bold-2e" x="57.470703"/>
       <use xlink:href="#CMUSerif-Bold-35" x="89.355469"/>
      </g>
     </g>
    </g>
    <g id="ytick_5">
     <g id="line2d_18">
      <path d="M 54.7625 135.49316 
L 639.94 135.49316 
" clip-path="url(#p50cae5ecea)" style="fill: none; stroke-dasharray: 1.85,0.8; stroke-dashoffset: 0; stroke: #808080; stroke-width: 0.5"/>
     </g>
     <g id="line2d_19">
      <g>
       <use xlink:href="#mf8c441073e" x="54.7625" y="135.49316" style="stroke: #000000; stroke-width: 0.8"/>
      </g>
     </g>
     <g id="text_15">
      <!-- 10.0 -->
      <g transform="translate(27.332813 138.962691) scale(0.1 -0.1)">
       <use xlink:href="#CMUSerif-Bold-31"/>
       <use xlink:href="#CMUSerif-Bold-30" x="57.470703"/>
       <use xlink:href="#CMUSerif-Bold-2e" x="114.941406"/>
       <use xlink:href="#CMUSerif-Bold-30" x="146.826172"/>
      </g>
     </g>
    </g>
    <g id="ytick_6">
     <g id="line2d_20">
      <path d="M 54.7625 108.879159 
L 639.94 108.879159 
" clip-path="url(#p50cae5ecea)" style="fill: none; stroke-dasharray: 1.85,0.8; stroke-dashoffset: 0; stroke: #808080; stroke-width: 0.5"/>
     </g>
     <g id="line2d_21">
      <g>
       <use xlink:href="#mf8c441073e" x="54.7625" y="108.879159" style="stroke: #000000; stroke-width: 0.8"/>
      </g>
     </g>
     <g id="text_16">
      <!-- 12.5 -->
      <g transform="translate(27.332813 112.34869) scale(0.1 -0.1)">
       <use xlink:href="#CMUSerif-Bold-31"/>
       <use xlink:href="#CMUSerif-Bold-32" x="57.470703"/>
       <use xlink:href="#CMUSerif-Bold-2e" x="114.941406"/>
       <use xlink:href="#CMUSerif-Bold-35" x="146.826172"/>
      </g>
     </g>
    </g>
    <g id="ytick_7">
     <g id="line2d_22">
      <path d="M 54.7625 82.265158 
L 639.94 82.265158 
" clip-path="url(#p50cae5ecea)" style="fill: none; stroke-dasharray: 1.85,0.8; stroke-dashoffset: 0; stroke: #808080; stroke-width: 0.5"/>
     </g>
     <g id="line2d_23">
      <g>
       <use xlink:href="#mf8c441073e" x="54.7625" y="82.265158" style="stroke: #000000; stroke-width: 0.8"/>
      </g>
     </g>
     <g id="text_17">
      <!-- 15.0 -->
      <g transform="translate(27.332813 85.734689) scale(0.1 -0.1)">
       <use xlink:href="#CMUSerif-Bold-31"/>
       <use xlink:href="#CMUSerif-Bold-35" x="57.470703"/>
       <use xlink:href="#CMUSerif-Bold-2e" x="114.941406"/>
       <use xlink:href="#CMUSerif-Bold-30" x="146.826172"/>
      </g>
     </g>
    </g>
    <g id="ytick_8">
     <g id="line2d_24">
      <path d="M 54.7625 55.651157 
L 639.94 55.651157 
" clip-path="url(#p50cae5ecea)" style="fill: none; stroke-dasharray: 1.85,0.8; stroke-dashoffset: 0; stroke: #808080; stroke-width: 0.5"/>
     </g>
     <g id="line2d_25">
      <g>
       <use xlink:href="#mf8c441073e" x="54.7625" y="55.651157" style="stroke: #000000; stroke-width: 0.8"/>
      </g>
     </g>
     <g id="text_18">
      <!-- 17.5 -->
      <g transform="translate(27.332813 59.120688) scale(0.1 -0.1)">
       <use xlink:href="#CMUSerif-Bold-31"/>
       <use xlink:href="#CMUSerif-Bold-37" x="57.470703"/>
       <use xlink:href="#CMUSerif-Bold-2e" x="114.941406"/>
       <use xlink:href="#CMUSerif-Bold-35" x="146.826172"/>
      </g>
     </g>
    </g>
    <g id="ytick_9">
     <g id="line2d_26">
      <path d="M 54.7625 29.037156 
L 639.94 29.037156 
" clip-path="url(#p50cae5ecea)" style="fill: none; stroke-dasharray: 1.85,0.8; stroke-dashoffset: 0; stroke: #808080; stroke-width: 0.5"/>
     </g>
     <g id="line2d_27">
      <g>
       <use xlink:href="#mf8c441073e" x="54.7625" y="29.037156" style="stroke: #000000; stroke-width: 0.8"/>
      </g>
     </g>
     <g id="text_19">
      <!-- 20.0 -->
      <g transform="translate(27.332813 32.506687) scale(0.1 -0.1)">
       <use xlink:href="#CMUSerif-Bold-32"/>
       <use xlink:href="#CMUSerif-Bold-30" x="57.470703"/>
       <use xlink:href="#CMUSerif-Bold-2e" x="114.941406"/>
       <use xlink:href="#CMUSerif-Bold-30" x="146.826172"/>
      </g>
     </g>
    </g>
    <g id="text_20">
     <!-- Temperature [°C] -->
     <g transform="translate(20.332813 182.729375) rotate(-90) scale(0.12 -0.12)">
      <defs>
       <path id="CMUSerif-Roman-54" d="M 231 2894 
L 353 4331 
L 4263 4331 
L 4384 2894 
L 4225 2894 
Q 4200 3181 4176 3347 
Q 4153 3513 4098 3670 
Q 4044 3828 3976 3904 
Q 3909 3981 3781 4042 
Q 3653 4103 3487 4118 
Q 3322 4134 3072 4134 
Q 2778 4134 2706 4122 
Q 2628 4103 2609 4048 
Q 2591 3994 2591 3878 
L 2591 506 
Q 2591 378 2617 326 
Q 2644 275 2791 236 
Q 2938 197 3263 197 
L 3519 197 
L 3519 0 
Q 3256 19 2303 19 
Q 1356 19 1094 0 
L 1094 197 
L 1350 197 
Q 1675 197 1823 236 
Q 1972 275 1997 326 
Q 2022 378 2022 506 
L 2022 3878 
Q 2022 3969 2015 4006 
Q 2009 4044 1981 4076 
Q 1953 4109 1889 4121 
Q 1825 4134 1544 4134 
Q 1294 4134 1126 4118 
Q 959 4103 831 4042 
Q 703 3981 636 3904 
Q 569 3828 514 3670 
Q 459 3513 437 3347 
Q 416 3181 391 2894 
L 231 2894 
z
" transform="scale(0.015625)"/>
       <path id="CMUSerif-Roman-65" d="M 178 1409 
Q 178 2013 565 2441 
Q 953 2869 1509 2869 
Q 2072 2869 2364 2503 
Q 2656 2138 2656 1613 
Q 2656 1516 2631 1497 
Q 2606 1478 2497 1478 
L 709 1478 
Q 709 825 903 519 
Q 1172 91 1625 91 
Q 1688 91 1763 103 
Q 1838 116 1991 170 
Q 2144 225 2278 372 
Q 2413 519 2491 750 
Q 2509 841 2572 838 
Q 2656 838 2656 763 
Q 2656 706 2595 579 
Q 2534 453 2418 303 
Q 2303 153 2079 40 
Q 1856 -72 1588 -72 
Q 1025 -72 601 354 
Q 178 781 178 1409 
z
M 716 1613 
L 2234 1613 
Q 2234 1747 2211 1897 
Q 2188 2047 2120 2255 
Q 2053 2463 1897 2594 
Q 1741 2725 1509 2725 
Q 1406 2725 1295 2681 
Q 1184 2638 1050 2531 
Q 916 2425 822 2184 
Q 728 1944 716 1613 
z
" transform="scale(0.015625)"/>
       <path id="CMUSerif-Roman-6d" d="M 206 0 
L 206 197 
Q 547 197 625 239 
Q 703 281 703 488 
L 703 2203 
Q 703 2441 620 2500 
Q 538 2559 206 2559 
L 206 2759 
L 1106 2828 
L 1106 2156 
Q 1406 2828 2053 2828 
Q 2803 2828 2906 2203 
Q 3016 2447 3245 2637 
Q 3475 2828 3834 2828 
Q 4316 2828 4506 2591 
Q 4647 2431 4675 2253 
Q 4703 2075 4703 1613 
L 4703 391 
Q 4709 256 4812 226 
Q 4916 197 5203 197 
L 5203 0 
Q 4550 19 4488 19 
Q 4438 19 3763 0 
L 3763 197 
Q 4103 197 4183 239 
Q 4263 281 4263 488 
L 4263 1978 
Q 4263 2303 4163 2495 
Q 4063 2688 3788 2688 
Q 3456 2688 3190 2409 
Q 2925 2131 2925 1663 
L 2925 488 
Q 2925 281 3004 239 
Q 3084 197 3425 197 
L 3425 0 
Q 2772 19 2706 19 
Q 2656 19 1984 0 
L 1984 197 
Q 2325 197 2404 239 
Q 2484 281 2484 488 
L 2484 1978 
Q 2484 2303 2384 2495 
Q 2284 2688 2009 2688 
Q 1678 2688 1412 2409 
Q 1147 2131 1147 1663 
L 1147 488 
Q 1147 281 1226 239 
Q 1306 197 1644 197 
L 1644 0 
Q 991 19 928 19 
Q 878 19 206 0 
z
" transform="scale(0.015625)"/>
       <path id="CMUSerif-Roman-70" d="M 178 -1044 
Q 519 -1044 598 -1001 
Q 678 -959 678 -756 
L 678 2241 
Q 678 2453 598 2506 
Q 519 2559 178 2559 
L 178 2759 
L 1100 2828 
L 1100 2406 
Q 1484 2828 1997 2828 
Q 2541 2828 2937 2406 
Q 3334 1984 3334 1381 
Q 3334 772 2912 350 
Q 2491 -72 1906 -72 
Q 1588 -72 1373 92 
Q 1159 256 1119 378 
L 1119 319 
L 1119 -756 
Q 1119 -963 1200 -1003 
Q 1281 -1044 1619 -1044 
L 1619 -1241 
Q 947 -1222 897 -1222 
Q 834 -1222 178 -1241 
L 178 -1044 
z
M 1119 728 
Q 1119 631 1133 597 
Q 1147 563 1209 459 
Q 1463 72 1875 72 
Q 1878 72 1881 72 
Q 2247 72 2525 445 
Q 2803 819 2803 1381 
Q 2803 1919 2550 2294 
Q 2297 2669 1947 2669 
Q 1697 2669 1478 2534 
Q 1259 2400 1119 2156 
L 1119 728 
z
" transform="scale(0.015625)"/>
       <path id="CMUSerif-Roman-74" d="M 122 2559 
L 122 2700 
Q 416 2713 611 2920 
Q 806 3128 873 3384 
Q 941 3641 947 3938 
L 1106 3938 
L 1106 2759 
L 2022 2759 
L 2022 2559 
L 1106 2559 
L 1106 781 
Q 1106 91 1538 91 
Q 1722 91 1844 280 
Q 1966 469 1966 806 
L 1966 1159 
L 2125 1159 
L 2125 794 
Q 2125 447 1965 187 
Q 1806 -72 1491 -72 
Q 1375 -72 1261 -42 
Q 1147 -13 998 64 
Q 850 141 758 330 
Q 666 519 666 794 
L 666 2559 
L 122 2559 
z
" transform="scale(0.015625)"/>
       <path id="CMUSerif-Roman-75" d="M 206 2559 
L 206 2759 
L 1147 2828 
L 1147 703 
Q 1147 550 1159 461 
Q 1172 372 1223 269 
Q 1275 166 1395 119 
Q 1516 72 1709 72 
Q 2056 72 2270 356 
Q 2484 641 2484 1063 
L 2484 2203 
Q 2484 2441 2400 2500 
Q 2316 2559 1984 2559 
L 1984 2759 
L 2925 2828 
L 2925 556 
Q 2925 319 3008 258 
Q 3091 197 3425 197 
L 3425 0 
L 2503 -72 
L 2503 506 
Q 2234 -69 1678 -72 
Q 1397 -72 1205 0 
Q 1013 72 916 161 
Q 819 250 767 422 
Q 716 594 709 700 
Q 703 806 703 1013 
L 703 1972 
Q 703 2406 640 2482 
Q 578 2559 206 2559 
z
" transform="scale(0.015625)"/>
       <path id="CMUSerif-Roman-5b" d="M 666 -1600 
L 666 4800 
L 1631 4800 
L 1631 4653 
L 1094 4653 
L 1094 -1453 
L 1631 -1453 
L 1631 -1600 
L 666 -1600 
z
" transform="scale(0.015625)"/>
       <path id="CMUSerif-Roman-b0" d="M 353 3659 
Q 353 3953 561 4162 
Q 769 4372 1063 4372 
Q 1363 4372 1567 4161 
Q 1772 3950 1772 3669 
Q 1772 3375 1561 3165 
Q 1350 2956 1063 2956 
Q 763 2956 558 3167 
Q 353 3378 353 3659 
z
M 743 3984 
Q 609 3853 609 3661 
Q 609 3469 743 3341 
Q 878 3213 1062 3213 
Q 1247 3213 1378 3341 
Q 1509 3469 1509 3661 
Q 1509 3853 1375 3984 
Q 1241 4116 1063 4116 
Q 878 4116 743 3984 
z
" transform="scale(0.015625)"/>
       <path id="CMUSerif-Roman-43" d="M 359 2188 
Q 359 3153 1018 3833 
Q 1678 4513 2584 4513 
Q 2866 4513 3116 4409 
Q 3366 4306 3481 4217 
Q 3597 4128 3763 3963 
L 4084 4434 
Q 4134 4513 4186 4513 
Q 4238 4513 4247 4483 
Q 4256 4453 4256 4359 
L 4256 2841 
Q 4256 2738 4243 2713 
Q 4231 2688 4153 2688 
Q 4091 2688 4077 2706 
Q 4063 2725 4050 2797 
Q 3953 3488 3570 3900 
Q 3188 4313 2656 4313 
Q 2503 4313 2333 4278 
Q 2163 4244 1917 4112 
Q 1672 3981 1483 3764 
Q 1294 3547 1156 3136 
Q 1019 2725 1019 2181 
Q 1019 1644 1156 1231 
Q 1294 819 1483 605 
Q 1672 391 1917 259 
Q 2163 128 2336 92 
Q 2509 56 2663 56 
Q 3213 56 3634 447 
Q 4056 838 4097 1497 
Q 4103 1528 4103 1542 
Q 4103 1556 4109 1572 
Q 4116 1588 4131 1594 
Q 4147 1600 4172 1600 
Q 4256 1600 4256 1491 
Q 4256 881 3789 370 
Q 3322 -141 2584 -141 
Q 1675 -141 1017 534 
Q 359 1209 359 2188 
z
" transform="scale(0.015625)"/>
       <path id="CMUSerif-Roman-5d" d="M 134 -1453 
L 672 -1453 
L 672 4653 
L 134 4653 
L 134 4800 
L 1100 4800 
L 1100 -1600 
L 134 -1600 
L 134 -1453 
z
" transform="scale(0.015625)"/>
      </defs>
      <use xlink:href="#CMUSerif-Roman-54"/>
      <use xlink:href="#CMUSerif-Roman-65" x="72.167969"/>
      <use xlink:href="#CMUSerif-Roman-6d" x="116.552734"/>
      <use xlink:href="#CMUSerif-Roman-70" x="199.804688"/>
      <use xlink:href="#CMUSerif-Roman-65" x="255.273438"/>
      <use xlink:href="#CMUSerif-Roman-72" x="299.658203"/>
      <use xlink:href="#CMUSerif-Roman-61" x="338.720703"/>
      <use xlink:href="#CMUSerif-Roman-74" x="388.720703"/>
      <use xlink:href="#CMUSerif-Roman-75" x="427.490234"/>
      <use xlink:href="#CMUSerif-Roman-72" x="482.958984"/>
      <use xlink:href="#CMUSerif-Roman-65" x="522.021484"/>
      <use xlink:href="#CMUSerif-Roman-20" x="566.40625"/>
      <use xlink:href="#CMUSerif-Roman-5b" x="599.658203"/>
      <use xlink:href="#CMUSerif-Roman-b0" x="627.441406"/>
      <use xlink:href="#CMUSerif-Roman-43" x="660.693359"/>
      <use xlink:href="#CMUSerif-Roman-5d" x="732.861328"/>
     </g>
    </g>
   </g>
   <g id="line2d_28">
    <path d="M 81.361477 37.553636 
L 100.360747 59.909397 
L 119.360016 84.394278 
L 138.359286 104.620919 
L 157.358555 120.589319 
L 176.357825 138.68684 
L 195.357094 117.395639 
L 214.356364 93.975318 
L 233.355633 89.717078 
L 252.354903 87.587958 
L 271.354172 70.554998 
L 290.353442 148.26788 
L 309.352711 179.140122 
L 328.351981 151.461561 
L 347.35125 96.104439 
L 366.350519 108.879159 
L 385.349789 139.7514 
L 404.349058 128.04124 
L 423.348328 153.590681 
L 442.347597 104.620919 
L 461.346867 91.846198 
L 480.346136 89.717078 
L 499.345406 123.783 
L 518.344675 105.685479 
L 537.343945 85.458838 
L 556.343214 70.554998 
L 575.342484 59.909397 
L 594.341753 108.879159 
L 613.341023 184.462922 
" clip-path="url(#p50cae5ecea)" style="fill: none; stroke: #b45f5f; stroke-width: 2; stroke-linecap: square"/>
   </g>
   <g id="line2d_29">
    <path d="M 81.361477 120.589319 
L 100.360747 132.29948 
L 119.360016 145.0742 
L 138.359286 151.461561 
L 157.358555 159.978041 
L 176.357825 179.140122 
L 195.357094 172.752761 
L 214.356364 156.784361 
L 233.355633 144.00964 
L 252.354903 137.62228 
L 271.354172 125.91212 
L 290.353442 155.719801 
L 309.352711 199.366762 
L 328.351981 199.366762 
L 347.35125 159.978041 
L 366.350519 159.978041 
L 385.349789 174.881881 
L 404.349058 168.494521 
L 423.348328 178.075561 
L 442.347597 163.171721 
L 461.346867 161.042601 
L 480.346136 145.0742 
L 499.345406 157.848921 
L 518.344675 152.526121 
L 537.343945 147.20332 
L 556.343214 132.29948 
L 575.342484 134.4286 
L 594.341753 152.526121 
" clip-path="url(#p50cae5ecea)" style="fill: none; stroke: #40b062; stroke-width: 2; stroke-linecap: square"/>
   </g>
   <g id="line2d_30">
    <path d="M 81.361477 182.333802 
L 100.360747 190.850282 
L 119.360016 205.754123 
L 138.359286 200.431322 
L 157.358555 190.850282 
L 176.357825 208.947803 
L 195.357094 223.851643 
L 214.356364 216.399723 
L 233.355633 194.043962 
L 252.354903 192.979402 
L 271.354172 177.011001 
L 290.353442 175.946441 
L 309.352711 221.722523 
L 328.351981 236.626364 
L 347.35125 219.593403 
L 366.350519 218.528843 
L 385.349789 223.851643 
L 404.349058 196.173082 
L 423.348328 207.883243 
L 442.347597 217.464283 
L 461.346867 235.561804 
L 480.346136 213.206043 
L 499.345406 182.333802 
L 518.344675 205.754123 
L 537.343945 231.303563 
L 556.343214 194.043962 
L 575.342484 196.173082 
L 594.341753 184.462922 
L 613.341023 191.914842 
" clip-path="url(#p50cae5ecea)" style="fill: none; stroke: #4062b0; stroke-width: 2; stroke-linecap: square"/>
   </g>
   <g id="patch_3">
    <path d="M 54.7625 246.58 
L 54.7625 27.6 
" style="fill: none; stroke: #000000; stroke-width: 0.8; stroke-linejoin: miter; stroke-linecap: square"/>
   </g>
   <g id="patch_4">
    <path d="M 639.94 246.58 
L 639.94 27.6 
" style="fill: none; stroke: #000000; stroke-width: 0.8; stroke-linejoin: miter; stroke-linecap: square"/>
   </g>
   <g id="patch_5">
    <path d="M 54.7625 246.58 
L 639.94 246.58 
" style="fill: none; stroke: #000000; stroke-width: 0.8; stroke-linejoin: miter; stroke-linecap: square"/>
   </g>
   <g id="patch_6">
    <path d="M 54.7625 27.6 
L 639.94 27.6 
" style="fill: none; stroke: #000000; stroke-width: 0.8; stroke-linejoin: miter; stroke-linecap: square"/>
   </g>
   <g id="text_21">
    <!-- Temperature vs Time -->
    <g transform="translate(264.916875 21.6) scale(0.15 -0.15)">
     <defs>
      <path id="CMUSerif-Bold-54" d="M 269 2778 
L 403 4319 
L 4709 4319 
L 4844 2778 
L 4544 2778 
Q 4519 3047 4500 3190 
Q 4481 3334 4414 3523 
Q 4347 3713 4244 3802 
Q 4141 3891 3955 3955 
Q 3769 4019 3500 4019 
L 3016 4019 
L 3016 300 
L 3994 300 
L 3994 0 
Q 3647 19 2559 19 
Q 1472 19 1125 0 
L 1125 300 
L 2106 300 
L 2106 4019 
L 1613 4019 
Q 1344 4019 1155 3951 
Q 966 3884 864 3795 
Q 763 3706 698 3520 
Q 634 3334 611 3190 
Q 588 3047 569 2778 
L 269 2778 
z
" transform="scale(0.015625)"/>
      <path id="CMUSerif-Bold-65" d="M 206 1441 
Q 206 2069 625 2484 
Q 1044 2900 1784 2900 
Q 2444 2900 2803 2553 
Q 3163 2194 3163 1569 
Q 3163 1447 3120 1420 
Q 3078 1394 2956 1394 
L 1025 1394 
Q 1025 219 1925 219 
Q 1928 219 1931 219 
Q 2244 219 2495 359 
Q 2747 500 2847 728 
Q 2878 813 2904 838 
Q 2931 863 3009 863 
Q 3163 863 3163 750 
Q 3163 706 3127 625 
Q 3091 544 2998 425 
Q 2906 306 2768 204 
Q 2631 103 2397 32 
Q 2163 -38 1875 -38 
Q 1113 -38 659 375 
Q 206 788 206 1441 
z
M 1025 1606 
L 2553 1606 
Q 2522 2669 1784 2669 
Q 1394 2669 1178 2338 
Q 1050 2138 1025 1606 
z
" transform="scale(0.015625)"/>
      <path id="CMUSerif-Bold-6d" d="M 288 0 
L 288 300 
L 728 300 
L 728 2278 
Q 728 2456 661 2492 
Q 594 2528 288 2528 
L 288 2828 
L 1388 2881 
L 1388 2188 
Q 1741 2878 2516 2881 
Q 3341 2881 3475 2266 
Q 3822 2881 4556 2881 
Q 5063 2881 5303 2662 
Q 5544 2444 5544 1959 
L 5544 300 
L 5984 300 
L 5984 0 
Q 5447 19 5178 19 
Q 4909 19 4372 0 
L 4372 300 
L 4813 300 
L 4813 2028 
Q 4813 2381 4723 2515 
Q 4634 2650 4453 2650 
Q 4106 2650 3803 2384 
Q 3500 2119 3500 1638 
L 3500 300 
L 3944 300 
L 3944 0 
Q 3406 19 3137 19 
Q 2869 19 2328 0 
L 2328 300 
L 2772 300 
L 2772 2028 
Q 2772 2381 2681 2515 
Q 2591 2650 2413 2650 
Q 2066 2650 1762 2384 
Q 1459 2119 1459 1638 
L 1459 300 
L 1900 300 
L 1900 0 
Q 1363 19 1094 19 
Q 825 19 288 0 
z
" transform="scale(0.015625)"/>
      <path id="CMUSerif-Bold-70" d="M 238 -941 
L 678 -941 
L 678 2284 
Q 678 2463 611 2495 
Q 544 2528 238 2528 
L 238 2828 
L 1369 2881 
L 1369 2566 
Q 1772 2878 2338 2881 
Q 3022 2881 3431 2478 
Q 3841 2075 3841 1428 
Q 3841 763 3395 362 
Q 2950 -38 2228 -38 
Q 1759 -38 1409 250 
L 1409 -941 
L 1850 -941 
L 1850 -1241 
Q 1313 -1222 1044 -1222 
Q 775 -1222 238 -1241 
L 238 -941 
z
M 1409 750 
Q 1409 653 1418 628 
Q 1428 603 1478 538 
Q 1766 191 2156 191 
Q 2509 191 2765 495 
Q 3022 800 3022 1428 
Q 3022 2003 2797 2314 
Q 2572 2625 2234 2625 
Q 1800 2625 1503 2322 
Q 1431 2250 1420 2222 
Q 1409 2194 1409 2106 
L 1409 750 
z
" transform="scale(0.015625)"/>
      <path id="CMUSerif-Bold-74" d="M 134 2541 
L 134 2772 
Q 581 2784 831 3165 
Q 1081 3547 1088 4063 
L 1388 4063 
L 1388 2841 
L 2322 2841 
L 2322 2541 
L 1388 2541 
L 1388 775 
Q 1388 219 1759 219 
Q 1913 219 2028 362 
Q 2144 506 2144 806 
L 2144 1131 
L 2444 1131 
L 2444 794 
Q 2444 434 2236 198 
Q 2028 -38 1672 -38 
Q 659 -38 659 788 
L 659 2541 
L 134 2541 
z
" transform="scale(0.015625)"/>
      <path id="CMUSerif-Bold-75" d="M 288 2528 
L 288 2828 
L 1459 2881 
L 1459 697 
Q 1459 403 1542 297 
Q 1625 191 1972 191 
Q 2325 191 2545 428 
Q 2766 666 2766 1056 
L 2766 2278 
Q 2766 2456 2698 2492 
Q 2631 2528 2322 2528 
L 2322 2828 
L 3494 2881 
L 3494 550 
Q 3494 372 3561 336 
Q 3628 300 3938 300 
L 3938 0 
L 2803 -38 
L 2803 459 
Q 2513 -38 1888 -38 
Q 1884 -38 1881 -38 
Q 1338 -38 1033 137 
Q 728 313 728 788 
L 728 2278 
Q 728 2456 661 2492 
Q 594 2528 288 2528 
z
" transform="scale(0.015625)"/>
      <path id="CMUSerif-Bold-20" transform="scale(0.015625)"/>
      <path id="CMUSerif-Bold-76" d="M 166 2541 
L 166 2841 
Q 228 2841 511 2831 
Q 794 2822 897 2822 
Q 1372 2822 1691 2841 
L 1691 2541 
L 1344 2541 
L 2156 794 
L 2900 2394 
Q 2931 2456 2931 2472 
Q 2931 2541 2650 2541 
Q 2638 2541 2625 2541 
L 2625 2841 
Q 3028 2822 3206 2822 
Q 3469 2822 3713 2841 
L 3713 2541 
Q 3431 2541 3351 2512 
Q 3272 2484 3238 2406 
L 2175 128 
Q 2103 -25 1937 -25 
Q 1772 -25 1697 134 
L 575 2541 
L 166 2541 
z
" transform="scale(0.015625)"/>
      <path id="CMUSerif-Bold-73" d="M 244 141 
L 244 838 
Q 244 959 266 992 
Q 288 1025 397 1025 
Q 475 1025 503 1011 
Q 531 997 550 934 
Q 588 800 636 697 
Q 684 594 784 462 
Q 884 331 1059 261 
Q 1234 191 1472 191 
Q 2200 191 2203 672 
Q 2203 806 2131 901 
Q 2059 997 1925 1051 
Q 1791 1106 1705 1129 
Q 1619 1153 1491 1172 
Q 1178 1228 1056 1254 
Q 934 1281 778 1348 
Q 622 1416 500 1522 
Q 244 1741 244 2059 
Q 244 2256 314 2411 
Q 384 2566 509 2653 
Q 634 2741 756 2794 
Q 878 2847 1034 2867 
Q 1191 2888 1264 2894 
Q 1338 2900 1422 2900 
Q 1825 2900 2069 2778 
Q 2319 2900 2356 2900 
Q 2434 2900 2453 2864 
Q 2472 2828 2472 2719 
L 2472 2209 
Q 2472 2088 2448 2058 
Q 2425 2028 2316 2028 
Q 2219 2028 2197 2054 
Q 2175 2081 2169 2156 
Q 2119 2694 1416 2694 
Q 700 2694 697 2297 
Q 697 2188 758 2111 
Q 819 2034 944 1990 
Q 1069 1947 1139 1926 
Q 1209 1906 1350 1881 
Q 1766 1809 1948 1756 
Q 2131 1703 2303 1575 
Q 2656 1294 2656 897 
Q 2656 672 2586 501 
Q 2516 331 2391 236 
Q 2266 141 2144 80 
Q 2022 19 1862 -3 
Q 1703 -25 1633 -31 
Q 1563 -38 1472 -38 
Q 1013 -38 716 166 
L 550 56 
Q 419 -38 363 -38 
Q 363 -38 359 -38 
Q 281 -38 262 0 
Q 244 38 244 141 
z
" transform="scale(0.015625)"/>
      <path id="CMUSerif-Bold-69" d="M 300 0 
L 300 300 
L 744 300 
L 744 2278 
Q 744 2456 680 2492 
Q 616 2528 319 2528 
L 319 2828 
L 1434 2881 
L 1434 300 
L 1831 300 
L 1831 0 
Q 1141 19 1081 19 
Q 894 19 300 0 
z
M 644 3597 
Q 500 3744 500 3948 
Q 500 4153 644 4300 
Q 788 4447 1000 4447 
Q 1206 4447 1353 4300 
Q 1500 4153 1500 3948 
Q 1500 3744 1351 3597 
Q 1203 3450 1000 3450 
Q 788 3450 644 3597 
z
" transform="scale(0.015625)"/>
     </defs>
     <use xlink:href="#CMUSerif-Bold-54"/>
     <use xlink:href="#CMUSerif-Bold-65" x="79.980469"/>
     <use xlink:href="#CMUSerif-Bold-6d" x="132.666016"/>
     <use xlink:href="#CMUSerif-Bold-70" x="228.417969"/>
     <use xlink:href="#CMUSerif-Bold-65" x="292.1875"/>
     <use xlink:href="#CMUSerif-Bold-72" x="344.873047"/>
     <use xlink:href="#CMUSerif-Bold-61" x="392.138672"/>
     <use xlink:href="#CMUSerif-Bold-74" x="447.998047"/>
     <use xlink:href="#CMUSerif-Bold-75" x="492.675781"/>
     <use xlink:href="#CMUSerif-Bold-72" x="556.445312"/>
     <use xlink:href="#CMUSerif-Bold-65" x="603.710938"/>
     <use xlink:href="#CMUSerif-Bold-20" x="656.396484"/>
     <use xlink:href="#CMUSerif-Bold-76" x="694.677734"/>
     <use xlink:href="#CMUSerif-Bold-73" x="755.273438"/>
     <use xlink:href="#CMUSerif-Bold-20" x="800.537109"/>
     <use xlink:href="#CMUSerif-Bold-54" x="838.818359"/>
     <use xlink:href="#CMUSerif-Bold-69" x="918.798828"/>
     <use xlink:href="#CMUSerif-Bold-6d" x="950.683594"/>
     <use xlink:href="#CMUSerif-Bold-65" x="1046.435547"/>
    </g>
   </g>
   <g id="legend_1">
    <g id="patch_7">
     <path d="M 646.94 250.998594 
L 707.079062 250.998594 
Q 709.079062 250.998594 709.079062 248.998594 
L 709.079062 25.181406 
Q 709.079062 23.181406 707.079062 23.181406 
L 646.94 23.181406 
Q 644.94 23.181406 644.94 25.181406 
L 644.94 248.998594 
Q 644.94 250.998594 646.94 250.998594 
z
" style="fill: #ffffff; opacity: 0.8; stroke: #cccccc; stroke-linejoin: miter"/>
    </g>
    <g id="line2d_31">
     <path d="M 648.94 30.681406 
L 658.94 30.681406 
L 668.94 30.681406 
" style="fill: none; stroke: #b45f5f; stroke-width: 2; stroke-linecap: square"/>
    </g>
    <g id="text_22">
     <!-- Max -->
     <g transform="translate(676.94 34.181406) scale(0.1 -0.1)">
      <defs>
       <path id="CMUSerif-Bold-78" d="M 141 0 
L 141 300 
Q 338 300 431 303 
Q 525 306 631 336 
Q 738 366 788 422 
L 1625 1363 
L 628 2541 
L 172 2541 
L 172 2841 
Q 806 2822 878 2822 
Q 1153 2822 1650 2841 
L 1650 2541 
L 1394 2541 
L 2022 1806 
L 2559 2406 
L 2613 2484 
Q 2516 2541 2369 2541 
L 2369 2841 
Q 2906 2822 3028 2822 
Q 3278 2822 3616 2841 
L 3616 2541 
Q 3359 2541 3225 2525 
Q 3091 2509 3053 2486 
Q 3016 2463 2963 2406 
L 2216 1575 
L 3291 300 
L 3744 300 
L 3744 0 
Q 3109 19 3041 19 
Q 2772 19 2272 0 
L 2272 300 
L 2522 300 
L 1819 1131 
L 1197 434 
Q 1153 384 1153 372 
Q 1153 300 1388 300 
L 1388 0 
Q 1003 19 728 19 
Q 472 19 141 0 
z
" transform="scale(0.015625)"/>
      </defs>
      <use xlink:href="#CMUSerif-Bold-4d"/>
      <use xlink:href="#CMUSerif-Bold-61" x="109.082031"/>
      <use xlink:href="#CMUSerif-Bold-78" x="164.941406"/>
     </g>
    </g>
    <g id="line2d_32">
     <path d="M 648.94 136.120469 
L 658.94 136.120469 
L 668.94 136.120469 
" style="fill: none; stroke: #40b062; stroke-width: 2; stroke-linecap: square"/>
    </g>
    <g id="text_23">
     <!-- Mean -->
     <g transform="translate(676.94 139.620469) scale(0.1 -0.1)">
      <defs>
       <path id="CMUSerif-Bold-6e" d="M 288 0 
L 288 300 
L 728 300 
L 728 2278 
Q 728 2456 661 2492 
Q 594 2528 288 2528 
L 288 2828 
L 1388 2881 
L 1388 2188 
Q 1741 2878 2509 2881 
Q 3003 2881 3248 2665 
Q 3494 2450 3494 1959 
L 3494 300 
L 3938 300 
L 3938 0 
Q 3400 19 3129 19 
Q 2859 19 2322 0 
L 2322 300 
L 2766 300 
L 2766 2028 
Q 2766 2375 2675 2512 
Q 2584 2650 2413 2650 
Q 2059 2650 1759 2384 
Q 1459 2119 1459 1638 
L 1459 300 
L 1900 300 
L 1900 0 
Q 1363 19 1094 19 
Q 825 19 288 0 
z
" transform="scale(0.015625)"/>
      </defs>
      <use xlink:href="#CMUSerif-Bold-4d"/>
      <use xlink:href="#CMUSerif-Bold-65" x="109.082031"/>
      <use xlink:href="#CMUSerif-Bold-61" x="161.767578"/>
      <use xlink:href="#CMUSerif-Bold-6e" x="217.626953"/>
     </g>
    </g>
    <g id="line2d_33">
     <path d="M 648.94 241.559531 
L 658.94 241.559531 
L 668.94 241.559531 
" style="fill: none; stroke: #4062b0; stroke-width: 2; stroke-linecap: square"/>
    </g>
    <g id="text_24">
     <!-- Min -->
     <g transform="translate(676.94 245.059531) scale(0.1 -0.1)">
      <use xlink:href="#CMUSerif-Bold-4d"/>
      <use xlink:href="#CMUSerif-Bold-69" x="109.082031"/>
      <use xlink:href="#CMUSerif-Bold-6e" x="140.966797"/>
     </g>
    </g>
   </g>
  </g>
 </g>
 <defs>
  <clipPath id="p50cae5ecea">
   <rect x="54.7625" y="27.6" width="585.1775" height="218.98"/>
  </clipPath>
 </defs>
</svg>
