<?xml version="1.0" encoding="utf-8" standalone="no"?>
<!DOCTYPE svg PUBLIC "-//W3C//DTD SVG 1.1//EN"
  "http://www.w3.org/Graphics/SVG/1.1/DTD/svg11.dtd">
<svg xmlns:xlink="http://www.w3.org/1999/xlink" width="460.8pt" height="345.6pt" viewBox="0 0 460.8 345.6" xmlns="http://www.w3.org/2000/svg" version="1.1">
 <metadata>
  <rdf:RDF xmlns:dc="http://purl.org/dc/elements/1.1/" xmlns:cc="http://creativecommons.org/ns#" xmlns:rdf="http://www.w3.org/1999/02/22-rdf-syntax-ns#">
   <cc:Work>
    <dc:type rdf:resource="http://purl.org/dc/dcmitype/StillImage"/>
    <dc:date>2023-04-04T14:10:14.400696</dc:date>
    <dc:format>image/svg+xml</dc:format>
    <dc:creator>
     <cc:Agent>
      <dc:title>Matplotlib v3.7.1, https://matplotlib.org/</dc:title>
     </cc:Agent>
    </dc:creator>
   </cc:Work>
  </rdf:RDF>
 </metadata>
 <defs>
  <style type="text/css">*{stroke-linejoin: round; stroke-linecap: butt}</style>
 </defs>
 <g id="figure_1">
  <g id="patch_1">
   <path d="M 0 345.6 
L 460.8 345.6 
L 460.8 0 
L 0 0 
z
" style="fill: #ffffff"/>
  </g>
  <g id="axes_1">
   <g id="patch_2">
    <path d="M 234.031104 70.212096 
C 225.764856 70.212096 217.526674 71.175001 209.483244 73.081329 
C 201.439814 74.987657 193.645754 77.824463 186.258765 81.534348 
L 234.031104 176.656896 
z
" style="fill: #092436; opacity: 0.5; stroke: #092436; stroke-linejoin: miter"/>
   </g>
   <g id="patch_3">
    <path d="M 175.632293 80.915427 
C 158.936041 89.3006 144.73809 101.935704 134.471299 117.545603 
C 124.204507 133.155502 118.226273 151.196799 117.13992 169.848764 
C 116.053568 188.500729 119.896914 207.114067 128.282087 223.810319 
C 136.667261 240.50657 149.302366 254.704521 164.912265 264.971312 
L 223.404633 176.037975 
z
" style="fill: #4c2604; opacity: 0.5; stroke: #4c2604; stroke-linejoin: miter"/>
   </g>
   <g id="patch_4">
    <path d="M 175.538737 265.590233 
C 196.442226 279.338672 221.538271 285.286542 246.388599 282.381953 
C 271.238926 279.477365 294.286829 267.902271 311.456251 249.703744 
L 234.031104 176.656896 
z
" style="fill: #0d300d; opacity: 0.5; stroke: #0d300d; stroke-linejoin: miter"/>
   </g>
   <g id="patch_5">
    <path d="M 311.456251 249.703744 
C 328.625673 231.505217 338.841064 207.823274 340.295817 182.846102 
C 341.750569 157.86893 334.353553 133.161182 319.412941 113.092462 
L 234.031104 176.656896 
z
" style="fill: #400c0c; opacity: 0.5; stroke: #400c0c; stroke-linejoin: miter"/>
   </g>
   <g id="patch_6">
    <path d="M 319.412941 113.092462 
C 309.507245 99.786804 296.627057 88.979045 281.803434 81.534344 
C 266.979812 74.089643 250.619142 70.212094 234.031094 70.212096 
L 234.031104 176.656896 
z
" style="fill: #2c1f39; opacity: 0.5; stroke: #2c1f39; stroke-linejoin: miter"/>
   </g>
   <g id="patch_7">
    <path d="M 236.16 68.0832 
C 227.893752 68.0832 219.65557 69.046105 211.61214 70.952433 
C 203.56871 72.858761 195.77465 75.695567 188.387661 79.405452 
L 236.16 174.528 
z
" style="fill: #1f77b4"/>
   </g>
   <g id="patch_8">
    <path d="M 177.761189 78.786531 
C 161.064937 87.171704 146.866986 99.806808 136.600195 115.416707 
C 126.333403 131.026606 120.355169 149.067903 119.268816 167.719868 
C 118.182464 186.371833 122.02581 204.985171 130.410983 221.681423 
C 138.796157 238.377674 151.431262 252.575625 167.041161 262.842416 
L 225.533529 173.909079 
z
" style="fill: #ff7f0e"/>
   </g>
   <g id="patch_9">
    <path d="M 177.667633 263.461337 
C 198.571122 277.209776 223.667167 283.157646 248.517495 280.253057 
C 273.367822 277.348469 296.415725 265.773375 313.585147 247.574848 
L 236.16 174.528 
z
" style="fill: #2ca02c"/>
   </g>
   <g id="patch_10">
    <path d="M 313.585147 247.574848 
C 330.754569 229.376321 340.96996 205.694378 342.424713 180.717206 
C 343.879465 155.740034 336.482449 131.032286 321.541837 110.963566 
L 236.16 174.528 
z
" style="fill: #d62728"/>
   </g>
   <g id="patch_11">
    <path d="M 321.541837 110.963566 
C 311.636141 97.657908 298.755953 86.850149 283.93233 79.405448 
C 269.108708 71.960747 252.748038 68.083198 236.15999 68.0832 
L 236.16 174.528 
z
" style="fill: #9467bd"/>
   </g>
   <g id="matplotlib.axis_1"/>
   <g id="matplotlib.axis_2"/>
   <g id="text_1">
    <!-- Snow Fall -->
    <g transform="translate(159.343291 63.094877) scale(0.1 -0.1)">
     <defs>
      <path id="CMUSerif-Bold-53" d="M 409 109 
L 409 1275 
Q 409 1397 431 1428 
Q 453 1459 563 1459 
Q 613 1459 642 1453 
Q 672 1447 687 1428 
Q 703 1409 706 1386 
Q 709 1363 709 1313 
Q 728 981 892 747 
Q 1056 513 1309 409 
Q 1563 306 1780 268 
Q 1997 231 2222 231 
Q 2669 231 2861 461 
Q 3053 691 3053 978 
Q 3053 1278 2797 1538 
Q 2694 1634 2569 1671 
Q 2444 1709 1984 1813 
Q 1403 1941 1187 2023 
Q 972 2106 756 2322 
Q 409 2688 409 3175 
Q 409 3719 781 4089 
Q 1153 4459 1844 4459 
Q 2497 4459 2938 4109 
L 3225 4391 
Q 3300 4459 3350 4459 
Q 3350 4459 3353 4459 
Q 3431 4459 3450 4425 
Q 3469 4391 3469 4281 
L 3469 3109 
Q 3469 2994 3447 2962 
Q 3425 2931 3316 2931 
Q 3219 2931 3197 2953 
Q 3175 2975 3156 3097 
Q 3084 3506 2861 3762 
Q 2638 4019 2388 4101 
Q 2138 4184 1850 4184 
Q 1416 4184 1223 3976 
Q 1031 3769 1031 3513 
Q 1031 3244 1223 3072 
Q 1416 2900 1644 2847 
L 2572 2650 
Q 3031 2553 3353 2183 
Q 3675 1813 3675 1300 
Q 3675 750 3312 339 
Q 2950 -72 2222 -72 
Q 1416 -72 941 281 
L 647 -13 
Q 584 -69 525 -72 
Q 447 -72 428 -36 
Q 409 0 409 109 
z
" transform="scale(0.015625)"/>
      <path id="CMUSerif-Bold-6e" d="M 288 0 
L 288 300 
L 728 300 
L 728 2278 
Q 728 2456 661 2492 
Q 594 2528 288 2528 
L 288 2828 
L 1388 2881 
L 1388 2188 
Q 1741 2878 2509 2881 
Q 3003 2881 3248 2665 
Q 3494 2450 3494 1959 
L 3494 300 
L 3938 300 
L 3938 0 
Q 3400 19 3129 19 
Q 2859 19 2322 0 
L 2322 300 
L 2766 300 
L 2766 2028 
Q 2766 2375 2675 2512 
Q 2584 2650 2413 2650 
Q 2059 2650 1759 2384 
Q 1459 2119 1459 1638 
L 1459 300 
L 1900 300 
L 1900 0 
Q 1363 19 1094 19 
Q 825 19 288 0 
z
" transform="scale(0.015625)"/>
      <path id="CMUSerif-Bold-6f" d="M 206 1394 
Q 206 2053 637 2476 
Q 1069 2900 1838 2900 
Q 2600 2900 3034 2476 
Q 3469 2053 3469 1394 
Q 3469 772 3041 367 
Q 2613 -38 1838 -38 
Q 1063 -38 634 367 
Q 206 772 206 1394 
z
M 1025 1466 
Q 1025 1275 1028 1175 
Q 1031 1075 1053 898 
Q 1075 722 1126 626 
Q 1178 531 1264 422 
Q 1350 313 1494 266 
Q 1638 219 1836 219 
Q 2034 219 2178 266 
Q 2322 313 2409 422 
Q 2497 531 2547 626 
Q 2597 722 2620 898 
Q 2644 1075 2647 1175 
Q 2650 1275 2650 1466 
Q 2650 2125 2516 2344 
Q 2309 2669 1838 2669 
Q 1325 2669 1131 2297 
Q 1025 2081 1025 1466 
z
" transform="scale(0.015625)"/>
      <path id="CMUSerif-Bold-77" d="M 159 2541 
L 159 2841 
Q 813 2822 856 2822 
Q 1253 2822 1644 2841 
L 1644 2541 
L 1288 2541 
L 1959 891 
L 2463 2119 
Q 2488 2197 2491 2203 
Q 2491 2222 2356 2541 
L 1978 2541 
L 1978 2841 
Q 2284 2822 2619 2822 
Q 2734 2822 3347 2841 
L 3347 2541 
L 2988 2541 
L 3719 750 
L 4391 2388 
Q 4391 2394 4400 2409 
Q 4409 2425 4412 2440 
Q 4416 2456 4416 2463 
Q 4416 2541 4044 2541 
L 4044 2841 
Q 4466 2822 4659 2822 
Q 4928 2822 5153 2841 
L 5153 2541 
Q 4975 2541 4881 2522 
Q 4788 2503 4763 2479 
Q 4738 2456 4716 2406 
L 3794 147 
Q 3769 75 3750 47 
Q 3731 19 3686 -3 
Q 3641 -25 3566 -25 
Q 3456 -25 3414 12 
Q 3372 50 3334 147 
L 2656 1806 
L 1978 147 
Q 1953 75 1933 47 
Q 1913 19 1869 -3 
Q 1825 -25 1747 -25 
Q 1638 -25 1597 12 
Q 1556 50 1516 147 
L 538 2541 
L 159 2541 
z
" transform="scale(0.015625)"/>
      <path id="CMUSerif-Bold-20" transform="scale(0.015625)"/>
      <path id="CMUSerif-Bold-46" d="M 250 0 
L 250 300 
L 941 300 
L 941 4050 
L 250 4050 
L 250 4353 
L 4122 4353 
L 4319 2809 
L 4019 2809 
Q 3988 3066 3948 3228 
Q 3909 3391 3826 3564 
Q 3744 3738 3612 3833 
Q 3481 3928 3264 3989 
Q 3047 4050 2747 4050 
L 1850 4050 
L 1850 2328 
L 2169 2328 
Q 2597 2328 2719 2501 
Q 2841 2675 2841 3078 
L 3144 3078 
L 3144 1281 
L 2841 1281 
Q 2841 1684 2719 1856 
Q 2597 2028 2169 2028 
L 1850 2028 
L 1850 300 
L 2713 300 
L 2713 0 
Q 2431 19 1422 19 
Q 494 19 250 0 
z
" transform="scale(0.015625)"/>
      <path id="CMUSerif-Bold-61" d="M 206 691 
Q 206 1606 2284 1697 
L 2284 1913 
Q 2284 2669 1581 2669 
Q 1331 2669 1119 2625 
Q 1259 2528 1259 2309 
Q 1259 2119 1139 2012 
Q 1019 1906 856 1906 
Q 709 1906 584 2012 
Q 459 2119 459 2309 
Q 459 2897 1606 2900 
Q 2297 2900 2656 2631 
Q 3016 2363 3016 1913 
L 3016 538 
Q 3016 447 3028 409 
Q 3041 372 3130 336 
Q 3219 300 3406 300 
Q 3463 300 3488 294 
Q 3513 288 3542 256 
Q 3572 225 3572 153 
Q 3572 50 3526 25 
Q 3481 0 3366 0 
L 3059 0 
Q 2822 0 2675 45 
Q 2528 91 2473 180 
Q 2419 269 2406 330 
Q 2394 391 2394 494 
Q 2119 -38 1441 -38 
Q 1250 -38 1056 -9 
Q 863 19 658 92 
Q 453 166 329 319 
Q 206 472 206 691 
z
M 953 697 
Q 953 484 1123 337 
Q 1294 191 1538 191 
Q 1622 191 1726 217 
Q 1831 244 1968 308 
Q 2106 372 2195 525 
Q 2284 678 2284 891 
L 2284 1497 
Q 2144 1491 2019 1475 
Q 1894 1459 1683 1404 
Q 1472 1350 1325 1273 
Q 1178 1197 1065 1045 
Q 953 894 953 697 
z
" transform="scale(0.015625)"/>
      <path id="CMUSerif-Bold-6c" d="M 300 0 
L 300 300 
L 744 300 
L 744 3841 
Q 744 4019 676 4055 
Q 609 4091 300 4091 
L 300 4391 
L 1434 4441 
L 1434 300 
L 1875 300 
L 1875 0 
Q 1222 19 1088 19 
Q 916 19 300 0 
z
" transform="scale(0.015625)"/>
     </defs>
     <use xlink:href="#CMUSerif-Bold-53"/>
     <use xlink:href="#CMUSerif-Bold-6e" x="63.769531"/>
     <use xlink:href="#CMUSerif-Bold-6f" x="127.539062"/>
     <use xlink:href="#CMUSerif-Bold-77" x="185.009766"/>
     <use xlink:href="#CMUSerif-Bold-20" x="267.96875"/>
     <use xlink:href="#CMUSerif-Bold-46" x="306.25"/>
     <use xlink:href="#CMUSerif-Bold-61" x="378.515625"/>
     <use xlink:href="#CMUSerif-Bold-6c" x="434.375"/>
     <use xlink:href="#CMUSerif-Bold-6c" x="466.259766"/>
    </g>
   </g>
   <g id="text_2">
    <!-- 7.4% -->
    <g transform="translate(209.302377 114.88266) scale(0.1 -0.1)">
     <defs>
      <path id="CMUSerif-Bold-37" d="M 409 2700 
L 634 4325 
L 934 4325 
Q 941 4281 950 4262 
Q 959 4244 992 4217 
Q 1025 4191 1088 4178 
Q 1144 4159 1628 4140 
Q 2113 4122 2266 4122 
L 3572 4122 
Q 3572 3950 3562 3908 
Q 3553 3866 3506 3816 
L 2516 2663 
Q 2191 2284 2100 1594 
Q 2038 1166 2034 678 
L 2034 384 
Q 2034 194 1948 81 
Q 1863 -31 1786 -51 
Q 1709 -72 1631 -72 
Q 1606 -72 1575 -67 
Q 1544 -63 1476 -41 
Q 1409 -19 1361 26 
Q 1313 72 1273 161 
Q 1234 250 1234 378 
Q 1234 1653 2309 2906 
L 2663 3322 
L 1581 3322 
Q 953 3322 884 3284 
Q 781 3234 709 2700 
L 409 2700 
z
" transform="scale(0.015625)"/>
      <path id="CMUSerif-Bold-2e" d="M 519 500 
Q 519 719 672 858 
Q 825 997 1019 997 
Q 1216 997 1366 853 
Q 1516 709 1516 500 
Q 1516 309 1372 154 
Q 1228 0 1019 0 
Q 822 0 670 144 
Q 519 288 519 500 
z
" transform="scale(0.015625)"/>
      <path id="CMUSerif-Bold-34" d="M 206 997 
L 206 1300 
L 2438 4097 
Q 2494 4169 2526 4183 
Q 2559 4197 2656 4197 
Q 2784 4197 2815 4162 
Q 2847 4128 2847 3994 
L 2847 1300 
L 3469 1300 
L 3469 997 
L 2847 997 
L 2847 300 
L 3469 300 
L 3469 0 
Q 3244 19 2431 19 
Q 1575 19 1331 0 
L 1331 300 
L 2047 300 
L 2047 997 
L 206 997 
z
M 538 1300 
L 2119 1300 
L 2119 3284 
L 538 1300 
z
" transform="scale(0.015625)"/>
      <path id="CMUSerif-Bold-25" d="M 409 3513 
Q 409 4141 736 4470 
Q 1063 4800 1509 4800 
Q 1778 4800 2009 4634 
Q 2706 4122 3456 4122 
Q 4244 4122 4716 4678 
Q 4813 4800 4909 4800 
Q 4981 4800 5040 4745 
Q 5100 4691 5100 4603 
Q 5100 4541 5031 4447 
L 1388 -256 
Q 1316 -359 1222 -359 
Q 1138 -359 1081 -301 
Q 1025 -244 1025 -159 
Q 1025 -69 1094 0 
L 4213 4031 
Q 3859 3891 3463 3891 
Q 2931 3891 2356 4153 
Q 2453 3853 2450 3506 
Q 2450 2866 2175 2544 
Q 1900 2222 1509 2222 
Q 1069 2222 739 2544 
Q 409 2866 409 3513 
z
M 1069 3506 
Q 1069 3341 1072 3242 
Q 1075 3144 1097 2970 
Q 1119 2797 1164 2701 
Q 1209 2606 1301 2528 
Q 1394 2450 1522 2450 
Q 1759 2450 1954 2700 
Q 2150 2950 2150 3513 
Q 2150 4056 1958 4312 
Q 1766 4569 1522 4569 
Q 1394 4569 1301 4492 
Q 1209 4416 1164 4320 
Q 1119 4225 1097 4051 
Q 1075 3878 1072 3778 
Q 1069 3678 1069 3506 
z
M 3675 934 
Q 3675 1563 4000 1892 
Q 4325 2222 4775 2222 
Q 5159 2222 5437 1901 
Q 5716 1581 5716 928 
Q 5716 288 5441 -35 
Q 5166 -359 4775 -359 
Q 4334 -359 4004 -35 
Q 3675 288 3675 934 
z
M 4331 928 
Q 4331 763 4336 663 
Q 4341 563 4362 391 
Q 4384 219 4429 122 
Q 4475 25 4567 -51 
Q 4659 -128 4788 -128 
Q 5025 -128 5220 122 
Q 5416 372 5416 934 
Q 5416 1478 5223 1734 
Q 5031 1991 4788 1991 
Q 4659 1991 4567 1914 
Q 4475 1838 4429 1741 
Q 4384 1644 4362 1472 
Q 4341 1300 4336 1200 
Q 4331 1100 4331 928 
z
" transform="scale(0.015625)"/>
     </defs>
     <use xlink:href="#CMUSerif-Bold-37"/>
     <use xlink:href="#CMUSerif-Bold-2e" x="57.470703"/>
     <use xlink:href="#CMUSerif-Bold-34" x="89.355469"/>
     <use xlink:href="#CMUSerif-Bold-25" x="146.826172"/>
    </g>
   </g>
   <g id="text_3">
    <!-- Drizzle -->
    <g transform="translate(73.243908 169.600947) scale(0.1 -0.1)">
     <defs>
      <path id="CMUSerif-Bold-44" d="M 250 0 
L 250 300 
L 941 300 
L 941 4091 
L 250 4091 
L 250 4391 
L 3003 4391 
Q 3975 4391 4601 3789 
Q 5228 3188 5228 2156 
Q 5228 1150 4604 575 
Q 3981 0 3009 0 
L 250 0 
z
M 1813 300 
L 2747 300 
Q 3631 300 4006 838 
Q 4159 1056 4223 1350 
Q 4288 1644 4288 2163 
Q 4288 3116 4013 3519 
Q 3616 4088 2747 4091 
L 1813 4091 
L 1813 300 
z
" transform="scale(0.015625)"/>
      <path id="CMUSerif-Bold-72" d="M 238 0 
L 238 300 
L 678 300 
L 678 2278 
Q 678 2456 611 2492 
Q 544 2528 238 2528 
L 238 2828 
L 1300 2881 
L 1300 2156 
Q 1563 2878 2150 2881 
Q 2419 2881 2623 2739 
Q 2828 2597 2828 2356 
Q 2828 2178 2709 2072 
Q 2591 1966 2437 1966 
Q 2284 1966 2165 2067 
Q 2047 2169 2047 2356 
Q 2047 2528 2169 2650 
Q 1944 2650 1778 2525 
Q 1613 2400 1530 2198 
Q 1447 1997 1408 1805 
Q 1369 1613 1369 1422 
L 1369 300 
L 1925 300 
L 1925 0 
Q 1694 19 1044 19 
Q 909 19 238 0 
z
" transform="scale(0.015625)"/>
      <path id="CMUSerif-Bold-69" d="M 300 0 
L 300 300 
L 744 300 
L 744 2278 
Q 744 2456 680 2492 
Q 616 2528 319 2528 
L 319 2828 
L 1434 2881 
L 1434 300 
L 1831 300 
L 1831 0 
Q 1141 19 1081 19 
Q 894 19 300 0 
z
M 644 3597 
Q 500 3744 500 3948 
Q 500 4153 644 4300 
Q 788 4447 1000 4447 
Q 1206 4447 1353 4300 
Q 1500 4153 1500 3948 
Q 1500 3744 1351 3597 
Q 1203 3450 1000 3450 
Q 788 3450 644 3597 
z
" transform="scale(0.015625)"/>
      <path id="CMUSerif-Bold-7a" d="M 206 141 
Q 206 213 263 281 
L 2047 2613 
L 1503 2613 
Q 1016 2613 828 2417 
Q 641 2222 609 1722 
L 306 1722 
L 384 2841 
L 2731 2841 
Q 2809 2841 2842 2837 
Q 2875 2834 2906 2803 
Q 2938 2772 2938 2706 
Q 2938 2656 2875 2566 
L 1100 256 
L 1650 256 
Q 1956 256 2153 320 
Q 2350 384 2451 537 
Q 2553 691 2592 852 
Q 2631 1013 2656 1294 
L 2956 1294 
L 2841 0 
L 409 0 
Q 331 0 297 6 
Q 263 13 234 45 
Q 206 78 206 141 
z
" transform="scale(0.015625)"/>
      <path id="CMUSerif-Bold-65" d="M 206 1441 
Q 206 2069 625 2484 
Q 1044 2900 1784 2900 
Q 2444 2900 2803 2553 
Q 3163 2194 3163 1569 
Q 3163 1447 3120 1420 
Q 3078 1394 2956 1394 
L 1025 1394 
Q 1025 219 1925 219 
Q 1928 219 1931 219 
Q 2244 219 2495 359 
Q 2747 500 2847 728 
Q 2878 813 2904 838 
Q 2931 863 3009 863 
Q 3163 863 3163 750 
Q 3163 706 3127 625 
Q 3091 544 2998 425 
Q 2906 306 2768 204 
Q 2631 103 2397 32 
Q 2163 -38 1875 -38 
Q 1113 -38 659 375 
Q 206 788 206 1441 
z
M 1025 1606 
L 2553 1606 
Q 2522 2669 1784 2669 
Q 1394 2669 1178 2338 
Q 1050 2138 1025 1606 
z
" transform="scale(0.015625)"/>
     </defs>
     <use xlink:href="#CMUSerif-Bold-44"/>
     <use xlink:href="#CMUSerif-Bold-72" x="88.085938"/>
     <use xlink:href="#CMUSerif-Bold-69" x="135.351562"/>
     <use xlink:href="#CMUSerif-Bold-7a" x="167.236328"/>
     <use xlink:href="#CMUSerif-Bold-7a" x="218.310547"/>
     <use xlink:href="#CMUSerif-Bold-6c" x="269.384766"/>
     <use xlink:href="#CMUSerif-Bold-65" x="301.269531"/>
    </g>
   </g>
   <g id="text_4">
    <!-- 33.3% -->
    <g transform="translate(146.772358 172.695552) scale(0.1 -0.1)">
     <defs>
      <path id="CMUSerif-Bold-33" d="M 306 891 
Q 306 1128 447 1258 
Q 588 1388 800 1388 
Q 1013 1388 1150 1253 
Q 1288 1119 1288 903 
Q 1288 525 916 422 
Q 1263 203 1722 206 
Q 1913 206 2047 282 
Q 2181 359 2245 451 
Q 2309 544 2345 697 
Q 2381 850 2384 937 
Q 2388 1025 2388 1159 
Q 2388 1300 2384 1386 
Q 2381 1472 2342 1628 
Q 2303 1784 2236 1875 
Q 2169 1966 2028 2039 
Q 1888 2113 1691 2113 
L 1409 2113 
Q 1338 2113 1309 2116 
Q 1281 2119 1254 2144 
Q 1228 2169 1228 2228 
Q 1228 2331 1306 2338 
Q 1378 2350 1613 2363 
Q 1772 2369 1894 2436 
Q 2016 2503 2083 2611 
Q 2150 2719 2195 2822 
Q 2241 2925 2259 3047 
Q 2278 3169 2281 3223 
Q 2284 3278 2284 3322 
Q 2284 3944 1734 3944 
Q 1319 3944 1031 3713 
Q 1403 3622 1403 3263 
Q 1403 3078 1281 2950 
Q 1159 2822 953 2822 
Q 769 2822 641 2947 
Q 513 3072 513 3272 
Q 513 3663 861 3927 
Q 1209 4191 1772 4191 
Q 2425 4191 2794 3939 
Q 3163 3688 3163 3303 
Q 3163 2919 2894 2644 
Q 2625 2369 2253 2253 
Q 2578 2181 2812 2050 
Q 3047 1919 3159 1756 
Q 3272 1594 3319 1450 
Q 3366 1306 3366 1153 
Q 3366 659 2959 293 
Q 2553 -72 1753 -72 
Q 1125 -72 715 195 
Q 306 463 306 891 
z
" transform="scale(0.015625)"/>
     </defs>
     <use xlink:href="#CMUSerif-Bold-33"/>
     <use xlink:href="#CMUSerif-Bold-33" x="57.470703"/>
     <use xlink:href="#CMUSerif-Bold-2e" x="114.941406"/>
     <use xlink:href="#CMUSerif-Bold-33" x="146.826172"/>
     <use xlink:href="#CMUSerif-Bold-25" x="204.296875"/>
    </g>
   </g>
   <g id="text_5">
    <!-- Rain -->
    <g transform="translate(249.753244 293.325563) scale(0.1 -0.1)">
     <defs>
      <path id="CMUSerif-Bold-52" d="M 250 0 
L 250 300 
L 941 300 
L 941 4091 
L 250 4091 
L 250 4391 
L 2681 4391 
Q 3559 4391 4073 4052 
Q 4588 3713 4588 3206 
Q 4588 2866 4319 2587 
Q 4050 2309 3519 2175 
Q 4134 1944 4238 1428 
Q 4238 1416 4269 1169 
Q 4300 922 4306 884 
Q 4325 744 4345 650 
Q 4366 556 4412 425 
Q 4459 294 4553 226 
Q 4647 159 4781 159 
Q 4934 159 5050 275 
Q 5166 391 5191 603 
Q 5197 653 5203 678 
Q 5209 703 5242 726 
Q 5275 750 5338 750 
Q 5491 750 5491 609 
Q 5491 566 5478 497 
Q 5466 428 5417 326 
Q 5369 225 5292 137 
Q 5216 50 5066 -11 
Q 4916 -72 4722 -72 
Q 4113 -72 3781 97 
Q 3622 175 3526 270 
Q 3431 366 3392 506 
Q 3353 647 3343 745 
Q 3334 844 3334 1050 
Q 3334 1434 3306 1568 
Q 3278 1703 3128 1863 
Q 2931 2081 2559 2081 
L 1813 2081 
L 1813 300 
L 2503 300 
L 2503 0 
Q 2272 19 1376 19 
Q 481 19 250 0 
z
M 1813 2309 
L 2553 2309 
Q 2853 2309 3065 2373 
Q 3278 2438 3383 2514 
Q 3488 2591 3542 2736 
Q 3597 2881 3603 2967 
Q 3609 3053 3609 3200 
Q 3609 3353 3600 3447 
Q 3591 3541 3536 3678 
Q 3481 3816 3379 3892 
Q 3278 3969 3068 4030 
Q 2859 4091 2566 4091 
L 1813 4091 
L 1813 2309 
z
" transform="scale(0.015625)"/>
     </defs>
     <use xlink:href="#CMUSerif-Bold-52"/>
     <use xlink:href="#CMUSerif-Bold-61" x="86.181641"/>
     <use xlink:href="#CMUSerif-Bold-69" x="142.041016"/>
     <use xlink:href="#CMUSerif-Bold-6e" x="173.925781"/>
    </g>
   </g>
   <g id="text_6">
    <!-- 22.2% -->
    <g transform="translate(228.572153 240.463034) scale(0.1 -0.1)">
     <defs>
      <path id="CMUSerif-Bold-32" d="M 366 0 
L 366 116 
Q 366 219 378 247 
Q 391 275 447 331 
L 1734 1644 
Q 2425 2347 2425 2975 
Q 2425 3359 2201 3625 
Q 1978 3891 1581 3891 
Q 1191 3891 922 3669 
Q 994 3650 1062 3614 
Q 1131 3578 1209 3468 
Q 1288 3359 1288 3206 
Q 1288 2981 1142 2864 
Q 997 2747 825 2747 
Q 666 2747 516 2858 
Q 366 2969 366 3219 
Q 366 3647 759 3919 
Q 1153 4191 1741 4191 
Q 2425 4191 2867 3858 
Q 3309 3525 3309 2981 
Q 3309 2756 3245 2584 
Q 3181 2413 3001 2223 
Q 2822 2034 2669 1912 
Q 2516 1791 2169 1538 
Q 1869 1319 1247 800 
L 2188 800 
Q 2769 800 2841 838 
Q 2925 881 3009 1422 
L 3309 1422 
L 3109 0 
L 366 0 
z
" transform="scale(0.015625)"/>
     </defs>
     <use xlink:href="#CMUSerif-Bold-32"/>
     <use xlink:href="#CMUSerif-Bold-32" x="57.470703"/>
     <use xlink:href="#CMUSerif-Bold-2e" x="114.941406"/>
     <use xlink:href="#CMUSerif-Bold-32" x="146.826172"/>
     <use xlink:href="#CMUSerif-Bold-25" x="204.296875"/>
    </g>
   </g>
   <g id="text_7">
    <!-- Cloudy -->
    <g transform="translate(353.051184 183.818939) scale(0.1 -0.1)">
     <defs>
      <path id="CMUSerif-Bold-43" d="M 1106 562 
Q 409 1197 409 2195 
Q 409 3194 1107 3826 
Q 1806 4459 2981 4459 
Q 3703 4459 4244 4025 
L 4666 4403 
Q 4728 4459 4788 4459 
Q 4866 4459 4884 4425 
Q 4903 4391 4903 4281 
L 4903 2906 
Q 4903 2778 4876 2751 
Q 4850 2725 4728 2725 
Q 4619 2725 4594 2745 
Q 4569 2766 4556 2859 
Q 4453 3453 4050 3806 
Q 3647 4159 3116 4159 
Q 2297 4159 1813 3669 
Q 1391 3228 1388 2194 
Q 1388 1234 1766 775 
Q 2225 231 3138 231 
Q 3681 231 4125 557 
Q 4569 884 4603 1478 
Q 4609 1556 4640 1572 
Q 4672 1588 4750 1588 
Q 4841 1588 4872 1566 
Q 4903 1544 4903 1453 
Q 4903 866 4368 397 
Q 3834 -72 2981 -72 
Q 1803 -72 1106 562 
z
" transform="scale(0.015625)"/>
      <path id="CMUSerif-Bold-75" d="M 288 2528 
L 288 2828 
L 1459 2881 
L 1459 697 
Q 1459 403 1542 297 
Q 1625 191 1972 191 
Q 2325 191 2545 428 
Q 2766 666 2766 1056 
L 2766 2278 
Q 2766 2456 2698 2492 
Q 2631 2528 2322 2528 
L 2322 2828 
L 3494 2881 
L 3494 550 
Q 3494 372 3561 336 
Q 3628 300 3938 300 
L 3938 0 
L 2803 -38 
L 2803 459 
Q 2513 -38 1888 -38 
Q 1884 -38 1881 -38 
Q 1338 -38 1033 137 
Q 728 313 728 788 
L 728 2278 
Q 728 2456 661 2492 
Q 594 2528 288 2528 
z
" transform="scale(0.015625)"/>
      <path id="CMUSerif-Bold-64" d="M 244 1416 
Q 244 2081 692 2481 
Q 1141 2881 1850 2881 
Q 2344 2881 2713 2591 
L 2713 3841 
Q 2713 4019 2645 4055 
Q 2578 4091 2272 4091 
L 2272 4391 
L 3406 4441 
L 3406 550 
Q 3406 372 3473 336 
Q 3541 300 3847 300 
L 3847 0 
L 2675 -38 
L 2675 275 
Q 2284 -38 1778 -38 
Q 1075 -38 659 368 
Q 244 775 244 1416 
z
M 1063 1416 
Q 1063 1256 1066 1162 
Q 1069 1069 1087 903 
Q 1106 738 1157 631 
Q 1209 525 1292 412 
Q 1375 300 1515 245 
Q 1656 191 1844 191 
Q 2338 191 2675 659 
L 2675 2259 
Q 2381 2650 1913 2650 
Q 1459 2650 1228 2316 
Q 1063 2069 1063 1416 
z
" transform="scale(0.015625)"/>
      <path id="CMUSerif-Bold-79" d="M 141 -691 
Q 141 -513 250 -416 
Q 359 -319 506 -319 
Q 666 -319 772 -422 
Q 878 -525 878 -684 
Q 878 -934 672 -1025 
Q 744 -1050 825 -1050 
Q 984 -1050 1115 -983 
Q 1247 -916 1347 -784 
Q 1447 -653 1501 -561 
Q 1556 -469 1625 -306 
L 1772 0 
L 575 2541 
L 166 2541 
L 166 2841 
Q 228 2841 511 2831 
Q 794 2822 897 2822 
Q 1372 2822 1691 2841 
L 1691 2541 
L 1344 2541 
L 2156 813 
L 2894 2388 
Q 2925 2419 2925 2463 
Q 2925 2541 2625 2541 
L 2625 2841 
Q 3028 2822 3206 2822 
Q 3481 2822 3713 2841 
L 3713 2541 
Q 3516 2541 3416 2525 
Q 3316 2509 3289 2486 
Q 3263 2463 3238 2406 
L 1863 -519 
Q 1716 -831 1441 -1056 
Q 1166 -1281 825 -1281 
Q 538 -1281 339 -1107 
Q 141 -934 141 -691 
z
" transform="scale(0.015625)"/>
     </defs>
     <use xlink:href="#CMUSerif-Bold-43"/>
     <use xlink:href="#CMUSerif-Bold-6c" x="82.958984"/>
     <use xlink:href="#CMUSerif-Bold-6f" x="114.84375"/>
     <use xlink:href="#CMUSerif-Bold-75" x="172.314453"/>
     <use xlink:href="#CMUSerif-Bold-64" x="236.083984"/>
     <use xlink:href="#CMUSerif-Bold-79" x="299.853516"/>
    </g>
   </g>
   <g id="text_8">
    <!-- 22.2% -->
    <g transform="translate(284.916484 180.741524) scale(0.1 -0.1)">
     <use xlink:href="#CMUSerif-Bold-32"/>
     <use xlink:href="#CMUSerif-Bold-32" x="57.470703"/>
     <use xlink:href="#CMUSerif-Bold-2e" x="114.941406"/>
     <use xlink:href="#CMUSerif-Bold-32" x="146.826172"/>
     <use xlink:href="#CMUSerif-Bold-25" x="204.296875"/>
    </g>
   </g>
   <g id="text_9">
    <!-- Clear -->
    <g transform="translate(288.709563 72.393193) scale(0.1 -0.1)">
     <use xlink:href="#CMUSerif-Bold-43"/>
     <use xlink:href="#CMUSerif-Bold-6c" x="82.958984"/>
     <use xlink:href="#CMUSerif-Bold-65" x="114.84375"/>
     <use xlink:href="#CMUSerif-Bold-61" x="167.529297"/>
     <use xlink:href="#CMUSerif-Bold-72" x="223.388672"/>
    </g>
   </g>
   <g id="text_10">
    <!-- 14.8% -->
    <g transform="translate(249.821054 119.954469) scale(0.1 -0.1)">
     <defs>
      <path id="CMUSerif-Bold-31" d="M 544 3481 
L 544 3781 
L 672 3781 
Q 1466 3781 1959 4147 
Q 2016 4191 2100 4191 
Q 2216 4191 2241 4150 
Q 2266 4109 2266 3988 
L 2266 300 
L 3163 300 
L 3163 0 
Q 2881 19 1889 19 
Q 897 19 616 0 
L 616 300 
L 1503 300 
L 1503 3609 
Q 1106 3481 672 3481 
L 544 3481 
z
" transform="scale(0.015625)"/>
      <path id="CMUSerif-Bold-38" d="M 306 1031 
Q 306 1747 1125 2106 
Q 509 2453 513 3072 
Q 513 3559 861 3875 
Q 1209 4191 1850 4191 
Q 2431 4191 2797 3955 
Q 3163 3719 3163 3250 
Q 3163 2700 2516 2369 
Q 2688 2266 2791 2198 
Q 2894 2131 3050 1984 
Q 3206 1838 3286 1639 
Q 3366 1441 3366 1197 
Q 3366 641 2962 284 
Q 2559 -72 1825 -72 
Q 1159 -72 732 204 
Q 306 481 306 1031 
z
M 856 1031 
Q 856 653 1118 429 
Q 1381 206 1850 206 
Q 2075 206 2269 247 
Q 2463 288 2639 441 
Q 2816 594 2816 844 
Q 2816 991 2736 1106 
Q 2656 1222 2570 1283 
Q 2484 1344 2297 1447 
Q 1581 1850 1422 1931 
Q 856 1613 856 1031 
z
M 991 3450 
Q 991 3225 1275 3066 
L 2234 2528 
Q 2681 2822 2681 3244 
Q 2681 3569 2454 3756 
Q 2228 3944 1825 3944 
Q 1697 3944 1581 3926 
Q 1466 3909 1319 3865 
Q 1172 3822 1081 3715 
Q 991 3609 991 3450 
z
" transform="scale(0.015625)"/>
     </defs>
     <use xlink:href="#CMUSerif-Bold-31"/>
     <use xlink:href="#CMUSerif-Bold-34" x="57.470703"/>
     <use xlink:href="#CMUSerif-Bold-2e" x="114.941406"/>
     <use xlink:href="#CMUSerif-Bold-38" x="146.826172"/>
     <use xlink:href="#CMUSerif-Bold-25" x="204.296875"/>
    </g>
   </g>
   <g id="text_11">
    <!-- Weather Code for March 2023, Ankara -->
    <g transform="translate(87.447891 35.472) scale(0.15 -0.15)">
     <defs>
      <path id="CMUSerif-Bold-57" d="M 153 4091 
L 153 4391 
Q 378 4372 1131 4372 
Q 2009 4372 2253 4391 
L 2253 4091 
L 1638 4091 
L 2772 1159 
L 3641 3413 
L 3378 4091 
L 2828 4091 
L 2828 4391 
Q 3053 4372 3809 4372 
Q 4688 4372 4928 4391 
L 4928 4091 
L 4313 4091 
L 5447 1159 
L 6547 4019 
Q 6363 4091 5894 4091 
L 5894 4391 
Q 6125 4372 6766 4372 
Q 6931 4372 7450 4391 
L 7450 4091 
Q 7213 4091 7084 4078 
Q 6938 4066 6906 4042 
Q 6875 4019 6841 3938 
L 5363 116 
Q 5331 25 5289 -12 
Q 5247 -50 5139 -50 
Q 5031 -50 4989 -12 
Q 4947 25 4916 116 
L 3803 2994 
L 2688 116 
Q 2656 25 2614 -12 
Q 2572 -50 2464 -50 
Q 2356 -50 2314 -12 
Q 2272 25 2241 116 
L 703 4091 
L 153 4091 
z
" transform="scale(0.015625)"/>
      <path id="CMUSerif-Bold-74" d="M 134 2541 
L 134 2772 
Q 581 2784 831 3165 
Q 1081 3547 1088 4063 
L 1388 4063 
L 1388 2841 
L 2322 2841 
L 2322 2541 
L 1388 2541 
L 1388 775 
Q 1388 219 1759 219 
Q 1913 219 2028 362 
Q 2144 506 2144 806 
L 2144 1131 
L 2444 1131 
L 2444 794 
Q 2444 434 2236 198 
Q 2028 -38 1672 -38 
Q 659 -38 659 788 
L 659 2541 
L 134 2541 
z
" transform="scale(0.015625)"/>
      <path id="CMUSerif-Bold-68" d="M 288 0 
L 288 300 
L 728 300 
L 728 3841 
Q 728 4019 661 4055 
Q 594 4091 288 4091 
L 288 4391 
L 1422 4441 
L 1422 2266 
L 1428 2266 
Q 1788 2881 2509 2881 
Q 3003 2881 3248 2665 
Q 3494 2450 3494 1959 
L 3494 300 
L 3938 300 
L 3938 0 
Q 3400 19 3129 19 
Q 2859 19 2322 0 
L 2322 300 
L 2766 300 
L 2766 2028 
Q 2766 2375 2675 2512 
Q 2584 2650 2413 2650 
Q 2059 2650 1759 2384 
Q 1459 2119 1459 1638 
L 1459 300 
L 1900 300 
L 1900 0 
Q 1363 19 1094 19 
Q 825 19 288 0 
z
" transform="scale(0.015625)"/>
      <path id="CMUSerif-Bold-66" d="M 269 2541 
L 269 2841 
L 750 2841 
L 750 3488 
Q 750 3988 1139 4234 
Q 1528 4481 2069 4481 
Q 2422 4481 2609 4314 
Q 2797 4147 2797 3922 
Q 2797 3738 2678 3631 
Q 2559 3525 2400 3525 
Q 2253 3525 2131 3628 
Q 2009 3731 2009 3922 
Q 2009 4128 2156 4238 
Q 2113 4250 2048 4250 
Q 1984 4250 1917 4240 
Q 1850 4231 1750 4182 
Q 1650 4134 1579 4061 
Q 1509 3988 1456 3838 
Q 1403 3688 1403 3488 
L 1403 2841 
L 2175 2841 
L 2175 2541 
L 1441 2541 
L 1441 300 
L 1997 300 
L 1997 0 
Q 1766 19 1113 19 
Q 978 19 306 0 
L 306 300 
L 750 300 
L 750 2541 
L 269 2541 
z
" transform="scale(0.015625)"/>
      <path id="CMUSerif-Bold-4d" d="M 256 0 
L 256 300 
L 416 300 
Q 606 300 763 319 
Q 897 331 922 354 
Q 947 378 947 488 
L 947 4091 
L 256 4091 
L 256 4391 
L 1678 4391 
Q 1763 4391 1800 4384 
Q 1838 4378 1881 4342 
Q 1925 4306 1959 4231 
L 3494 844 
L 5031 4231 
Q 5081 4341 5136 4366 
Q 5191 4391 5313 4391 
L 6725 4391 
L 6725 4091 
L 6034 4091 
L 6034 300 
L 6725 300 
L 6725 0 
Q 6494 19 5631 19 
Q 4775 19 4544 0 
L 4544 300 
L 5234 300 
L 5234 4091 
L 5228 4091 
L 3444 153 
Q 3372 0 3237 0 
Q 3103 0 3034 159 
L 1294 4006 
L 1288 4006 
L 1288 488 
Q 1288 378 1313 354 
Q 1338 331 1478 319 
Q 1650 300 1819 300 
L 1978 300 
L 1978 0 
Q 1716 19 1113 19 
Q 500 19 256 0 
z
" transform="scale(0.015625)"/>
      <path id="CMUSerif-Bold-63" d="M 244 1422 
Q 244 2038 650 2469 
Q 1056 2900 1863 2900 
Q 2975 2900 2975 2309 
Q 2975 2119 2853 2012 
Q 2731 1906 2572 1906 
Q 2425 1906 2300 2012 
Q 2175 2119 2175 2309 
Q 2175 2488 2303 2606 
Q 2138 2644 1888 2644 
Q 1650 2644 1484 2547 
Q 1319 2450 1239 2333 
Q 1159 2216 1117 2020 
Q 1075 1825 1069 1719 
Q 1063 1613 1063 1453 
Q 1063 219 1953 219 
Q 2534 219 2753 744 
Q 2778 806 2800 822 
Q 2822 838 2906 838 
Q 3059 838 3059 750 
Q 3059 725 3034 650 
Q 3009 575 2925 453 
Q 2841 331 2712 226 
Q 2584 122 2351 42 
Q 2119 -38 1831 -38 
Q 1103 -38 673 368 
Q 244 775 244 1422 
z
" transform="scale(0.015625)"/>
      <path id="CMUSerif-Bold-30" d="M 291 1722 
Q 288 1850 288 2042 
Q 288 2234 291 2362 
Q 294 2491 326 2736 
Q 359 2981 414 3154 
Q 469 3328 583 3539 
Q 697 3750 855 3881 
Q 1013 4013 1264 4102 
Q 1516 4191 1836 4191 
Q 2156 4191 2409 4098 
Q 2663 4006 2819 3878 
Q 2975 3750 3090 3536 
Q 3206 3322 3261 3151 
Q 3316 2981 3347 2736 
Q 3378 2491 3381 2362 
Q 3384 2234 3384 2042 
Q 3384 1850 3381 1719 
Q 3378 1588 3347 1347 
Q 3316 1106 3261 937 
Q 3206 769 3090 564 
Q 2975 359 2815 231 
Q 2656 103 2403 15 
Q 2150 -72 1838 -72 
Q 1519 -72 1266 18 
Q 1013 109 855 234 
Q 697 359 583 567 
Q 469 775 414 940 
Q 359 1106 326 1350 
Q 294 1594 291 1722 
z
M 1106 2119 
Q 1106 1100 1166 769 
Q 1222 456 1423 307 
Q 1625 159 1838 159 
Q 1966 159 2087 201 
Q 2209 244 2346 406 
Q 2484 569 2522 844 
Q 2566 1175 2566 2119 
Q 2566 3322 2456 3559 
Q 2372 3756 2200 3859 
Q 2028 3963 1838 3963 
Q 1722 3963 1603 3930 
Q 1484 3897 1337 3740 
Q 1191 3584 1159 3328 
Q 1106 2997 1106 2119 
z
" transform="scale(0.015625)"/>
      <path id="CMUSerif-Bold-2c" d="M 519 500 
Q 519 713 656 855 
Q 794 997 1013 997 
Q 1281 997 1440 767 
Q 1600 538 1600 197 
Q 1600 -53 1529 -292 
Q 1459 -531 1356 -693 
Q 1253 -856 1142 -987 
Q 1031 -1119 947 -1180 
Q 863 -1241 831 -1241 
Q 794 -1241 751 -1200 
Q 709 -1159 709 -1113 
Q 709 -1075 769 -1025 
Q 1319 -550 1369 128 
Q 1241 0 1019 0 
Q 788 0 653 147 
Q 519 294 519 500 
z
" transform="scale(0.015625)"/>
      <path id="CMUSerif-Bold-41" d="M 263 0 
L 263 300 
L 397 300 
Q 728 300 818 333 
Q 909 366 941 447 
L 2528 4300 
Q 2553 4372 2572 4400 
Q 2591 4428 2639 4448 
Q 2688 4469 2778 4469 
Q 2850 4469 2881 4461 
Q 2913 4453 2958 4415 
Q 3003 4378 3034 4300 
L 4672 300 
L 5294 300 
L 5294 0 
Q 5069 19 4250 19 
Q 3366 19 3122 0 
L 3122 300 
L 3731 300 
L 3347 1234 
L 1631 1234 
L 1313 459 
Q 1288 434 1288 384 
Q 1288 300 1856 300 
L 1856 0 
Q 1619 19 1013 19 
Q 991 19 263 0 
z
M 1759 1538 
L 3219 1538 
L 2491 3316 
L 1759 1538 
z
" transform="scale(0.015625)"/>
      <path id="CMUSerif-Bold-6b" d="M 238 0 
L 238 300 
L 678 300 
L 678 3841 
Q 678 4019 611 4055 
Q 544 4091 238 4091 
L 238 4391 
L 1369 4441 
L 1369 1516 
L 2578 2472 
Q 2509 2541 2375 2541 
Q 2369 2541 2363 2541 
L 2363 2841 
Q 2803 2822 3097 2822 
Q 3422 2822 3597 2841 
L 3597 2541 
Q 3391 2541 3273 2525 
Q 3156 2509 3117 2490 
Q 3078 2472 3022 2425 
L 2188 1778 
L 3272 428 
Q 3322 372 3347 348 
Q 3372 325 3442 312 
Q 3513 300 3647 300 
L 3756 300 
L 3756 0 
Q 3431 19 3091 19 
Q 2597 19 2309 0 
L 2309 300 
Q 2506 300 2509 359 
Q 2509 372 2350 581 
L 1703 1388 
Q 1550 1278 1338 1113 
L 1338 300 
L 1778 300 
L 1778 0 
Q 1088 19 1006 19 
Q 947 19 238 0 
z
" transform="scale(0.015625)"/>
     </defs>
     <use xlink:href="#CMUSerif-Bold-57"/>
     <use xlink:href="#CMUSerif-Bold-65" x="118.798828"/>
     <use xlink:href="#CMUSerif-Bold-61" x="171.484375"/>
     <use xlink:href="#CMUSerif-Bold-74" x="227.34375"/>
     <use xlink:href="#CMUSerif-Bold-68" x="272.021484"/>
     <use xlink:href="#CMUSerif-Bold-65" x="335.791016"/>
     <use xlink:href="#CMUSerif-Bold-72" x="388.476562"/>
     <use xlink:href="#CMUSerif-Bold-20" x="435.742188"/>
     <use xlink:href="#CMUSerif-Bold-43" x="474.023438"/>
     <use xlink:href="#CMUSerif-Bold-6f" x="556.982422"/>
     <use xlink:href="#CMUSerif-Bold-64" x="614.453125"/>
     <use xlink:href="#CMUSerif-Bold-65" x="678.222656"/>
     <use xlink:href="#CMUSerif-Bold-20" x="730.908203"/>
     <use xlink:href="#CMUSerif-Bold-66" x="769.189453"/>
     <use xlink:href="#CMUSerif-Bold-6f" x="804.248047"/>
     <use xlink:href="#CMUSerif-Bold-72" x="861.71875"/>
     <use xlink:href="#CMUSerif-Bold-20" x="908.984375"/>
     <use xlink:href="#CMUSerif-Bold-4d" x="947.265625"/>
     <use xlink:href="#CMUSerif-Bold-61" x="1056.347656"/>
     <use xlink:href="#CMUSerif-Bold-72" x="1112.207031"/>
     <use xlink:href="#CMUSerif-Bold-63" x="1159.472656"/>
     <use xlink:href="#CMUSerif-Bold-68" x="1210.546875"/>
     <use xlink:href="#CMUSerif-Bold-20" x="1274.316406"/>
     <use xlink:href="#CMUSerif-Bold-32" x="1312.597656"/>
     <use xlink:href="#CMUSerif-Bold-30" x="1370.068359"/>
     <use xlink:href="#CMUSerif-Bold-32" x="1427.539062"/>
     <use xlink:href="#CMUSerif-Bold-33" x="1485.009766"/>
     <use xlink:href="#CMUSerif-Bold-2c" x="1542.480469"/>
     <use xlink:href="#CMUSerif-Bold-20" x="1574.365234"/>
     <use xlink:href="#CMUSerif-Bold-41" x="1612.646484"/>
     <use xlink:href="#CMUSerif-Bold-6e" x="1699.511719"/>
     <use xlink:href="#CMUSerif-Bold-6b" x="1763.28125"/>
     <use xlink:href="#CMUSerif-Bold-61" x="1823.876953"/>
     <use xlink:href="#CMUSerif-Bold-72" x="1879.736328"/>
     <use xlink:href="#CMUSerif-Bold-61" x="1927.001953"/>
    </g>
   </g>
  </g>
 </g>
</svg>
