<?xml version="1.0" encoding="utf-8" standalone="no"?>
<!DOCTYPE svg PUBLIC "-//W3C//DTD SVG 1.1//EN"
  "http://www.w3.org/Graphics/SVG/1.1/DTD/svg11.dtd">
<svg xmlns:xlink="http://www.w3.org/1999/xlink" width="720pt" height="288pt" viewBox="0 0 720 288" xmlns="http://www.w3.org/2000/svg" version="1.1">
 <metadata>
  <rdf:RDF xmlns:dc="http://purl.org/dc/elements/1.1/" xmlns:cc="http://creativecommons.org/ns#" xmlns:rdf="http://www.w3.org/1999/02/22-rdf-syntax-ns#">
   <cc:Work>
    <dc:type rdf:resource="http://purl.org/dc/dcmitype/StillImage"/>
    <dc:date>2023-04-04T14:10:30.494340</dc:date>
    <dc:format>image/svg+xml</dc:format>
    <dc:creator>
     <cc:Agent>
      <dc:title>Matplotlib v3.7.1, https://matplotlib.org/</dc:title>
     </cc:Agent>
    </dc:creator>
   </cc:Work>
  </rdf:RDF>
 </metadata>
 <defs>
  <style type="text/css">*{stroke-linejoin: round; stroke-linecap: butt}</style>
 </defs>
 <g id="figure_1">
  <g id="patch_1">
   <path d="M 0 288 
L 720 288 
L 720 0 
L 0 0 
z
" style="fill: #ffffff"/>
  </g>
  <g id="axes_1">
   <g id="patch_2">
    <path d="M 90 256.32 
L 648 256.32 
L 648 34.56 
L 90 34.56 
z
" style="fill: #ffffff"/>
   </g>
   <g id="matplotlib.axis_1">
    <g id="xtick_1">
     <g id="line2d_1">
      <defs>
       <path id="me71a95e63c" d="M 0 0 
L 0 3.5 
" style="stroke: #000000; stroke-width: 0.8"/>
      </defs>
      <g>
       <use xlink:href="#me71a95e63c" x="146.536821" y="256.32" style="stroke: #000000; stroke-width: 0.8"/>
      </g>
     </g>
     <g id="text_1">
      <!-- North -->
      <g transform="translate(131.379008 270.259063) scale(0.1 -0.1)">
       <defs>
        <path id="CMUSerif-Bold-4e" d="M 250 0 
L 250 300 
L 409 300 
Q 600 300 756 319 
Q 891 331 916 354 
Q 941 378 941 488 
L 941 4091 
L 250 4091 
L 250 4391 
L 1716 4391 
Q 1813 4391 1844 4378 
Q 1875 4366 1925 4306 
L 4475 1313 
L 4475 3903 
Q 4475 4013 4448 4034 
Q 4422 4056 4281 4072 
Q 4109 4091 3944 4091 
L 3781 4091 
L 3781 4391 
Q 4044 4372 4647 4372 
Q 5263 4372 5503 4391 
L 5503 4091 
L 5344 4091 
Q 5153 4091 4997 4072 
Q 4863 4059 4838 4036 
Q 4813 4013 4813 3903 
L 4813 206 
Q 4813 78 4788 39 
Q 4763 0 4641 0 
Q 4563 0 4541 12 
Q 4519 25 4469 84 
L 1281 3834 
L 1281 488 
Q 1281 378 1306 354 
Q 1331 331 1472 319 
Q 1644 300 1813 300 
L 1972 300 
L 1972 0 
Q 1709 19 1106 19 
Q 494 19 250 0 
z
" transform="scale(0.015625)"/>
        <path id="CMUSerif-Bold-6f" d="M 206 1394 
Q 206 2053 637 2476 
Q 1069 2900 1838 2900 
Q 2600 2900 3034 2476 
Q 3469 2053 3469 1394 
Q 3469 772 3041 367 
Q 2613 -38 1838 -38 
Q 1063 -38 634 367 
Q 206 772 206 1394 
z
M 1025 1466 
Q 1025 1275 1028 1175 
Q 1031 1075 1053 898 
Q 1075 722 1126 626 
Q 1178 531 1264 422 
Q 1350 313 1494 266 
Q 1638 219 1836 219 
Q 2034 219 2178 266 
Q 2322 313 2409 422 
Q 2497 531 2547 626 
Q 2597 722 2620 898 
Q 2644 1075 2647 1175 
Q 2650 1275 2650 1466 
Q 2650 2125 2516 2344 
Q 2309 2669 1838 2669 
Q 1325 2669 1131 2297 
Q 1025 2081 1025 1466 
z
" transform="scale(0.015625)"/>
        <path id="CMUSerif-Bold-72" d="M 238 0 
L 238 300 
L 678 300 
L 678 2278 
Q 678 2456 611 2492 
Q 544 2528 238 2528 
L 238 2828 
L 1300 2881 
L 1300 2156 
Q 1563 2878 2150 2881 
Q 2419 2881 2623 2739 
Q 2828 2597 2828 2356 
Q 2828 2178 2709 2072 
Q 2591 1966 2437 1966 
Q 2284 1966 2165 2067 
Q 2047 2169 2047 2356 
Q 2047 2528 2169 2650 
Q 1944 2650 1778 2525 
Q 1613 2400 1530 2198 
Q 1447 1997 1408 1805 
Q 1369 1613 1369 1422 
L 1369 300 
L 1925 300 
L 1925 0 
Q 1694 19 1044 19 
Q 909 19 238 0 
z
" transform="scale(0.015625)"/>
        <path id="CMUSerif-Bold-74" d="M 134 2541 
L 134 2772 
Q 581 2784 831 3165 
Q 1081 3547 1088 4063 
L 1388 4063 
L 1388 2841 
L 2322 2841 
L 2322 2541 
L 1388 2541 
L 1388 775 
Q 1388 219 1759 219 
Q 1913 219 2028 362 
Q 2144 506 2144 806 
L 2144 1131 
L 2444 1131 
L 2444 794 
Q 2444 434 2236 198 
Q 2028 -38 1672 -38 
Q 659 -38 659 788 
L 659 2541 
L 134 2541 
z
" transform="scale(0.015625)"/>
        <path id="CMUSerif-Bold-68" d="M 288 0 
L 288 300 
L 728 300 
L 728 3841 
Q 728 4019 661 4055 
Q 594 4091 288 4091 
L 288 4391 
L 1422 4441 
L 1422 2266 
L 1428 2266 
Q 1788 2881 2509 2881 
Q 3003 2881 3248 2665 
Q 3494 2450 3494 1959 
L 3494 300 
L 3938 300 
L 3938 0 
Q 3400 19 3129 19 
Q 2859 19 2322 0 
L 2322 300 
L 2766 300 
L 2766 2028 
Q 2766 2375 2675 2512 
Q 2584 2650 2413 2650 
Q 2059 2650 1759 2384 
Q 1459 2119 1459 1638 
L 1459 300 
L 1900 300 
L 1900 0 
Q 1363 19 1094 19 
Q 825 19 288 0 
z
" transform="scale(0.015625)"/>
       </defs>
       <use xlink:href="#CMUSerif-Bold-4e"/>
       <use xlink:href="#CMUSerif-Bold-6f" x="89.990234"/>
       <use xlink:href="#CMUSerif-Bold-72" x="147.460938"/>
       <use xlink:href="#CMUSerif-Bold-74" x="194.726562"/>
       <use xlink:href="#CMUSerif-Bold-68" x="239.404297"/>
      </g>
     </g>
    </g>
    <g id="xtick_2">
     <g id="line2d_2">
      <g>
       <use xlink:href="#me71a95e63c" x="210.300152" y="256.32" style="stroke: #000000; stroke-width: 0.8"/>
      </g>
     </g>
     <g id="text_2">
      <!-- West -->
      <g transform="translate(197.229059 270.259063) scale(0.1 -0.1)">
       <defs>
        <path id="CMUSerif-Bold-57" d="M 153 4091 
L 153 4391 
Q 378 4372 1131 4372 
Q 2009 4372 2253 4391 
L 2253 4091 
L 1638 4091 
L 2772 1159 
L 3641 3413 
L 3378 4091 
L 2828 4091 
L 2828 4391 
Q 3053 4372 3809 4372 
Q 4688 4372 4928 4391 
L 4928 4091 
L 4313 4091 
L 5447 1159 
L 6547 4019 
Q 6363 4091 5894 4091 
L 5894 4391 
Q 6125 4372 6766 4372 
Q 6931 4372 7450 4391 
L 7450 4091 
Q 7213 4091 7084 4078 
Q 6938 4066 6906 4042 
Q 6875 4019 6841 3938 
L 5363 116 
Q 5331 25 5289 -12 
Q 5247 -50 5139 -50 
Q 5031 -50 4989 -12 
Q 4947 25 4916 116 
L 3803 2994 
L 2688 116 
Q 2656 25 2614 -12 
Q 2572 -50 2464 -50 
Q 2356 -50 2314 -12 
Q 2272 25 2241 116 
L 703 4091 
L 153 4091 
z
" transform="scale(0.015625)"/>
        <path id="CMUSerif-Bold-65" d="M 206 1441 
Q 206 2069 625 2484 
Q 1044 2900 1784 2900 
Q 2444 2900 2803 2553 
Q 3163 2194 3163 1569 
Q 3163 1447 3120 1420 
Q 3078 1394 2956 1394 
L 1025 1394 
Q 1025 219 1925 219 
Q 1928 219 1931 219 
Q 2244 219 2495 359 
Q 2747 500 2847 728 
Q 2878 813 2904 838 
Q 2931 863 3009 863 
Q 3163 863 3163 750 
Q 3163 706 3127 625 
Q 3091 544 2998 425 
Q 2906 306 2768 204 
Q 2631 103 2397 32 
Q 2163 -38 1875 -38 
Q 1113 -38 659 375 
Q 206 788 206 1441 
z
M 1025 1606 
L 2553 1606 
Q 2522 2669 1784 2669 
Q 1394 2669 1178 2338 
Q 1050 2138 1025 1606 
z
" transform="scale(0.015625)"/>
        <path id="CMUSerif-Bold-73" d="M 244 141 
L 244 838 
Q 244 959 266 992 
Q 288 1025 397 1025 
Q 475 1025 503 1011 
Q 531 997 550 934 
Q 588 800 636 697 
Q 684 594 784 462 
Q 884 331 1059 261 
Q 1234 191 1472 191 
Q 2200 191 2203 672 
Q 2203 806 2131 901 
Q 2059 997 1925 1051 
Q 1791 1106 1705 1129 
Q 1619 1153 1491 1172 
Q 1178 1228 1056 1254 
Q 934 1281 778 1348 
Q 622 1416 500 1522 
Q 244 1741 244 2059 
Q 244 2256 314 2411 
Q 384 2566 509 2653 
Q 634 2741 756 2794 
Q 878 2847 1034 2867 
Q 1191 2888 1264 2894 
Q 1338 2900 1422 2900 
Q 1825 2900 2069 2778 
Q 2319 2900 2356 2900 
Q 2434 2900 2453 2864 
Q 2472 2828 2472 2719 
L 2472 2209 
Q 2472 2088 2448 2058 
Q 2425 2028 2316 2028 
Q 2219 2028 2197 2054 
Q 2175 2081 2169 2156 
Q 2119 2694 1416 2694 
Q 700 2694 697 2297 
Q 697 2188 758 2111 
Q 819 2034 944 1990 
Q 1069 1947 1139 1926 
Q 1209 1906 1350 1881 
Q 1766 1809 1948 1756 
Q 2131 1703 2303 1575 
Q 2656 1294 2656 897 
Q 2656 672 2586 501 
Q 2516 331 2391 236 
Q 2266 141 2144 80 
Q 2022 19 1862 -3 
Q 1703 -25 1633 -31 
Q 1563 -38 1472 -38 
Q 1013 -38 716 166 
L 550 56 
Q 419 -38 363 -38 
Q 363 -38 359 -38 
Q 281 -38 262 0 
Q 244 38 244 141 
z
" transform="scale(0.015625)"/>
       </defs>
       <use xlink:href="#CMUSerif-Bold-57"/>
       <use xlink:href="#CMUSerif-Bold-65" x="118.798828"/>
       <use xlink:href="#CMUSerif-Bold-73" x="171.484375"/>
       <use xlink:href="#CMUSerif-Bold-74" x="216.748047"/>
      </g>
     </g>
    </g>
    <g id="xtick_3">
     <g id="line2d_3">
      <g>
       <use xlink:href="#me71a95e63c" x="274.063484" y="256.32" style="stroke: #000000; stroke-width: 0.8"/>
      </g>
     </g>
     <g id="text_3">
      <!-- East -->
      <g transform="translate(262.999422 270.259063) scale(0.1 -0.1)">
       <defs>
        <path id="CMUSerif-Bold-45" d="M 250 0 
L 250 300 
L 941 300 
L 941 4050 
L 250 4050 
L 250 4353 
L 4225 4353 
L 4422 2809 
L 4122 2809 
Q 4091 3072 4048 3242 
Q 4006 3413 3917 3578 
Q 3828 3744 3693 3841 
Q 3559 3938 3340 3994 
Q 3122 4050 2822 4050 
L 1850 4050 
L 1850 2406 
L 2203 2406 
Q 2631 2406 2756 2579 
Q 2881 2753 2881 3156 
L 3181 3156 
L 3181 1356 
L 2881 1356 
Q 2881 1759 2756 1932 
Q 2631 2106 2203 2106 
L 1850 2106 
L 1850 300 
L 2822 300 
Q 3109 300 3331 342 
Q 3553 384 3706 482 
Q 3859 581 3965 693 
Q 4072 806 4142 989 
Q 4213 1172 4250 1337 
Q 4288 1503 4325 1753 
L 4628 1753 
L 4331 0 
L 250 0 
z
" transform="scale(0.015625)"/>
        <path id="CMUSerif-Bold-61" d="M 206 691 
Q 206 1606 2284 1697 
L 2284 1913 
Q 2284 2669 1581 2669 
Q 1331 2669 1119 2625 
Q 1259 2528 1259 2309 
Q 1259 2119 1139 2012 
Q 1019 1906 856 1906 
Q 709 1906 584 2012 
Q 459 2119 459 2309 
Q 459 2897 1606 2900 
Q 2297 2900 2656 2631 
Q 3016 2363 3016 1913 
L 3016 538 
Q 3016 447 3028 409 
Q 3041 372 3130 336 
Q 3219 300 3406 300 
Q 3463 300 3488 294 
Q 3513 288 3542 256 
Q 3572 225 3572 153 
Q 3572 50 3526 25 
Q 3481 0 3366 0 
L 3059 0 
Q 2822 0 2675 45 
Q 2528 91 2473 180 
Q 2419 269 2406 330 
Q 2394 391 2394 494 
Q 2119 -38 1441 -38 
Q 1250 -38 1056 -9 
Q 863 19 658 92 
Q 453 166 329 319 
Q 206 472 206 691 
z
M 953 697 
Q 953 484 1123 337 
Q 1294 191 1538 191 
Q 1622 191 1726 217 
Q 1831 244 1968 308 
Q 2106 372 2195 525 
Q 2284 678 2284 891 
L 2284 1497 
Q 2144 1491 2019 1475 
Q 1894 1459 1683 1404 
Q 1472 1350 1325 1273 
Q 1178 1197 1065 1045 
Q 953 894 953 697 
z
" transform="scale(0.015625)"/>
       </defs>
       <use xlink:href="#CMUSerif-Bold-45"/>
       <use xlink:href="#CMUSerif-Bold-61" x="75.488281"/>
       <use xlink:href="#CMUSerif-Bold-73" x="131.347656"/>
       <use xlink:href="#CMUSerif-Bold-74" x="176.611328"/>
      </g>
     </g>
    </g>
    <g id="xtick_4">
     <g id="line2d_4">
      <g>
       <use xlink:href="#me71a95e63c" x="337.826816" y="256.32" style="stroke: #000000; stroke-width: 0.8"/>
      </g>
     </g>
     <g id="text_4">
      <!-- South -->
      <g transform="translate(323.154941 270.259063) scale(0.1 -0.1)">
       <defs>
        <path id="CMUSerif-Bold-53" d="M 409 109 
L 409 1275 
Q 409 1397 431 1428 
Q 453 1459 563 1459 
Q 613 1459 642 1453 
Q 672 1447 687 1428 
Q 703 1409 706 1386 
Q 709 1363 709 1313 
Q 728 981 892 747 
Q 1056 513 1309 409 
Q 1563 306 1780 268 
Q 1997 231 2222 231 
Q 2669 231 2861 461 
Q 3053 691 3053 978 
Q 3053 1278 2797 1538 
Q 2694 1634 2569 1671 
Q 2444 1709 1984 1813 
Q 1403 1941 1187 2023 
Q 972 2106 756 2322 
Q 409 2688 409 3175 
Q 409 3719 781 4089 
Q 1153 4459 1844 4459 
Q 2497 4459 2938 4109 
L 3225 4391 
Q 3300 4459 3350 4459 
Q 3350 4459 3353 4459 
Q 3431 4459 3450 4425 
Q 3469 4391 3469 4281 
L 3469 3109 
Q 3469 2994 3447 2962 
Q 3425 2931 3316 2931 
Q 3219 2931 3197 2953 
Q 3175 2975 3156 3097 
Q 3084 3506 2861 3762 
Q 2638 4019 2388 4101 
Q 2138 4184 1850 4184 
Q 1416 4184 1223 3976 
Q 1031 3769 1031 3513 
Q 1031 3244 1223 3072 
Q 1416 2900 1644 2847 
L 2572 2650 
Q 3031 2553 3353 2183 
Q 3675 1813 3675 1300 
Q 3675 750 3312 339 
Q 2950 -72 2222 -72 
Q 1416 -72 941 281 
L 647 -13 
Q 584 -69 525 -72 
Q 447 -72 428 -36 
Q 409 0 409 109 
z
" transform="scale(0.015625)"/>
        <path id="CMUSerif-Bold-75" d="M 288 2528 
L 288 2828 
L 1459 2881 
L 1459 697 
Q 1459 403 1542 297 
Q 1625 191 1972 191 
Q 2325 191 2545 428 
Q 2766 666 2766 1056 
L 2766 2278 
Q 2766 2456 2698 2492 
Q 2631 2528 2322 2528 
L 2322 2828 
L 3494 2881 
L 3494 550 
Q 3494 372 3561 336 
Q 3628 300 3938 300 
L 3938 0 
L 2803 -38 
L 2803 459 
Q 2513 -38 1888 -38 
Q 1884 -38 1881 -38 
Q 1338 -38 1033 137 
Q 728 313 728 788 
L 728 2278 
Q 728 2456 661 2492 
Q 594 2528 288 2528 
z
" transform="scale(0.015625)"/>
       </defs>
       <use xlink:href="#CMUSerif-Bold-53"/>
       <use xlink:href="#CMUSerif-Bold-6f" x="63.769531"/>
       <use xlink:href="#CMUSerif-Bold-75" x="121.240234"/>
       <use xlink:href="#CMUSerif-Bold-74" x="185.009766"/>
       <use xlink:href="#CMUSerif-Bold-68" x="229.6875"/>
      </g>
     </g>
    </g>
    <g id="xtick_5">
     <g id="line2d_5">
      <g>
       <use xlink:href="#me71a95e63c" x="401.590147" y="256.32" style="stroke: #000000; stroke-width: 0.8"/>
      </g>
     </g>
     <g id="text_5">
      <!-- North-East -->
      <g transform="translate(373.45421 270.259063) scale(0.1 -0.1)">
       <defs>
        <path id="CMUSerif-Bold-2d" d="M 78 1113 
L 78 1734 
L 2034 1734 
L 2034 1113 
L 78 1113 
z
" transform="scale(0.015625)"/>
       </defs>
       <use xlink:href="#CMUSerif-Bold-4e"/>
       <use xlink:href="#CMUSerif-Bold-6f" x="89.990234"/>
       <use xlink:href="#CMUSerif-Bold-72" x="147.460938"/>
       <use xlink:href="#CMUSerif-Bold-74" x="194.726562"/>
       <use xlink:href="#CMUSerif-Bold-68" x="239.404297"/>
       <use xlink:href="#CMUSerif-Bold-2d" x="303.173828"/>
       <use xlink:href="#CMUSerif-Bold-45" x="341.455078"/>
       <use xlink:href="#CMUSerif-Bold-61" x="416.943359"/>
       <use xlink:href="#CMUSerif-Bold-73" x="472.802734"/>
       <use xlink:href="#CMUSerif-Bold-74" x="518.066406"/>
      </g>
     </g>
    </g>
    <g id="xtick_6">
     <g id="line2d_6">
      <g>
       <use xlink:href="#me71a95e63c" x="465.353479" y="256.32" style="stroke: #000000; stroke-width: 0.8"/>
      </g>
     </g>
     <g id="text_6">
      <!-- North-West -->
      <g transform="translate(435.21051 270.259063) scale(0.1 -0.1)">
       <use xlink:href="#CMUSerif-Bold-4e"/>
       <use xlink:href="#CMUSerif-Bold-6f" x="89.990234"/>
       <use xlink:href="#CMUSerif-Bold-72" x="147.460938"/>
       <use xlink:href="#CMUSerif-Bold-74" x="194.726562"/>
       <use xlink:href="#CMUSerif-Bold-68" x="239.404297"/>
       <use xlink:href="#CMUSerif-Bold-2d" x="303.173828"/>
       <use xlink:href="#CMUSerif-Bold-57" x="341.455078"/>
       <use xlink:href="#CMUSerif-Bold-65" x="460.253906"/>
       <use xlink:href="#CMUSerif-Bold-73" x="512.939453"/>
       <use xlink:href="#CMUSerif-Bold-74" x="558.203125"/>
      </g>
     </g>
    </g>
    <g id="xtick_7">
     <g id="line2d_7">
      <g>
       <use xlink:href="#me71a95e63c" x="529.116811" y="256.32" style="stroke: #000000; stroke-width: 0.8"/>
      </g>
     </g>
     <g id="text_7">
      <!-- South-East -->
      <g transform="translate(501.466811 270.259063) scale(0.1 -0.1)">
       <use xlink:href="#CMUSerif-Bold-53"/>
       <use xlink:href="#CMUSerif-Bold-6f" x="63.769531"/>
       <use xlink:href="#CMUSerif-Bold-75" x="121.240234"/>
       <use xlink:href="#CMUSerif-Bold-74" x="185.009766"/>
       <use xlink:href="#CMUSerif-Bold-68" x="229.6875"/>
       <use xlink:href="#CMUSerif-Bold-2d" x="293.457031"/>
       <use xlink:href="#CMUSerif-Bold-45" x="331.738281"/>
       <use xlink:href="#CMUSerif-Bold-61" x="407.226562"/>
       <use xlink:href="#CMUSerif-Bold-73" x="463.085938"/>
       <use xlink:href="#CMUSerif-Bold-74" x="508.349609"/>
      </g>
     </g>
    </g>
    <g id="xtick_8">
     <g id="line2d_8">
      <g>
       <use xlink:href="#me71a95e63c" x="592.880142" y="256.32" style="stroke: #000000; stroke-width: 0.8"/>
      </g>
     </g>
     <g id="text_8">
      <!-- South-West -->
      <g transform="translate(563.223111 270.259063) scale(0.1 -0.1)">
       <use xlink:href="#CMUSerif-Bold-53"/>
       <use xlink:href="#CMUSerif-Bold-6f" x="63.769531"/>
       <use xlink:href="#CMUSerif-Bold-75" x="121.240234"/>
       <use xlink:href="#CMUSerif-Bold-74" x="185.009766"/>
       <use xlink:href="#CMUSerif-Bold-68" x="229.6875"/>
       <use xlink:href="#CMUSerif-Bold-2d" x="293.457031"/>
       <use xlink:href="#CMUSerif-Bold-57" x="331.738281"/>
       <use xlink:href="#CMUSerif-Bold-65" x="450.537109"/>
       <use xlink:href="#CMUSerif-Bold-73" x="503.222656"/>
       <use xlink:href="#CMUSerif-Bold-74" x="548.486328"/>
      </g>
     </g>
    </g>
    <g id="text_9">
     <!-- Wind Directions -->
     <g transform="translate(325.941563 284.525) scale(0.12 -0.12)">
      <defs>
       <path id="CMUSerif-Roman-57" d="M 116 4172 
L 116 4372 
Q 206 4372 368 4365 
Q 531 4359 659 4356 
Q 788 4353 897 4353 
Q 1575 4353 1806 4372 
L 1806 4172 
Q 1269 4172 1269 3981 
Q 1269 3938 1281 3897 
L 2309 750 
L 3200 3494 
L 3059 3944 
Q 3009 4103 2900 4137 
Q 2791 4172 2484 4172 
L 2484 4372 
Q 2575 4372 2737 4365 
Q 2900 4359 3028 4356 
Q 3156 4353 3263 4353 
Q 3941 4353 4172 4372 
L 4172 4172 
Q 3634 4172 3634 3981 
Q 3634 3963 3653 3884 
L 4678 750 
L 5638 3706 
Q 5669 3803 5672 3834 
Q 5672 3950 5537 4058 
Q 5403 4166 5113 4172 
L 5113 4372 
Q 5613 4353 5875 4353 
Q 6169 4353 6456 4372 
L 6456 4172 
Q 5950 4172 5819 3744 
L 4594 -13 
Q 4581 -63 4572 -86 
Q 4563 -109 4538 -125 
Q 4513 -141 4469 -141 
Q 4384 -141 4347 -19 
L 3284 3238 
L 2228 -13 
Q 2216 -63 2205 -86 
Q 2194 -109 2169 -125 
Q 2144 -141 2100 -141 
Q 2016 -141 1978 -19 
L 697 3903 
Q 641 4088 555 4130 
Q 469 4172 116 4172 
z
" transform="scale(0.015625)"/>
       <path id="CMUSerif-Roman-69" d="M 213 0 
L 213 197 
Q 553 197 631 239 
Q 709 281 709 488 
L 709 2209 
Q 709 2447 629 2503 
Q 550 2559 238 2559 
L 238 2759 
L 1131 2828 
L 1131 481 
Q 1131 291 1200 244 
Q 1269 197 1581 197 
L 1581 0 
Q 928 19 916 19 
Q 828 19 213 0 
z
M 481 3944 
Q 481 4072 579 4176 
Q 678 4281 818 4281 
Q 959 4281 1059 4186 
Q 1159 4091 1159 3942 
Q 1159 3794 1059 3698 
Q 959 3603 819 3603 
Q 672 3603 576 3706 
Q 481 3809 481 3944 
z
" transform="scale(0.015625)"/>
       <path id="CMUSerif-Roman-6e" d="M 206 0 
L 206 197 
Q 547 197 625 239 
Q 703 281 703 488 
L 703 2203 
Q 703 2441 620 2500 
Q 538 2559 206 2559 
L 206 2759 
L 1106 2828 
L 1106 2156 
Q 1406 2828 2053 2828 
Q 2534 2828 2725 2591 
Q 2866 2431 2895 2253 
Q 2925 2075 2925 1613 
L 2925 391 
Q 2931 256 3034 226 
Q 3138 197 3425 197 
L 3425 0 
Q 2772 19 2706 19 
Q 2656 19 1984 0 
L 1984 197 
Q 2325 197 2404 239 
Q 2484 281 2484 488 
L 2484 1978 
Q 2484 2303 2384 2495 
Q 2284 2688 2009 2688 
Q 1678 2688 1412 2409 
Q 1147 2131 1147 1663 
L 1147 488 
Q 1147 281 1226 239 
Q 1306 197 1644 197 
L 1644 0 
Q 991 19 928 19 
Q 878 19 206 0 
z
" transform="scale(0.015625)"/>
       <path id="CMUSerif-Roman-64" d="M 219 1375 
Q 219 1984 644 2406 
Q 1069 2828 1644 2828 
Q 2131 2828 2450 2431 
L 2450 3816 
Q 2450 4053 2367 4112 
Q 2284 4172 1953 4172 
L 1953 4372 
L 2875 4441 
L 2875 556 
Q 2875 319 2958 258 
Q 3041 197 3372 197 
L 3372 0 
L 2431 -72 
L 2431 353 
Q 2100 -69 1575 -72 
Q 1025 -72 622 350 
Q 219 772 219 1375 
z
M 750 1369 
Q 750 775 934 481 
Q 1191 72 1606 72 
Q 2081 72 2363 519 
Q 2434 628 2431 756 
L 2431 2069 
Q 2431 2197 2363 2303 
Q 2100 2688 1672 2688 
Q 1225 2688 947 2278 
Q 750 1972 750 1369 
z
" transform="scale(0.015625)"/>
       <path id="CMUSerif-Roman-20" transform="scale(0.015625)"/>
       <path id="CMUSerif-Roman-44" d="M 225 0 
L 225 197 
L 378 197 
Q 725 197 804 255 
Q 884 313 884 500 
L 884 3872 
Q 884 4056 803 4114 
Q 722 4172 378 4172 
L 225 4172 
L 225 4372 
L 2566 4372 
Q 3384 4372 3954 3719 
Q 4525 3066 4525 2150 
Q 4525 1253 3951 626 
Q 3378 0 2566 0 
L 225 0 
z
M 1434 453 
Q 1434 288 1481 242 
Q 1528 197 1747 197 
L 2394 197 
Q 2816 197 3100 370 
Q 3384 544 3531 744 
Q 3884 1225 3884 2150 
Q 3884 3122 3553 3578 
Q 3125 4172 2388 4172 
L 1747 4172 
Q 1528 4172 1481 4128 
Q 1434 4084 1434 3916 
L 1434 453 
z
" transform="scale(0.015625)"/>
       <path id="CMUSerif-Roman-72" d="M 178 0 
L 178 197 
Q 519 197 598 239 
Q 678 281 678 488 
L 678 2203 
Q 678 2441 595 2500 
Q 513 2559 178 2559 
L 178 2759 
L 1069 2828 
L 1069 2125 
Q 1159 2400 1351 2614 
Q 1544 2828 1856 2828 
Q 2063 2828 2195 2712 
Q 2328 2597 2328 2438 
Q 2328 2297 2242 2226 
Q 2156 2156 2053 2156 
Q 1938 2156 1858 2229 
Q 1778 2303 1778 2431 
Q 1778 2509 1814 2570 
Q 1850 2631 1878 2653 
Q 1906 2675 1925 2681 
Q 1913 2688 1856 2688 
Q 1503 2688 1301 2336 
Q 1100 1984 1100 1484 
L 1100 500 
Q 1100 316 1176 256 
Q 1253 197 1588 197 
L 1722 197 
L 1722 0 
Q 1466 19 909 19 
Q 831 19 709 16 
Q 588 13 428 6 
Q 269 0 178 0 
z
" transform="scale(0.015625)"/>
       <path id="CMUSerif-Roman-65" d="M 178 1409 
Q 178 2013 565 2441 
Q 953 2869 1509 2869 
Q 2072 2869 2364 2503 
Q 2656 2138 2656 1613 
Q 2656 1516 2631 1497 
Q 2606 1478 2497 1478 
L 709 1478 
Q 709 825 903 519 
Q 1172 91 1625 91 
Q 1688 91 1763 103 
Q 1838 116 1991 170 
Q 2144 225 2278 372 
Q 2413 519 2491 750 
Q 2509 841 2572 838 
Q 2656 838 2656 763 
Q 2656 706 2595 579 
Q 2534 453 2418 303 
Q 2303 153 2079 40 
Q 1856 -72 1588 -72 
Q 1025 -72 601 354 
Q 178 781 178 1409 
z
M 716 1613 
L 2234 1613 
Q 2234 1747 2211 1897 
Q 2188 2047 2120 2255 
Q 2053 2463 1897 2594 
Q 1741 2725 1509 2725 
Q 1406 2725 1295 2681 
Q 1184 2638 1050 2531 
Q 916 2425 822 2184 
Q 728 1944 716 1613 
z
" transform="scale(0.015625)"/>
       <path id="CMUSerif-Roman-63" d="M 625 351 
Q 219 775 219 1383 
Q 219 1991 619 2430 
Q 1019 2869 1606 2869 
Q 1997 2869 2290 2683 
Q 2584 2497 2584 2181 
Q 2584 2041 2501 1961 
Q 2419 1881 2291 1881 
Q 2156 1881 2076 1964 
Q 1997 2047 1997 2175 
Q 1997 2231 2015 2287 
Q 2034 2344 2104 2403 
Q 2175 2463 2297 2472 
Q 2069 2706 1625 2706 
Q 1619 2706 1613 2706 
Q 1288 2706 1019 2400 
Q 750 2094 750 1394 
Q 750 1028 839 761 
Q 928 494 1075 356 
Q 1222 219 1365 155 
Q 1509 91 1650 91 
Q 2278 91 2491 763 
Q 2509 825 2572 825 
Q 2656 825 2656 763 
Q 2656 731 2631 650 
Q 2606 569 2528 441 
Q 2450 313 2339 202 
Q 2228 91 2033 9 
Q 1838 -72 1594 -72 
Q 1031 -72 625 351 
z
" transform="scale(0.015625)"/>
       <path id="CMUSerif-Roman-74" d="M 122 2559 
L 122 2700 
Q 416 2713 611 2920 
Q 806 3128 873 3384 
Q 941 3641 947 3938 
L 1106 3938 
L 1106 2759 
L 2022 2759 
L 2022 2559 
L 1106 2559 
L 1106 781 
Q 1106 91 1538 91 
Q 1722 91 1844 280 
Q 1966 469 1966 806 
L 1966 1159 
L 2125 1159 
L 2125 794 
Q 2125 447 1965 187 
Q 1806 -72 1491 -72 
Q 1375 -72 1261 -42 
Q 1147 -13 998 64 
Q 850 141 758 330 
Q 666 519 666 794 
L 666 2559 
L 122 2559 
z
" transform="scale(0.015625)"/>
       <path id="CMUSerif-Roman-6f" d="M 601 345 
Q 178 763 178 1370 
Q 178 1978 592 2423 
Q 1006 2869 1600 2869 
Q 2181 2869 2598 2426 
Q 3016 1984 3016 1369 
Q 3016 766 2595 347 
Q 2175 -72 1594 -72 
Q 1025 -72 601 345 
z
M 709 1422 
Q 709 800 872 519 
Q 1122 91 1600 91 
Q 1838 91 2036 219 
Q 2234 347 2344 563 
Q 2484 844 2484 1422 
Q 2484 2038 2316 2309 
Q 2066 2725 1594 2725 
Q 1388 2725 1186 2617 
Q 984 2509 863 2297 
Q 709 2016 709 1422 
z
" transform="scale(0.015625)"/>
       <path id="CMUSerif-Roman-73" d="M 213 84 
L 213 928 
Q 213 1000 216 1025 
Q 219 1050 237 1069 
Q 256 1088 294 1088 
Q 338 1088 355 1069 
Q 372 1050 384 978 
Q 481 538 689 305 
Q 897 72 1275 72 
Q 1634 72 1815 231 
Q 1997 391 1997 653 
Q 1997 1122 1331 1241 
Q 947 1319 787 1370 
Q 628 1422 488 1538 
Q 213 1763 213 2081 
Q 213 2400 455 2634 
Q 697 2869 1234 2869 
Q 1594 2869 1838 2688 
Q 1909 2744 1947 2791 
Q 2031 2869 2075 2869 
Q 2125 2869 2134 2836 
Q 2144 2803 2144 2713 
L 2144 2069 
Q 2144 1997 2141 1972 
Q 2138 1947 2119 1930 
Q 2100 1913 2059 1913 
Q 1988 1913 1984 1972 
Q 1934 2747 1234 2747 
Q 856 2747 687 2601 
Q 519 2456 519 2259 
Q 519 2150 570 2067 
Q 622 1984 689 1936 
Q 756 1888 881 1842 
Q 1006 1797 1082 1781 
Q 1159 1766 1306 1734 
Q 1819 1638 2034 1428 
Q 2303 1159 2303 819 
Q 2303 441 2047 184 
Q 1791 -72 1275 -72 
Q 859 -72 569 206 
Q 531 169 503 136 
Q 475 103 464 90 
Q 453 78 450 70 
Q 447 63 441 56 
Q 313 -72 281 -72 
Q 231 -72 222 -39 
Q 213 -6 213 84 
z
" transform="scale(0.015625)"/>
      </defs>
      <use xlink:href="#CMUSerif-Roman-57"/>
      <use xlink:href="#CMUSerif-Roman-69" x="102.685547"/>
      <use xlink:href="#CMUSerif-Roman-6e" x="130.371094"/>
      <use xlink:href="#CMUSerif-Roman-64" x="185.839844"/>
      <use xlink:href="#CMUSerif-Roman-20" x="241.308594"/>
      <use xlink:href="#CMUSerif-Roman-44" x="274.560547"/>
      <use xlink:href="#CMUSerif-Roman-69" x="350.830078"/>
      <use xlink:href="#CMUSerif-Roman-72" x="378.515625"/>
      <use xlink:href="#CMUSerif-Roman-65" x="417.578125"/>
      <use xlink:href="#CMUSerif-Roman-63" x="461.962891"/>
      <use xlink:href="#CMUSerif-Roman-74" x="506.347656"/>
      <use xlink:href="#CMUSerif-Roman-69" x="545.117188"/>
      <use xlink:href="#CMUSerif-Roman-6f" x="572.802734"/>
      <use xlink:href="#CMUSerif-Roman-6e" x="622.802734"/>
      <use xlink:href="#CMUSerif-Roman-73" x="678.271484"/>
     </g>
    </g>
   </g>
   <g id="matplotlib.axis_2">
    <g id="ytick_1">
     <g id="line2d_9">
      <path d="M 90 256.32 
L 648 256.32 
" clip-path="url(#pb1a3c6416c)" style="fill: none; stroke-dasharray: 1.85,0.8; stroke-dashoffset: 0; stroke: #808080; stroke-width: 0.5"/>
     </g>
     <g id="line2d_10">
      <defs>
       <path id="m69dcfb0e42" d="M 0 0 
L -3.5 0 
" style="stroke: #000000; stroke-width: 0.8"/>
      </defs>
      <g>
       <use xlink:href="#m69dcfb0e42" x="90" y="256.32" style="stroke: #000000; stroke-width: 0.8"/>
      </g>
     </g>
     <g id="text_10">
      <!-- 0 -->
      <g transform="translate(77.253125 259.789531) scale(0.1 -0.1)">
       <defs>
        <path id="CMUSerif-Bold-30" d="M 291 1722 
Q 288 1850 288 2042 
Q 288 2234 291 2362 
Q 294 2491 326 2736 
Q 359 2981 414 3154 
Q 469 3328 583 3539 
Q 697 3750 855 3881 
Q 1013 4013 1264 4102 
Q 1516 4191 1836 4191 
Q 2156 4191 2409 4098 
Q 2663 4006 2819 3878 
Q 2975 3750 3090 3536 
Q 3206 3322 3261 3151 
Q 3316 2981 3347 2736 
Q 3378 2491 3381 2362 
Q 3384 2234 3384 2042 
Q 3384 1850 3381 1719 
Q 3378 1588 3347 1347 
Q 3316 1106 3261 937 
Q 3206 769 3090 564 
Q 2975 359 2815 231 
Q 2656 103 2403 15 
Q 2150 -72 1838 -72 
Q 1519 -72 1266 18 
Q 1013 109 855 234 
Q 697 359 583 567 
Q 469 775 414 940 
Q 359 1106 326 1350 
Q 294 1594 291 1722 
z
M 1106 2119 
Q 1106 1100 1166 769 
Q 1222 456 1423 307 
Q 1625 159 1838 159 
Q 1966 159 2087 201 
Q 2209 244 2346 406 
Q 2484 569 2522 844 
Q 2566 1175 2566 2119 
Q 2566 3322 2456 3559 
Q 2372 3756 2200 3859 
Q 2028 3963 1838 3963 
Q 1722 3963 1603 3930 
Q 1484 3897 1337 3740 
Q 1191 3584 1159 3328 
Q 1106 2997 1106 2119 
z
" transform="scale(0.015625)"/>
       </defs>
       <use xlink:href="#CMUSerif-Bold-30"/>
      </g>
     </g>
    </g>
    <g id="ytick_2">
     <g id="line2d_11">
      <path d="M 90 227.467541 
L 648 227.467541 
" clip-path="url(#pb1a3c6416c)" style="fill: none; stroke-dasharray: 1.85,0.8; stroke-dashoffset: 0; stroke: #808080; stroke-width: 0.5"/>
     </g>
     <g id="line2d_12">
      <g>
       <use xlink:href="#m69dcfb0e42" x="90" y="227.467541" style="stroke: #000000; stroke-width: 0.8"/>
      </g>
     </g>
     <g id="text_11">
      <!-- 25 -->
      <g transform="translate(71.50625 230.937072) scale(0.1 -0.1)">
       <defs>
        <path id="CMUSerif-Bold-32" d="M 366 0 
L 366 116 
Q 366 219 378 247 
Q 391 275 447 331 
L 1734 1644 
Q 2425 2347 2425 2975 
Q 2425 3359 2201 3625 
Q 1978 3891 1581 3891 
Q 1191 3891 922 3669 
Q 994 3650 1062 3614 
Q 1131 3578 1209 3468 
Q 1288 3359 1288 3206 
Q 1288 2981 1142 2864 
Q 997 2747 825 2747 
Q 666 2747 516 2858 
Q 366 2969 366 3219 
Q 366 3647 759 3919 
Q 1153 4191 1741 4191 
Q 2425 4191 2867 3858 
Q 3309 3525 3309 2981 
Q 3309 2756 3245 2584 
Q 3181 2413 3001 2223 
Q 2822 2034 2669 1912 
Q 2516 1791 2169 1538 
Q 1869 1319 1247 800 
L 2188 800 
Q 2769 800 2841 838 
Q 2925 881 3009 1422 
L 3309 1422 
L 3109 0 
L 366 0 
z
" transform="scale(0.015625)"/>
        <path id="CMUSerif-Bold-35" d="M 366 1019 
Q 366 1197 458 1306 
Q 550 1416 636 1441 
Q 722 1466 794 1466 
Q 947 1466 1084 1359 
Q 1222 1253 1222 1031 
Q 1222 841 1103 728 
Q 984 616 806 603 
Q 1100 206 1631 206 
Q 1791 206 1916 243 
Q 2041 281 2122 339 
Q 2203 397 2256 495 
Q 2309 594 2339 675 
Q 2369 756 2381 890 
Q 2394 1025 2397 1101 
Q 2400 1178 2400 1313 
Q 2400 1519 2397 1626 
Q 2394 1734 2366 1904 
Q 2338 2075 2280 2161 
Q 2222 2247 2109 2317 
Q 1997 2388 1831 2388 
Q 1275 2388 972 2028 
Q 909 1950 831 1953 
Q 769 1953 736 1981 
Q 703 2009 697 2045 
Q 691 2081 691 2150 
L 691 4019 
Q 691 4081 694 4111 
Q 697 4141 717 4166 
Q 738 4191 781 4191 
Q 788 4191 863 4166 
Q 1381 3988 1856 3988 
Q 2369 3988 2834 4166 
Q 2906 4191 2931 4191 
Q 3022 4191 3022 4078 
Q 3022 4006 2909 3868 
Q 2797 3731 2611 3578 
Q 2425 3425 2125 3309 
Q 1825 3194 1497 3194 
Q 1278 3194 1031 3238 
L 1031 2394 
Q 1356 2619 1856 2619 
Q 2541 2619 2925 2241 
Q 3309 1863 3309 1288 
Q 3309 694 2861 311 
Q 2413 -72 1656 -72 
Q 1088 -72 727 259 
Q 366 591 366 1019 
z
" transform="scale(0.015625)"/>
       </defs>
       <use xlink:href="#CMUSerif-Bold-32"/>
       <use xlink:href="#CMUSerif-Bold-35" x="57.470703"/>
      </g>
     </g>
    </g>
    <g id="ytick_3">
     <g id="line2d_13">
      <path d="M 90 198.615082 
L 648 198.615082 
" clip-path="url(#pb1a3c6416c)" style="fill: none; stroke-dasharray: 1.85,0.8; stroke-dashoffset: 0; stroke: #808080; stroke-width: 0.5"/>
     </g>
     <g id="line2d_14">
      <g>
       <use xlink:href="#m69dcfb0e42" x="90" y="198.615082" style="stroke: #000000; stroke-width: 0.8"/>
      </g>
     </g>
     <g id="text_12">
      <!-- 50 -->
      <g transform="translate(71.50625 202.084613) scale(0.1 -0.1)">
       <use xlink:href="#CMUSerif-Bold-35"/>
       <use xlink:href="#CMUSerif-Bold-30" x="57.470703"/>
      </g>
     </g>
    </g>
    <g id="ytick_4">
     <g id="line2d_15">
      <path d="M 90 169.762623 
L 648 169.762623 
" clip-path="url(#pb1a3c6416c)" style="fill: none; stroke-dasharray: 1.85,0.8; stroke-dashoffset: 0; stroke: #808080; stroke-width: 0.5"/>
     </g>
     <g id="line2d_16">
      <g>
       <use xlink:href="#m69dcfb0e42" x="90" y="169.762623" style="stroke: #000000; stroke-width: 0.8"/>
      </g>
     </g>
     <g id="text_13">
      <!-- 75 -->
      <g transform="translate(71.50625 173.232154) scale(0.1 -0.1)">
       <defs>
        <path id="CMUSerif-Bold-37" d="M 409 2700 
L 634 4325 
L 934 4325 
Q 941 4281 950 4262 
Q 959 4244 992 4217 
Q 1025 4191 1088 4178 
Q 1144 4159 1628 4140 
Q 2113 4122 2266 4122 
L 3572 4122 
Q 3572 3950 3562 3908 
Q 3553 3866 3506 3816 
L 2516 2663 
Q 2191 2284 2100 1594 
Q 2038 1166 2034 678 
L 2034 384 
Q 2034 194 1948 81 
Q 1863 -31 1786 -51 
Q 1709 -72 1631 -72 
Q 1606 -72 1575 -67 
Q 1544 -63 1476 -41 
Q 1409 -19 1361 26 
Q 1313 72 1273 161 
Q 1234 250 1234 378 
Q 1234 1653 2309 2906 
L 2663 3322 
L 1581 3322 
Q 953 3322 884 3284 
Q 781 3234 709 2700 
L 409 2700 
z
" transform="scale(0.015625)"/>
       </defs>
       <use xlink:href="#CMUSerif-Bold-37"/>
       <use xlink:href="#CMUSerif-Bold-35" x="57.470703"/>
      </g>
     </g>
    </g>
    <g id="ytick_5">
     <g id="line2d_17">
      <path d="M 90 140.910164 
L 648 140.910164 
" clip-path="url(#pb1a3c6416c)" style="fill: none; stroke-dasharray: 1.85,0.8; stroke-dashoffset: 0; stroke: #808080; stroke-width: 0.5"/>
     </g>
     <g id="line2d_18">
      <g>
       <use xlink:href="#m69dcfb0e42" x="90" y="140.910164" style="stroke: #000000; stroke-width: 0.8"/>
      </g>
     </g>
     <g id="text_14">
      <!-- 100 -->
      <g transform="translate(65.759375 144.379695) scale(0.1 -0.1)">
       <defs>
        <path id="CMUSerif-Bold-31" d="M 544 3481 
L 544 3781 
L 672 3781 
Q 1466 3781 1959 4147 
Q 2016 4191 2100 4191 
Q 2216 4191 2241 4150 
Q 2266 4109 2266 3988 
L 2266 300 
L 3163 300 
L 3163 0 
Q 2881 19 1889 19 
Q 897 19 616 0 
L 616 300 
L 1503 300 
L 1503 3609 
Q 1106 3481 672 3481 
L 544 3481 
z
" transform="scale(0.015625)"/>
       </defs>
       <use xlink:href="#CMUSerif-Bold-31"/>
       <use xlink:href="#CMUSerif-Bold-30" x="57.470703"/>
       <use xlink:href="#CMUSerif-Bold-30" x="114.941406"/>
      </g>
     </g>
    </g>
    <g id="ytick_6">
     <g id="line2d_19">
      <path d="M 90 112.057705 
L 648 112.057705 
" clip-path="url(#pb1a3c6416c)" style="fill: none; stroke-dasharray: 1.85,0.8; stroke-dashoffset: 0; stroke: #808080; stroke-width: 0.5"/>
     </g>
     <g id="line2d_20">
      <g>
       <use xlink:href="#m69dcfb0e42" x="90" y="112.057705" style="stroke: #000000; stroke-width: 0.8"/>
      </g>
     </g>
     <g id="text_15">
      <!-- 125 -->
      <g transform="translate(65.759375 115.527236) scale(0.1 -0.1)">
       <use xlink:href="#CMUSerif-Bold-31"/>
       <use xlink:href="#CMUSerif-Bold-32" x="57.470703"/>
       <use xlink:href="#CMUSerif-Bold-35" x="114.941406"/>
      </g>
     </g>
    </g>
    <g id="ytick_7">
     <g id="line2d_21">
      <path d="M 90 83.205246 
L 648 83.205246 
" clip-path="url(#pb1a3c6416c)" style="fill: none; stroke-dasharray: 1.85,0.8; stroke-dashoffset: 0; stroke: #808080; stroke-width: 0.5"/>
     </g>
     <g id="line2d_22">
      <g>
       <use xlink:href="#m69dcfb0e42" x="90" y="83.205246" style="stroke: #000000; stroke-width: 0.8"/>
      </g>
     </g>
     <g id="text_16">
      <!-- 150 -->
      <g transform="translate(65.759375 86.674777) scale(0.1 -0.1)">
       <use xlink:href="#CMUSerif-Bold-31"/>
       <use xlink:href="#CMUSerif-Bold-35" x="57.470703"/>
       <use xlink:href="#CMUSerif-Bold-30" x="114.941406"/>
      </g>
     </g>
    </g>
    <g id="ytick_8">
     <g id="line2d_23">
      <path d="M 90 54.352787 
L 648 54.352787 
" clip-path="url(#pb1a3c6416c)" style="fill: none; stroke-dasharray: 1.85,0.8; stroke-dashoffset: 0; stroke: #808080; stroke-width: 0.5"/>
     </g>
     <g id="line2d_24">
      <g>
       <use xlink:href="#m69dcfb0e42" x="90" y="54.352787" style="stroke: #000000; stroke-width: 0.8"/>
      </g>
     </g>
     <g id="text_17">
      <!-- 175 -->
      <g transform="translate(65.759375 57.822318) scale(0.1 -0.1)">
       <use xlink:href="#CMUSerif-Bold-31"/>
       <use xlink:href="#CMUSerif-Bold-37" x="57.470703"/>
       <use xlink:href="#CMUSerif-Bold-35" x="114.941406"/>
      </g>
     </g>
    </g>
    <g id="text_18">
     <!-- Frequency in a Month [sample/hour] -->
     <g transform="translate(58.759375 242.451562) rotate(-90) scale(0.12 -0.12)">
      <defs>
       <path id="CMUSerif-Roman-46" d="M 213 0 
L 213 197 
L 366 197 
Q 713 197 792 255 
Q 872 313 872 500 
L 872 3853 
Q 872 4038 790 4095 
Q 709 4153 366 4153 
L 213 4153 
L 213 4353 
L 3725 4353 
L 3903 2913 
L 3744 2913 
Q 3700 3278 3642 3486 
Q 3584 3694 3453 3859 
Q 3322 4025 3101 4089 
Q 2881 4153 2522 4153 
L 1753 4153 
Q 1534 4153 1487 4108 
Q 1441 4063 1441 3897 
L 1441 2278 
L 1991 2278 
Q 2425 2278 2547 2434 
Q 2669 2591 2669 3028 
L 2828 3028 
L 2828 1331 
L 2669 1331 
Q 2669 1772 2547 1926 
Q 2425 2081 1991 2081 
L 1441 2081 
L 1441 506 
Q 1441 372 1462 320 
Q 1484 269 1618 233 
Q 1753 197 2047 197 
L 2259 197 
L 2259 0 
Q 2028 19 1184 19 
Q 438 19 213 0 
z
" transform="scale(0.015625)"/>
       <path id="CMUSerif-Roman-71" d="M 219 1375 
Q 219 1991 641 2409 
Q 1063 2828 1631 2828 
Q 1869 2828 2064 2712 
Q 2259 2597 2345 2483 
Q 2431 2369 2491 2247 
L 2731 2828 
L 2875 2828 
L 2875 -756 
Q 2875 -963 2954 -1003 
Q 3034 -1044 3372 -1044 
L 3372 -1241 
Q 2700 -1222 2650 -1222 
Q 2588 -1222 1931 -1241 
L 1931 -1044 
Q 2272 -1044 2351 -1001 
Q 2431 -959 2431 -756 
L 2431 391 
Q 2078 -69 1581 -72 
Q 1025 -72 622 354 
Q 219 781 219 1375 
z
M 750 1375 
Q 750 825 1001 448 
Q 1253 72 1606 72 
Q 1953 72 2194 331 
Q 2450 613 2450 872 
L 2450 1772 
Q 2450 2072 2236 2370 
Q 2022 2669 1672 2669 
Q 1306 2669 1028 2300 
Q 750 1931 750 1375 
z
" transform="scale(0.015625)"/>
       <path id="CMUSerif-Roman-75" d="M 206 2559 
L 206 2759 
L 1147 2828 
L 1147 703 
Q 1147 550 1159 461 
Q 1172 372 1223 269 
Q 1275 166 1395 119 
Q 1516 72 1709 72 
Q 2056 72 2270 356 
Q 2484 641 2484 1063 
L 2484 2203 
Q 2484 2441 2400 2500 
Q 2316 2559 1984 2559 
L 1984 2759 
L 2925 2828 
L 2925 556 
Q 2925 319 3008 258 
Q 3091 197 3425 197 
L 3425 0 
L 2503 -72 
L 2503 506 
Q 2234 -69 1678 -72 
Q 1397 -72 1205 0 
Q 1013 72 916 161 
Q 819 250 767 422 
Q 716 594 709 700 
Q 703 806 703 1013 
L 703 1972 
Q 703 2406 640 2482 
Q 578 2559 206 2559 
z
" transform="scale(0.015625)"/>
       <path id="CMUSerif-Roman-79" d="M 122 -794 
Q 122 -659 201 -589 
Q 281 -519 391 -519 
Q 506 -519 582 -592 
Q 659 -666 659 -788 
Q 659 -1025 409 -1056 
Q 531 -1172 709 -1172 
Q 900 -1172 1054 -1031 
Q 1209 -891 1276 -756 
Q 1344 -622 1441 -378 
Q 1531 -188 1600 0 
L 641 2338 
Q 578 2491 481 2525 
Q 384 2559 122 2559 
L 122 2759 
Q 409 2741 744 2741 
Q 941 2741 1441 2759 
L 1441 2559 
Q 1081 2559 1081 2394 
Q 1081 2375 1119 2278 
L 1831 556 
L 2478 2131 
Q 2516 2222 2516 2284 
Q 2516 2547 2216 2559 
L 2216 2759 
Q 2638 2741 2772 2741 
Q 3034 2741 3250 2759 
L 3250 2559 
Q 2822 2559 2656 2150 
L 1528 -581 
Q 1222 -1309 709 -1313 
Q 466 -1313 294 -1163 
Q 122 -1013 122 -794 
z
" transform="scale(0.015625)"/>
       <path id="CMUSerif-Roman-61" d="M 269 609 
Q 269 1153 909 1441 
Q 1294 1625 2088 1672 
L 2088 1906 
Q 2088 2303 1880 2514 
Q 1672 2725 1409 2725 
Q 941 2725 716 2431 
Q 906 2425 975 2329 
Q 1044 2234 1044 2138 
Q 1044 2009 964 1926 
Q 884 1844 750 1844 
Q 622 1844 537 1923 
Q 453 2003 453 2144 
Q 453 2456 736 2662 
Q 1019 2869 1422 2869 
Q 1947 2869 2297 2516 
Q 2406 2406 2461 2265 
Q 2516 2125 2522 2033 
Q 2528 1941 2528 1759 
L 2528 481 
Q 2528 444 2540 381 
Q 2553 319 2611 239 
Q 2669 159 2766 159 
Q 2997 159 2994 569 
L 2994 928 
L 3156 928 
L 3156 569 
Q 3156 228 2976 95 
Q 2797 -38 2631 -38 
Q 2419 -38 2284 118 
Q 2150 275 2131 488 
Q 2034 244 1814 86 
Q 1594 -72 1294 -72 
Q 1063 -72 845 -14 
Q 628 44 448 205 
Q 269 366 269 609 
z
M 763 616 
Q 763 378 931 225 
Q 1100 72 1338 72 
Q 1606 72 1847 280 
Q 2088 488 2088 897 
L 2088 1538 
Q 1378 1513 1070 1230 
Q 763 947 763 616 
z
" transform="scale(0.015625)"/>
       <path id="CMUSerif-Roman-4d" d="M 238 0 
L 238 197 
Q 469 197 616 242 
Q 763 288 817 373 
Q 872 459 884 517 
Q 897 575 897 672 
L 897 3872 
Q 897 4056 817 4114 
Q 738 4172 391 4172 
L 238 4172 
L 238 4372 
L 1319 4372 
Q 1434 4372 1465 4351 
Q 1497 4331 1544 4231 
L 2931 647 
L 4331 4250 
Q 4363 4341 4392 4356 
Q 4422 4372 4544 4372 
L 5625 4372 
L 5625 4172 
L 5472 4172 
Q 5125 4172 5045 4114 
Q 4966 4056 4966 3872 
L 4966 500 
Q 4966 316 5045 256 
Q 5125 197 5472 197 
L 5625 197 
L 5625 0 
Q 5388 19 4709 19 
Q 4025 19 3788 0 
L 3788 197 
L 3944 197 
Q 4291 197 4369 255 
Q 4447 313 4447 500 
L 4447 4172 
L 4441 4172 
L 2869 122 
Q 2825 0 2753 0 
Q 2675 0 2625 141 
L 1081 4122 
L 1075 4122 
L 1075 672 
Q 1075 575 1087 517 
Q 1100 459 1154 373 
Q 1209 288 1356 242 
Q 1503 197 1734 197 
L 1734 0 
Q 1063 19 986 19 
Q 909 19 238 0 
z
" transform="scale(0.015625)"/>
       <path id="CMUSerif-Roman-68" d="M 206 0 
L 206 197 
Q 547 197 625 239 
Q 703 281 703 488 
L 703 3816 
Q 703 4053 620 4112 
Q 538 4172 206 4172 
L 206 4372 
L 1125 4441 
L 1125 2216 
L 1131 2216 
Q 1234 2447 1465 2637 
Q 1697 2828 2053 2828 
Q 2534 2828 2725 2591 
Q 2866 2431 2895 2253 
Q 2925 2075 2925 1613 
L 2925 391 
Q 2931 256 3034 226 
Q 3138 197 3425 197 
L 3425 0 
Q 2772 19 2706 19 
Q 2656 19 1984 0 
L 1984 197 
Q 2325 197 2404 239 
Q 2484 281 2484 488 
L 2484 1978 
Q 2484 2303 2384 2495 
Q 2284 2688 2009 2688 
Q 1678 2688 1412 2409 
Q 1147 2131 1147 1663 
L 1147 488 
Q 1147 281 1226 239 
Q 1306 197 1644 197 
L 1644 0 
Q 991 19 928 19 
Q 878 19 206 0 
z
" transform="scale(0.015625)"/>
       <path id="CMUSerif-Roman-5b" d="M 666 -1600 
L 666 4800 
L 1631 4800 
L 1631 4653 
L 1094 4653 
L 1094 -1453 
L 1631 -1453 
L 1631 -1600 
L 666 -1600 
z
" transform="scale(0.015625)"/>
       <path id="CMUSerif-Roman-6d" d="M 206 0 
L 206 197 
Q 547 197 625 239 
Q 703 281 703 488 
L 703 2203 
Q 703 2441 620 2500 
Q 538 2559 206 2559 
L 206 2759 
L 1106 2828 
L 1106 2156 
Q 1406 2828 2053 2828 
Q 2803 2828 2906 2203 
Q 3016 2447 3245 2637 
Q 3475 2828 3834 2828 
Q 4316 2828 4506 2591 
Q 4647 2431 4675 2253 
Q 4703 2075 4703 1613 
L 4703 391 
Q 4709 256 4812 226 
Q 4916 197 5203 197 
L 5203 0 
Q 4550 19 4488 19 
Q 4438 19 3763 0 
L 3763 197 
Q 4103 197 4183 239 
Q 4263 281 4263 488 
L 4263 1978 
Q 4263 2303 4163 2495 
Q 4063 2688 3788 2688 
Q 3456 2688 3190 2409 
Q 2925 2131 2925 1663 
L 2925 488 
Q 2925 281 3004 239 
Q 3084 197 3425 197 
L 3425 0 
Q 2772 19 2706 19 
Q 2656 19 1984 0 
L 1984 197 
Q 2325 197 2404 239 
Q 2484 281 2484 488 
L 2484 1978 
Q 2484 2303 2384 2495 
Q 2284 2688 2009 2688 
Q 1678 2688 1412 2409 
Q 1147 2131 1147 1663 
L 1147 488 
Q 1147 281 1226 239 
Q 1306 197 1644 197 
L 1644 0 
Q 991 19 928 19 
Q 878 19 206 0 
z
" transform="scale(0.015625)"/>
       <path id="CMUSerif-Roman-70" d="M 178 -1044 
Q 519 -1044 598 -1001 
Q 678 -959 678 -756 
L 678 2241 
Q 678 2453 598 2506 
Q 519 2559 178 2559 
L 178 2759 
L 1100 2828 
L 1100 2406 
Q 1484 2828 1997 2828 
Q 2541 2828 2937 2406 
Q 3334 1984 3334 1381 
Q 3334 772 2912 350 
Q 2491 -72 1906 -72 
Q 1588 -72 1373 92 
Q 1159 256 1119 378 
L 1119 319 
L 1119 -756 
Q 1119 -963 1200 -1003 
Q 1281 -1044 1619 -1044 
L 1619 -1241 
Q 947 -1222 897 -1222 
Q 834 -1222 178 -1241 
L 178 -1044 
z
M 1119 728 
Q 1119 631 1133 597 
Q 1147 563 1209 459 
Q 1463 72 1875 72 
Q 1878 72 1881 72 
Q 2247 72 2525 445 
Q 2803 819 2803 1381 
Q 2803 1919 2550 2294 
Q 2297 2669 1947 2669 
Q 1697 2669 1478 2534 
Q 1259 2400 1119 2156 
L 1119 728 
z
" transform="scale(0.015625)"/>
       <path id="CMUSerif-Roman-6c" d="M 213 0 
L 213 197 
Q 553 197 631 239 
Q 709 281 709 488 
L 709 3816 
Q 709 4053 626 4112 
Q 544 4172 213 4172 
L 213 4372 
L 1131 4441 
L 1131 488 
Q 1131 281 1212 239 
Q 1294 197 1631 197 
L 1631 0 
Q 1553 0 1390 6 
Q 1228 13 1109 16 
Q 991 19 922 19 
Q 847 19 213 0 
z
" transform="scale(0.015625)"/>
       <path id="CMUSerif-Roman-2f" d="M 366 -1509 
Q 366 -1478 391 -1409 
L 2650 4628 
Q 2650 4634 2665 4668 
Q 2681 4703 2690 4726 
Q 2700 4750 2720 4769 
Q 2741 4788 2766 4788 
Q 2828 4788 2828 4709 
Q 2828 4703 2809 4628 
L 544 -1416 
Q 506 -1525 482 -1556 
Q 459 -1588 422 -1588 
Q 366 -1588 366 -1509 
z
" transform="scale(0.015625)"/>
       <path id="CMUSerif-Roman-5d" d="M 134 -1453 
L 672 -1453 
L 672 4653 
L 134 4653 
L 134 4800 
L 1100 4800 
L 1100 -1600 
L 134 -1600 
L 134 -1453 
z
" transform="scale(0.015625)"/>
      </defs>
      <use xlink:href="#CMUSerif-Roman-46"/>
      <use xlink:href="#CMUSerif-Roman-72" x="65.185547"/>
      <use xlink:href="#CMUSerif-Roman-65" x="104.248047"/>
      <use xlink:href="#CMUSerif-Roman-71" x="148.632812"/>
      <use xlink:href="#CMUSerif-Roman-75" x="201.318359"/>
      <use xlink:href="#CMUSerif-Roman-65" x="256.787109"/>
      <use xlink:href="#CMUSerif-Roman-6e" x="301.171875"/>
      <use xlink:href="#CMUSerif-Roman-63" x="356.640625"/>
      <use xlink:href="#CMUSerif-Roman-79" x="401.025391"/>
      <use xlink:href="#CMUSerif-Roman-20" x="453.710938"/>
      <use xlink:href="#CMUSerif-Roman-69" x="486.962891"/>
      <use xlink:href="#CMUSerif-Roman-6e" x="514.648438"/>
      <use xlink:href="#CMUSerif-Roman-20" x="570.117188"/>
      <use xlink:href="#CMUSerif-Roman-61" x="603.369141"/>
      <use xlink:href="#CMUSerif-Roman-20" x="653.369141"/>
      <use xlink:href="#CMUSerif-Roman-4d" x="686.621094"/>
      <use xlink:href="#CMUSerif-Roman-6f" x="778.173828"/>
      <use xlink:href="#CMUSerif-Roman-6e" x="828.173828"/>
      <use xlink:href="#CMUSerif-Roman-74" x="883.642578"/>
      <use xlink:href="#CMUSerif-Roman-68" x="922.412109"/>
      <use xlink:href="#CMUSerif-Roman-20" x="977.880859"/>
      <use xlink:href="#CMUSerif-Roman-5b" x="1011.132812"/>
      <use xlink:href="#CMUSerif-Roman-73" x="1038.916016"/>
      <use xlink:href="#CMUSerif-Roman-61" x="1078.271484"/>
      <use xlink:href="#CMUSerif-Roman-6d" x="1128.271484"/>
      <use xlink:href="#CMUSerif-Roman-70" x="1211.523438"/>
      <use xlink:href="#CMUSerif-Roman-6c" x="1266.992188"/>
      <use xlink:href="#CMUSerif-Roman-65" x="1294.677734"/>
      <use xlink:href="#CMUSerif-Roman-2f" x="1339.0625"/>
      <use xlink:href="#CMUSerif-Roman-68" x="1389.0625"/>
      <use xlink:href="#CMUSerif-Roman-6f" x="1444.53125"/>
      <use xlink:href="#CMUSerif-Roman-75" x="1494.53125"/>
      <use xlink:href="#CMUSerif-Roman-72" x="1550"/>
      <use xlink:href="#CMUSerif-Roman-5d" x="1589.0625"/>
     </g>
    </g>
   </g>
   <g id="patch_3">
    <path d="M 115.363636 256.32 
L 178.772727 256.32 
L 178.772727 162.838033 
L 115.363636 162.838033 
z
" clip-path="url(#pb1a3c6416c)" style="fill: #51ab88; stroke: #387c61; stroke-width: 0.2; stroke-linejoin: miter"/>
   </g>
   <g id="patch_4">
    <path d="M 178.772727 256.32 
L 242.181818 256.32 
L 242.181818 154.759344 
L 178.772727 154.759344 
z
" clip-path="url(#pb1a3c6416c)" style="fill: #51ab88; stroke: #387c61; stroke-width: 0.2; stroke-linejoin: miter"/>
   </g>
   <g id="patch_5">
    <path d="M 242.181818 256.32 
L 305.590909 256.32 
L 305.590909 198.615082 
L 242.181818 198.615082 
z
" clip-path="url(#pb1a3c6416c)" style="fill: #51ab88; stroke: #387c61; stroke-width: 0.2; stroke-linejoin: miter"/>
   </g>
   <g id="patch_6">
    <path d="M 305.590909 256.32 
L 369 256.32 
L 369 214.772459 
L 305.590909 214.772459 
z
" clip-path="url(#pb1a3c6416c)" style="fill: #51ab88; stroke: #387c61; stroke-width: 0.2; stroke-linejoin: miter"/>
   </g>
   <g id="patch_7">
    <path d="M 369 256.32 
L 432.409091 256.32 
L 432.409091 151.297049 
L 369 151.297049 
z
" clip-path="url(#pb1a3c6416c)" style="fill: #51ab88; stroke: #387c61; stroke-width: 0.2; stroke-linejoin: miter"/>
   </g>
   <g id="patch_8">
    <path d="M 432.409091 256.32 
L 495.818182 256.32 
L 495.818182 45.12 
L 432.409091 45.12 
z
" clip-path="url(#pb1a3c6416c)" style="fill: #51ab88; stroke: #387c61; stroke-width: 0.2; stroke-linejoin: miter"/>
   </g>
   <g id="patch_9">
    <path d="M 495.818182 256.32 
L 559.227273 256.32 
L 559.227273 133.985574 
L 495.818182 133.985574 
z
" clip-path="url(#pb1a3c6416c)" style="fill: #51ab88; stroke: #387c61; stroke-width: 0.2; stroke-linejoin: miter"/>
   </g>
   <g id="patch_10">
    <path d="M 559.227273 256.32 
L 622.636364 256.32 
L 622.636364 210.156066 
L 559.227273 210.156066 
z
" clip-path="url(#pb1a3c6416c)" style="fill: #51ab88; stroke: #387c61; stroke-width: 0.2; stroke-linejoin: miter"/>
   </g>
   <g id="patch_11">
    <path d="M 90 256.32 
L 90 34.56 
" style="fill: none; stroke: #000000; stroke-width: 0.8; stroke-linejoin: miter; stroke-linecap: square"/>
   </g>
   <g id="patch_12">
    <path d="M 648 256.32 
L 648 34.56 
" style="fill: none; stroke: #000000; stroke-width: 0.8; stroke-linejoin: miter; stroke-linecap: square"/>
   </g>
   <g id="patch_13">
    <path d="M 90 256.32 
L 648 256.32 
" style="fill: none; stroke: #000000; stroke-width: 0.8; stroke-linejoin: miter; stroke-linecap: square"/>
   </g>
   <g id="patch_14">
    <path d="M 90 34.56 
L 648 34.56 
" style="fill: none; stroke: #000000; stroke-width: 0.8; stroke-linejoin: miter; stroke-linecap: square"/>
   </g>
   <g id="text_19">
    <!-- Wind Direction Frequency in Ankara, for March 2023 -->
    <g transform="translate(163.937109 28.56) scale(0.15 -0.15)">
     <defs>
      <path id="CMUSerif-Bold-69" d="M 300 0 
L 300 300 
L 744 300 
L 744 2278 
Q 744 2456 680 2492 
Q 616 2528 319 2528 
L 319 2828 
L 1434 2881 
L 1434 300 
L 1831 300 
L 1831 0 
Q 1141 19 1081 19 
Q 894 19 300 0 
z
M 644 3597 
Q 500 3744 500 3948 
Q 500 4153 644 4300 
Q 788 4447 1000 4447 
Q 1206 4447 1353 4300 
Q 1500 4153 1500 3948 
Q 1500 3744 1351 3597 
Q 1203 3450 1000 3450 
Q 788 3450 644 3597 
z
" transform="scale(0.015625)"/>
      <path id="CMUSerif-Bold-6e" d="M 288 0 
L 288 300 
L 728 300 
L 728 2278 
Q 728 2456 661 2492 
Q 594 2528 288 2528 
L 288 2828 
L 1388 2881 
L 1388 2188 
Q 1741 2878 2509 2881 
Q 3003 2881 3248 2665 
Q 3494 2450 3494 1959 
L 3494 300 
L 3938 300 
L 3938 0 
Q 3400 19 3129 19 
Q 2859 19 2322 0 
L 2322 300 
L 2766 300 
L 2766 2028 
Q 2766 2375 2675 2512 
Q 2584 2650 2413 2650 
Q 2059 2650 1759 2384 
Q 1459 2119 1459 1638 
L 1459 300 
L 1900 300 
L 1900 0 
Q 1363 19 1094 19 
Q 825 19 288 0 
z
" transform="scale(0.015625)"/>
      <path id="CMUSerif-Bold-64" d="M 244 1416 
Q 244 2081 692 2481 
Q 1141 2881 1850 2881 
Q 2344 2881 2713 2591 
L 2713 3841 
Q 2713 4019 2645 4055 
Q 2578 4091 2272 4091 
L 2272 4391 
L 3406 4441 
L 3406 550 
Q 3406 372 3473 336 
Q 3541 300 3847 300 
L 3847 0 
L 2675 -38 
L 2675 275 
Q 2284 -38 1778 -38 
Q 1075 -38 659 368 
Q 244 775 244 1416 
z
M 1063 1416 
Q 1063 1256 1066 1162 
Q 1069 1069 1087 903 
Q 1106 738 1157 631 
Q 1209 525 1292 412 
Q 1375 300 1515 245 
Q 1656 191 1844 191 
Q 2338 191 2675 659 
L 2675 2259 
Q 2381 2650 1913 2650 
Q 1459 2650 1228 2316 
Q 1063 2069 1063 1416 
z
" transform="scale(0.015625)"/>
      <path id="CMUSerif-Bold-20" transform="scale(0.015625)"/>
      <path id="CMUSerif-Bold-44" d="M 250 0 
L 250 300 
L 941 300 
L 941 4091 
L 250 4091 
L 250 4391 
L 3003 4391 
Q 3975 4391 4601 3789 
Q 5228 3188 5228 2156 
Q 5228 1150 4604 575 
Q 3981 0 3009 0 
L 250 0 
z
M 1813 300 
L 2747 300 
Q 3631 300 4006 838 
Q 4159 1056 4223 1350 
Q 4288 1644 4288 2163 
Q 4288 3116 4013 3519 
Q 3616 4088 2747 4091 
L 1813 4091 
L 1813 300 
z
" transform="scale(0.015625)"/>
      <path id="CMUSerif-Bold-63" d="M 244 1422 
Q 244 2038 650 2469 
Q 1056 2900 1863 2900 
Q 2975 2900 2975 2309 
Q 2975 2119 2853 2012 
Q 2731 1906 2572 1906 
Q 2425 1906 2300 2012 
Q 2175 2119 2175 2309 
Q 2175 2488 2303 2606 
Q 2138 2644 1888 2644 
Q 1650 2644 1484 2547 
Q 1319 2450 1239 2333 
Q 1159 2216 1117 2020 
Q 1075 1825 1069 1719 
Q 1063 1613 1063 1453 
Q 1063 219 1953 219 
Q 2534 219 2753 744 
Q 2778 806 2800 822 
Q 2822 838 2906 838 
Q 3059 838 3059 750 
Q 3059 725 3034 650 
Q 3009 575 2925 453 
Q 2841 331 2712 226 
Q 2584 122 2351 42 
Q 2119 -38 1831 -38 
Q 1103 -38 673 368 
Q 244 775 244 1422 
z
" transform="scale(0.015625)"/>
      <path id="CMUSerif-Bold-46" d="M 250 0 
L 250 300 
L 941 300 
L 941 4050 
L 250 4050 
L 250 4353 
L 4122 4353 
L 4319 2809 
L 4019 2809 
Q 3988 3066 3948 3228 
Q 3909 3391 3826 3564 
Q 3744 3738 3612 3833 
Q 3481 3928 3264 3989 
Q 3047 4050 2747 4050 
L 1850 4050 
L 1850 2328 
L 2169 2328 
Q 2597 2328 2719 2501 
Q 2841 2675 2841 3078 
L 3144 3078 
L 3144 1281 
L 2841 1281 
Q 2841 1684 2719 1856 
Q 2597 2028 2169 2028 
L 1850 2028 
L 1850 300 
L 2713 300 
L 2713 0 
Q 2431 19 1422 19 
Q 494 19 250 0 
z
" transform="scale(0.015625)"/>
      <path id="CMUSerif-Bold-71" d="M 244 1422 
Q 244 2081 684 2481 
Q 1125 2881 1838 2881 
Q 2125 2881 2381 2747 
Q 2638 2613 2803 2375 
L 3144 2881 
L 3406 2881 
L 3406 -941 
L 3847 -941 
L 3847 -1241 
Q 3309 -1222 3040 -1222 
Q 2772 -1222 2234 -1241 
L 2234 -941 
L 2675 -941 
L 2675 306 
Q 2281 -38 1788 -38 
Q 1781 -38 1778 -38 
Q 1100 -38 672 359 
Q 244 756 244 1422 
z
M 1063 1416 
Q 1063 813 1289 502 
Q 1516 191 1844 191 
Q 2319 191 2619 641 
Q 2716 775 2713 909 
L 2713 1797 
Q 2713 2072 2486 2348 
Q 2259 2625 1920 2625 
Q 1581 2625 1322 2331 
Q 1063 2038 1063 1416 
z
" transform="scale(0.015625)"/>
      <path id="CMUSerif-Bold-79" d="M 141 -691 
Q 141 -513 250 -416 
Q 359 -319 506 -319 
Q 666 -319 772 -422 
Q 878 -525 878 -684 
Q 878 -934 672 -1025 
Q 744 -1050 825 -1050 
Q 984 -1050 1115 -983 
Q 1247 -916 1347 -784 
Q 1447 -653 1501 -561 
Q 1556 -469 1625 -306 
L 1772 0 
L 575 2541 
L 166 2541 
L 166 2841 
Q 228 2841 511 2831 
Q 794 2822 897 2822 
Q 1372 2822 1691 2841 
L 1691 2541 
L 1344 2541 
L 2156 813 
L 2894 2388 
Q 2925 2419 2925 2463 
Q 2925 2541 2625 2541 
L 2625 2841 
Q 3028 2822 3206 2822 
Q 3481 2822 3713 2841 
L 3713 2541 
Q 3516 2541 3416 2525 
Q 3316 2509 3289 2486 
Q 3263 2463 3238 2406 
L 1863 -519 
Q 1716 -831 1441 -1056 
Q 1166 -1281 825 -1281 
Q 538 -1281 339 -1107 
Q 141 -934 141 -691 
z
" transform="scale(0.015625)"/>
      <path id="CMUSerif-Bold-41" d="M 263 0 
L 263 300 
L 397 300 
Q 728 300 818 333 
Q 909 366 941 447 
L 2528 4300 
Q 2553 4372 2572 4400 
Q 2591 4428 2639 4448 
Q 2688 4469 2778 4469 
Q 2850 4469 2881 4461 
Q 2913 4453 2958 4415 
Q 3003 4378 3034 4300 
L 4672 300 
L 5294 300 
L 5294 0 
Q 5069 19 4250 19 
Q 3366 19 3122 0 
L 3122 300 
L 3731 300 
L 3347 1234 
L 1631 1234 
L 1313 459 
Q 1288 434 1288 384 
Q 1288 300 1856 300 
L 1856 0 
Q 1619 19 1013 19 
Q 991 19 263 0 
z
M 1759 1538 
L 3219 1538 
L 2491 3316 
L 1759 1538 
z
" transform="scale(0.015625)"/>
      <path id="CMUSerif-Bold-6b" d="M 238 0 
L 238 300 
L 678 300 
L 678 3841 
Q 678 4019 611 4055 
Q 544 4091 238 4091 
L 238 4391 
L 1369 4441 
L 1369 1516 
L 2578 2472 
Q 2509 2541 2375 2541 
Q 2369 2541 2363 2541 
L 2363 2841 
Q 2803 2822 3097 2822 
Q 3422 2822 3597 2841 
L 3597 2541 
Q 3391 2541 3273 2525 
Q 3156 2509 3117 2490 
Q 3078 2472 3022 2425 
L 2188 1778 
L 3272 428 
Q 3322 372 3347 348 
Q 3372 325 3442 312 
Q 3513 300 3647 300 
L 3756 300 
L 3756 0 
Q 3431 19 3091 19 
Q 2597 19 2309 0 
L 2309 300 
Q 2506 300 2509 359 
Q 2509 372 2350 581 
L 1703 1388 
Q 1550 1278 1338 1113 
L 1338 300 
L 1778 300 
L 1778 0 
Q 1088 19 1006 19 
Q 947 19 238 0 
z
" transform="scale(0.015625)"/>
      <path id="CMUSerif-Bold-2c" d="M 519 500 
Q 519 713 656 855 
Q 794 997 1013 997 
Q 1281 997 1440 767 
Q 1600 538 1600 197 
Q 1600 -53 1529 -292 
Q 1459 -531 1356 -693 
Q 1253 -856 1142 -987 
Q 1031 -1119 947 -1180 
Q 863 -1241 831 -1241 
Q 794 -1241 751 -1200 
Q 709 -1159 709 -1113 
Q 709 -1075 769 -1025 
Q 1319 -550 1369 128 
Q 1241 0 1019 0 
Q 788 0 653 147 
Q 519 294 519 500 
z
" transform="scale(0.015625)"/>
      <path id="CMUSerif-Bold-66" d="M 269 2541 
L 269 2841 
L 750 2841 
L 750 3488 
Q 750 3988 1139 4234 
Q 1528 4481 2069 4481 
Q 2422 4481 2609 4314 
Q 2797 4147 2797 3922 
Q 2797 3738 2678 3631 
Q 2559 3525 2400 3525 
Q 2253 3525 2131 3628 
Q 2009 3731 2009 3922 
Q 2009 4128 2156 4238 
Q 2113 4250 2048 4250 
Q 1984 4250 1917 4240 
Q 1850 4231 1750 4182 
Q 1650 4134 1579 4061 
Q 1509 3988 1456 3838 
Q 1403 3688 1403 3488 
L 1403 2841 
L 2175 2841 
L 2175 2541 
L 1441 2541 
L 1441 300 
L 1997 300 
L 1997 0 
Q 1766 19 1113 19 
Q 978 19 306 0 
L 306 300 
L 750 300 
L 750 2541 
L 269 2541 
z
" transform="scale(0.015625)"/>
      <path id="CMUSerif-Bold-4d" d="M 256 0 
L 256 300 
L 416 300 
Q 606 300 763 319 
Q 897 331 922 354 
Q 947 378 947 488 
L 947 4091 
L 256 4091 
L 256 4391 
L 1678 4391 
Q 1763 4391 1800 4384 
Q 1838 4378 1881 4342 
Q 1925 4306 1959 4231 
L 3494 844 
L 5031 4231 
Q 5081 4341 5136 4366 
Q 5191 4391 5313 4391 
L 6725 4391 
L 6725 4091 
L 6034 4091 
L 6034 300 
L 6725 300 
L 6725 0 
Q 6494 19 5631 19 
Q 4775 19 4544 0 
L 4544 300 
L 5234 300 
L 5234 4091 
L 5228 4091 
L 3444 153 
Q 3372 0 3237 0 
Q 3103 0 3034 159 
L 1294 4006 
L 1288 4006 
L 1288 488 
Q 1288 378 1313 354 
Q 1338 331 1478 319 
Q 1650 300 1819 300 
L 1978 300 
L 1978 0 
Q 1716 19 1113 19 
Q 500 19 256 0 
z
" transform="scale(0.015625)"/>
      <path id="CMUSerif-Bold-33" d="M 306 891 
Q 306 1128 447 1258 
Q 588 1388 800 1388 
Q 1013 1388 1150 1253 
Q 1288 1119 1288 903 
Q 1288 525 916 422 
Q 1263 203 1722 206 
Q 1913 206 2047 282 
Q 2181 359 2245 451 
Q 2309 544 2345 697 
Q 2381 850 2384 937 
Q 2388 1025 2388 1159 
Q 2388 1300 2384 1386 
Q 2381 1472 2342 1628 
Q 2303 1784 2236 1875 
Q 2169 1966 2028 2039 
Q 1888 2113 1691 2113 
L 1409 2113 
Q 1338 2113 1309 2116 
Q 1281 2119 1254 2144 
Q 1228 2169 1228 2228 
Q 1228 2331 1306 2338 
Q 1378 2350 1613 2363 
Q 1772 2369 1894 2436 
Q 2016 2503 2083 2611 
Q 2150 2719 2195 2822 
Q 2241 2925 2259 3047 
Q 2278 3169 2281 3223 
Q 2284 3278 2284 3322 
Q 2284 3944 1734 3944 
Q 1319 3944 1031 3713 
Q 1403 3622 1403 3263 
Q 1403 3078 1281 2950 
Q 1159 2822 953 2822 
Q 769 2822 641 2947 
Q 513 3072 513 3272 
Q 513 3663 861 3927 
Q 1209 4191 1772 4191 
Q 2425 4191 2794 3939 
Q 3163 3688 3163 3303 
Q 3163 2919 2894 2644 
Q 2625 2369 2253 2253 
Q 2578 2181 2812 2050 
Q 3047 1919 3159 1756 
Q 3272 1594 3319 1450 
Q 3366 1306 3366 1153 
Q 3366 659 2959 293 
Q 2553 -72 1753 -72 
Q 1125 -72 715 195 
Q 306 463 306 891 
z
" transform="scale(0.015625)"/>
     </defs>
     <use xlink:href="#CMUSerif-Bold-57"/>
     <use xlink:href="#CMUSerif-Bold-69" x="118.798828"/>
     <use xlink:href="#CMUSerif-Bold-6e" x="150.683594"/>
     <use xlink:href="#CMUSerif-Bold-64" x="214.453125"/>
     <use xlink:href="#CMUSerif-Bold-20" x="278.222656"/>
     <use xlink:href="#CMUSerif-Bold-44" x="316.503906"/>
     <use xlink:href="#CMUSerif-Bold-69" x="404.589844"/>
     <use xlink:href="#CMUSerif-Bold-72" x="436.474609"/>
     <use xlink:href="#CMUSerif-Bold-65" x="483.740234"/>
     <use xlink:href="#CMUSerif-Bold-63" x="536.425781"/>
     <use xlink:href="#CMUSerif-Bold-74" x="587.5"/>
     <use xlink:href="#CMUSerif-Bold-69" x="632.177734"/>
     <use xlink:href="#CMUSerif-Bold-6f" x="664.0625"/>
     <use xlink:href="#CMUSerif-Bold-6e" x="721.533203"/>
     <use xlink:href="#CMUSerif-Bold-20" x="785.302734"/>
     <use xlink:href="#CMUSerif-Bold-46" x="823.583984"/>
     <use xlink:href="#CMUSerif-Bold-72" x="895.849609"/>
     <use xlink:href="#CMUSerif-Bold-65" x="943.115234"/>
     <use xlink:href="#CMUSerif-Bold-71" x="995.800781"/>
     <use xlink:href="#CMUSerif-Bold-75" x="1056.396484"/>
     <use xlink:href="#CMUSerif-Bold-65" x="1120.166016"/>
     <use xlink:href="#CMUSerif-Bold-6e" x="1172.851562"/>
     <use xlink:href="#CMUSerif-Bold-63" x="1236.621094"/>
     <use xlink:href="#CMUSerif-Bold-79" x="1287.695312"/>
     <use xlink:href="#CMUSerif-Bold-20" x="1348.291016"/>
     <use xlink:href="#CMUSerif-Bold-69" x="1386.572266"/>
     <use xlink:href="#CMUSerif-Bold-6e" x="1418.457031"/>
     <use xlink:href="#CMUSerif-Bold-20" x="1482.226562"/>
     <use xlink:href="#CMUSerif-Bold-41" x="1520.507812"/>
     <use xlink:href="#CMUSerif-Bold-6e" x="1607.373047"/>
     <use xlink:href="#CMUSerif-Bold-6b" x="1671.142578"/>
     <use xlink:href="#CMUSerif-Bold-61" x="1731.738281"/>
     <use xlink:href="#CMUSerif-Bold-72" x="1787.597656"/>
     <use xlink:href="#CMUSerif-Bold-61" x="1834.863281"/>
     <use xlink:href="#CMUSerif-Bold-2c" x="1890.722656"/>
     <use xlink:href="#CMUSerif-Bold-20" x="1922.607422"/>
     <use xlink:href="#CMUSerif-Bold-66" x="1960.888672"/>
     <use xlink:href="#CMUSerif-Bold-6f" x="1995.947266"/>
     <use xlink:href="#CMUSerif-Bold-72" x="2053.417969"/>
     <use xlink:href="#CMUSerif-Bold-20" x="2100.683594"/>
     <use xlink:href="#CMUSerif-Bold-4d" x="2138.964844"/>
     <use xlink:href="#CMUSerif-Bold-61" x="2248.046875"/>
     <use xlink:href="#CMUSerif-Bold-72" x="2303.90625"/>
     <use xlink:href="#CMUSerif-Bold-63" x="2351.171875"/>
     <use xlink:href="#CMUSerif-Bold-68" x="2402.246094"/>
     <use xlink:href="#CMUSerif-Bold-20" x="2466.015625"/>
     <use xlink:href="#CMUSerif-Bold-32" x="2504.296875"/>
     <use xlink:href="#CMUSerif-Bold-30" x="2561.767578"/>
     <use xlink:href="#CMUSerif-Bold-32" x="2619.238281"/>
     <use xlink:href="#CMUSerif-Bold-33" x="2676.708984"/>
    </g>
   </g>
  </g>
 </g>
 <defs>
  <clipPath id="pb1a3c6416c">
   <rect x="90" y="34.56" width="558" height="221.76"/>
  </clipPath>
 </defs>
</svg>
