<?xml version="1.0" encoding="utf-8" standalone="no"?>
<!DOCTYPE svg PUBLIC "-//W3C//DTD SVG 1.1//EN"
  "http://www.w3.org/Graphics/SVG/1.1/DTD/svg11.dtd">
<svg xmlns:xlink="http://www.w3.org/1999/xlink" width="720pt" height="288pt" viewBox="0 0 720 288" xmlns="http://www.w3.org/2000/svg" version="1.1">
 <metadata>
  <rdf:RDF xmlns:dc="http://purl.org/dc/elements/1.1/" xmlns:cc="http://creativecommons.org/ns#" xmlns:rdf="http://www.w3.org/1999/02/22-rdf-syntax-ns#">
   <cc:Work>
    <dc:type rdf:resource="http://purl.org/dc/dcmitype/StillImage"/>
    <dc:date>2023-04-04T14:09:38.644755</dc:date>
    <dc:format>image/svg+xml</dc:format>
    <dc:creator>
     <cc:Agent>
      <dc:title>Matplotlib v3.7.1, https://matplotlib.org/</dc:title>
     </cc:Agent>
    </dc:creator>
   </cc:Work>
  </rdf:RDF>
 </metadata>
 <defs>
  <style type="text/css">*{stroke-linejoin: round; stroke-linecap: butt}</style>
 </defs>
 <g id="figure_1">
  <g id="patch_1">
   <path d="M 0 288 
L 720 288 
L 720 0 
L 0 0 
z
" style="fill: #ffffff"/>
  </g>
  <g id="axes_1">
   <g id="patch_2">
    <path d="M 90 256.32 
L 648 256.32 
L 648 34.56 
L 90 34.56 
z
" style="fill: #ffffff"/>
   </g>
   <g id="patch_3">
    <path d="M 115.363636 256.32 
L 124.55712 256.32 
L 124.55712 45.12 
L 115.363636 45.12 
z
" clip-path="url(#p20595181bc)" style="fill: #b3babf; stroke: #b3babf; stroke-linejoin: miter"/>
   </g>
   <g id="patch_4">
    <path d="M 134.821942 256.32 
L 140.686495 256.32 
L 140.686495 45.12 
L 134.821942 45.12 
z
" clip-path="url(#p20595181bc)" style="fill: #b3babf; stroke: #b3babf; stroke-linejoin: miter"/>
   </g>
   <g id="patch_5">
    <path d="M 151.900322 256.32 
L 159.195796 256.32 
L 159.195796 45.12 
L 151.900322 45.12 
z
" clip-path="url(#p20595181bc)" style="fill: #b3babf; stroke: #b3babf; stroke-linejoin: miter"/>
   </g>
   <g id="patch_6">
    <path d="M 167.488467 256.32 
L 179.195331 256.32 
L 179.195331 45.12 
L 167.488467 45.12 
z
" clip-path="url(#p20595181bc)" style="fill: #b3babf; stroke: #b3babf; stroke-linejoin: miter"/>
   </g>
   <g id="patch_7">
    <path d="M 182.787462 256.32 
L 199.484016 256.32 
L 199.484016 45.12 
L 182.787462 45.12 
z
" clip-path="url(#p20595181bc)" style="fill: #b3babf; stroke: #b3babf; stroke-linejoin: miter"/>
   </g>
   <g id="patch_8">
    <path d="M 202.950108 256.32 
L 214.909051 256.32 
L 214.909051 45.12 
L 202.950108 45.12 
z
" clip-path="url(#p20595181bc)" style="fill: #b3babf; stroke: #b3babf; stroke-linejoin: miter"/>
   </g>
   <g id="patch_9">
    <path d="M 221.652175 256.32 
L 231.794664 256.32 
L 231.794664 45.12 
L 221.652175 45.12 
z
" clip-path="url(#p20595181bc)" style="fill: #b3babf; stroke: #b3babf; stroke-linejoin: miter"/>
   </g>
   <g id="patch_10">
    <path d="M 243.119702 256.32 
L 245.914818 256.32 
L 245.914818 45.12 
L 243.119702 45.12 
z
" clip-path="url(#p20595181bc)" style="fill: #b3babf; stroke: #b3babf; stroke-linejoin: miter"/>
   </g>
   <g id="patch_11">
    <path d="M 258.155497 256.32 
L 266.466703 256.32 
L 266.466703 45.12 
L 258.155497 45.12 
z
" clip-path="url(#p20595181bc)" style="fill: #b3babf; stroke: #b3babf; stroke-linejoin: miter"/>
   </g>
   <g id="patch_12">
    <path d="M 272.27565 256.32 
L 287.93423 256.32 
L 287.93423 45.12 
L 272.27565 45.12 
z
" clip-path="url(#p20595181bc)" style="fill: #b3babf; stroke: #b3babf; stroke-linejoin: miter"/>
   </g>
   <g id="patch_13">
    <path d="M 290.521751 256.32 
L 305.27581 256.32 
L 305.27581 45.12 
L 290.521751 45.12 
z
" clip-path="url(#p20595181bc)" style="fill: #b3babf; stroke: #b3babf; stroke-linejoin: miter"/>
   </g>
   <g id="patch_14">
    <path d="M 306.940275 256.32 
L 324.444966 256.32 
L 324.444966 45.12 
L 306.940275 45.12 
z
" clip-path="url(#p20595181bc)" style="fill: #b3babf; stroke: #b3babf; stroke-linejoin: miter"/>
   </g>
   <g id="patch_15">
    <path d="M 324.589541 256.32 
L 342.383381 256.32 
L 342.383381 45.12 
L 324.589541 45.12 
z
" clip-path="url(#p20595181bc)" style="fill: #b3babf; stroke: #b3babf; stroke-linejoin: miter"/>
   </g>
   <g id="patch_16">
    <path d="M 342.86159 256.32 
L 359.699011 256.32 
L 359.699011 45.12 
L 342.86159 45.12 
z
" clip-path="url(#p20595181bc)" style="fill: #b3babf; stroke: #b3babf; stroke-linejoin: miter"/>
   </g>
   <g id="patch_17">
    <path d="M 362.698015 256.32 
L 375.450267 256.32 
L 375.450267 45.12 
L 362.698015 45.12 
z
" clip-path="url(#p20595181bc)" style="fill: #b3babf; stroke: #b3babf; stroke-linejoin: miter"/>
   </g>
   <g id="patch_18">
    <path d="M 380.755056 256.32 
L 392.980907 256.32 
L 392.980907 45.12 
L 380.755056 45.12 
z
" clip-path="url(#p20595181bc)" style="fill: #b3babf; stroke: #b3babf; stroke-linejoin: miter"/>
   </g>
   <g id="patch_19">
    <path d="M 396.358029 256.32 
L 412.965613 256.32 
L 412.965613 45.12 
L 396.358029 45.12 
z
" clip-path="url(#p20595181bc)" style="fill: #b3babf; stroke: #b3babf; stroke-linejoin: miter"/>
   </g>
   <g id="patch_20">
    <path d="M 413.67366 256.32 
L 431.237663 256.32 
L 431.237663 45.12 
L 413.67366 45.12 
z
" clip-path="url(#p20595181bc)" style="fill: #b3babf; stroke: #b3babf; stroke-linejoin: miter"/>
   </g>
   <g id="patch_21">
    <path d="M 431.916053 256.32 
L 448.58295 256.32 
L 448.58295 45.12 
L 431.916053 45.12 
z
" clip-path="url(#p20595181bc)" style="fill: #b3babf; stroke: #b3babf; stroke-linejoin: miter"/>
   </g>
   <g id="patch_22">
    <path d="M 453.646781 256.32 
L 462.439903 256.32 
L 462.439903 45.12 
L 453.646781 45.12 
z
" clip-path="url(#p20595181bc)" style="fill: #b3babf; stroke: #b3babf; stroke-linejoin: miter"/>
   </g>
   <g id="patch_23">
    <path d="M 474.943783 256.32 
L 476.730581 256.32 
L 476.730581 45.12 
L 474.943783 45.12 
z
" clip-path="url(#p20595181bc)" style="fill: #b3babf; stroke: #b3babf; stroke-linejoin: miter"/>
   </g>
   <g id="patch_24">
    <path d="M 487.766469 256.32 
L 499.495575 256.32 
L 499.495575 45.12 
L 487.766469 45.12 
z
" clip-path="url(#p20595181bc)" style="fill: #b3babf; stroke: #b3babf; stroke-linejoin: miter"/>
   </g>
   <g id="patch_25">
    <path d="M 504.099732 256.32 
L 518.749993 256.32 
L 518.749993 45.12 
L 504.099732 45.12 
z
" clip-path="url(#p20595181bc)" style="fill: #b3babf; stroke: #b3babf; stroke-linejoin: miter"/>
   </g>
   <g id="patch_26">
    <path d="M 523.928742 256.32 
L 534.508663 256.32 
L 534.508663 45.12 
L 523.928742 45.12 
z
" clip-path="url(#p20595181bc)" style="fill: #b3babf; stroke: #b3babf; stroke-linejoin: miter"/>
   </g>
   <g id="patch_27">
    <path d="M 544.981079 256.32 
L 549.044006 256.32 
L 549.044006 45.12 
L 544.981079 45.12 
z
" clip-path="url(#p20595181bc)" style="fill: #b3babf; stroke: #b3babf; stroke-linejoin: miter"/>
   </g>
   <g id="patch_28">
    <path d="M 561.84445 256.32 
L 567.768316 256.32 
L 567.768316 45.12 
L 561.84445 45.12 
z
" clip-path="url(#p20595181bc)" style="fill: #b3babf; stroke: #b3babf; stroke-linejoin: miter"/>
   </g>
   <g id="patch_29">
    <path d="M 580.375993 256.32 
L 584.824453 256.32 
L 584.824453 45.12 
L 580.375993 45.12 
z
" clip-path="url(#p20595181bc)" style="fill: #b3babf; stroke: #b3babf; stroke-linejoin: miter"/>
   </g>
   <g id="patch_30">
    <path d="M 594.566581 256.32 
L 606.221546 256.32 
L 606.221546 45.12 
L 594.566581 45.12 
z
" clip-path="url(#p20595181bc)" style="fill: #b3babf; stroke: #b3babf; stroke-linejoin: miter"/>
   </g>
   <g id="patch_31">
    <path d="M 617.075789 256.32 
L 619.300019 256.32 
L 619.300019 45.12 
L 617.075789 45.12 
z
" clip-path="url(#p20595181bc)" style="fill: #b3babf; stroke: #b3babf; stroke-linejoin: miter"/>
   </g>
   <g id="patch_32">
    <path d="M 115.511918 256.32 
L 124.408838 256.32 
L 124.408838 253.045581 
L 115.511918 253.045581 
z
" clip-path="url(#p20595181bc)" style="fill: #6c9fce; stroke: #6c9fce; stroke-linejoin: miter"/>
   </g>
   <g id="patch_33">
    <path d="M 133.305759 256.32 
L 142.202679 256.32 
L 142.202679 256.32 
L 133.305759 256.32 
z
" clip-path="url(#p20595181bc)" style="fill: #6c9fce; stroke: #6c9fce; stroke-linejoin: miter"/>
   </g>
   <g id="patch_34">
    <path d="M 151.099599 256.32 
L 159.996519 256.32 
L 159.996519 241.585116 
L 151.099599 241.585116 
z
" clip-path="url(#p20595181bc)" style="fill: #6c9fce; stroke: #6c9fce; stroke-linejoin: miter"/>
   </g>
   <g id="patch_35">
    <path d="M 168.893439 256.32 
L 177.790359 256.32 
L 177.790359 256.32 
L 168.893439 256.32 
z
" clip-path="url(#p20595181bc)" style="fill: #6c9fce; stroke: #6c9fce; stroke-linejoin: miter"/>
   </g>
   <g id="patch_36">
    <path d="M 186.687279 256.32 
L 195.584199 256.32 
L 195.584199 165.454884 
L 186.687279 165.454884 
z
" clip-path="url(#p20595181bc)" style="fill: #6c9fce; stroke: #6c9fce; stroke-linejoin: miter"/>
   </g>
   <g id="patch_37">
    <path d="M 204.481119 256.32 
L 213.378039 256.32 
L 213.378039 218.664186 
L 204.481119 218.664186 
z
" clip-path="url(#p20595181bc)" style="fill: #6c9fce; stroke: #6c9fce; stroke-linejoin: miter"/>
   </g>
   <g id="patch_38">
    <path d="M 222.274959 256.32 
L 231.17188 256.32 
L 231.17188 253.045581 
L 222.274959 253.045581 
z
" clip-path="url(#p20595181bc)" style="fill: #6c9fce; stroke: #6c9fce; stroke-linejoin: miter"/>
   </g>
   <g id="patch_39">
    <path d="M 240.0688 256.32 
L 248.96572 256.32 
L 248.96572 256.32 
L 240.0688 256.32 
z
" clip-path="url(#p20595181bc)" style="fill: #6c9fce; stroke: #6c9fce; stroke-linejoin: miter"/>
   </g>
   <g id="patch_40">
    <path d="M 257.86264 256.32 
L 266.75956 256.32 
L 266.75956 254.682791 
L 257.86264 254.682791 
z
" clip-path="url(#p20595181bc)" style="fill: #6c9fce; stroke: #6c9fce; stroke-linejoin: miter"/>
   </g>
   <g id="patch_41">
    <path d="M 275.65648 256.32 
L 284.5534 256.32 
L 284.5534 256.32 
L 275.65648 256.32 
z
" clip-path="url(#p20595181bc)" style="fill: #6c9fce; stroke: #6c9fce; stroke-linejoin: miter"/>
   </g>
   <g id="patch_42">
    <path d="M 293.45032 256.32 
L 302.34724 256.32 
L 302.34724 201.473488 
L 293.45032 201.473488 
z
" clip-path="url(#p20595181bc)" style="fill: #6c9fce; stroke: #6c9fce; stroke-linejoin: miter"/>
   </g>
   <g id="patch_43">
    <path d="M 311.24416 256.32 
L 320.14108 256.32 
L 320.14108 45.12 
L 311.24416 45.12 
z
" clip-path="url(#p20595181bc)" style="fill: #6c9fce; stroke: #6c9fce; stroke-linejoin: miter"/>
   </g>
   <g id="patch_44">
    <path d="M 329.038001 256.32 
L 337.934921 256.32 
L 337.934921 193.287442 
L 329.038001 193.287442 
z
" clip-path="url(#p20595181bc)" style="fill: #6c9fce; stroke: #6c9fce; stroke-linejoin: miter"/>
   </g>
   <g id="patch_45">
    <path d="M 346.831841 256.32 
L 355.728761 256.32 
L 355.728761 241.585116 
L 346.831841 241.585116 
z
" clip-path="url(#p20595181bc)" style="fill: #6c9fce; stroke: #6c9fce; stroke-linejoin: miter"/>
   </g>
   <g id="patch_46">
    <path d="M 364.625681 256.32 
L 373.522601 256.32 
L 373.522601 256.32 
L 364.625681 256.32 
z
" clip-path="url(#p20595181bc)" style="fill: #6c9fce; stroke: #6c9fce; stroke-linejoin: miter"/>
   </g>
   <g id="patch_47">
    <path d="M 382.419521 256.32 
L 391.316441 256.32 
L 391.316441 218.664186 
L 382.419521 218.664186 
z
" clip-path="url(#p20595181bc)" style="fill: #6c9fce; stroke: #6c9fce; stroke-linejoin: miter"/>
   </g>
   <g id="patch_48">
    <path d="M 400.213361 256.32 
L 409.110281 256.32 
L 409.110281 119.613023 
L 400.213361 119.613023 
z
" clip-path="url(#p20595181bc)" style="fill: #6c9fce; stroke: #6c9fce; stroke-linejoin: miter"/>
   </g>
   <g id="patch_49">
    <path d="M 418.007202 256.32 
L 426.904122 256.32 
L 426.904122 233.39907 
L 418.007202 233.39907 
z
" clip-path="url(#p20595181bc)" style="fill: #6c9fce; stroke: #6c9fce; stroke-linejoin: miter"/>
   </g>
   <g id="patch_50">
    <path d="M 435.801042 256.32 
L 444.697962 256.32 
L 444.697962 222.757209 
L 435.801042 222.757209 
z
" clip-path="url(#p20595181bc)" style="fill: #6c9fce; stroke: #6c9fce; stroke-linejoin: miter"/>
   </g>
   <g id="patch_51">
    <path d="M 453.594882 256.32 
L 462.491802 256.32 
L 462.491802 256.32 
L 453.594882 256.32 
z
" clip-path="url(#p20595181bc)" style="fill: #6c9fce; stroke: #6c9fce; stroke-linejoin: miter"/>
   </g>
   <g id="patch_52">
    <path d="M 471.388722 256.32 
L 480.285642 256.32 
L 480.285642 256.32 
L 471.388722 256.32 
z
" clip-path="url(#p20595181bc)" style="fill: #6c9fce; stroke: #6c9fce; stroke-linejoin: miter"/>
   </g>
   <g id="patch_53">
    <path d="M 489.182562 256.32 
L 498.079482 256.32 
L 498.079482 251.408372 
L 489.182562 251.408372 
z
" clip-path="url(#p20595181bc)" style="fill: #6c9fce; stroke: #6c9fce; stroke-linejoin: miter"/>
   </g>
   <g id="patch_54">
    <path d="M 506.976402 256.32 
L 515.873323 256.32 
L 515.873323 202.292093 
L 506.976402 202.292093 
z
" clip-path="url(#p20595181bc)" style="fill: #6c9fce; stroke: #6c9fce; stroke-linejoin: miter"/>
   </g>
   <g id="patch_55">
    <path d="M 524.770243 256.32 
L 533.667163 256.32 
L 533.667163 256.32 
L 524.770243 256.32 
z
" clip-path="url(#p20595181bc)" style="fill: #6c9fce; stroke: #6c9fce; stroke-linejoin: miter"/>
   </g>
   <g id="patch_56">
    <path d="M 542.564083 256.32 
L 551.461003 256.32 
L 551.461003 256.32 
L 542.564083 256.32 
z
" clip-path="url(#p20595181bc)" style="fill: #6c9fce; stroke: #6c9fce; stroke-linejoin: miter"/>
   </g>
   <g id="patch_57">
    <path d="M 560.357923 256.32 
L 569.254843 256.32 
L 569.254843 254.682791 
L 560.357923 254.682791 
z
" clip-path="url(#p20595181bc)" style="fill: #6c9fce; stroke: #6c9fce; stroke-linejoin: miter"/>
   </g>
   <g id="patch_58">
    <path d="M 578.151763 256.32 
L 587.048683 256.32 
L 587.048683 256.32 
L 578.151763 256.32 
z
" clip-path="url(#p20595181bc)" style="fill: #6c9fce; stroke: #6c9fce; stroke-linejoin: miter"/>
   </g>
   <g id="patch_59">
    <path d="M 595.945603 256.32 
L 604.842523 256.32 
L 604.842523 159.724651 
L 595.945603 159.724651 
z
" clip-path="url(#p20595181bc)" style="fill: #6c9fce; stroke: #6c9fce; stroke-linejoin: miter"/>
   </g>
   <g id="patch_60">
    <path d="M 613.739444 256.32 
L 622.636364 256.32 
L 622.636364 244.04093 
L 613.739444 244.04093 
z
" clip-path="url(#p20595181bc)" style="fill: #6c9fce; stroke: #6c9fce; stroke-linejoin: miter"/>
   </g>
   <g id="matplotlib.axis_1">
    <g id="xtick_1">
     <g id="line2d_1">
      <defs>
       <path id="m460796eb02" d="M 0 0 
L 0 3.5 
" style="stroke: #000000; stroke-width: 0.8"/>
      </defs>
      <g>
       <use xlink:href="#m460796eb02" x="119.960378" y="256.32" style="stroke: #000000; stroke-width: 0.8"/>
      </g>
     </g>
     <g id="text_1">
      <!-- 1.Mar -->
      <g transform="translate(104.882253 270.259063) scale(0.1 -0.1)">
       <defs>
        <path id="CMUSerif-Bold-31" d="M 544 3481 
L 544 3781 
L 672 3781 
Q 1466 3781 1959 4147 
Q 2016 4191 2100 4191 
Q 2216 4191 2241 4150 
Q 2266 4109 2266 3988 
L 2266 300 
L 3163 300 
L 3163 0 
Q 2881 19 1889 19 
Q 897 19 616 0 
L 616 300 
L 1503 300 
L 1503 3609 
Q 1106 3481 672 3481 
L 544 3481 
z
" transform="scale(0.015625)"/>
        <path id="CMUSerif-Bold-2e" d="M 519 500 
Q 519 719 672 858 
Q 825 997 1019 997 
Q 1216 997 1366 853 
Q 1516 709 1516 500 
Q 1516 309 1372 154 
Q 1228 0 1019 0 
Q 822 0 670 144 
Q 519 288 519 500 
z
" transform="scale(0.015625)"/>
        <path id="CMUSerif-Bold-4d" d="M 256 0 
L 256 300 
L 416 300 
Q 606 300 763 319 
Q 897 331 922 354 
Q 947 378 947 488 
L 947 4091 
L 256 4091 
L 256 4391 
L 1678 4391 
Q 1763 4391 1800 4384 
Q 1838 4378 1881 4342 
Q 1925 4306 1959 4231 
L 3494 844 
L 5031 4231 
Q 5081 4341 5136 4366 
Q 5191 4391 5313 4391 
L 6725 4391 
L 6725 4091 
L 6034 4091 
L 6034 300 
L 6725 300 
L 6725 0 
Q 6494 19 5631 19 
Q 4775 19 4544 0 
L 4544 300 
L 5234 300 
L 5234 4091 
L 5228 4091 
L 3444 153 
Q 3372 0 3237 0 
Q 3103 0 3034 159 
L 1294 4006 
L 1288 4006 
L 1288 488 
Q 1288 378 1313 354 
Q 1338 331 1478 319 
Q 1650 300 1819 300 
L 1978 300 
L 1978 0 
Q 1716 19 1113 19 
Q 500 19 256 0 
z
" transform="scale(0.015625)"/>
        <path id="CMUSerif-Bold-61" d="M 206 691 
Q 206 1606 2284 1697 
L 2284 1913 
Q 2284 2669 1581 2669 
Q 1331 2669 1119 2625 
Q 1259 2528 1259 2309 
Q 1259 2119 1139 2012 
Q 1019 1906 856 1906 
Q 709 1906 584 2012 
Q 459 2119 459 2309 
Q 459 2897 1606 2900 
Q 2297 2900 2656 2631 
Q 3016 2363 3016 1913 
L 3016 538 
Q 3016 447 3028 409 
Q 3041 372 3130 336 
Q 3219 300 3406 300 
Q 3463 300 3488 294 
Q 3513 288 3542 256 
Q 3572 225 3572 153 
Q 3572 50 3526 25 
Q 3481 0 3366 0 
L 3059 0 
Q 2822 0 2675 45 
Q 2528 91 2473 180 
Q 2419 269 2406 330 
Q 2394 391 2394 494 
Q 2119 -38 1441 -38 
Q 1250 -38 1056 -9 
Q 863 19 658 92 
Q 453 166 329 319 
Q 206 472 206 691 
z
M 953 697 
Q 953 484 1123 337 
Q 1294 191 1538 191 
Q 1622 191 1726 217 
Q 1831 244 1968 308 
Q 2106 372 2195 525 
Q 2284 678 2284 891 
L 2284 1497 
Q 2144 1491 2019 1475 
Q 1894 1459 1683 1404 
Q 1472 1350 1325 1273 
Q 1178 1197 1065 1045 
Q 953 894 953 697 
z
" transform="scale(0.015625)"/>
        <path id="CMUSerif-Bold-72" d="M 238 0 
L 238 300 
L 678 300 
L 678 2278 
Q 678 2456 611 2492 
Q 544 2528 238 2528 
L 238 2828 
L 1300 2881 
L 1300 2156 
Q 1563 2878 2150 2881 
Q 2419 2881 2623 2739 
Q 2828 2597 2828 2356 
Q 2828 2178 2709 2072 
Q 2591 1966 2437 1966 
Q 2284 1966 2165 2067 
Q 2047 2169 2047 2356 
Q 2047 2528 2169 2650 
Q 1944 2650 1778 2525 
Q 1613 2400 1530 2198 
Q 1447 1997 1408 1805 
Q 1369 1613 1369 1422 
L 1369 300 
L 1925 300 
L 1925 0 
Q 1694 19 1044 19 
Q 909 19 238 0 
z
" transform="scale(0.015625)"/>
       </defs>
       <use xlink:href="#CMUSerif-Bold-31"/>
       <use xlink:href="#CMUSerif-Bold-2e" x="57.470703"/>
       <use xlink:href="#CMUSerif-Bold-4d" x="89.355469"/>
       <use xlink:href="#CMUSerif-Bold-61" x="198.4375"/>
       <use xlink:href="#CMUSerif-Bold-72" x="254.296875"/>
      </g>
     </g>
    </g>
    <g id="xtick_2">
     <g id="line2d_2">
      <g>
       <use xlink:href="#m460796eb02" x="173.341899" y="256.32" style="stroke: #000000; stroke-width: 0.8"/>
      </g>
     </g>
     <g id="text_2">
      <!-- 4.Mar -->
      <g transform="translate(158.263774 270.259063) scale(0.1 -0.1)">
       <defs>
        <path id="CMUSerif-Bold-34" d="M 206 997 
L 206 1300 
L 2438 4097 
Q 2494 4169 2526 4183 
Q 2559 4197 2656 4197 
Q 2784 4197 2815 4162 
Q 2847 4128 2847 3994 
L 2847 1300 
L 3469 1300 
L 3469 997 
L 2847 997 
L 2847 300 
L 3469 300 
L 3469 0 
Q 3244 19 2431 19 
Q 1575 19 1331 0 
L 1331 300 
L 2047 300 
L 2047 997 
L 206 997 
z
M 538 1300 
L 2119 1300 
L 2119 3284 
L 538 1300 
z
" transform="scale(0.015625)"/>
       </defs>
       <use xlink:href="#CMUSerif-Bold-34"/>
       <use xlink:href="#CMUSerif-Bold-2e" x="57.470703"/>
       <use xlink:href="#CMUSerif-Bold-4d" x="89.355469"/>
       <use xlink:href="#CMUSerif-Bold-61" x="198.4375"/>
       <use xlink:href="#CMUSerif-Bold-72" x="254.296875"/>
      </g>
     </g>
    </g>
    <g id="xtick_3">
     <g id="line2d_3">
      <g>
       <use xlink:href="#m460796eb02" x="226.72342" y="256.32" style="stroke: #000000; stroke-width: 0.8"/>
      </g>
     </g>
     <g id="text_3">
      <!-- 7.Mar -->
      <g transform="translate(211.645295 270.259063) scale(0.1 -0.1)">
       <defs>
        <path id="CMUSerif-Bold-37" d="M 409 2700 
L 634 4325 
L 934 4325 
Q 941 4281 950 4262 
Q 959 4244 992 4217 
Q 1025 4191 1088 4178 
Q 1144 4159 1628 4140 
Q 2113 4122 2266 4122 
L 3572 4122 
Q 3572 3950 3562 3908 
Q 3553 3866 3506 3816 
L 2516 2663 
Q 2191 2284 2100 1594 
Q 2038 1166 2034 678 
L 2034 384 
Q 2034 194 1948 81 
Q 1863 -31 1786 -51 
Q 1709 -72 1631 -72 
Q 1606 -72 1575 -67 
Q 1544 -63 1476 -41 
Q 1409 -19 1361 26 
Q 1313 72 1273 161 
Q 1234 250 1234 378 
Q 1234 1653 2309 2906 
L 2663 3322 
L 1581 3322 
Q 953 3322 884 3284 
Q 781 3234 709 2700 
L 409 2700 
z
" transform="scale(0.015625)"/>
       </defs>
       <use xlink:href="#CMUSerif-Bold-37"/>
       <use xlink:href="#CMUSerif-Bold-2e" x="57.470703"/>
       <use xlink:href="#CMUSerif-Bold-4d" x="89.355469"/>
       <use xlink:href="#CMUSerif-Bold-61" x="198.4375"/>
       <use xlink:href="#CMUSerif-Bold-72" x="254.296875"/>
      </g>
     </g>
    </g>
    <g id="xtick_4">
     <g id="line2d_4">
      <g>
       <use xlink:href="#m460796eb02" x="280.10494" y="256.32" style="stroke: #000000; stroke-width: 0.8"/>
      </g>
     </g>
     <g id="text_4">
      <!-- 10.Mar -->
      <g transform="translate(262.153378 270.259063) scale(0.1 -0.1)">
       <defs>
        <path id="CMUSerif-Bold-30" d="M 291 1722 
Q 288 1850 288 2042 
Q 288 2234 291 2362 
Q 294 2491 326 2736 
Q 359 2981 414 3154 
Q 469 3328 583 3539 
Q 697 3750 855 3881 
Q 1013 4013 1264 4102 
Q 1516 4191 1836 4191 
Q 2156 4191 2409 4098 
Q 2663 4006 2819 3878 
Q 2975 3750 3090 3536 
Q 3206 3322 3261 3151 
Q 3316 2981 3347 2736 
Q 3378 2491 3381 2362 
Q 3384 2234 3384 2042 
Q 3384 1850 3381 1719 
Q 3378 1588 3347 1347 
Q 3316 1106 3261 937 
Q 3206 769 3090 564 
Q 2975 359 2815 231 
Q 2656 103 2403 15 
Q 2150 -72 1838 -72 
Q 1519 -72 1266 18 
Q 1013 109 855 234 
Q 697 359 583 567 
Q 469 775 414 940 
Q 359 1106 326 1350 
Q 294 1594 291 1722 
z
M 1106 2119 
Q 1106 1100 1166 769 
Q 1222 456 1423 307 
Q 1625 159 1838 159 
Q 1966 159 2087 201 
Q 2209 244 2346 406 
Q 2484 569 2522 844 
Q 2566 1175 2566 2119 
Q 2566 3322 2456 3559 
Q 2372 3756 2200 3859 
Q 2028 3963 1838 3963 
Q 1722 3963 1603 3930 
Q 1484 3897 1337 3740 
Q 1191 3584 1159 3328 
Q 1106 2997 1106 2119 
z
" transform="scale(0.015625)"/>
       </defs>
       <use xlink:href="#CMUSerif-Bold-31"/>
       <use xlink:href="#CMUSerif-Bold-30" x="57.470703"/>
       <use xlink:href="#CMUSerif-Bold-2e" x="114.941406"/>
       <use xlink:href="#CMUSerif-Bold-4d" x="146.826172"/>
       <use xlink:href="#CMUSerif-Bold-61" x="255.908203"/>
       <use xlink:href="#CMUSerif-Bold-72" x="311.767578"/>
      </g>
     </g>
    </g>
    <g id="xtick_5">
     <g id="line2d_5">
      <g>
       <use xlink:href="#m460796eb02" x="333.486461" y="256.32" style="stroke: #000000; stroke-width: 0.8"/>
      </g>
     </g>
     <g id="text_5">
      <!-- 13.Mar -->
      <g transform="translate(315.534898 270.259063) scale(0.1 -0.1)">
       <defs>
        <path id="CMUSerif-Bold-33" d="M 306 891 
Q 306 1128 447 1258 
Q 588 1388 800 1388 
Q 1013 1388 1150 1253 
Q 1288 1119 1288 903 
Q 1288 525 916 422 
Q 1263 203 1722 206 
Q 1913 206 2047 282 
Q 2181 359 2245 451 
Q 2309 544 2345 697 
Q 2381 850 2384 937 
Q 2388 1025 2388 1159 
Q 2388 1300 2384 1386 
Q 2381 1472 2342 1628 
Q 2303 1784 2236 1875 
Q 2169 1966 2028 2039 
Q 1888 2113 1691 2113 
L 1409 2113 
Q 1338 2113 1309 2116 
Q 1281 2119 1254 2144 
Q 1228 2169 1228 2228 
Q 1228 2331 1306 2338 
Q 1378 2350 1613 2363 
Q 1772 2369 1894 2436 
Q 2016 2503 2083 2611 
Q 2150 2719 2195 2822 
Q 2241 2925 2259 3047 
Q 2278 3169 2281 3223 
Q 2284 3278 2284 3322 
Q 2284 3944 1734 3944 
Q 1319 3944 1031 3713 
Q 1403 3622 1403 3263 
Q 1403 3078 1281 2950 
Q 1159 2822 953 2822 
Q 769 2822 641 2947 
Q 513 3072 513 3272 
Q 513 3663 861 3927 
Q 1209 4191 1772 4191 
Q 2425 4191 2794 3939 
Q 3163 3688 3163 3303 
Q 3163 2919 2894 2644 
Q 2625 2369 2253 2253 
Q 2578 2181 2812 2050 
Q 3047 1919 3159 1756 
Q 3272 1594 3319 1450 
Q 3366 1306 3366 1153 
Q 3366 659 2959 293 
Q 2553 -72 1753 -72 
Q 1125 -72 715 195 
Q 306 463 306 891 
z
" transform="scale(0.015625)"/>
       </defs>
       <use xlink:href="#CMUSerif-Bold-31"/>
       <use xlink:href="#CMUSerif-Bold-33" x="57.470703"/>
       <use xlink:href="#CMUSerif-Bold-2e" x="114.941406"/>
       <use xlink:href="#CMUSerif-Bold-4d" x="146.826172"/>
       <use xlink:href="#CMUSerif-Bold-61" x="255.908203"/>
       <use xlink:href="#CMUSerif-Bold-72" x="311.767578"/>
      </g>
     </g>
    </g>
    <g id="xtick_6">
     <g id="line2d_6">
      <g>
       <use xlink:href="#m460796eb02" x="386.867981" y="256.32" style="stroke: #000000; stroke-width: 0.8"/>
      </g>
     </g>
     <g id="text_6">
      <!-- 16.Mar -->
      <g transform="translate(368.916419 270.259063) scale(0.1 -0.1)">
       <defs>
        <path id="CMUSerif-Bold-36" d="M 306 2028 
Q 306 2603 482 3042 
Q 659 3481 946 3722 
Q 1234 3963 1561 4077 
Q 1888 4191 2234 4191 
Q 2709 4191 2945 3958 
Q 3181 3725 3181 3391 
Q 3181 3206 3072 3093 
Q 2963 2981 2778 2981 
Q 2600 2981 2490 3097 
Q 2381 3213 2381 3378 
Q 2381 3531 2470 3640 
Q 2559 3750 2725 3775 
Q 2559 3941 2247 3944 
Q 1959 3944 1718 3792 
Q 1478 3641 1356 3413 
Q 1178 3028 1178 2309 
L 1178 2188 
Q 1447 2675 1947 2675 
Q 2556 2675 2961 2317 
Q 3366 1959 3366 1313 
Q 3366 678 2950 303 
Q 2534 -72 1863 -72 
Q 1025 -72 628 569 
Q 306 1106 306 2028 
z
M 1191 1344 
Q 1191 763 1294 556 
Q 1472 203 1850 206 
Q 2034 206 2162 265 
Q 2291 325 2355 406 
Q 2419 488 2451 659 
Q 2484 831 2490 953 
Q 2497 1075 2497 1325 
Q 2497 1575 2494 1694 
Q 2491 1813 2458 1988 
Q 2425 2163 2364 2242 
Q 2303 2322 2186 2383 
Q 2069 2444 1888 2444 
Q 1594 2444 1392 2172 
Q 1191 1900 1191 1344 
z
" transform="scale(0.015625)"/>
       </defs>
       <use xlink:href="#CMUSerif-Bold-31"/>
       <use xlink:href="#CMUSerif-Bold-36" x="57.470703"/>
       <use xlink:href="#CMUSerif-Bold-2e" x="114.941406"/>
       <use xlink:href="#CMUSerif-Bold-4d" x="146.826172"/>
       <use xlink:href="#CMUSerif-Bold-61" x="255.908203"/>
       <use xlink:href="#CMUSerif-Bold-72" x="311.767578"/>
      </g>
     </g>
    </g>
    <g id="xtick_7">
     <g id="line2d_7">
      <g>
       <use xlink:href="#m460796eb02" x="440.249502" y="256.32" style="stroke: #000000; stroke-width: 0.8"/>
      </g>
     </g>
     <g id="text_7">
      <!-- 19.Mar -->
      <g transform="translate(422.297939 270.259063) scale(0.1 -0.1)">
       <defs>
        <path id="CMUSerif-Bold-39" d="M 306 2816 
Q 306 3450 732 3820 
Q 1159 4191 1850 4191 
Q 2163 4191 2413 4095 
Q 2663 4000 2816 3859 
Q 2969 3719 3081 3501 
Q 3194 3284 3248 3111 
Q 3303 2938 3331 2705 
Q 3359 2472 3362 2362 
Q 3366 2253 3366 2106 
Q 3366 1519 3200 1080 
Q 3034 641 2756 400 
Q 2478 159 2170 43 
Q 1863 -72 1528 -72 
Q 1022 -72 758 156 
Q 494 384 494 728 
Q 494 913 601 1027 
Q 709 1141 897 1141 
Q 1075 1141 1184 1025 
Q 1294 909 1294 744 
Q 1294 616 1226 519 
Q 1159 422 1098 390 
Q 1038 359 978 347 
Q 1191 206 1516 206 
Q 1816 206 2031 365 
Q 2247 525 2344 744 
Q 2497 1091 2497 1806 
L 2497 1947 
Q 2228 1453 1728 1453 
Q 1113 1453 709 1814 
Q 306 2175 306 2816 
z
M 1178 2803 
Q 1178 2553 1181 2434 
Q 1184 2316 1215 2141 
Q 1247 1966 1308 1886 
Q 1369 1806 1487 1745 
Q 1606 1684 1784 1684 
Q 2034 1684 2204 1871 
Q 2375 2059 2433 2284 
Q 2491 2509 2491 2741 
Q 2491 3328 2413 3541 
Q 2388 3613 2345 3681 
Q 2303 3750 2168 3847 
Q 2034 3944 1863 3944 
Q 1666 3944 1530 3880 
Q 1394 3816 1323 3731 
Q 1253 3647 1222 3469 
Q 1191 3291 1184 3169 
Q 1178 3047 1178 2803 
z
" transform="scale(0.015625)"/>
       </defs>
       <use xlink:href="#CMUSerif-Bold-31"/>
       <use xlink:href="#CMUSerif-Bold-39" x="57.470703"/>
       <use xlink:href="#CMUSerif-Bold-2e" x="114.941406"/>
       <use xlink:href="#CMUSerif-Bold-4d" x="146.826172"/>
       <use xlink:href="#CMUSerif-Bold-61" x="255.908203"/>
       <use xlink:href="#CMUSerif-Bold-72" x="311.767578"/>
      </g>
     </g>
    </g>
    <g id="xtick_8">
     <g id="line2d_8">
      <g>
       <use xlink:href="#m460796eb02" x="493.631022" y="256.32" style="stroke: #000000; stroke-width: 0.8"/>
      </g>
     </g>
     <g id="text_8">
      <!-- 22.Mar -->
      <g transform="translate(475.67946 270.259063) scale(0.1 -0.1)">
       <defs>
        <path id="CMUSerif-Bold-32" d="M 366 0 
L 366 116 
Q 366 219 378 247 
Q 391 275 447 331 
L 1734 1644 
Q 2425 2347 2425 2975 
Q 2425 3359 2201 3625 
Q 1978 3891 1581 3891 
Q 1191 3891 922 3669 
Q 994 3650 1062 3614 
Q 1131 3578 1209 3468 
Q 1288 3359 1288 3206 
Q 1288 2981 1142 2864 
Q 997 2747 825 2747 
Q 666 2747 516 2858 
Q 366 2969 366 3219 
Q 366 3647 759 3919 
Q 1153 4191 1741 4191 
Q 2425 4191 2867 3858 
Q 3309 3525 3309 2981 
Q 3309 2756 3245 2584 
Q 3181 2413 3001 2223 
Q 2822 2034 2669 1912 
Q 2516 1791 2169 1538 
Q 1869 1319 1247 800 
L 2188 800 
Q 2769 800 2841 838 
Q 2925 881 3009 1422 
L 3309 1422 
L 3109 0 
L 366 0 
z
" transform="scale(0.015625)"/>
       </defs>
       <use xlink:href="#CMUSerif-Bold-32"/>
       <use xlink:href="#CMUSerif-Bold-32" x="57.470703"/>
       <use xlink:href="#CMUSerif-Bold-2e" x="114.941406"/>
       <use xlink:href="#CMUSerif-Bold-4d" x="146.826172"/>
       <use xlink:href="#CMUSerif-Bold-61" x="255.908203"/>
       <use xlink:href="#CMUSerif-Bold-72" x="311.767578"/>
      </g>
     </g>
    </g>
    <g id="xtick_9">
     <g id="line2d_9">
      <g>
       <use xlink:href="#m460796eb02" x="547.012543" y="256.32" style="stroke: #000000; stroke-width: 0.8"/>
      </g>
     </g>
     <g id="text_9">
      <!-- 25.Mar -->
      <g transform="translate(529.06098 270.259063) scale(0.1 -0.1)">
       <defs>
        <path id="CMUSerif-Bold-35" d="M 366 1019 
Q 366 1197 458 1306 
Q 550 1416 636 1441 
Q 722 1466 794 1466 
Q 947 1466 1084 1359 
Q 1222 1253 1222 1031 
Q 1222 841 1103 728 
Q 984 616 806 603 
Q 1100 206 1631 206 
Q 1791 206 1916 243 
Q 2041 281 2122 339 
Q 2203 397 2256 495 
Q 2309 594 2339 675 
Q 2369 756 2381 890 
Q 2394 1025 2397 1101 
Q 2400 1178 2400 1313 
Q 2400 1519 2397 1626 
Q 2394 1734 2366 1904 
Q 2338 2075 2280 2161 
Q 2222 2247 2109 2317 
Q 1997 2388 1831 2388 
Q 1275 2388 972 2028 
Q 909 1950 831 1953 
Q 769 1953 736 1981 
Q 703 2009 697 2045 
Q 691 2081 691 2150 
L 691 4019 
Q 691 4081 694 4111 
Q 697 4141 717 4166 
Q 738 4191 781 4191 
Q 788 4191 863 4166 
Q 1381 3988 1856 3988 
Q 2369 3988 2834 4166 
Q 2906 4191 2931 4191 
Q 3022 4191 3022 4078 
Q 3022 4006 2909 3868 
Q 2797 3731 2611 3578 
Q 2425 3425 2125 3309 
Q 1825 3194 1497 3194 
Q 1278 3194 1031 3238 
L 1031 2394 
Q 1356 2619 1856 2619 
Q 2541 2619 2925 2241 
Q 3309 1863 3309 1288 
Q 3309 694 2861 311 
Q 2413 -72 1656 -72 
Q 1088 -72 727 259 
Q 366 591 366 1019 
z
" transform="scale(0.015625)"/>
       </defs>
       <use xlink:href="#CMUSerif-Bold-32"/>
       <use xlink:href="#CMUSerif-Bold-35" x="57.470703"/>
       <use xlink:href="#CMUSerif-Bold-2e" x="114.941406"/>
       <use xlink:href="#CMUSerif-Bold-4d" x="146.826172"/>
       <use xlink:href="#CMUSerif-Bold-61" x="255.908203"/>
       <use xlink:href="#CMUSerif-Bold-72" x="311.767578"/>
      </g>
     </g>
    </g>
    <g id="xtick_10">
     <g id="line2d_10">
      <g>
       <use xlink:href="#m460796eb02" x="600.394063" y="256.32" style="stroke: #000000; stroke-width: 0.8"/>
      </g>
     </g>
     <g id="text_10">
      <!-- 28.Mar -->
      <g transform="translate(582.442501 270.259063) scale(0.1 -0.1)">
       <defs>
        <path id="CMUSerif-Bold-38" d="M 306 1031 
Q 306 1747 1125 2106 
Q 509 2453 513 3072 
Q 513 3559 861 3875 
Q 1209 4191 1850 4191 
Q 2431 4191 2797 3955 
Q 3163 3719 3163 3250 
Q 3163 2700 2516 2369 
Q 2688 2266 2791 2198 
Q 2894 2131 3050 1984 
Q 3206 1838 3286 1639 
Q 3366 1441 3366 1197 
Q 3366 641 2962 284 
Q 2559 -72 1825 -72 
Q 1159 -72 732 204 
Q 306 481 306 1031 
z
M 856 1031 
Q 856 653 1118 429 
Q 1381 206 1850 206 
Q 2075 206 2269 247 
Q 2463 288 2639 441 
Q 2816 594 2816 844 
Q 2816 991 2736 1106 
Q 2656 1222 2570 1283 
Q 2484 1344 2297 1447 
Q 1581 1850 1422 1931 
Q 856 1613 856 1031 
z
M 991 3450 
Q 991 3225 1275 3066 
L 2234 2528 
Q 2681 2822 2681 3244 
Q 2681 3569 2454 3756 
Q 2228 3944 1825 3944 
Q 1697 3944 1581 3926 
Q 1466 3909 1319 3865 
Q 1172 3822 1081 3715 
Q 991 3609 991 3450 
z
" transform="scale(0.015625)"/>
       </defs>
       <use xlink:href="#CMUSerif-Bold-32"/>
       <use xlink:href="#CMUSerif-Bold-38" x="57.470703"/>
       <use xlink:href="#CMUSerif-Bold-2e" x="114.941406"/>
       <use xlink:href="#CMUSerif-Bold-4d" x="146.826172"/>
       <use xlink:href="#CMUSerif-Bold-61" x="255.908203"/>
       <use xlink:href="#CMUSerif-Bold-72" x="311.767578"/>
      </g>
     </g>
    </g>
    <g id="text_11">
     <!-- March, 2023 -->
     <g transform="translate(336.515625 284.525) scale(0.12 -0.12)">
      <defs>
       <path id="CMUSerif-Roman-4d" d="M 238 0 
L 238 197 
Q 469 197 616 242 
Q 763 288 817 373 
Q 872 459 884 517 
Q 897 575 897 672 
L 897 3872 
Q 897 4056 817 4114 
Q 738 4172 391 4172 
L 238 4172 
L 238 4372 
L 1319 4372 
Q 1434 4372 1465 4351 
Q 1497 4331 1544 4231 
L 2931 647 
L 4331 4250 
Q 4363 4341 4392 4356 
Q 4422 4372 4544 4372 
L 5625 4372 
L 5625 4172 
L 5472 4172 
Q 5125 4172 5045 4114 
Q 4966 4056 4966 3872 
L 4966 500 
Q 4966 316 5045 256 
Q 5125 197 5472 197 
L 5625 197 
L 5625 0 
Q 5388 19 4709 19 
Q 4025 19 3788 0 
L 3788 197 
L 3944 197 
Q 4291 197 4369 255 
Q 4447 313 4447 500 
L 4447 4172 
L 4441 4172 
L 2869 122 
Q 2825 0 2753 0 
Q 2675 0 2625 141 
L 1081 4122 
L 1075 4122 
L 1075 672 
Q 1075 575 1087 517 
Q 1100 459 1154 373 
Q 1209 288 1356 242 
Q 1503 197 1734 197 
L 1734 0 
Q 1063 19 986 19 
Q 909 19 238 0 
z
" transform="scale(0.015625)"/>
       <path id="CMUSerif-Roman-61" d="M 269 609 
Q 269 1153 909 1441 
Q 1294 1625 2088 1672 
L 2088 1906 
Q 2088 2303 1880 2514 
Q 1672 2725 1409 2725 
Q 941 2725 716 2431 
Q 906 2425 975 2329 
Q 1044 2234 1044 2138 
Q 1044 2009 964 1926 
Q 884 1844 750 1844 
Q 622 1844 537 1923 
Q 453 2003 453 2144 
Q 453 2456 736 2662 
Q 1019 2869 1422 2869 
Q 1947 2869 2297 2516 
Q 2406 2406 2461 2265 
Q 2516 2125 2522 2033 
Q 2528 1941 2528 1759 
L 2528 481 
Q 2528 444 2540 381 
Q 2553 319 2611 239 
Q 2669 159 2766 159 
Q 2997 159 2994 569 
L 2994 928 
L 3156 928 
L 3156 569 
Q 3156 228 2976 95 
Q 2797 -38 2631 -38 
Q 2419 -38 2284 118 
Q 2150 275 2131 488 
Q 2034 244 1814 86 
Q 1594 -72 1294 -72 
Q 1063 -72 845 -14 
Q 628 44 448 205 
Q 269 366 269 609 
z
M 763 616 
Q 763 378 931 225 
Q 1100 72 1338 72 
Q 1606 72 1847 280 
Q 2088 488 2088 897 
L 2088 1538 
Q 1378 1513 1070 1230 
Q 763 947 763 616 
z
" transform="scale(0.015625)"/>
       <path id="CMUSerif-Roman-72" d="M 178 0 
L 178 197 
Q 519 197 598 239 
Q 678 281 678 488 
L 678 2203 
Q 678 2441 595 2500 
Q 513 2559 178 2559 
L 178 2759 
L 1069 2828 
L 1069 2125 
Q 1159 2400 1351 2614 
Q 1544 2828 1856 2828 
Q 2063 2828 2195 2712 
Q 2328 2597 2328 2438 
Q 2328 2297 2242 2226 
Q 2156 2156 2053 2156 
Q 1938 2156 1858 2229 
Q 1778 2303 1778 2431 
Q 1778 2509 1814 2570 
Q 1850 2631 1878 2653 
Q 1906 2675 1925 2681 
Q 1913 2688 1856 2688 
Q 1503 2688 1301 2336 
Q 1100 1984 1100 1484 
L 1100 500 
Q 1100 316 1176 256 
Q 1253 197 1588 197 
L 1722 197 
L 1722 0 
Q 1466 19 909 19 
Q 831 19 709 16 
Q 588 13 428 6 
Q 269 0 178 0 
z
" transform="scale(0.015625)"/>
       <path id="CMUSerif-Roman-63" d="M 625 351 
Q 219 775 219 1383 
Q 219 1991 619 2430 
Q 1019 2869 1606 2869 
Q 1997 2869 2290 2683 
Q 2584 2497 2584 2181 
Q 2584 2041 2501 1961 
Q 2419 1881 2291 1881 
Q 2156 1881 2076 1964 
Q 1997 2047 1997 2175 
Q 1997 2231 2015 2287 
Q 2034 2344 2104 2403 
Q 2175 2463 2297 2472 
Q 2069 2706 1625 2706 
Q 1619 2706 1613 2706 
Q 1288 2706 1019 2400 
Q 750 2094 750 1394 
Q 750 1028 839 761 
Q 928 494 1075 356 
Q 1222 219 1365 155 
Q 1509 91 1650 91 
Q 2278 91 2491 763 
Q 2509 825 2572 825 
Q 2656 825 2656 763 
Q 2656 731 2631 650 
Q 2606 569 2528 441 
Q 2450 313 2339 202 
Q 2228 91 2033 9 
Q 1838 -72 1594 -72 
Q 1031 -72 625 351 
z
" transform="scale(0.015625)"/>
       <path id="CMUSerif-Roman-68" d="M 206 0 
L 206 197 
Q 547 197 625 239 
Q 703 281 703 488 
L 703 3816 
Q 703 4053 620 4112 
Q 538 4172 206 4172 
L 206 4372 
L 1125 4441 
L 1125 2216 
L 1131 2216 
Q 1234 2447 1465 2637 
Q 1697 2828 2053 2828 
Q 2534 2828 2725 2591 
Q 2866 2431 2895 2253 
Q 2925 2075 2925 1613 
L 2925 391 
Q 2931 256 3034 226 
Q 3138 197 3425 197 
L 3425 0 
Q 2772 19 2706 19 
Q 2656 19 1984 0 
L 1984 197 
Q 2325 197 2404 239 
Q 2484 281 2484 488 
L 2484 1978 
Q 2484 2303 2384 2495 
Q 2284 2688 2009 2688 
Q 1678 2688 1412 2409 
Q 1147 2131 1147 1663 
L 1147 488 
Q 1147 281 1226 239 
Q 1306 197 1644 197 
L 1644 0 
Q 991 19 928 19 
Q 878 19 206 0 
z
" transform="scale(0.015625)"/>
       <path id="CMUSerif-Roman-2c" d="M 640 103 
Q 550 206 550 340 
Q 550 475 639 576 
Q 728 678 891 678 
Q 1081 678 1190 495 
Q 1300 313 1300 6 
Q 1300 -325 1165 -633 
Q 1031 -941 900 -1087 
Q 769 -1234 716 -1234 
Q 653 -1234 653 -1166 
Q 653 -1141 697 -1094 
Q 1156 -600 1159 6 
Q 1159 103 1147 103 
L 1131 91 
Q 1022 0 891 0 
Q 731 0 640 103 
z
" transform="scale(0.015625)"/>
       <path id="CMUSerif-Roman-20" transform="scale(0.015625)"/>
       <path id="CMUSerif-Roman-32" d="M 319 0 
Q 319 116 330 150 
Q 341 184 391 238 
L 1619 1606 
Q 2291 2363 2291 3022 
Q 2291 3450 2067 3756 
Q 1844 4063 1434 4063 
Q 1153 4063 915 3891 
Q 678 3719 569 3413 
Q 588 3419 653 3419 
Q 813 3419 902 3319 
Q 991 3219 991 3084 
Q 991 2913 880 2830 
Q 769 2747 659 2747 
Q 616 2747 558 2756 
Q 500 2766 409 2855 
Q 319 2944 319 3103 
Q 319 3550 658 3906 
Q 997 4263 1516 4263 
Q 2103 4263 2489 3914 
Q 2875 3566 2875 3022 
Q 2875 2831 2817 2657 
Q 2759 2484 2682 2350 
Q 2606 2216 2400 2000 
Q 2194 1784 2028 1631 
Q 1863 1478 1491 1153 
L 813 494 
L 1966 494 
Q 2528 494 2572 544 
Q 2634 634 2713 1113 
L 2875 1113 
L 2694 0 
L 319 0 
z
" transform="scale(0.015625)"/>
       <path id="CMUSerif-Roman-30" d="M 250 2047 
Q 250 2988 488 3500 
Q 819 4263 1600 4263 
Q 1766 4263 1939 4217 
Q 2113 4172 2333 4000 
Q 2553 3828 2688 3547 
Q 2944 3003 2944 2047 
Q 2944 1113 2706 603 
Q 2359 -141 1594 -141 
Q 1306 -141 1014 6 
Q 722 153 538 506 
Q 250 1034 250 2047 
z
M 781 2125 
Q 781 1159 850 775 
Q 928 359 1142 179 
Q 1356 0 1594 0 
Q 1850 0 2064 192 
Q 2278 384 2344 800 
Q 2416 1209 2413 2125 
Q 2413 3016 2350 3372 
Q 2266 3788 2042 3955 
Q 1819 4122 1594 4122 
Q 1509 4122 1420 4097 
Q 1331 4072 1203 4000 
Q 1075 3928 976 3750 
Q 878 3572 831 3303 
Q 781 2956 781 2125 
z
" transform="scale(0.015625)"/>
       <path id="CMUSerif-Roman-33" d="M 269 863 
Q 269 1053 378 1143 
Q 488 1234 628 1234 
Q 775 1234 879 1139 
Q 984 1044 984 878 
Q 984 700 861 600 
Q 738 500 563 525 
Q 716 269 998 153 
Q 1281 38 1544 38 
Q 1819 38 2042 275 
Q 2266 513 2266 1094 
Q 2266 1588 2073 1872 
Q 1881 2156 1503 2156 
L 1222 2156 
Q 1125 2156 1097 2165 
Q 1069 2175 1069 2228 
Q 1069 2291 1166 2303 
Q 1263 2303 1416 2322 
Q 1788 2334 1984 2656 
Q 2163 2956 2163 3384 
Q 2163 3775 1977 3939 
Q 1791 4103 1550 4103 
Q 1325 4103 1078 4009 
Q 831 3916 697 3706 
Q 1094 3706 1094 3384 
Q 1094 3244 1005 3151 
Q 916 3059 769 3059 
Q 628 3059 534 3148 
Q 441 3238 441 3391 
Q 441 3756 767 4009 
Q 1094 4263 1575 4263 
Q 2050 4263 2401 4013 
Q 2753 3763 2753 3378 
Q 2753 3000 2503 2690 
Q 2253 2381 1856 2253 
Q 2344 2156 2634 1826 
Q 2925 1497 2925 1094 
Q 2925 594 2531 226 
Q 2138 -141 1563 -141 
Q 1031 -141 650 146 
Q 269 434 269 863 
z
" transform="scale(0.015625)"/>
      </defs>
      <use xlink:href="#CMUSerif-Roman-4d"/>
      <use xlink:href="#CMUSerif-Roman-61" x="91.552734"/>
      <use xlink:href="#CMUSerif-Roman-72" x="141.552734"/>
      <use xlink:href="#CMUSerif-Roman-63" x="180.615234"/>
      <use xlink:href="#CMUSerif-Roman-68" x="225"/>
      <use xlink:href="#CMUSerif-Roman-2c" x="280.46875"/>
      <use xlink:href="#CMUSerif-Roman-20" x="308.154297"/>
      <use xlink:href="#CMUSerif-Roman-32" x="341.40625"/>
      <use xlink:href="#CMUSerif-Roman-30" x="391.40625"/>
      <use xlink:href="#CMUSerif-Roman-32" x="441.40625"/>
      <use xlink:href="#CMUSerif-Roman-33" x="491.40625"/>
     </g>
    </g>
   </g>
   <g id="matplotlib.axis_2">
    <g id="ytick_1">
     <g id="line2d_11">
      <defs>
       <path id="m5ec8a74e72" d="M 0 0 
L -3.5 0 
" style="stroke: #000000; stroke-width: 0.8"/>
      </defs>
      <g>
       <use xlink:href="#m5ec8a74e72" x="90" y="256.32" style="stroke: #000000; stroke-width: 0.8"/>
      </g>
     </g>
     <g id="text_12">
      <!-- 0 -->
      <g transform="translate(77.253125 259.789531) scale(0.1 -0.1)">
       <use xlink:href="#CMUSerif-Bold-30"/>
      </g>
     </g>
    </g>
    <g id="ytick_2">
     <g id="line2d_12">
      <g>
       <use xlink:href="#m5ec8a74e72" x="90" y="215.389767" style="stroke: #000000; stroke-width: 0.8"/>
      </g>
     </g>
     <g id="text_13">
      <!-- 5 -->
      <g transform="translate(77.253125 218.859299) scale(0.1 -0.1)">
       <use xlink:href="#CMUSerif-Bold-35"/>
      </g>
     </g>
    </g>
    <g id="ytick_3">
     <g id="line2d_13">
      <g>
       <use xlink:href="#m5ec8a74e72" x="90" y="174.459535" style="stroke: #000000; stroke-width: 0.8"/>
      </g>
     </g>
     <g id="text_14">
      <!-- 10 -->
      <g transform="translate(71.50625 177.929066) scale(0.1 -0.1)">
       <use xlink:href="#CMUSerif-Bold-31"/>
       <use xlink:href="#CMUSerif-Bold-30" x="57.470703"/>
      </g>
     </g>
    </g>
    <g id="ytick_4">
     <g id="line2d_14">
      <g>
       <use xlink:href="#m5ec8a74e72" x="90" y="133.529302" style="stroke: #000000; stroke-width: 0.8"/>
      </g>
     </g>
     <g id="text_15">
      <!-- 15 -->
      <g transform="translate(71.50625 136.998834) scale(0.1 -0.1)">
       <use xlink:href="#CMUSerif-Bold-31"/>
       <use xlink:href="#CMUSerif-Bold-35" x="57.470703"/>
      </g>
     </g>
    </g>
    <g id="ytick_5">
     <g id="line2d_15">
      <g>
       <use xlink:href="#m5ec8a74e72" x="90" y="92.59907" style="stroke: #000000; stroke-width: 0.8"/>
      </g>
     </g>
     <g id="text_16">
      <!-- 20 -->
      <g transform="translate(71.50625 96.068601) scale(0.1 -0.1)">
       <use xlink:href="#CMUSerif-Bold-32"/>
       <use xlink:href="#CMUSerif-Bold-30" x="57.470703"/>
      </g>
     </g>
    </g>
    <g id="ytick_6">
     <g id="line2d_16">
      <g>
       <use xlink:href="#m5ec8a74e72" x="90" y="51.668837" style="stroke: #000000; stroke-width: 0.8"/>
      </g>
     </g>
     <g id="text_17">
      <!-- 25 -->
      <g transform="translate(71.50625 55.138368) scale(0.1 -0.1)">
       <use xlink:href="#CMUSerif-Bold-32"/>
       <use xlink:href="#CMUSerif-Bold-35" x="57.470703"/>
      </g>
     </g>
    </g>
    <g id="text_18">
     <!-- Total Precipitation [mm] -->
     <g transform="translate(64.50625 211.111875) rotate(-90) scale(0.12 -0.12)">
      <defs>
       <path id="CMUSerif-Roman-54" d="M 231 2894 
L 353 4331 
L 4263 4331 
L 4384 2894 
L 4225 2894 
Q 4200 3181 4176 3347 
Q 4153 3513 4098 3670 
Q 4044 3828 3976 3904 
Q 3909 3981 3781 4042 
Q 3653 4103 3487 4118 
Q 3322 4134 3072 4134 
Q 2778 4134 2706 4122 
Q 2628 4103 2609 4048 
Q 2591 3994 2591 3878 
L 2591 506 
Q 2591 378 2617 326 
Q 2644 275 2791 236 
Q 2938 197 3263 197 
L 3519 197 
L 3519 0 
Q 3256 19 2303 19 
Q 1356 19 1094 0 
L 1094 197 
L 1350 197 
Q 1675 197 1823 236 
Q 1972 275 1997 326 
Q 2022 378 2022 506 
L 2022 3878 
Q 2022 3969 2015 4006 
Q 2009 4044 1981 4076 
Q 1953 4109 1889 4121 
Q 1825 4134 1544 4134 
Q 1294 4134 1126 4118 
Q 959 4103 831 4042 
Q 703 3981 636 3904 
Q 569 3828 514 3670 
Q 459 3513 437 3347 
Q 416 3181 391 2894 
L 231 2894 
z
" transform="scale(0.015625)"/>
       <path id="CMUSerif-Roman-6f" d="M 601 345 
Q 178 763 178 1370 
Q 178 1978 592 2423 
Q 1006 2869 1600 2869 
Q 2181 2869 2598 2426 
Q 3016 1984 3016 1369 
Q 3016 766 2595 347 
Q 2175 -72 1594 -72 
Q 1025 -72 601 345 
z
M 709 1422 
Q 709 800 872 519 
Q 1122 91 1600 91 
Q 1838 91 2036 219 
Q 2234 347 2344 563 
Q 2484 844 2484 1422 
Q 2484 2038 2316 2309 
Q 2066 2725 1594 2725 
Q 1388 2725 1186 2617 
Q 984 2509 863 2297 
Q 709 2016 709 1422 
z
" transform="scale(0.015625)"/>
       <path id="CMUSerif-Roman-74" d="M 122 2559 
L 122 2700 
Q 416 2713 611 2920 
Q 806 3128 873 3384 
Q 941 3641 947 3938 
L 1106 3938 
L 1106 2759 
L 2022 2759 
L 2022 2559 
L 1106 2559 
L 1106 781 
Q 1106 91 1538 91 
Q 1722 91 1844 280 
Q 1966 469 1966 806 
L 1966 1159 
L 2125 1159 
L 2125 794 
Q 2125 447 1965 187 
Q 1806 -72 1491 -72 
Q 1375 -72 1261 -42 
Q 1147 -13 998 64 
Q 850 141 758 330 
Q 666 519 666 794 
L 666 2559 
L 122 2559 
z
" transform="scale(0.015625)"/>
       <path id="CMUSerif-Roman-6c" d="M 213 0 
L 213 197 
Q 553 197 631 239 
Q 709 281 709 488 
L 709 3816 
Q 709 4053 626 4112 
Q 544 4172 213 4172 
L 213 4372 
L 1131 4441 
L 1131 488 
Q 1131 281 1212 239 
Q 1294 197 1631 197 
L 1631 0 
Q 1553 0 1390 6 
Q 1228 13 1109 16 
Q 991 19 922 19 
Q 847 19 213 0 
z
" transform="scale(0.015625)"/>
       <path id="CMUSerif-Roman-50" d="M 225 0 
L 225 197 
L 378 197 
Q 725 197 804 255 
Q 884 313 884 500 
L 884 3872 
Q 884 4056 803 4114 
Q 722 4172 378 4172 
L 225 4172 
L 225 4372 
L 2484 4372 
Q 3131 4372 3562 4015 
Q 3994 3659 3994 3181 
Q 3994 2706 3555 2364 
Q 3116 2022 2534 2022 
L 1453 2022 
L 1453 500 
Q 1453 316 1533 256 
Q 1613 197 1959 197 
L 2113 197 
L 2113 0 
Q 1888 19 1166 19 
Q 450 19 225 0 
z
M 1434 2188 
L 2316 2188 
Q 2603 2188 2812 2269 
Q 3022 2350 3117 2448 
Q 3213 2547 3267 2708 
Q 3322 2869 3328 2958 
Q 3334 3047 3334 3181 
Q 3334 3322 3328 3411 
Q 3322 3500 3267 3661 
Q 3213 3822 3117 3920 
Q 3022 4019 2814 4095 
Q 2606 4172 2316 4172 
L 1747 4172 
Q 1528 4172 1481 4128 
Q 1434 4084 1434 3916 
L 1434 2188 
z
" transform="scale(0.015625)"/>
       <path id="CMUSerif-Roman-65" d="M 178 1409 
Q 178 2013 565 2441 
Q 953 2869 1509 2869 
Q 2072 2869 2364 2503 
Q 2656 2138 2656 1613 
Q 2656 1516 2631 1497 
Q 2606 1478 2497 1478 
L 709 1478 
Q 709 825 903 519 
Q 1172 91 1625 91 
Q 1688 91 1763 103 
Q 1838 116 1991 170 
Q 2144 225 2278 372 
Q 2413 519 2491 750 
Q 2509 841 2572 838 
Q 2656 838 2656 763 
Q 2656 706 2595 579 
Q 2534 453 2418 303 
Q 2303 153 2079 40 
Q 1856 -72 1588 -72 
Q 1025 -72 601 354 
Q 178 781 178 1409 
z
M 716 1613 
L 2234 1613 
Q 2234 1747 2211 1897 
Q 2188 2047 2120 2255 
Q 2053 2463 1897 2594 
Q 1741 2725 1509 2725 
Q 1406 2725 1295 2681 
Q 1184 2638 1050 2531 
Q 916 2425 822 2184 
Q 728 1944 716 1613 
z
" transform="scale(0.015625)"/>
       <path id="CMUSerif-Roman-69" d="M 213 0 
L 213 197 
Q 553 197 631 239 
Q 709 281 709 488 
L 709 2209 
Q 709 2447 629 2503 
Q 550 2559 238 2559 
L 238 2759 
L 1131 2828 
L 1131 481 
Q 1131 291 1200 244 
Q 1269 197 1581 197 
L 1581 0 
Q 928 19 916 19 
Q 828 19 213 0 
z
M 481 3944 
Q 481 4072 579 4176 
Q 678 4281 818 4281 
Q 959 4281 1059 4186 
Q 1159 4091 1159 3942 
Q 1159 3794 1059 3698 
Q 959 3603 819 3603 
Q 672 3603 576 3706 
Q 481 3809 481 3944 
z
" transform="scale(0.015625)"/>
       <path id="CMUSerif-Roman-70" d="M 178 -1044 
Q 519 -1044 598 -1001 
Q 678 -959 678 -756 
L 678 2241 
Q 678 2453 598 2506 
Q 519 2559 178 2559 
L 178 2759 
L 1100 2828 
L 1100 2406 
Q 1484 2828 1997 2828 
Q 2541 2828 2937 2406 
Q 3334 1984 3334 1381 
Q 3334 772 2912 350 
Q 2491 -72 1906 -72 
Q 1588 -72 1373 92 
Q 1159 256 1119 378 
L 1119 319 
L 1119 -756 
Q 1119 -963 1200 -1003 
Q 1281 -1044 1619 -1044 
L 1619 -1241 
Q 947 -1222 897 -1222 
Q 834 -1222 178 -1241 
L 178 -1044 
z
M 1119 728 
Q 1119 631 1133 597 
Q 1147 563 1209 459 
Q 1463 72 1875 72 
Q 1878 72 1881 72 
Q 2247 72 2525 445 
Q 2803 819 2803 1381 
Q 2803 1919 2550 2294 
Q 2297 2669 1947 2669 
Q 1697 2669 1478 2534 
Q 1259 2400 1119 2156 
L 1119 728 
z
" transform="scale(0.015625)"/>
       <path id="CMUSerif-Roman-6e" d="M 206 0 
L 206 197 
Q 547 197 625 239 
Q 703 281 703 488 
L 703 2203 
Q 703 2441 620 2500 
Q 538 2559 206 2559 
L 206 2759 
L 1106 2828 
L 1106 2156 
Q 1406 2828 2053 2828 
Q 2534 2828 2725 2591 
Q 2866 2431 2895 2253 
Q 2925 2075 2925 1613 
L 2925 391 
Q 2931 256 3034 226 
Q 3138 197 3425 197 
L 3425 0 
Q 2772 19 2706 19 
Q 2656 19 1984 0 
L 1984 197 
Q 2325 197 2404 239 
Q 2484 281 2484 488 
L 2484 1978 
Q 2484 2303 2384 2495 
Q 2284 2688 2009 2688 
Q 1678 2688 1412 2409 
Q 1147 2131 1147 1663 
L 1147 488 
Q 1147 281 1226 239 
Q 1306 197 1644 197 
L 1644 0 
Q 991 19 928 19 
Q 878 19 206 0 
z
" transform="scale(0.015625)"/>
       <path id="CMUSerif-Roman-5b" d="M 666 -1600 
L 666 4800 
L 1631 4800 
L 1631 4653 
L 1094 4653 
L 1094 -1453 
L 1631 -1453 
L 1631 -1600 
L 666 -1600 
z
" transform="scale(0.015625)"/>
       <path id="CMUSerif-Roman-6d" d="M 206 0 
L 206 197 
Q 547 197 625 239 
Q 703 281 703 488 
L 703 2203 
Q 703 2441 620 2500 
Q 538 2559 206 2559 
L 206 2759 
L 1106 2828 
L 1106 2156 
Q 1406 2828 2053 2828 
Q 2803 2828 2906 2203 
Q 3016 2447 3245 2637 
Q 3475 2828 3834 2828 
Q 4316 2828 4506 2591 
Q 4647 2431 4675 2253 
Q 4703 2075 4703 1613 
L 4703 391 
Q 4709 256 4812 226 
Q 4916 197 5203 197 
L 5203 0 
Q 4550 19 4488 19 
Q 4438 19 3763 0 
L 3763 197 
Q 4103 197 4183 239 
Q 4263 281 4263 488 
L 4263 1978 
Q 4263 2303 4163 2495 
Q 4063 2688 3788 2688 
Q 3456 2688 3190 2409 
Q 2925 2131 2925 1663 
L 2925 488 
Q 2925 281 3004 239 
Q 3084 197 3425 197 
L 3425 0 
Q 2772 19 2706 19 
Q 2656 19 1984 0 
L 1984 197 
Q 2325 197 2404 239 
Q 2484 281 2484 488 
L 2484 1978 
Q 2484 2303 2384 2495 
Q 2284 2688 2009 2688 
Q 1678 2688 1412 2409 
Q 1147 2131 1147 1663 
L 1147 488 
Q 1147 281 1226 239 
Q 1306 197 1644 197 
L 1644 0 
Q 991 19 928 19 
Q 878 19 206 0 
z
" transform="scale(0.015625)"/>
       <path id="CMUSerif-Roman-5d" d="M 134 -1453 
L 672 -1453 
L 672 4653 
L 134 4653 
L 134 4800 
L 1100 4800 
L 1100 -1600 
L 134 -1600 
L 134 -1453 
z
" transform="scale(0.015625)"/>
      </defs>
      <use xlink:href="#CMUSerif-Roman-54"/>
      <use xlink:href="#CMUSerif-Roman-6f" x="72.167969"/>
      <use xlink:href="#CMUSerif-Roman-74" x="122.167969"/>
      <use xlink:href="#CMUSerif-Roman-61" x="160.9375"/>
      <use xlink:href="#CMUSerif-Roman-6c" x="210.9375"/>
      <use xlink:href="#CMUSerif-Roman-20" x="238.623047"/>
      <use xlink:href="#CMUSerif-Roman-50" x="271.875"/>
      <use xlink:href="#CMUSerif-Roman-72" x="339.84375"/>
      <use xlink:href="#CMUSerif-Roman-65" x="378.90625"/>
      <use xlink:href="#CMUSerif-Roman-63" x="423.291016"/>
      <use xlink:href="#CMUSerif-Roman-69" x="467.675781"/>
      <use xlink:href="#CMUSerif-Roman-70" x="495.361328"/>
      <use xlink:href="#CMUSerif-Roman-69" x="550.830078"/>
      <use xlink:href="#CMUSerif-Roman-74" x="578.515625"/>
      <use xlink:href="#CMUSerif-Roman-61" x="617.285156"/>
      <use xlink:href="#CMUSerif-Roman-74" x="667.285156"/>
      <use xlink:href="#CMUSerif-Roman-69" x="706.054688"/>
      <use xlink:href="#CMUSerif-Roman-6f" x="733.740234"/>
      <use xlink:href="#CMUSerif-Roman-6e" x="783.740234"/>
      <use xlink:href="#CMUSerif-Roman-20" x="839.208984"/>
      <use xlink:href="#CMUSerif-Roman-5b" x="872.460938"/>
      <use xlink:href="#CMUSerif-Roman-6d" x="900.244141"/>
      <use xlink:href="#CMUSerif-Roman-6d" x="983.496094"/>
      <use xlink:href="#CMUSerif-Roman-5d" x="1066.748047"/>
     </g>
    </g>
   </g>
   <g id="patch_61">
    <path d="M 90 256.32 
L 90 34.56 
" style="fill: none; stroke: #000000; stroke-width: 0.8; stroke-linejoin: miter; stroke-linecap: square"/>
   </g>
   <g id="patch_62">
    <path d="M 648 256.32 
L 648 34.56 
" style="fill: none; stroke: #000000; stroke-width: 0.8; stroke-linejoin: miter; stroke-linecap: square"/>
   </g>
   <g id="patch_63">
    <path d="M 90 256.32 
L 648 256.32 
" style="fill: none; stroke: #000000; stroke-width: 0.8; stroke-linejoin: miter; stroke-linecap: square"/>
   </g>
   <g id="patch_64">
    <path d="M 90 34.56 
L 648 34.56 
" style="fill: none; stroke: #000000; stroke-width: 0.8; stroke-linejoin: miter; stroke-linecap: square"/>
   </g>
   <g id="text_19">
    <!-- Precipitation and Cloud Coverage vs Time -->
    <g transform="translate(206.755078 28.56) scale(0.15 -0.15)">
     <defs>
      <path id="CMUSerif-Bold-50" d="M 250 0 
L 250 300 
L 941 300 
L 941 4091 
L 250 4091 
L 250 4391 
L 2919 4391 
Q 3700 4391 4158 4039 
Q 4616 3688 4616 3142 
Q 4616 2597 4145 2264 
Q 3675 1931 2981 1931 
L 1850 1931 
L 1850 300 
L 2541 300 
L 2541 0 
Q 2297 19 1395 19 
Q 494 19 250 0 
z
M 1813 2194 
L 2669 2194 
Q 2866 2194 3023 2226 
Q 3181 2259 3282 2301 
Q 3384 2344 3454 2426 
Q 3525 2509 3561 2576 
Q 3597 2644 3612 2759 
Q 3628 2875 3631 2945 
Q 3634 3016 3634 3144 
Q 3634 3297 3628 3376 
Q 3622 3456 3600 3587 
Q 3578 3719 3517 3792 
Q 3456 3866 3353 3942 
Q 3250 4019 3078 4055 
Q 2906 4091 2675 4091 
L 1813 4091 
L 1813 2194 
z
" transform="scale(0.015625)"/>
      <path id="CMUSerif-Bold-65" d="M 206 1441 
Q 206 2069 625 2484 
Q 1044 2900 1784 2900 
Q 2444 2900 2803 2553 
Q 3163 2194 3163 1569 
Q 3163 1447 3120 1420 
Q 3078 1394 2956 1394 
L 1025 1394 
Q 1025 219 1925 219 
Q 1928 219 1931 219 
Q 2244 219 2495 359 
Q 2747 500 2847 728 
Q 2878 813 2904 838 
Q 2931 863 3009 863 
Q 3163 863 3163 750 
Q 3163 706 3127 625 
Q 3091 544 2998 425 
Q 2906 306 2768 204 
Q 2631 103 2397 32 
Q 2163 -38 1875 -38 
Q 1113 -38 659 375 
Q 206 788 206 1441 
z
M 1025 1606 
L 2553 1606 
Q 2522 2669 1784 2669 
Q 1394 2669 1178 2338 
Q 1050 2138 1025 1606 
z
" transform="scale(0.015625)"/>
      <path id="CMUSerif-Bold-63" d="M 244 1422 
Q 244 2038 650 2469 
Q 1056 2900 1863 2900 
Q 2975 2900 2975 2309 
Q 2975 2119 2853 2012 
Q 2731 1906 2572 1906 
Q 2425 1906 2300 2012 
Q 2175 2119 2175 2309 
Q 2175 2488 2303 2606 
Q 2138 2644 1888 2644 
Q 1650 2644 1484 2547 
Q 1319 2450 1239 2333 
Q 1159 2216 1117 2020 
Q 1075 1825 1069 1719 
Q 1063 1613 1063 1453 
Q 1063 219 1953 219 
Q 2534 219 2753 744 
Q 2778 806 2800 822 
Q 2822 838 2906 838 
Q 3059 838 3059 750 
Q 3059 725 3034 650 
Q 3009 575 2925 453 
Q 2841 331 2712 226 
Q 2584 122 2351 42 
Q 2119 -38 1831 -38 
Q 1103 -38 673 368 
Q 244 775 244 1422 
z
" transform="scale(0.015625)"/>
      <path id="CMUSerif-Bold-69" d="M 300 0 
L 300 300 
L 744 300 
L 744 2278 
Q 744 2456 680 2492 
Q 616 2528 319 2528 
L 319 2828 
L 1434 2881 
L 1434 300 
L 1831 300 
L 1831 0 
Q 1141 19 1081 19 
Q 894 19 300 0 
z
M 644 3597 
Q 500 3744 500 3948 
Q 500 4153 644 4300 
Q 788 4447 1000 4447 
Q 1206 4447 1353 4300 
Q 1500 4153 1500 3948 
Q 1500 3744 1351 3597 
Q 1203 3450 1000 3450 
Q 788 3450 644 3597 
z
" transform="scale(0.015625)"/>
      <path id="CMUSerif-Bold-70" d="M 238 -941 
L 678 -941 
L 678 2284 
Q 678 2463 611 2495 
Q 544 2528 238 2528 
L 238 2828 
L 1369 2881 
L 1369 2566 
Q 1772 2878 2338 2881 
Q 3022 2881 3431 2478 
Q 3841 2075 3841 1428 
Q 3841 763 3395 362 
Q 2950 -38 2228 -38 
Q 1759 -38 1409 250 
L 1409 -941 
L 1850 -941 
L 1850 -1241 
Q 1313 -1222 1044 -1222 
Q 775 -1222 238 -1241 
L 238 -941 
z
M 1409 750 
Q 1409 653 1418 628 
Q 1428 603 1478 538 
Q 1766 191 2156 191 
Q 2509 191 2765 495 
Q 3022 800 3022 1428 
Q 3022 2003 2797 2314 
Q 2572 2625 2234 2625 
Q 1800 2625 1503 2322 
Q 1431 2250 1420 2222 
Q 1409 2194 1409 2106 
L 1409 750 
z
" transform="scale(0.015625)"/>
      <path id="CMUSerif-Bold-74" d="M 134 2541 
L 134 2772 
Q 581 2784 831 3165 
Q 1081 3547 1088 4063 
L 1388 4063 
L 1388 2841 
L 2322 2841 
L 2322 2541 
L 1388 2541 
L 1388 775 
Q 1388 219 1759 219 
Q 1913 219 2028 362 
Q 2144 506 2144 806 
L 2144 1131 
L 2444 1131 
L 2444 794 
Q 2444 434 2236 198 
Q 2028 -38 1672 -38 
Q 659 -38 659 788 
L 659 2541 
L 134 2541 
z
" transform="scale(0.015625)"/>
      <path id="CMUSerif-Bold-6f" d="M 206 1394 
Q 206 2053 637 2476 
Q 1069 2900 1838 2900 
Q 2600 2900 3034 2476 
Q 3469 2053 3469 1394 
Q 3469 772 3041 367 
Q 2613 -38 1838 -38 
Q 1063 -38 634 367 
Q 206 772 206 1394 
z
M 1025 1466 
Q 1025 1275 1028 1175 
Q 1031 1075 1053 898 
Q 1075 722 1126 626 
Q 1178 531 1264 422 
Q 1350 313 1494 266 
Q 1638 219 1836 219 
Q 2034 219 2178 266 
Q 2322 313 2409 422 
Q 2497 531 2547 626 
Q 2597 722 2620 898 
Q 2644 1075 2647 1175 
Q 2650 1275 2650 1466 
Q 2650 2125 2516 2344 
Q 2309 2669 1838 2669 
Q 1325 2669 1131 2297 
Q 1025 2081 1025 1466 
z
" transform="scale(0.015625)"/>
      <path id="CMUSerif-Bold-6e" d="M 288 0 
L 288 300 
L 728 300 
L 728 2278 
Q 728 2456 661 2492 
Q 594 2528 288 2528 
L 288 2828 
L 1388 2881 
L 1388 2188 
Q 1741 2878 2509 2881 
Q 3003 2881 3248 2665 
Q 3494 2450 3494 1959 
L 3494 300 
L 3938 300 
L 3938 0 
Q 3400 19 3129 19 
Q 2859 19 2322 0 
L 2322 300 
L 2766 300 
L 2766 2028 
Q 2766 2375 2675 2512 
Q 2584 2650 2413 2650 
Q 2059 2650 1759 2384 
Q 1459 2119 1459 1638 
L 1459 300 
L 1900 300 
L 1900 0 
Q 1363 19 1094 19 
Q 825 19 288 0 
z
" transform="scale(0.015625)"/>
      <path id="CMUSerif-Bold-20" transform="scale(0.015625)"/>
      <path id="CMUSerif-Bold-64" d="M 244 1416 
Q 244 2081 692 2481 
Q 1141 2881 1850 2881 
Q 2344 2881 2713 2591 
L 2713 3841 
Q 2713 4019 2645 4055 
Q 2578 4091 2272 4091 
L 2272 4391 
L 3406 4441 
L 3406 550 
Q 3406 372 3473 336 
Q 3541 300 3847 300 
L 3847 0 
L 2675 -38 
L 2675 275 
Q 2284 -38 1778 -38 
Q 1075 -38 659 368 
Q 244 775 244 1416 
z
M 1063 1416 
Q 1063 1256 1066 1162 
Q 1069 1069 1087 903 
Q 1106 738 1157 631 
Q 1209 525 1292 412 
Q 1375 300 1515 245 
Q 1656 191 1844 191 
Q 2338 191 2675 659 
L 2675 2259 
Q 2381 2650 1913 2650 
Q 1459 2650 1228 2316 
Q 1063 2069 1063 1416 
z
" transform="scale(0.015625)"/>
      <path id="CMUSerif-Bold-43" d="M 1106 562 
Q 409 1197 409 2195 
Q 409 3194 1107 3826 
Q 1806 4459 2981 4459 
Q 3703 4459 4244 4025 
L 4666 4403 
Q 4728 4459 4788 4459 
Q 4866 4459 4884 4425 
Q 4903 4391 4903 4281 
L 4903 2906 
Q 4903 2778 4876 2751 
Q 4850 2725 4728 2725 
Q 4619 2725 4594 2745 
Q 4569 2766 4556 2859 
Q 4453 3453 4050 3806 
Q 3647 4159 3116 4159 
Q 2297 4159 1813 3669 
Q 1391 3228 1388 2194 
Q 1388 1234 1766 775 
Q 2225 231 3138 231 
Q 3681 231 4125 557 
Q 4569 884 4603 1478 
Q 4609 1556 4640 1572 
Q 4672 1588 4750 1588 
Q 4841 1588 4872 1566 
Q 4903 1544 4903 1453 
Q 4903 866 4368 397 
Q 3834 -72 2981 -72 
Q 1803 -72 1106 562 
z
" transform="scale(0.015625)"/>
      <path id="CMUSerif-Bold-6c" d="M 300 0 
L 300 300 
L 744 300 
L 744 3841 
Q 744 4019 676 4055 
Q 609 4091 300 4091 
L 300 4391 
L 1434 4441 
L 1434 300 
L 1875 300 
L 1875 0 
Q 1222 19 1088 19 
Q 916 19 300 0 
z
" transform="scale(0.015625)"/>
      <path id="CMUSerif-Bold-75" d="M 288 2528 
L 288 2828 
L 1459 2881 
L 1459 697 
Q 1459 403 1542 297 
Q 1625 191 1972 191 
Q 2325 191 2545 428 
Q 2766 666 2766 1056 
L 2766 2278 
Q 2766 2456 2698 2492 
Q 2631 2528 2322 2528 
L 2322 2828 
L 3494 2881 
L 3494 550 
Q 3494 372 3561 336 
Q 3628 300 3938 300 
L 3938 0 
L 2803 -38 
L 2803 459 
Q 2513 -38 1888 -38 
Q 1884 -38 1881 -38 
Q 1338 -38 1033 137 
Q 728 313 728 788 
L 728 2278 
Q 728 2456 661 2492 
Q 594 2528 288 2528 
z
" transform="scale(0.015625)"/>
      <path id="CMUSerif-Bold-76" d="M 166 2541 
L 166 2841 
Q 228 2841 511 2831 
Q 794 2822 897 2822 
Q 1372 2822 1691 2841 
L 1691 2541 
L 1344 2541 
L 2156 794 
L 2900 2394 
Q 2931 2456 2931 2472 
Q 2931 2541 2650 2541 
Q 2638 2541 2625 2541 
L 2625 2841 
Q 3028 2822 3206 2822 
Q 3469 2822 3713 2841 
L 3713 2541 
Q 3431 2541 3351 2512 
Q 3272 2484 3238 2406 
L 2175 128 
Q 2103 -25 1937 -25 
Q 1772 -25 1697 134 
L 575 2541 
L 166 2541 
z
" transform="scale(0.015625)"/>
      <path id="CMUSerif-Bold-67" d="M 206 -481 
Q 206 -341 276 -228 
Q 347 -116 455 -55 
Q 563 6 630 34 
Q 697 63 756 78 
Q 475 303 475 691 
Q 475 984 691 1259 
Q 538 1369 448 1551 
Q 359 1734 359 1931 
Q 359 2316 675 2598 
Q 991 2881 1631 2881 
Q 2175 2881 2491 2669 
Q 2797 2913 3169 2913 
Q 3366 2913 3469 2794 
Q 3572 2675 3572 2541 
Q 3572 2425 3495 2345 
Q 3419 2266 3297 2266 
Q 3175 2266 3098 2342 
Q 3022 2419 3022 2541 
Q 3022 2603 3047 2669 
Q 2841 2650 2650 2547 
Q 2906 2272 2906 1931 
Q 2906 1547 2589 1265 
Q 2272 984 1631 984 
Q 1172 984 850 1153 
Q 788 1069 788 941 
Q 788 819 870 694 
Q 953 569 1141 538 
Q 1172 531 1631 531 
Q 2016 531 2195 525 
Q 2375 519 2595 476 
Q 2816 434 2988 353 
Q 3469 109 3469 -459 
Q 3469 -819 3056 -1053 
Q 2644 -1288 1838 -1288 
Q 975 -1288 590 -1038 
Q 206 -788 206 -481 
z
M 756 -469 
Q 756 -713 1028 -884 
Q 1300 -1056 1838 -1056 
Q 2400 -1056 2659 -876 
Q 2919 -697 2919 -481 
Q 2919 -84 1997 -84 
L 1247 -84 
Q 756 -84 756 -469 
z
M 1072 2120 
Q 1069 2053 1069 1933 
Q 1069 1813 1072 1745 
Q 1075 1678 1103 1562 
Q 1131 1447 1189 1383 
Q 1247 1319 1359 1267 
Q 1472 1216 1631 1216 
Q 1791 1216 1903 1267 
Q 2016 1319 2073 1383 
Q 2131 1447 2159 1562 
Q 2188 1678 2191 1745 
Q 2194 1813 2194 1933 
Q 2194 2053 2191 2120 
Q 2188 2188 2159 2303 
Q 2131 2419 2073 2483 
Q 2016 2547 1903 2598 
Q 1791 2650 1631 2650 
Q 1472 2650 1359 2598 
Q 1247 2547 1189 2483 
Q 1131 2419 1103 2303 
Q 1075 2188 1072 2120 
z
" transform="scale(0.015625)"/>
      <path id="CMUSerif-Bold-73" d="M 244 141 
L 244 838 
Q 244 959 266 992 
Q 288 1025 397 1025 
Q 475 1025 503 1011 
Q 531 997 550 934 
Q 588 800 636 697 
Q 684 594 784 462 
Q 884 331 1059 261 
Q 1234 191 1472 191 
Q 2200 191 2203 672 
Q 2203 806 2131 901 
Q 2059 997 1925 1051 
Q 1791 1106 1705 1129 
Q 1619 1153 1491 1172 
Q 1178 1228 1056 1254 
Q 934 1281 778 1348 
Q 622 1416 500 1522 
Q 244 1741 244 2059 
Q 244 2256 314 2411 
Q 384 2566 509 2653 
Q 634 2741 756 2794 
Q 878 2847 1034 2867 
Q 1191 2888 1264 2894 
Q 1338 2900 1422 2900 
Q 1825 2900 2069 2778 
Q 2319 2900 2356 2900 
Q 2434 2900 2453 2864 
Q 2472 2828 2472 2719 
L 2472 2209 
Q 2472 2088 2448 2058 
Q 2425 2028 2316 2028 
Q 2219 2028 2197 2054 
Q 2175 2081 2169 2156 
Q 2119 2694 1416 2694 
Q 700 2694 697 2297 
Q 697 2188 758 2111 
Q 819 2034 944 1990 
Q 1069 1947 1139 1926 
Q 1209 1906 1350 1881 
Q 1766 1809 1948 1756 
Q 2131 1703 2303 1575 
Q 2656 1294 2656 897 
Q 2656 672 2586 501 
Q 2516 331 2391 236 
Q 2266 141 2144 80 
Q 2022 19 1862 -3 
Q 1703 -25 1633 -31 
Q 1563 -38 1472 -38 
Q 1013 -38 716 166 
L 550 56 
Q 419 -38 363 -38 
Q 363 -38 359 -38 
Q 281 -38 262 0 
Q 244 38 244 141 
z
" transform="scale(0.015625)"/>
      <path id="CMUSerif-Bold-54" d="M 269 2778 
L 403 4319 
L 4709 4319 
L 4844 2778 
L 4544 2778 
Q 4519 3047 4500 3190 
Q 4481 3334 4414 3523 
Q 4347 3713 4244 3802 
Q 4141 3891 3955 3955 
Q 3769 4019 3500 4019 
L 3016 4019 
L 3016 300 
L 3994 300 
L 3994 0 
Q 3647 19 2559 19 
Q 1472 19 1125 0 
L 1125 300 
L 2106 300 
L 2106 4019 
L 1613 4019 
Q 1344 4019 1155 3951 
Q 966 3884 864 3795 
Q 763 3706 698 3520 
Q 634 3334 611 3190 
Q 588 3047 569 2778 
L 269 2778 
z
" transform="scale(0.015625)"/>
      <path id="CMUSerif-Bold-6d" d="M 288 0 
L 288 300 
L 728 300 
L 728 2278 
Q 728 2456 661 2492 
Q 594 2528 288 2528 
L 288 2828 
L 1388 2881 
L 1388 2188 
Q 1741 2878 2516 2881 
Q 3341 2881 3475 2266 
Q 3822 2881 4556 2881 
Q 5063 2881 5303 2662 
Q 5544 2444 5544 1959 
L 5544 300 
L 5984 300 
L 5984 0 
Q 5447 19 5178 19 
Q 4909 19 4372 0 
L 4372 300 
L 4813 300 
L 4813 2028 
Q 4813 2381 4723 2515 
Q 4634 2650 4453 2650 
Q 4106 2650 3803 2384 
Q 3500 2119 3500 1638 
L 3500 300 
L 3944 300 
L 3944 0 
Q 3406 19 3137 19 
Q 2869 19 2328 0 
L 2328 300 
L 2772 300 
L 2772 2028 
Q 2772 2381 2681 2515 
Q 2591 2650 2413 2650 
Q 2066 2650 1762 2384 
Q 1459 2119 1459 1638 
L 1459 300 
L 1900 300 
L 1900 0 
Q 1363 19 1094 19 
Q 825 19 288 0 
z
" transform="scale(0.015625)"/>
     </defs>
     <use xlink:href="#CMUSerif-Bold-50"/>
     <use xlink:href="#CMUSerif-Bold-72" x="78.564453"/>
     <use xlink:href="#CMUSerif-Bold-65" x="125.830078"/>
     <use xlink:href="#CMUSerif-Bold-63" x="178.515625"/>
     <use xlink:href="#CMUSerif-Bold-69" x="229.589844"/>
     <use xlink:href="#CMUSerif-Bold-70" x="261.474609"/>
     <use xlink:href="#CMUSerif-Bold-69" x="325.244141"/>
     <use xlink:href="#CMUSerif-Bold-74" x="357.128906"/>
     <use xlink:href="#CMUSerif-Bold-61" x="401.806641"/>
     <use xlink:href="#CMUSerif-Bold-74" x="457.666016"/>
     <use xlink:href="#CMUSerif-Bold-69" x="502.34375"/>
     <use xlink:href="#CMUSerif-Bold-6f" x="534.228516"/>
     <use xlink:href="#CMUSerif-Bold-6e" x="591.699219"/>
     <use xlink:href="#CMUSerif-Bold-20" x="655.46875"/>
     <use xlink:href="#CMUSerif-Bold-61" x="693.75"/>
     <use xlink:href="#CMUSerif-Bold-6e" x="749.609375"/>
     <use xlink:href="#CMUSerif-Bold-64" x="813.378906"/>
     <use xlink:href="#CMUSerif-Bold-20" x="877.148438"/>
     <use xlink:href="#CMUSerif-Bold-43" x="915.429688"/>
     <use xlink:href="#CMUSerif-Bold-6c" x="998.388672"/>
     <use xlink:href="#CMUSerif-Bold-6f" x="1030.273438"/>
     <use xlink:href="#CMUSerif-Bold-75" x="1087.744141"/>
     <use xlink:href="#CMUSerif-Bold-64" x="1151.513672"/>
     <use xlink:href="#CMUSerif-Bold-20" x="1215.283203"/>
     <use xlink:href="#CMUSerif-Bold-43" x="1253.564453"/>
     <use xlink:href="#CMUSerif-Bold-6f" x="1336.523438"/>
     <use xlink:href="#CMUSerif-Bold-76" x="1393.994141"/>
     <use xlink:href="#CMUSerif-Bold-65" x="1454.589844"/>
     <use xlink:href="#CMUSerif-Bold-72" x="1507.275391"/>
     <use xlink:href="#CMUSerif-Bold-61" x="1554.541016"/>
     <use xlink:href="#CMUSerif-Bold-67" x="1610.400391"/>
     <use xlink:href="#CMUSerif-Bold-65" x="1667.871094"/>
     <use xlink:href="#CMUSerif-Bold-20" x="1720.556641"/>
     <use xlink:href="#CMUSerif-Bold-76" x="1758.837891"/>
     <use xlink:href="#CMUSerif-Bold-73" x="1819.433594"/>
     <use xlink:href="#CMUSerif-Bold-20" x="1864.697266"/>
     <use xlink:href="#CMUSerif-Bold-54" x="1902.978516"/>
     <use xlink:href="#CMUSerif-Bold-69" x="1982.958984"/>
     <use xlink:href="#CMUSerif-Bold-6d" x="2014.84375"/>
     <use xlink:href="#CMUSerif-Bold-65" x="2110.595703"/>
    </g>
   </g>
   <g id="legend_1">
    <g id="patch_65">
     <path d="M 515.085938 71.011563 
L 641 71.011563 
Q 643 71.011563 643 69.011563 
L 643 41.56 
Q 643 39.56 641 39.56 
L 515.085938 39.56 
Q 513.085938 39.56 513.085938 41.56 
L 513.085938 69.011563 
Q 513.085938 71.011563 515.085938 71.011563 
z
" style="fill: #ffffff; opacity: 0.8; stroke: #cccccc; stroke-linejoin: miter"/>
    </g>
    <g id="patch_66">
     <path d="M 517.085938 51.06 
L 537.085938 51.06 
L 537.085938 44.06 
L 517.085938 44.06 
z
" style="fill: #b3babf; stroke: #b3babf; stroke-linejoin: miter"/>
    </g>
    <g id="text_20">
     <!-- Cloud Coverage % -->
     <g transform="translate(545.085938 51.06) scale(0.1 -0.1)">
      <defs>
       <path id="CMUSerif-Bold-25" d="M 409 3513 
Q 409 4141 736 4470 
Q 1063 4800 1509 4800 
Q 1778 4800 2009 4634 
Q 2706 4122 3456 4122 
Q 4244 4122 4716 4678 
Q 4813 4800 4909 4800 
Q 4981 4800 5040 4745 
Q 5100 4691 5100 4603 
Q 5100 4541 5031 4447 
L 1388 -256 
Q 1316 -359 1222 -359 
Q 1138 -359 1081 -301 
Q 1025 -244 1025 -159 
Q 1025 -69 1094 0 
L 4213 4031 
Q 3859 3891 3463 3891 
Q 2931 3891 2356 4153 
Q 2453 3853 2450 3506 
Q 2450 2866 2175 2544 
Q 1900 2222 1509 2222 
Q 1069 2222 739 2544 
Q 409 2866 409 3513 
z
M 1069 3506 
Q 1069 3341 1072 3242 
Q 1075 3144 1097 2970 
Q 1119 2797 1164 2701 
Q 1209 2606 1301 2528 
Q 1394 2450 1522 2450 
Q 1759 2450 1954 2700 
Q 2150 2950 2150 3513 
Q 2150 4056 1958 4312 
Q 1766 4569 1522 4569 
Q 1394 4569 1301 4492 
Q 1209 4416 1164 4320 
Q 1119 4225 1097 4051 
Q 1075 3878 1072 3778 
Q 1069 3678 1069 3506 
z
M 3675 934 
Q 3675 1563 4000 1892 
Q 4325 2222 4775 2222 
Q 5159 2222 5437 1901 
Q 5716 1581 5716 928 
Q 5716 288 5441 -35 
Q 5166 -359 4775 -359 
Q 4334 -359 4004 -35 
Q 3675 288 3675 934 
z
M 4331 928 
Q 4331 763 4336 663 
Q 4341 563 4362 391 
Q 4384 219 4429 122 
Q 4475 25 4567 -51 
Q 4659 -128 4788 -128 
Q 5025 -128 5220 122 
Q 5416 372 5416 934 
Q 5416 1478 5223 1734 
Q 5031 1991 4788 1991 
Q 4659 1991 4567 1914 
Q 4475 1838 4429 1741 
Q 4384 1644 4362 1472 
Q 4341 1300 4336 1200 
Q 4331 1100 4331 928 
z
" transform="scale(0.015625)"/>
      </defs>
      <use xlink:href="#CMUSerif-Bold-43"/>
      <use xlink:href="#CMUSerif-Bold-6c" x="82.958984"/>
      <use xlink:href="#CMUSerif-Bold-6f" x="114.84375"/>
      <use xlink:href="#CMUSerif-Bold-75" x="172.314453"/>
      <use xlink:href="#CMUSerif-Bold-64" x="236.083984"/>
      <use xlink:href="#CMUSerif-Bold-20" x="299.853516"/>
      <use xlink:href="#CMUSerif-Bold-43" x="338.134766"/>
      <use xlink:href="#CMUSerif-Bold-6f" x="421.09375"/>
      <use xlink:href="#CMUSerif-Bold-76" x="478.564453"/>
      <use xlink:href="#CMUSerif-Bold-65" x="539.160156"/>
      <use xlink:href="#CMUSerif-Bold-72" x="591.845703"/>
      <use xlink:href="#CMUSerif-Bold-61" x="639.111328"/>
      <use xlink:href="#CMUSerif-Bold-67" x="694.970703"/>
      <use xlink:href="#CMUSerif-Bold-65" x="752.441406"/>
      <use xlink:href="#CMUSerif-Bold-20" x="805.126953"/>
      <use xlink:href="#CMUSerif-Bold-25" x="843.408203"/>
     </g>
    </g>
    <g id="patch_67">
     <path d="M 517.085938 65.0725 
L 537.085938 65.0725 
L 537.085938 58.0725 
L 517.085938 58.0725 
z
" style="fill: #6c9fce; stroke: #6c9fce; stroke-linejoin: miter"/>
    </g>
    <g id="text_21">
     <!-- Precipitation -->
     <g transform="translate(545.085938 65.0725) scale(0.1 -0.1)">
      <use xlink:href="#CMUSerif-Bold-50"/>
      <use xlink:href="#CMUSerif-Bold-72" x="78.564453"/>
      <use xlink:href="#CMUSerif-Bold-65" x="125.830078"/>
      <use xlink:href="#CMUSerif-Bold-63" x="178.515625"/>
      <use xlink:href="#CMUSerif-Bold-69" x="229.589844"/>
      <use xlink:href="#CMUSerif-Bold-70" x="261.474609"/>
      <use xlink:href="#CMUSerif-Bold-69" x="325.244141"/>
      <use xlink:href="#CMUSerif-Bold-74" x="357.128906"/>
      <use xlink:href="#CMUSerif-Bold-61" x="401.806641"/>
      <use xlink:href="#CMUSerif-Bold-74" x="457.666016"/>
      <use xlink:href="#CMUSerif-Bold-69" x="502.34375"/>
      <use xlink:href="#CMUSerif-Bold-6f" x="534.228516"/>
      <use xlink:href="#CMUSerif-Bold-6e" x="591.699219"/>
     </g>
    </g>
   </g>
  </g>
 </g>
 <defs>
  <clipPath id="p20595181bc">
   <rect x="90" y="34.56" width="558" height="221.76"/>
  </clipPath>
 </defs>
</svg>
