<?xml version="1.0" encoding="utf-8" standalone="no"?>
<!DOCTYPE svg PUBLIC "-//W3C//DTD SVG 1.1//EN"
  "http://www.w3.org/Graphics/SVG/1.1/DTD/svg11.dtd">
<svg xmlns:xlink="http://www.w3.org/1999/xlink" width="553.040162pt" height="348.005493pt" viewBox="0 0 553.040162 348.005493" xmlns="http://www.w3.org/2000/svg" version="1.1">
 <metadata>
  <rdf:RDF xmlns:dc="http://purl.org/dc/elements/1.1/" xmlns:cc="http://creativecommons.org/ns#" xmlns:rdf="http://www.w3.org/1999/02/22-rdf-syntax-ns#">
   <cc:Work>
    <dc:type rdf:resource="http://purl.org/dc/dcmitype/StillImage"/>
    <dc:date>2023-04-04T01:32:37.161214</dc:date>
    <dc:format>image/svg+xml</dc:format>
    <dc:creator>
     <cc:Agent>
      <dc:title>Matplotlib v3.7.1, https://matplotlib.org/</dc:title>
     </cc:Agent>
    </dc:creator>
   </cc:Work>
  </rdf:RDF>
 </metadata>
 <defs>
  <style type="text/css">*{stroke-linejoin: round; stroke-linecap: butt}</style>
 </defs>
 <g id="figure_1">
  <g id="patch_1">
   <path d="M 0 348.005493 
L 553.040162 348.005493 
L 553.040162 0 
L 0 0 
L 0 348.005493 
z
" style="fill: none"/>
  </g>
  <g id="axes_1">
   <g id="patch_2">
    <path d="M 87.9625 288.706743 
L 445.0825 288.706743 
L 445.0825 22.594743 
L 87.9625 22.594743 
L 87.9625 288.706743 
z
" style="fill: none"/>
   </g>
   <g id="matplotlib.axis_1">
    <g id="xtick_1">
     <g id="line2d_1">
      <defs>
       <path id="mf05b952eee" d="M 0 0 
L 0 3.5 
" style="stroke: #969696; stroke-width: 0.4"/>
      </defs>
      <g>
       <use xlink:href="#mf05b952eee" x="87.9625" y="288.706743" style="fill: #969696; stroke: #969696; stroke-width: 0.4"/>
      </g>
     </g>
     <g id="text_1">
      <!-- 0.0 -->
      <g style="fill: #969696" transform="translate(76.830313 306.344556) scale(0.14 -0.14)">
       <defs>
        <path id="DejaVuSans-30" d="M 2034 4250 
Q 1547 4250 1301 3770 
Q 1056 3291 1056 2328 
Q 1056 1369 1301 889 
Q 1547 409 2034 409 
Q 2525 409 2770 889 
Q 3016 1369 3016 2328 
Q 3016 3291 2770 3770 
Q 2525 4250 2034 4250 
z
M 2034 4750 
Q 2819 4750 3233 4129 
Q 3647 3509 3647 2328 
Q 3647 1150 3233 529 
Q 2819 -91 2034 -91 
Q 1250 -91 836 529 
Q 422 1150 422 2328 
Q 422 3509 836 4129 
Q 1250 4750 2034 4750 
z
" transform="scale(0.015625)"/>
        <path id="DejaVuSans-2e" d="M 684 794 
L 1344 794 
L 1344 0 
L 684 0 
L 684 794 
z
" transform="scale(0.015625)"/>
       </defs>
       <use xlink:href="#DejaVuSans-30"/>
       <use xlink:href="#DejaVuSans-2e" x="63.623047"/>
       <use xlink:href="#DejaVuSans-30" x="95.410156"/>
      </g>
     </g>
    </g>
    <g id="xtick_2">
     <g id="line2d_2">
      <g>
       <use xlink:href="#mf05b952eee" x="147.4825" y="288.706743" style="fill: #969696; stroke: #969696; stroke-width: 0.4"/>
      </g>
     </g>
     <g id="text_2">
      <!-- 0.5 -->
      <g style="fill: #969696" transform="translate(136.350313 306.344556) scale(0.14 -0.14)">
       <defs>
        <path id="DejaVuSans-35" d="M 691 4666 
L 3169 4666 
L 3169 4134 
L 1269 4134 
L 1269 2991 
Q 1406 3038 1543 3061 
Q 1681 3084 1819 3084 
Q 2600 3084 3056 2656 
Q 3513 2228 3513 1497 
Q 3513 744 3044 326 
Q 2575 -91 1722 -91 
Q 1428 -91 1123 -41 
Q 819 9 494 109 
L 494 744 
Q 775 591 1075 516 
Q 1375 441 1709 441 
Q 2250 441 2565 725 
Q 2881 1009 2881 1497 
Q 2881 1984 2565 2268 
Q 2250 2553 1709 2553 
Q 1456 2553 1204 2497 
Q 953 2441 691 2322 
L 691 4666 
z
" transform="scale(0.015625)"/>
       </defs>
       <use xlink:href="#DejaVuSans-30"/>
       <use xlink:href="#DejaVuSans-2e" x="63.623047"/>
       <use xlink:href="#DejaVuSans-35" x="95.410156"/>
      </g>
     </g>
    </g>
    <g id="xtick_3">
     <g id="line2d_3">
      <g>
       <use xlink:href="#mf05b952eee" x="207.0025" y="288.706743" style="fill: #969696; stroke: #969696; stroke-width: 0.4"/>
      </g>
     </g>
     <g id="text_3">
      <!-- 1.0 -->
      <g style="fill: #969696" transform="translate(195.870313 306.344556) scale(0.14 -0.14)">
       <defs>
        <path id="DejaVuSans-31" d="M 794 531 
L 1825 531 
L 1825 4091 
L 703 3866 
L 703 4441 
L 1819 4666 
L 2450 4666 
L 2450 531 
L 3481 531 
L 3481 0 
L 794 0 
L 794 531 
z
" transform="scale(0.015625)"/>
       </defs>
       <use xlink:href="#DejaVuSans-31"/>
       <use xlink:href="#DejaVuSans-2e" x="63.623047"/>
       <use xlink:href="#DejaVuSans-30" x="95.410156"/>
      </g>
     </g>
    </g>
    <g id="xtick_4">
     <g id="line2d_4">
      <g>
       <use xlink:href="#mf05b952eee" x="266.5225" y="288.706743" style="fill: #969696; stroke: #969696; stroke-width: 0.4"/>
      </g>
     </g>
     <g id="text_4">
      <!-- 1.5 -->
      <g style="fill: #969696" transform="translate(255.390313 306.344556) scale(0.14 -0.14)">
       <use xlink:href="#DejaVuSans-31"/>
       <use xlink:href="#DejaVuSans-2e" x="63.623047"/>
       <use xlink:href="#DejaVuSans-35" x="95.410156"/>
      </g>
     </g>
    </g>
    <g id="xtick_5">
     <g id="line2d_5">
      <g>
       <use xlink:href="#mf05b952eee" x="326.0425" y="288.706743" style="fill: #969696; stroke: #969696; stroke-width: 0.4"/>
      </g>
     </g>
     <g id="text_5">
      <!-- 2.0 -->
      <g style="fill: #969696" transform="translate(314.910313 306.344556) scale(0.14 -0.14)">
       <defs>
        <path id="DejaVuSans-32" d="M 1228 531 
L 3431 531 
L 3431 0 
L 469 0 
L 469 531 
Q 828 903 1448 1529 
Q 2069 2156 2228 2338 
Q 2531 2678 2651 2914 
Q 2772 3150 2772 3378 
Q 2772 3750 2511 3984 
Q 2250 4219 1831 4219 
Q 1534 4219 1204 4116 
Q 875 4013 500 3803 
L 500 4441 
Q 881 4594 1212 4672 
Q 1544 4750 1819 4750 
Q 2544 4750 2975 4387 
Q 3406 4025 3406 3419 
Q 3406 3131 3298 2873 
Q 3191 2616 2906 2266 
Q 2828 2175 2409 1742 
Q 1991 1309 1228 531 
z
" transform="scale(0.015625)"/>
       </defs>
       <use xlink:href="#DejaVuSans-32"/>
       <use xlink:href="#DejaVuSans-2e" x="63.623047"/>
       <use xlink:href="#DejaVuSans-30" x="95.410156"/>
      </g>
     </g>
    </g>
    <g id="xtick_6">
     <g id="line2d_6">
      <g>
       <use xlink:href="#mf05b952eee" x="385.5625" y="288.706743" style="fill: #969696; stroke: #969696; stroke-width: 0.4"/>
      </g>
     </g>
     <g id="text_6">
      <!-- 2.5 -->
      <g style="fill: #969696" transform="translate(374.430313 306.344556) scale(0.14 -0.14)">
       <use xlink:href="#DejaVuSans-32"/>
       <use xlink:href="#DejaVuSans-2e" x="63.623047"/>
       <use xlink:href="#DejaVuSans-35" x="95.410156"/>
      </g>
     </g>
    </g>
    <g id="xtick_7">
     <g id="line2d_7">
      <g>
       <use xlink:href="#mf05b952eee" x="445.0825" y="288.706743" style="fill: #969696; stroke: #969696; stroke-width: 0.4"/>
      </g>
     </g>
     <g id="text_7">
      <!-- 3.0 -->
      <g style="fill: #969696" transform="translate(433.950312 306.344556) scale(0.14 -0.14)">
       <defs>
        <path id="DejaVuSans-33" d="M 2597 2516 
Q 3050 2419 3304 2112 
Q 3559 1806 3559 1356 
Q 3559 666 3084 287 
Q 2609 -91 1734 -91 
Q 1441 -91 1130 -33 
Q 819 25 488 141 
L 488 750 
Q 750 597 1062 519 
Q 1375 441 1716 441 
Q 2309 441 2620 675 
Q 2931 909 2931 1356 
Q 2931 1769 2642 2001 
Q 2353 2234 1838 2234 
L 1294 2234 
L 1294 2753 
L 1863 2753 
Q 2328 2753 2575 2939 
Q 2822 3125 2822 3475 
Q 2822 3834 2567 4026 
Q 2313 4219 1838 4219 
Q 1578 4219 1281 4162 
Q 984 4106 628 3988 
L 628 4550 
Q 988 4650 1302 4700 
Q 1616 4750 1894 4750 
Q 2613 4750 3031 4423 
Q 3450 4097 3450 3541 
Q 3450 3153 3228 2886 
Q 3006 2619 2597 2516 
z
" transform="scale(0.015625)"/>
       </defs>
       <use xlink:href="#DejaVuSans-33"/>
       <use xlink:href="#DejaVuSans-2e" x="63.623047"/>
       <use xlink:href="#DejaVuSans-30" x="95.410156"/>
      </g>
     </g>
    </g>
    <g id="text_8">
     <!-- distance [m] -->
     <g style="fill: #969696" transform="translate(222.355781 337.893931) scale(0.14 -0.14)">
      <defs>
       <path id="DejaVuSans-64" d="M 2906 2969 
L 2906 4863 
L 3481 4863 
L 3481 0 
L 2906 0 
L 2906 525 
Q 2725 213 2448 61 
Q 2172 -91 1784 -91 
Q 1150 -91 751 415 
Q 353 922 353 1747 
Q 353 2572 751 3078 
Q 1150 3584 1784 3584 
Q 2172 3584 2448 3432 
Q 2725 3281 2906 2969 
z
M 947 1747 
Q 947 1113 1208 752 
Q 1469 391 1925 391 
Q 2381 391 2643 752 
Q 2906 1113 2906 1747 
Q 2906 2381 2643 2742 
Q 2381 3103 1925 3103 
Q 1469 3103 1208 2742 
Q 947 2381 947 1747 
z
" transform="scale(0.015625)"/>
       <path id="DejaVuSans-69" d="M 603 3500 
L 1178 3500 
L 1178 0 
L 603 0 
L 603 3500 
z
M 603 4863 
L 1178 4863 
L 1178 4134 
L 603 4134 
L 603 4863 
z
" transform="scale(0.015625)"/>
       <path id="DejaVuSans-73" d="M 2834 3397 
L 2834 2853 
Q 2591 2978 2328 3040 
Q 2066 3103 1784 3103 
Q 1356 3103 1142 2972 
Q 928 2841 928 2578 
Q 928 2378 1081 2264 
Q 1234 2150 1697 2047 
L 1894 2003 
Q 2506 1872 2764 1633 
Q 3022 1394 3022 966 
Q 3022 478 2636 193 
Q 2250 -91 1575 -91 
Q 1294 -91 989 -36 
Q 684 19 347 128 
L 347 722 
Q 666 556 975 473 
Q 1284 391 1588 391 
Q 1994 391 2212 530 
Q 2431 669 2431 922 
Q 2431 1156 2273 1281 
Q 2116 1406 1581 1522 
L 1381 1569 
Q 847 1681 609 1914 
Q 372 2147 372 2553 
Q 372 3047 722 3315 
Q 1072 3584 1716 3584 
Q 2034 3584 2315 3537 
Q 2597 3491 2834 3397 
z
" transform="scale(0.015625)"/>
       <path id="DejaVuSans-74" d="M 1172 4494 
L 1172 3500 
L 2356 3500 
L 2356 3053 
L 1172 3053 
L 1172 1153 
Q 1172 725 1289 603 
Q 1406 481 1766 481 
L 2356 481 
L 2356 0 
L 1766 0 
Q 1100 0 847 248 
Q 594 497 594 1153 
L 594 3053 
L 172 3053 
L 172 3500 
L 594 3500 
L 594 4494 
L 1172 4494 
z
" transform="scale(0.015625)"/>
       <path id="DejaVuSans-61" d="M 2194 1759 
Q 1497 1759 1228 1600 
Q 959 1441 959 1056 
Q 959 750 1161 570 
Q 1363 391 1709 391 
Q 2188 391 2477 730 
Q 2766 1069 2766 1631 
L 2766 1759 
L 2194 1759 
z
M 3341 1997 
L 3341 0 
L 2766 0 
L 2766 531 
Q 2569 213 2275 61 
Q 1981 -91 1556 -91 
Q 1019 -91 701 211 
Q 384 513 384 1019 
Q 384 1609 779 1909 
Q 1175 2209 1959 2209 
L 2766 2209 
L 2766 2266 
Q 2766 2663 2505 2880 
Q 2244 3097 1772 3097 
Q 1472 3097 1187 3025 
Q 903 2953 641 2809 
L 641 3341 
Q 956 3463 1253 3523 
Q 1550 3584 1831 3584 
Q 2591 3584 2966 3190 
Q 3341 2797 3341 1997 
z
" transform="scale(0.015625)"/>
       <path id="DejaVuSans-6e" d="M 3513 2113 
L 3513 0 
L 2938 0 
L 2938 2094 
Q 2938 2591 2744 2837 
Q 2550 3084 2163 3084 
Q 1697 3084 1428 2787 
Q 1159 2491 1159 1978 
L 1159 0 
L 581 0 
L 581 3500 
L 1159 3500 
L 1159 2956 
Q 1366 3272 1645 3428 
Q 1925 3584 2291 3584 
Q 2894 3584 3203 3211 
Q 3513 2838 3513 2113 
z
" transform="scale(0.015625)"/>
       <path id="DejaVuSans-63" d="M 3122 3366 
L 3122 2828 
Q 2878 2963 2633 3030 
Q 2388 3097 2138 3097 
Q 1578 3097 1268 2742 
Q 959 2388 959 1747 
Q 959 1106 1268 751 
Q 1578 397 2138 397 
Q 2388 397 2633 464 
Q 2878 531 3122 666 
L 3122 134 
Q 2881 22 2623 -34 
Q 2366 -91 2075 -91 
Q 1284 -91 818 406 
Q 353 903 353 1747 
Q 353 2603 823 3093 
Q 1294 3584 2113 3584 
Q 2378 3584 2631 3529 
Q 2884 3475 3122 3366 
z
" transform="scale(0.015625)"/>
       <path id="DejaVuSans-65" d="M 3597 1894 
L 3597 1613 
L 953 1613 
Q 991 1019 1311 708 
Q 1631 397 2203 397 
Q 2534 397 2845 478 
Q 3156 559 3463 722 
L 3463 178 
Q 3153 47 2828 -22 
Q 2503 -91 2169 -91 
Q 1331 -91 842 396 
Q 353 884 353 1716 
Q 353 2575 817 3079 
Q 1281 3584 2069 3584 
Q 2775 3584 3186 3129 
Q 3597 2675 3597 1894 
z
M 3022 2063 
Q 3016 2534 2758 2815 
Q 2500 3097 2075 3097 
Q 1594 3097 1305 2825 
Q 1016 2553 972 2059 
L 3022 2063 
z
" transform="scale(0.015625)"/>
       <path id="DejaVuSans-20" transform="scale(0.015625)"/>
       <path id="DejaVuSans-5b" d="M 550 4863 
L 1875 4863 
L 1875 4416 
L 1125 4416 
L 1125 -397 
L 1875 -397 
L 1875 -844 
L 550 -844 
L 550 4863 
z
" transform="scale(0.015625)"/>
       <path id="DejaVuSans-6d" d="M 3328 2828 
Q 3544 3216 3844 3400 
Q 4144 3584 4550 3584 
Q 5097 3584 5394 3201 
Q 5691 2819 5691 2113 
L 5691 0 
L 5113 0 
L 5113 2094 
Q 5113 2597 4934 2840 
Q 4756 3084 4391 3084 
Q 3944 3084 3684 2787 
Q 3425 2491 3425 1978 
L 3425 0 
L 2847 0 
L 2847 2094 
Q 2847 2600 2669 2842 
Q 2491 3084 2119 3084 
Q 1678 3084 1418 2786 
Q 1159 2488 1159 1978 
L 1159 0 
L 581 0 
L 581 3500 
L 1159 3500 
L 1159 2956 
Q 1356 3278 1631 3431 
Q 1906 3584 2284 3584 
Q 2666 3584 2933 3390 
Q 3200 3197 3328 2828 
z
" transform="scale(0.015625)"/>
       <path id="DejaVuSans-5d" d="M 1947 4863 
L 1947 -844 
L 622 -844 
L 622 -397 
L 1369 -397 
L 1369 4416 
L 622 4416 
L 622 4863 
L 1947 4863 
z
" transform="scale(0.015625)"/>
      </defs>
      <use xlink:href="#DejaVuSans-64"/>
      <use xlink:href="#DejaVuSans-69" x="63.476562"/>
      <use xlink:href="#DejaVuSans-73" x="91.259766"/>
      <use xlink:href="#DejaVuSans-74" x="143.359375"/>
      <use xlink:href="#DejaVuSans-61" x="182.568359"/>
      <use xlink:href="#DejaVuSans-6e" x="243.847656"/>
      <use xlink:href="#DejaVuSans-63" x="307.226562"/>
      <use xlink:href="#DejaVuSans-65" x="362.207031"/>
      <use xlink:href="#DejaVuSans-20" x="423.730469"/>
      <use xlink:href="#DejaVuSans-5b" x="455.517578"/>
      <use xlink:href="#DejaVuSans-6d" x="494.53125"/>
      <use xlink:href="#DejaVuSans-5d" x="591.943359"/>
     </g>
    </g>
   </g>
   <g id="matplotlib.axis_2">
    <g id="ytick_1">
     <g id="line2d_8">
      <path d="M 87.9625 253.084266 
L 445.0825 253.084266 
" clip-path="url(#p51a909ddd3)" style="fill: none; stroke: #969696; stroke-width: 0.3; stroke-linecap: square"/>
     </g>
     <g id="line2d_9">
      <defs>
       <path id="m939fe400b9" d="M 0 0 
L -3.5 0 
" style="stroke: #969696; stroke-width: 0.3"/>
      </defs>
      <g>
       <use xlink:href="#m939fe400b9" x="87.9625" y="253.084266" style="fill: #969696; stroke: #969696; stroke-width: 0.3"/>
      </g>
     </g>
     <g id="text_9">
      <!-- 0.2 -->
      <g style="fill: #969696" transform="translate(58.698125 258.403173) scale(0.14 -0.14)">
       <use xlink:href="#DejaVuSans-30"/>
       <use xlink:href="#DejaVuSans-2e" x="63.623047"/>
       <use xlink:href="#DejaVuSans-32" x="95.410156"/>
      </g>
     </g>
    </g>
    <g id="ytick_2">
     <g id="line2d_10">
      <path d="M 87.9625 210.684591 
L 445.0825 210.684591 
" clip-path="url(#p51a909ddd3)" style="fill: none; stroke: #969696; stroke-width: 0.3; stroke-linecap: square"/>
     </g>
     <g id="line2d_11">
      <g>
       <use xlink:href="#m939fe400b9" x="87.9625" y="210.684591" style="fill: #969696; stroke: #969696; stroke-width: 0.3"/>
      </g>
     </g>
     <g id="text_10">
      <!-- 0.4 -->
      <g style="fill: #969696" transform="translate(58.698125 216.003497) scale(0.14 -0.14)">
       <defs>
        <path id="DejaVuSans-34" d="M 2419 4116 
L 825 1625 
L 2419 1625 
L 2419 4116 
z
M 2253 4666 
L 3047 4666 
L 3047 1625 
L 3713 1625 
L 3713 1100 
L 3047 1100 
L 3047 0 
L 2419 0 
L 2419 1100 
L 313 1100 
L 313 1709 
L 2253 4666 
z
" transform="scale(0.015625)"/>
       </defs>
       <use xlink:href="#DejaVuSans-30"/>
       <use xlink:href="#DejaVuSans-2e" x="63.623047"/>
       <use xlink:href="#DejaVuSans-34" x="95.410156"/>
      </g>
     </g>
    </g>
    <g id="ytick_3">
     <g id="line2d_12">
      <path d="M 87.9625 168.284915 
L 445.0825 168.284915 
" clip-path="url(#p51a909ddd3)" style="fill: none; stroke: #969696; stroke-width: 0.3; stroke-linecap: square"/>
     </g>
     <g id="line2d_13">
      <g>
       <use xlink:href="#m939fe400b9" x="87.9625" y="168.284915" style="fill: #969696; stroke: #969696; stroke-width: 0.3"/>
      </g>
     </g>
     <g id="text_11">
      <!-- 0.6 -->
      <g style="fill: #969696" transform="translate(58.698125 173.603821) scale(0.14 -0.14)">
       <defs>
        <path id="DejaVuSans-36" d="M 2113 2584 
Q 1688 2584 1439 2293 
Q 1191 2003 1191 1497 
Q 1191 994 1439 701 
Q 1688 409 2113 409 
Q 2538 409 2786 701 
Q 3034 994 3034 1497 
Q 3034 2003 2786 2293 
Q 2538 2584 2113 2584 
z
M 3366 4563 
L 3366 3988 
Q 3128 4100 2886 4159 
Q 2644 4219 2406 4219 
Q 1781 4219 1451 3797 
Q 1122 3375 1075 2522 
Q 1259 2794 1537 2939 
Q 1816 3084 2150 3084 
Q 2853 3084 3261 2657 
Q 3669 2231 3669 1497 
Q 3669 778 3244 343 
Q 2819 -91 2113 -91 
Q 1303 -91 875 529 
Q 447 1150 447 2328 
Q 447 3434 972 4092 
Q 1497 4750 2381 4750 
Q 2619 4750 2861 4703 
Q 3103 4656 3366 4563 
z
" transform="scale(0.015625)"/>
       </defs>
       <use xlink:href="#DejaVuSans-30"/>
       <use xlink:href="#DejaVuSans-2e" x="63.623047"/>
       <use xlink:href="#DejaVuSans-36" x="95.410156"/>
      </g>
     </g>
    </g>
    <g id="ytick_4">
     <g id="line2d_14">
      <path d="M 87.9625 125.885239 
L 445.0825 125.885239 
" clip-path="url(#p51a909ddd3)" style="fill: none; stroke: #969696; stroke-width: 0.3; stroke-linecap: square"/>
     </g>
     <g id="line2d_15">
      <g>
       <use xlink:href="#m939fe400b9" x="87.9625" y="125.885239" style="fill: #969696; stroke: #969696; stroke-width: 0.3"/>
      </g>
     </g>
     <g id="text_12">
      <!-- 0.8 -->
      <g style="fill: #969696" transform="translate(58.698125 131.204145) scale(0.14 -0.14)">
       <defs>
        <path id="DejaVuSans-38" d="M 2034 2216 
Q 1584 2216 1326 1975 
Q 1069 1734 1069 1313 
Q 1069 891 1326 650 
Q 1584 409 2034 409 
Q 2484 409 2743 651 
Q 3003 894 3003 1313 
Q 3003 1734 2745 1975 
Q 2488 2216 2034 2216 
z
M 1403 2484 
Q 997 2584 770 2862 
Q 544 3141 544 3541 
Q 544 4100 942 4425 
Q 1341 4750 2034 4750 
Q 2731 4750 3128 4425 
Q 3525 4100 3525 3541 
Q 3525 3141 3298 2862 
Q 3072 2584 2669 2484 
Q 3125 2378 3379 2068 
Q 3634 1759 3634 1313 
Q 3634 634 3220 271 
Q 2806 -91 2034 -91 
Q 1263 -91 848 271 
Q 434 634 434 1313 
Q 434 1759 690 2068 
Q 947 2378 1403 2484 
z
M 1172 3481 
Q 1172 3119 1398 2916 
Q 1625 2713 2034 2713 
Q 2441 2713 2670 2916 
Q 2900 3119 2900 3481 
Q 2900 3844 2670 4047 
Q 2441 4250 2034 4250 
Q 1625 4250 1398 4047 
Q 1172 3844 1172 3481 
z
" transform="scale(0.015625)"/>
       </defs>
       <use xlink:href="#DejaVuSans-30"/>
       <use xlink:href="#DejaVuSans-2e" x="63.623047"/>
       <use xlink:href="#DejaVuSans-38" x="95.410156"/>
      </g>
     </g>
    </g>
    <g id="ytick_5">
     <g id="line2d_16">
      <path d="M 87.9625 83.485563 
L 445.0825 83.485563 
" clip-path="url(#p51a909ddd3)" style="fill: none; stroke: #969696; stroke-width: 0.3; stroke-linecap: square"/>
     </g>
     <g id="line2d_17">
      <g>
       <use xlink:href="#m939fe400b9" x="87.9625" y="83.485563" style="fill: #969696; stroke: #969696; stroke-width: 0.3"/>
      </g>
     </g>
     <g id="text_13">
      <!-- 1.0 -->
      <g style="fill: #969696" transform="translate(58.698125 88.80447) scale(0.14 -0.14)">
       <use xlink:href="#DejaVuSans-31"/>
       <use xlink:href="#DejaVuSans-2e" x="63.623047"/>
       <use xlink:href="#DejaVuSans-30" x="95.410156"/>
      </g>
     </g>
    </g>
    <g id="ytick_6">
     <g id="line2d_18">
      <path d="M 87.9625 41.085887 
L 445.0825 41.085887 
" clip-path="url(#p51a909ddd3)" style="fill: none; stroke: #969696; stroke-width: 0.3; stroke-linecap: square"/>
     </g>
     <g id="line2d_19">
      <g>
       <use xlink:href="#m939fe400b9" x="87.9625" y="41.085887" style="fill: #969696; stroke: #969696; stroke-width: 0.3"/>
      </g>
     </g>
     <g id="text_14">
      <!-- 1.2 -->
      <g style="fill: #969696" transform="translate(58.698125 46.404794) scale(0.14 -0.14)">
       <use xlink:href="#DejaVuSans-31"/>
       <use xlink:href="#DejaVuSans-2e" x="63.623047"/>
       <use xlink:href="#DejaVuSans-32" x="95.410156"/>
      </g>
     </g>
    </g>
    <g id="text_15">
     <!-- voltage [V] -->
     <g style="fill: #969696" transform="translate(7.2 11.563125) scale(0.14 -0.14)">
      <defs>
       <path id="DejaVuSans-76" d="M 191 3500 
L 800 3500 
L 1894 563 
L 2988 3500 
L 3597 3500 
L 2284 0 
L 1503 0 
L 191 3500 
z
" transform="scale(0.015625)"/>
       <path id="DejaVuSans-6f" d="M 1959 3097 
Q 1497 3097 1228 2736 
Q 959 2375 959 1747 
Q 959 1119 1226 758 
Q 1494 397 1959 397 
Q 2419 397 2687 759 
Q 2956 1122 2956 1747 
Q 2956 2369 2687 2733 
Q 2419 3097 1959 3097 
z
M 1959 3584 
Q 2709 3584 3137 3096 
Q 3566 2609 3566 1747 
Q 3566 888 3137 398 
Q 2709 -91 1959 -91 
Q 1206 -91 779 398 
Q 353 888 353 1747 
Q 353 2609 779 3096 
Q 1206 3584 1959 3584 
z
" transform="scale(0.015625)"/>
       <path id="DejaVuSans-6c" d="M 603 4863 
L 1178 4863 
L 1178 0 
L 603 0 
L 603 4863 
z
" transform="scale(0.015625)"/>
       <path id="DejaVuSans-67" d="M 2906 1791 
Q 2906 2416 2648 2759 
Q 2391 3103 1925 3103 
Q 1463 3103 1205 2759 
Q 947 2416 947 1791 
Q 947 1169 1205 825 
Q 1463 481 1925 481 
Q 2391 481 2648 825 
Q 2906 1169 2906 1791 
z
M 3481 434 
Q 3481 -459 3084 -895 
Q 2688 -1331 1869 -1331 
Q 1566 -1331 1297 -1286 
Q 1028 -1241 775 -1147 
L 775 -588 
Q 1028 -725 1275 -790 
Q 1522 -856 1778 -856 
Q 2344 -856 2625 -561 
Q 2906 -266 2906 331 
L 2906 616 
Q 2728 306 2450 153 
Q 2172 0 1784 0 
Q 1141 0 747 490 
Q 353 981 353 1791 
Q 353 2603 747 3093 
Q 1141 3584 1784 3584 
Q 2172 3584 2450 3431 
Q 2728 3278 2906 2969 
L 2906 3500 
L 3481 3500 
L 3481 434 
z
" transform="scale(0.015625)"/>
       <path id="DejaVuSans-56" d="M 1831 0 
L 50 4666 
L 709 4666 
L 2188 738 
L 3669 4666 
L 4325 4666 
L 2547 0 
L 1831 0 
z
" transform="scale(0.015625)"/>
      </defs>
      <use xlink:href="#DejaVuSans-76"/>
      <use xlink:href="#DejaVuSans-6f" x="59.179688"/>
      <use xlink:href="#DejaVuSans-6c" x="120.361328"/>
      <use xlink:href="#DejaVuSans-74" x="148.144531"/>
      <use xlink:href="#DejaVuSans-61" x="187.353516"/>
      <use xlink:href="#DejaVuSans-67" x="248.632812"/>
      <use xlink:href="#DejaVuSans-65" x="312.109375"/>
      <use xlink:href="#DejaVuSans-20" x="373.632812"/>
      <use xlink:href="#DejaVuSans-5b" x="405.419922"/>
      <use xlink:href="#DejaVuSans-56" x="444.433594"/>
      <use xlink:href="#DejaVuSans-5d" x="512.841797"/>
     </g>
    </g>
   </g>
   <g id="line2d_20">
    <path d="M 87.9625 281.980458 
L 91.569773 283.529261 
L 95.177045 282.501117 
L 98.784318 277.467027 
L 102.391591 255.324001 
L 105.998864 248.239148 
L 109.606136 250.008227 
L 113.213409 242.919017 
L 116.820682 242.593643 
L 120.427955 230.232334 
L 124.035227 228.886031 
L 127.6425 242.426292 
L 131.249773 220.77421 
L 134.857045 234.859348 
L 138.464318 216.866912 
L 142.071591 225.510578 
L 145.678864 207.960729 
L 149.286136 211.925603 
L 152.893409 214.307141 
L 156.500682 209.062096 
L 160.107955 214.884182 
L 163.715227 210.405343 
L 167.3225 196.467462 
L 170.929773 194.692867 
L 174.537045 193.175402 
L 178.144318 195.971429 
L 181.751591 180.920239 
L 185.358864 179.291122 
L 188.966136 183.639832 
L 192.573409 182.533779 
L 196.180682 179.937374 
L 199.787955 184.552156 
L 203.395227 188.251486 
L 207.0025 174.189317 
L 210.609773 176.765249 
L 214.217045 179.790052 
L 217.824318 174.576462 
L 221.431591 164.570658 
L 225.038864 162.21845 
L 228.646136 173.066287 
L 232.253409 167.204107 
L 235.860682 171.201802 
L 239.467955 164.165786 
L 243.075227 168.373828 
L 246.6825 166.039752 
L 250.289773 154.303513 
L 253.897045 167.226144 
L 257.504318 157.723428 
L 261.111591 168.074162 
L 264.718864 151.150063 
L 268.326136 151.087719 
L 271.933409 161.696047 
L 275.540682 147.209493 
L 279.147955 163.592146 
L 282.755227 156.773114 
L 286.3625 159.799055 
L 289.969773 152.544582 
L 293.577045 144.336357 
L 297.184318 155.474519 
L 300.791591 158.425617 
L 304.398864 150.134361 
L 308.006136 153.702082 
L 311.613409 155.203156 
L 315.220682 144.057054 
L 318.827955 149.276414 
L 322.435227 140.62659 
L 326.0425 149.921995 
L 329.649773 133.472383 
L 333.257045 145.012084 
L 336.864318 149.836791 
L 340.471591 138.070383 
L 344.078864 131.098753 
L 347.686136 140.777701 
L 351.293409 129.247895 
L 354.900682 138.270531 
L 358.507955 139.248068 
L 362.115227 134.520134 
L 365.7225 125.989192 
L 369.329773 126.394656 
L 372.937045 136.196489 
L 376.544318 129.332866 
L 380.151591 134.308235 
L 383.758864 133.098549 
L 387.366136 127.136917 
L 390.973409 134.489341 
L 394.580682 127.202313 
L 398.187955 127.198916 
L 401.795227 122.025603 
L 405.4025 138.86675 
L 409.009773 125.374385 
L 412.617045 120.70194 
L 416.224318 119.384608 
L 419.831591 139.141364 
L 423.438864 120.699918 
L 427.046136 117.77058 
L 430.653409 117.848695 
L 434.260682 134.563934 
L 437.867955 116.680963 
L 441.475227 118.023246 
L 445.0825 119.050966 
" clip-path="url(#p51a909ddd3)" style="fill: none; stroke: #1f77b4; stroke-width: 1.5; stroke-linecap: square"/>
   </g>
   <g id="line2d_21">
    <path d="M 87.9625 285.308276 
L 91.569773 281.204804 
L 95.177045 260.312914 
L 98.784318 249.405455 
L 102.391591 255.463908 
L 105.998864 242.216835 
L 109.606136 237.174951 
L 113.213409 220.096952 
L 116.820682 232.576816 
L 120.427955 211.823193 
L 124.035227 208.506406 
L 127.6425 215.383209 
L 131.249773 195.437248 
L 134.857045 205.276042 
L 138.464318 184.692824 
L 142.071591 185.2393 
L 145.678864 171.951143 
L 149.286136 185.963831 
L 152.893409 165.413716 
L 156.500682 177.878706 
L 160.107955 168.185544 
L 163.715227 162.695958 
L 167.3225 147.804555 
L 170.929773 152.958574 
L 174.537045 156.102342 
L 178.144318 153.292539 
L 181.751591 136.521456 
L 185.358864 147.596641 
L 188.966136 146.877306 
L 192.573409 140.630579 
L 196.180682 131.630815 
L 199.787955 129.707241 
L 203.395227 121.765556 
L 207.0025 124.603159 
L 210.609773 127.997559 
L 214.217045 123.055388 
L 217.824318 112.228135 
L 221.431591 114.117678 
L 225.038864 104.95577 
L 228.646136 115.403946 
L 232.253409 109.523425 
L 235.860682 106.705003 
L 239.467955 99.421668 
L 243.075227 112.48025 
L 246.6825 105.153093 
L 250.289773 92.732824 
L 253.897045 109.40779 
L 257.504318 91.219131 
L 261.111591 98.234864 
L 264.718864 87.869295 
L 268.326136 103.708107 
L 271.933409 94.675071 
L 275.540682 99.277309 
L 279.147955 85.673373 
L 282.755227 92.300585 
L 286.3625 81.839352 
L 289.969773 75.387147 
L 293.577045 91.39698 
L 297.184318 74.471014 
L 300.791591 90.290089 
L 304.398864 82.251948 
L 308.006136 80.012678 
L 311.613409 77.585156 
L 315.220682 66.097195 
L 318.827955 69.226586 
L 322.435227 78.019462 
L 326.0425 77.765067 
L 329.649773 64.127563 
L 333.257045 62.703 
L 336.864318 69.541045 
L 340.471591 72.070076 
L 344.078864 57.297362 
L 347.686136 70.730515 
L 351.293409 72.612144 
L 354.900682 56.902453 
L 358.507955 57.430919 
L 362.115227 59.60172 
L 365.7225 52.567431 
L 369.329773 52.401192 
L 372.937045 55.319339 
L 376.544318 52.10619 
L 380.151591 64.298831 
L 383.758864 65.743446 
L 387.366136 53.745997 
L 390.973409 52.028199 
L 394.580682 62.876402 
L 398.187955 57.284823 
L 401.795227 45.63843 
L 405.4025 52.311378 
L 409.009773 51.241482 
L 412.617045 58.687275 
L 416.224318 50.963173 
L 419.831591 50.341001 
L 423.438864 58.88603 
L 427.046136 39.298637 
L 430.653409 47.356628 
L 434.260682 58.698722 
L 437.867955 41.828796 
L 441.475227 36.853557 
L 445.0825 44.480617 
" clip-path="url(#p51a909ddd3)" style="fill: none; stroke: #ff7f0e; stroke-width: 1.5; stroke-linecap: square"/>
   </g>
   <g id="line2d_22">
    <path d="M 87.9625 288.706743 
L 91.569773 281.532415 
L 95.177045 261.843778 
L 98.784318 263.081247 
L 102.391591 246.567063 
L 105.998864 238.085332 
L 109.606136 222.896512 
L 113.213409 234.592384 
L 116.820682 218.69974 
L 120.427955 207.024038 
L 124.035227 212.843646 
L 127.6425 202.457639 
L 131.249773 203.697926 
L 134.857045 184.235249 
L 138.464318 192.585752 
L 142.071591 181.108873 
L 145.678864 166.207067 
L 149.286136 170.144134 
L 152.893409 156.419774 
L 156.500682 155.30911 
L 160.107955 148.080201 
L 163.715227 160.872917 
L 167.3225 158.245458 
L 170.929773 154.679817 
L 174.537045 134.244411 
L 178.144318 135.835983 
L 181.751591 135.47988 
L 185.358864 139.378015 
L 188.966136 125.503732 
L 192.573409 130.085174 
L 196.180682 118.89083 
L 199.787955 121.42574 
L 203.395227 117.736171 
L 207.0025 109.144454 
L 210.609773 121.387726 
L 214.217045 108.627455 
L 217.824318 114.330034 
L 221.431591 99.061516 
L 225.038864 103.578212 
L 228.646136 90.791833 
L 232.253409 105.743981 
L 235.860682 87.134394 
L 239.467955 88.554083 
L 243.075227 93.366976 
L 246.6825 84.410063 
L 250.289773 87.012832 
L 253.897045 84.088131 
L 257.504318 76.83537 
L 261.111591 93.09435 
L 264.718864 75.091195 
L 268.326136 83.053744 
L 271.933409 82.641146 
L 275.540682 66.901734 
L 279.147955 69.882568 
L 282.755227 74.654355 
L 286.3625 74.52591 
L 289.969773 63.45289 
L 293.577045 78.818457 
L 297.184318 64.273826 
L 300.791591 61.225221 
L 304.398864 59.704072 
L 308.006136 68.53405 
L 311.613409 57.224382 
L 315.220682 68.108718 
L 318.827955 64.002722 
L 322.435227 61.656238 
L 326.0425 57.874534 
L 329.649773 65.834289 
L 333.257045 58.486184 
L 336.864318 66.020499 
L 340.471591 49.180682 
L 344.078864 45.856851 
L 347.686136 59.946106 
L 351.293409 46.965584 
L 354.900682 43.491568 
L 358.507955 39.115587 
L 362.115227 41.091106 
L 365.7225 49.054769 
L 369.329773 36.359766 
L 372.937045 35.580317 
L 376.544318 44.666315 
L 380.151591 38.502314 
L 383.758864 34.248233 
L 387.366136 42.688109 
L 390.973409 33.645471 
L 394.580682 36.273688 
L 398.187955 44.118536 
L 401.795227 33.291719 
L 405.4025 36.696495 
L 409.009773 46.047152 
L 412.617045 38.993517 
L 416.224318 44.993516 
L 419.831591 35.739989 
L 423.438864 36.038982 
L 427.046136 35.44128 
L 430.653409 31.306395 
L 434.260682 40.456943 
L 437.867955 22.594743 
L 441.475227 27.231452 
L 445.0825 23.621856 
" clip-path="url(#p51a909ddd3)" style="fill: none; stroke: #2ca02c; stroke-width: 1.5; stroke-linecap: square"/>
   </g>
   <g id="text_16">
    <!-- no balancing -->
    <g style="fill: #1f77b4" transform="translate(455.7961 122.914091) scale(0.14 -0.14)">
     <defs>
      <path id="DejaVuSans-62" d="M 3116 1747 
Q 3116 2381 2855 2742 
Q 2594 3103 2138 3103 
Q 1681 3103 1420 2742 
Q 1159 2381 1159 1747 
Q 1159 1113 1420 752 
Q 1681 391 2138 391 
Q 2594 391 2855 752 
Q 3116 1113 3116 1747 
z
M 1159 2969 
Q 1341 3281 1617 3432 
Q 1894 3584 2278 3584 
Q 2916 3584 3314 3078 
Q 3713 2572 3713 1747 
Q 3713 922 3314 415 
Q 2916 -91 2278 -91 
Q 1894 -91 1617 61 
Q 1341 213 1159 525 
L 1159 0 
L 581 0 
L 581 4863 
L 1159 4863 
L 1159 2969 
z
" transform="scale(0.015625)"/>
     </defs>
     <use xlink:href="#DejaVuSans-6e"/>
     <use xlink:href="#DejaVuSans-6f" x="63.378906"/>
     <use xlink:href="#DejaVuSans-20" x="124.560547"/>
     <use xlink:href="#DejaVuSans-62" x="156.347656"/>
     <use xlink:href="#DejaVuSans-61" x="219.824219"/>
     <use xlink:href="#DejaVuSans-6c" x="281.103516"/>
     <use xlink:href="#DejaVuSans-61" x="308.886719"/>
     <use xlink:href="#DejaVuSans-6e" x="370.166016"/>
     <use xlink:href="#DejaVuSans-63" x="433.544922"/>
     <use xlink:href="#DejaVuSans-69" x="488.525391"/>
     <use xlink:href="#DejaVuSans-6e" x="516.308594"/>
     <use xlink:href="#DejaVuSans-67" x="579.6875"/>
    </g>
   </g>
   <g id="text_17">
    <!-- CRV-27 -->
    <g style="fill: #ff7f0e" transform="translate(455.7961 48.343742) scale(0.14 -0.14)">
     <defs>
      <path id="DejaVuSans-43" d="M 4122 4306 
L 4122 3641 
Q 3803 3938 3442 4084 
Q 3081 4231 2675 4231 
Q 1875 4231 1450 3742 
Q 1025 3253 1025 2328 
Q 1025 1406 1450 917 
Q 1875 428 2675 428 
Q 3081 428 3442 575 
Q 3803 722 4122 1019 
L 4122 359 
Q 3791 134 3420 21 
Q 3050 -91 2638 -91 
Q 1578 -91 968 557 
Q 359 1206 359 2328 
Q 359 3453 968 4101 
Q 1578 4750 2638 4750 
Q 3056 4750 3426 4639 
Q 3797 4528 4122 4306 
z
" transform="scale(0.015625)"/>
      <path id="DejaVuSans-52" d="M 2841 2188 
Q 3044 2119 3236 1894 
Q 3428 1669 3622 1275 
L 4263 0 
L 3584 0 
L 2988 1197 
Q 2756 1666 2539 1819 
Q 2322 1972 1947 1972 
L 1259 1972 
L 1259 0 
L 628 0 
L 628 4666 
L 2053 4666 
Q 2853 4666 3247 4331 
Q 3641 3997 3641 3322 
Q 3641 2881 3436 2590 
Q 3231 2300 2841 2188 
z
M 1259 4147 
L 1259 2491 
L 2053 2491 
Q 2509 2491 2742 2702 
Q 2975 2913 2975 3322 
Q 2975 3731 2742 3939 
Q 2509 4147 2053 4147 
L 1259 4147 
z
" transform="scale(0.015625)"/>
      <path id="DejaVuSans-2d" d="M 313 2009 
L 1997 2009 
L 1997 1497 
L 313 1497 
L 313 2009 
z
" transform="scale(0.015625)"/>
      <path id="DejaVuSans-37" d="M 525 4666 
L 3525 4666 
L 3525 4397 
L 1831 0 
L 1172 0 
L 2766 4134 
L 525 4134 
L 525 4666 
z
" transform="scale(0.015625)"/>
     </defs>
     <use xlink:href="#DejaVuSans-43"/>
     <use xlink:href="#DejaVuSans-52" x="69.824219"/>
     <use xlink:href="#DejaVuSans-56" x="133.806641"/>
     <use xlink:href="#DejaVuSans-2d" x="196.339844"/>
     <use xlink:href="#DejaVuSans-32" x="232.423828"/>
     <use xlink:href="#DejaVuSans-37" x="296.046875"/>
    </g>
   </g>
   <g id="text_18">
    <!-- CRV-27* -->
    <g style="fill: #2ca02c" transform="translate(455.7961 27.484981) scale(0.14 -0.14)">
     <defs>
      <path id="DejaVuSans-2a" d="M 3009 3897 
L 1888 3291 
L 3009 2681 
L 2828 2375 
L 1778 3009 
L 1778 1831 
L 1422 1831 
L 1422 3009 
L 372 2375 
L 191 2681 
L 1313 3291 
L 191 3897 
L 372 4206 
L 1422 3572 
L 1422 4750 
L 1778 4750 
L 1778 3572 
L 2828 4206 
L 3009 3897 
z
" transform="scale(0.015625)"/>
     </defs>
     <use xlink:href="#DejaVuSans-43"/>
     <use xlink:href="#DejaVuSans-52" x="69.824219"/>
     <use xlink:href="#DejaVuSans-56" x="133.806641"/>
     <use xlink:href="#DejaVuSans-2d" x="196.339844"/>
     <use xlink:href="#DejaVuSans-32" x="232.423828"/>
     <use xlink:href="#DejaVuSans-37" x="296.046875"/>
     <use xlink:href="#DejaVuSans-2a" x="359.669922"/>
    </g>
   </g>
  </g>
 </g>
 <defs>
  <clipPath id="p51a909ddd3">
   <rect x="87.9625" y="22.594743" width="357.12" height="266.112"/>
  </clipPath>
 </defs>
</svg>
