<?xml version="1.0" encoding="utf-8" standalone="no"?>
<!DOCTYPE svg PUBLIC "-//W3C//DTD SVG 1.1//EN"
  "http://www.w3.org/Graphics/SVG/1.1/DTD/svg11.dtd">
<svg xmlns:xlink="http://www.w3.org/1999/xlink" width="1382.4pt" height="707.76pt" viewBox="0 0 1382.4 707.76" xmlns="http://www.w3.org/2000/svg" version="1.1">
 <metadata>
  <rdf:RDF xmlns:dc="http://purl.org/dc/elements/1.1/" xmlns:cc="http://creativecommons.org/ns#" xmlns:rdf="http://www.w3.org/1999/02/22-rdf-syntax-ns#">
   <cc:Work>
    <dc:type rdf:resource="http://purl.org/dc/dcmitype/StillImage"/>
    <dc:date>2023-07-05T15:58:20.260293</dc:date>
    <dc:format>image/svg+xml</dc:format>
    <dc:creator>
     <cc:Agent>
      <dc:title>Matplotlib v3.6.2, https://matplotlib.org/</dc:title>
     </cc:Agent>
    </dc:creator>
   </cc:Work>
  </rdf:RDF>
 </metadata>
 <defs>
  <style type="text/css">*{stroke-linejoin: round; stroke-linecap: butt}</style>
 </defs>
 <g id="figure_1">
  <g id="patch_1">
   <path d="M 0 707.76 
L 1382.4 707.76 
L 1382.4 0 
L 0 0 
z
" style="fill: #ffffff"/>
  </g>
  <g id="patch_2">
   <path d="M 435.9924 629.9064 
L 980.9676 629.9064 
L 980.9676 84.9312 
L 435.9924 84.9312 
z
" style="fill: #ffffff"/>
  </g>
  <g id="axes_1">
   <g id="line2d_1">
    <path d="M 721.65129 350.001735 
L 722.275442 355.034666 
L 722.585297 360.194376 
L 722.688679 365.572342 
L 722.593593 376.863075 
L 722.181359 393.698348 
L 721.74421 403.903616 
L 721.115243 412.95006 
L 720.497807 418.94288 
L 719.750352 424.280589 
L 718.874288 429.004952 
L 717.87441 433.166318 
L 716.757413 436.817937 
L 715.530865 440.012537 
L 714.202546 442.800322 
L 712.780028 445.227874 
L 711.27043 447.33763 
L 709.680277 449.16773 
L 708.01544 450.752092 
L 706.28111 452.120612 
L 704.481814 453.299453 
L 701.988305 454.615037 
L 699.39362 455.678946 
L 696.703429 456.528109 
L 693.92168 457.192074 
L 690.319092 457.79632 
L 686.577851 458.180063 
L 682.694807 458.36455 
L 678.662356 458.36029 
L 674.467703 458.16741 
L 670.091611 457.775134 
L 665.506384 457.160063 
L 660.672593 456.28271 
L 656.589369 455.351338 
L 652.270858 454.166304 
L 647.660923 452.66021 
L 643.965291 451.261437 
L 640.014579 449.565663 
L 635.744876 447.48492 
L 631.06773 444.887195 
L 627.664794 442.769986 
L 623.983176 440.241503 
L 619.978509 437.172973 
L 615.634091 433.390684 
L 613.356078 431.170544 
L 611.047873 428.706369 
L 608.770277 426.000268 
L 606.611221 423.08657 
L 604.6718 420.038099 
L 603.031527 416.943633 
L 601.685434 413.784417 
L 600.615905 410.483275 
L 599.840842 406.983352 
L 599.403728 403.251589 
L 599.360278 399.278453 
L 599.764529 395.074488 
L 600.657536 390.664787 
L 602.060817 386.083342 
L 603.974549 381.368591 
L 606.379186 376.560482 
L 609.238901 371.698702 
L 612.505677 366.821601 
L 616.123358 361.965446 
L 620.031303 357.163829 
L 624.167509 352.447155 
L 628.471159 347.842231 
L 632.884603 343.37197 
L 637.354812 339.055234 
L 646.281785 330.937663 
L 654.946617 323.562584 
L 663.141334 316.950471 
L 670.743955 311.08232 
L 680.933784 303.57293 
L 689.689614 297.433367 
L 697.151244 292.454637 
L 703.509238 288.453447 
L 708.958754 285.285852 
L 713.677574 282.849035 
L 716.493959 281.596867 
L 719.09273 280.628719 
L 721.507863 279.939234 
L 723.768995 279.528244 
L 725.901957 279.400364 
L 727.929334 279.56476 
L 729.87105 280.03515 
L 731.744999 280.830101 
L 733.567725 281.973743 
L 735.355185 283.49705 
L 737.123626 285.439976 
L 738.89058 287.854859 
L 740.675985 290.811742 
L 742.503372 294.40653 
L 744.400818 298.772536 
L 746.400552 304.09226 
L 748.532801 310.58489 
L 750.798291 318.365613 
L 754.235738 331.720096 
L 756.357707 340.767944 
L 759.559092 355.759723 
L 762.685072 371.49114 
L 766.380529 391.286746 
L 769.354016 408.451083 
L 771.609006 422.704198 
L 773.224654 434.230794 
L 774.295705 443.374475 
L 774.911636 450.515107 
L 775.149992 456.014594 
L 775.075172 460.193782 
L 774.845332 462.62748 
L 774.486917 464.570002 
L 774.015041 466.104526 
L 773.442325 467.301577 
L 772.779278 468.220526 
L 772.034635 468.911068 
L 771.215651 469.41461 
L 770.018298 469.853638 
L 768.710955 470.086162 
L 766.935767 470.162521 
L 764.616329 470.034751 
L 760.785 469.570551 
L 737.558984 466.345397 
L 727.104606 465.271966 
L 712.778801 464.049195 
L 691.119972 462.202451 
L 682.283123 461.230302 
L 674.792366 460.200241 
L 667.848207 459.009751 
L 661.525405 457.671065 
L 655.920565 456.234252 
L 651.156896 454.794006 
L 646.077318 453.000948 
L 642.007519 451.346253 
L 637.657492 449.334548 
L 632.9559 446.83964 
L 629.57995 444.814217 
L 625.971013 442.400239 
L 622.093693 439.471464 
L 617.92957 435.847312 
L 615.75161 433.701667 
L 613.536019 431.292101 
L 611.326885 428.596505 
L 609.19643 425.616835 
L 607.243189 422.397718 
L 605.57126 419.034268 
L 604.247093 415.628954 
L 603.259566 412.134306 
L 602.609975 408.459665 
L 602.335551 404.543516 
L 602.494114 400.356294 
L 603.146888 395.898872 
L 604.342889 391.196753 
L 606.108607 386.292062 
L 608.444142 381.236007 
L 611.324568 376.083275 
L 614.704315 370.888413 
L 618.522692 365.703634 
L 622.709416 360.57746 
L 627.189548 355.553822 
L 631.8876 350.671425 
L 636.730769 345.963349 
L 641.651336 341.456849 
L 646.588295 337.173375 
L 651.488322 333.128779 
L 656.306179 329.333699 
L 661.004692 325.79407 
L 669.932906 319.484977 
L 678.118033 314.178221 
L 685.494188 309.814672 
L 692.059339 306.316374 
L 697.853052 303.599499 
L 702.939057 301.5832 
L 707.392736 300.195084 
L 711.292835 299.374224 
L 714.716442 299.072623 
L 716.272502 299.105242 
L 717.736309 299.255838 
L 719.116102 299.522283 
L 720.41978 299.903348 
L 721.654911 300.398728 
L 722.828759 301.009084 
L 723.948315 301.736087 
L 725.02033 302.582491 
L 726.051355 303.552207 
L 727.047781 304.650409 
L 728.961827 307.259935 
L 730.811758 310.481772 
L 732.645847 314.411133 
L 734.508683 319.154907 
L 736.428336 324.771948 
L 738.426831 331.313341 
L 741.164658 341.242476 
L 743.772491 351.772308 
L 748.435509 371.742441 
L 753.862143 395.8753 
L 757.604752 413.461321 
L 760.510125 428.070857 
L 762.641565 439.7829 
L 764.109049 448.931676 
L 765.025024 455.930765 
L 765.488995 461.188674 
L 765.583463 465.070352 
L 765.437831 467.393644 
L 765.125256 469.165116 
L 764.667739 470.49371 
L 764.083073 471.469007 
L 763.385593 472.163972 
L 762.586828 472.637594 
L 761.459894 472.989666 
L 760.203338 473.141584 
L 758.246822 473.119002 
L 755.424579 472.834804 
L 748.46243 471.819718 
L 739.368561 470.586288 
L 731.053558 469.688687 
L 721.41365 468.876383 
L 708.560794 468.031375 
L 686.403697 466.594324 
L 684.297362 466.419142 
L 684.297362 466.419142 
" clip-path="url(#p8ef2a50963)" style="fill: none; stroke: #cd5c5c; stroke-width: 1.5; stroke-linecap: square"/>
   </g>
   <g id="line2d_2">
    <path d="M 727.757795 348.937985 
L 728.485745 354.44753 
L 730.088252 369.433655 
L 732.239471 388.603101 
L 734.837323 411.659829 
L 735.928914 423.50897 
L 736.460427 431.525043 
L 736.70088 438.338602 
L 736.67467 444.074732 
L 736.410104 448.867638 
L 735.935519 452.84849 
L 735.277377 456.138899 
L 734.459442 458.84785 
L 733.502545 461.070746 
L 732.424673 462.889688 
L 731.241203 464.374443 
L 729.965198 465.583731 
L 728.607723 466.566611 
L 727.17813 467.36384 
L 725.301655 468.150072 
L 722.935251 468.853479 
L 720.038428 469.429619 
L 716.574755 469.862021 
L 712.050978 470.17971 
L 705.899731 470.368199 
L 697.470521 470.39165 
L 688.128862 470.206099 
L 680.018479 469.836774 
L 673.281432 469.316903 
L 667.449197 468.649418 
L 661.971259 467.784017 
L 657.506815 466.871358 
L 652.798253 465.675868 
L 648.498058 464.354661 
L 643.860076 462.671715 
L 639.638323 460.907664 
L 634.960645 458.710386 
L 629.62807 455.935119 
L 623.305459 452.358797 
L 615.3899 447.611593 
L 602.248758 439.425238 
L 596.718385 435.836187 
L 590.919509 431.803143 
L 588.129679 429.668167 
L 585.543077 427.493644 
L 583.158748 425.271922 
L 580.932508 422.970021 
L 578.85225 420.559617 
L 576.937026 418.017436 
L 575.23129 415.324516 
L 573.796277 412.465168 
L 572.700279 409.426045 
L 572.009902 406.195708 
L 571.783579 402.764829 
L 572.067559 399.126925 
L 572.893876 395.279354 
L 574.279685 391.224284 
L 576.227445 386.96942 
L 578.725658 382.528362 
L 581.750017 377.920519 
L 585.264904 373.170603 
L 589.225172 368.307744 
L 593.578176 363.364331 
L 598.26597 358.374683 
L 603.227542 353.373662 
L 608.400991 348.395369 
L 613.725534 343.471982 
L 624.600446 333.90365 
L 635.445754 324.858533 
L 645.947506 316.462523 
L 655.890614 308.781473 
L 669.504176 298.630152 
L 681.458767 290.056043 
L 691.842109 282.92693 
L 697.987031 278.910271 
L 703.590054 275.444845 
L 708.720728 272.508613 
L 713.445145 270.089327 
L 717.823621 268.184136 
L 721.909331 266.798648 
L 723.856877 266.30455 
L 725.747589 265.94567 
L 727.585858 265.724513 
L 729.375573 265.643874 
L 731.120134 265.706802 
L 732.822474 265.916585 
L 734.485084 266.276732 
L 736.110058 266.790989 
L 737.699128 267.463357 
L 739.253724 268.298149 
L 740.775033 269.300074 
L 742.264068 270.474368 
L 743.721748 271.826965 
L 745.148973 273.364747 
L 746.546713 275.095872 
L 747.916097 277.030195 
L 749.258486 279.179842 
L 750.575555 281.559936 
L 751.869346 284.189499 
L 753.142291 287.092581 
L 754.397179 290.29944 
L 755.637026 293.847432 
L 756.864747 297.780409 
L 758.082441 302.143511 
L 759.289854 306.966674 
L 760.491851 312.352257 
L 762.769767 323.946257 
L 764.737269 335.305228 
L 766.539246 347.453412 
L 768.977985 366.177501 
L 770.988669 383.597456 
L 772.512211 398.796823 
L 773.565788 411.654659 
L 774.196894 422.338586 
L 774.459977 431.107641 
L 774.407165 438.23701 
L 774.084927 443.987201 
L 773.533233 448.591671 
L 772.785758 452.253045 
L 772.192716 454.256245 
L 771.532266 455.961388 
L 770.810597 457.407344 
L 770.033128 458.628322 
L 768.7725 460.102563 
L 767.41039 461.223106 
L 765.957855 462.059857 
L 764.423923 462.669509 
L 762.815974 463.097893 
L 760.567203 463.449925 
L 757.603359 463.630424 
L 753.844168 463.58934 
L 748.521261 463.271864 
L 738.437402 462.385634 
L 691.134469 457.861189 
L 682.818461 456.764203 
L 675.137016 455.517916 
L 669.366293 454.38319 
L 663.304099 452.955953 
L 658.198369 451.523564 
L 654.1885 450.22101 
L 649.994203 448.661329 
L 645.581002 446.763876 
L 642.496204 445.254396 
L 639.279827 443.492428 
L 635.915561 441.408371 
L 632.388657 438.903598 
L 628.694178 435.835308 
L 626.79041 434.028333 
L 624.860675 431.997416 
L 622.924121 429.706215 
L 621.014055 427.118929 
L 619.18398 424.210216 
L 617.510884 420.983129 
L 616.087976 417.491117 
L 615.000258 413.847068 
L 614.290627 410.179191 
L 613.954321 406.450666 
L 614.004494 402.564788 
L 614.481159 398.459267 
L 615.434776 394.10851 
L 616.910355 389.521281 
L 618.93474 384.734036 
L 621.509611 379.801783 
L 624.610477 374.789125 
L 628.190097 369.763183 
L 632.184188 364.788791 
L 636.517703 359.925553 
L 641.110619 355.226179 
L 645.882767 350.735659 
L 650.757539 346.490978 
L 655.664537 342.521216 
L 660.541246 338.847937 
L 665.333943 335.485773 
L 669.99795 332.44318 
L 674.497428 329.723275 
L 678.804822 327.324716 
L 682.900102 325.242594 
L 686.769896 323.469263 
L 690.406565 321.995135 
L 693.807302 320.809387 
L 696.973285 319.900575 
L 699.9089 319.257177 
L 702.62106 318.86804 
L 705.118609 318.722758 
L 707.411817 318.811972 
L 709.511971 319.127605 
L 711.431029 319.663034 
L 713.181357 320.413187 
L 714.775519 321.37455 
L 716.226123 322.545053 
L 717.545693 323.923759 
L 718.746564 325.510252 
L 719.84074 327.303582 
L 720.839681 329.300547 
L 721.75391 331.493141 
L 722.592343 333.865197 
L 724.080199 339.121793 
L 725.283311 344.61874 
L 726.150573 349.857049 
L 726.805052 355.159744 
L 727.898314 366.525221 
L 729.717093 384.937592 
L 732.834089 415.3936 
L 733.657944 426.303213 
L 733.999353 433.677615 
L 734.073001 439.952284 
L 733.901973 445.246328 
L 733.512167 449.683576 
L 732.929233 453.383297 
L 732.17706 456.455264 
L 731.277115 458.997511 
L 730.248267 461.095757 
L 729.106868 462.823797 
L 727.866957 464.244427 
L 726.540524 465.410613 
L 725.137767 466.36672 
L 723.290072 467.322131 
L 721.350704 468.065224 
L 718.918577 468.740989 
L 715.956467 469.3072 
L 712.430909 469.745791 
L 707.845944 470.083386 
L 701.637536 470.299696 
L 693.671776 470.342006 
L 685.384168 470.17183 
L 677.860927 469.799202 
L 671.73825 469.288035 
L 665.961273 468.576997 
L 665.369919 468.489307 
L 665.369919 468.489307 
" clip-path="url(#p8ef2a50963)" style="fill: none; stroke: #800000; stroke-width: 1.5; stroke-linecap: square"/>
   </g>
   <g id="line2d_3">
    <path d="M 708.04162 342.114921 
L 709.085431 345.065661 
L 709.990977 348.283839 
L 710.761307 351.673458 
L 711.300754 354.869837 
L 711.829052 359.551273 
L 713.341103 376.442516 
L 714.150379 382.11019 
L 715.174069 387.979582 
L 716.801629 395.957241 
L 719.068882 405.864294 
L 729.06043 448.085327 
L 730.602617 455.96612 
L 731.578256 462.039008 
L 732.0915 466.632794 
L 732.236322 469.686201 
L 732.154127 472.031092 
L 731.889619 473.821576 
L 731.479063 475.183211 
L 730.951579 476.21615 
L 730.235257 477.09431 
L 729.424085 477.735307 
L 728.309325 478.303173 
L 726.866385 478.761118 
L 724.704782 479.178574 
L 719.307601 479.88427 
L 715.991924 480.458236 
L 713.950428 481.015019 
L 712.702936 481.559222 
L 712.018283 482.075288 
L 711.735966 482.528709 
L 711.704889 482.975118 
L 711.907615 483.449634 
L 712.411447 483.997128 
L 713.306521 484.621526 
L 714.807283 485.374794 
L 716.970591 486.203578 
L 720.091094 487.142441 
L 723.902701 488.052213 
L 728.336284 488.887242 
L 733.290798 489.595608 
L 738.33135 490.099625 
L 743.590472 490.399662 
L 748.609486 490.463526 
L 753.257325 490.311284 
L 757.735213 489.943696 
L 761.661364 489.404715 
L 765.006662 488.738921 
L 767.990353 487.921996 
L 770.365752 487.043626 
L 772.180773 486.143484 
L 773.500058 485.255039 
L 774.398155 484.405449 
L 775.006571 483.515262 
L 775.293537 482.695445 
L 775.333328 481.853968 
L 775.119349 480.995946 
L 774.64633 480.126572 
L 773.910337 479.25107 
L 772.764826 478.265292 
L 771.281534 477.285669 
L 769.237768 476.213075 
L 766.512601 475.063297 
L 763.295883 473.956242 
L 759.24037 472.809471 
L 754.634196 471.737389 
L 749.050052 470.670437 
L 742.38225 469.638808 
L 734.532562 468.669736 
L 730.633286 468.263299 
L 730.633286 468.263299 
" clip-path="url(#p8ef2a50963)" style="fill: none; stroke: #cd5c5c; stroke-width: 1.5; stroke-linecap: square"/>
   </g>
   <g id="line2d_4">
    <path d="M 710.299555 358.636222 
L 710.601352 364.693397 
L 711.028644 374.411195 
L 711.458372 379.637511 
L 712.090219 385.070371 
L 713.227168 392.516674 
L 714.614835 400.023437 
L 716.917036 411.024875 
L 723.996507 443.758824 
L 725.504419 452.039482 
L 726.471932 458.579293 
L 726.985117 463.651244 
L 727.130119 467.105731 
L 727.046622 469.823017 
L 726.779805 471.95221 
L 726.367497 473.618085 
L 725.840915 474.922476 
L 725.131797 476.074531 
L 724.337659 476.955644 
L 723.37339 477.712046 
L 722.132387 478.403152 
L 720.398288 479.089607 
L 717.388112 479.986491 
L 714.511809 480.910964 
L 713.250411 481.527872 
L 712.604951 482.061344 
L 712.334519 482.560696 
L 712.33685 483.010637 
L 712.567072 483.485144 
L 713.093505 484.029149 
L 714.088482 484.694621 
L 715.625638 485.436669 
L 717.965489 486.298647 
L 721.123874 487.20956 
L 725.172277 488.12861 
L 729.869579 488.951845 
L 734.80659 489.589696 
L 739.782684 490.018311 
L 744.929931 490.238108 
L 749.801028 490.225933 
L 754.274385 490.005357 
L 758.545713 489.57524 
L 762.253133 488.985315 
L 765.375934 488.280059 
L 768.121698 487.432215 
L 770.266821 486.533462 
L 771.864392 485.621816 
L 772.982804 484.728993 
L 773.699106 483.880437 
L 774.0934 483.095803 
L 774.250808 482.287547 
L 774.164224 481.460571 
L 773.827815 480.619875 
L 773.237042 479.770516 
L 772.264388 478.810942 
L 770.963074 477.853982 
L 769.131002 476.802291 
L 766.894416 475.771779 
L 763.972766 474.673141 
L 760.245839 473.528534 
L 755.972959 472.451981 
L 750.752936 471.373913 
L 744.478908 470.325152 
L 737.568975 469.397215 
L 728.946127 468.479569 
L 718.383652 467.600436 
L 700.226264 466.366068 
L 700.226264 466.366068 
" clip-path="url(#p8ef2a50963)" style="fill: none; stroke: #cd5c5c; stroke-width: 1.5; stroke-linecap: square"/>
   </g>
   <g id="line2d_5">
    <path d="M 711.190185 340.693795 
L 712.314393 344.106355 
L 713.299691 347.878613 
L 714.053285 351.57956 
L 714.583052 355.133204 
L 715.128288 360.463993 
L 716.306281 373.980954 
L 717.069011 380.328593 
L 718.381276 389.092704 
L 720.329683 400.079573 
L 724.271274 420.357853 
L 726.80601 433.893928 
L 728.405716 443.570302 
L 729.331208 450.352596 
L 729.889005 455.898154 
L 730.128725 460.380542 
L 730.099229 463.971963 
L 729.844898 466.830773 
L 729.404308 469.095795 
L 728.810143 470.884846 
L 728.089685 472.295668 
L 727.265542 473.408038 
L 726.356413 474.286306 
L 725.20888 475.083123 
L 723.80731 475.770031 
L 721.955463 476.394564 
L 719.636308 476.925194 
L 716.0665 477.487026 
L 705.007375 479.084819 
L 702.169155 479.765932 
L 700.40762 480.394387 
L 699.381226 480.96452 
L 698.837669 481.491175 
L 698.637492 481.953694 
L 698.674996 482.445832 
L 698.965639 482.968621 
L 699.60267 483.586529 
L 700.704679 484.312187 
L 702.406278 485.158796 
L 705.068132 486.216049 
L 708.73239 487.421295 
L 713.540231 488.763622 
L 719.209334 490.118711 
L 725.632695 491.420014 
L 732.214635 492.517495 
L 738.723095 493.367592 
L 744.971827 493.953919 
L 750.821725 494.285908 
L 756.661668 494.392589 
L 761.930952 494.279691 
L 767.049178 493.960301 
L 771.947661 493.435658 
L 776.558432 492.712044 
L 780.444456 491.890167 
L 783.989676 490.922314 
L 787.148299 489.820057 
L 789.62502 488.723652 
L 791.5111 487.674413 
L 793.080915 486.562555 
L 794.181833 485.544293 
L 795.017688 484.489163 
L 795.579592 483.402522 
L 795.837322 482.450164 
L 795.883998 481.482128 
L 795.716174 480.501909 
L 795.331082 479.513012 
L 794.726631 478.518938 
L 793.742335 477.357282 
L 792.456439 476.198771 
L 790.86901 475.048752 
L 788.687186 473.751495 
L 786.116685 472.479527 
L 782.766895 471.087461 
L 778.941723 469.745316 
L 774.148611 468.322276 
L 768.80233 466.979715 
L 762.923574 465.724107 
L 755.867577 464.447248 
L 747.497691 463.177391 
L 737.67413 461.932986 
L 725.395835 460.621236 
L 707.440717 458.88977 
L 707.440717 458.88977 
" clip-path="url(#p8ef2a50963)" style="fill: none; stroke: #800000; stroke-width: 1.5; stroke-linecap: square"/>
   </g>
   <g id="line2d_6">
    <path d="M 714.848501 342.783555 
L 715.903589 346.856097 
L 716.717427 350.793735 
L 717.583417 356.534667 
L 720.238852 377.83753 
L 721.83137 387.374616 
L 724.108112 399.328265 
L 731.199946 435.336107 
L 732.645184 443.998508 
L 733.627164 451.080618 
L 734.201417 456.777723 
L 734.428162 461.303365 
L 734.364054 464.863209 
L 734.124596 467.225863 
L 733.742591 469.139279 
L 733.239194 470.683339 
L 732.632326 471.925668 
L 731.937085 472.922832 
L 731.003866 473.861229 
L 729.979722 474.579179 
L 728.689605 475.206231 
L 727.112609 475.720548 
L 725.020362 476.157787 
L 721.926893 476.542511 
L 716.606255 476.933097 
L 706.683394 477.661763 
L 701.462199 478.272602 
L 697.705419 478.920153 
L 695.127586 479.577583 
L 693.638475 480.157518 
L 692.785856 480.705642 
L 692.412133 481.201215 
L 692.354192 481.625076 
L 692.525902 482.075147 
L 693.010324 482.615209 
L 693.930728 483.260624 
L 695.431366 484.030389 
L 697.890803 485.027056 
L 701.671641 486.299038 
L 707.163325 487.891056 
L 714.286545 489.707037 
L 722.091333 491.455847 
L 729.678021 492.920732 
L 736.647756 494.043221 
L 743.298222 494.891942 
L 749.491974 495.466686 
L 755.700457 495.814636 
L 761.29261 495.916076 
L 766.77533 495.804079 
L 772.090485 495.477187 
L 777.180137 494.939809 
L 781.986947 494.200965 
L 786.454733 493.272986 
L 790.140908 492.288082 
L 793.470565 491.173317 
L 796.40799 489.940846 
L 798.662899 488.756637 
L 800.560351 487.498344 
L 801.912185 486.343767 
L 802.964004 485.145718 
L 803.619017 484.088998 
L 804.040506 483.008987 
L 804.223651 481.909726 
L 804.164415 480.795278 
L 803.859552 479.669711 
L 803.306605 478.537092 
L 802.503902 477.401459 
L 801.450538 476.266811 
L 799.90465 474.949546 
L 798.018431 473.64508 
L 795.794187 472.359309 
L 792.842861 470.919955 
L 789.461725 469.520228 
L 785.155158 468.001804 
L 780.330418 466.551519 
L 775.004021 465.176632 
L 768.519058 463.743684 
L 761.461739 462.413721 
L 753.066617 461.067974 
L 743.185562 459.72735 
L 730.737817 458.289349 
L 722.21739 457.39603 
L 722.21739 457.39603 
" clip-path="url(#p8ef2a50963)" style="fill: none; stroke: #cd5c5c; stroke-width: 1.5; stroke-linecap: square"/>
   </g>
   <g id="line2d_7">
    <path d="M 715.556943 336.137242 
L 716.330958 338.114814 
L 717.66444 342.420286 
L 718.752439 347.147023 
L 719.49478 351.567556 
L 719.990718 355.934592 
L 720.48025 362.706772 
L 721.567115 380.103831 
L 722.660669 393.017177 
L 725.270473 422.206653 
L 725.780613 430.96353 
L 725.960071 438.364456 
L 725.876868 443.395787 
L 725.608451 447.721667 
L 725.172192 451.423091 
L 724.585673 454.578375 
L 723.865693 457.260476 
L 723.027758 459.535626 
L 722.085874 461.46283 
L 721.052508 463.093911 
L 719.938659 464.473892 
L 718.753964 465.641559 
L 717.186191 466.852649 
L 715.534914 467.837619 
L 713.459771 468.782403 
L 711.298531 469.524671 
L 708.686896 470.1959 
L 705.213889 470.833005 
L 701.23715 471.332036 
L 695.933256 471.760602 
L 689.68984 472.041616 
L 682.949584 472.133486 
L 676.597827 472.003026 
L 671.081966 471.662577 
L 666.40159 471.145078 
L 662.548819 470.510229 
L 659.087092 469.737506 
L 655.562184 468.71398 
L 652.39186 467.558621 
L 649.093557 466.097713 
L 646.111579 464.542748 
L 642.915547 462.640193 
L 639.400723 460.305071 
L 634.668423 456.880948 
L 622.134862 447.60446 
L 617.877727 444.710872 
L 612.694162 441.458593 
L 608.572835 439.083039 
L 603.825348 436.55078 
L 595.589834 432.523226 
L 586.913265 428.343619 
L 581.600294 425.499976 
L 574.058108 421.121483 
L 569.285132 418.080189 
L 567.057125 416.490927 
L 564.994022 414.831536 
L 563.146007 413.078758 
L 561.564697 411.206437 
L 560.30116 409.186722 
L 559.404343 406.991436 
L 558.919727 404.593515 
L 558.888063 401.96846 
L 559.34412 399.095756 
L 560.315421 395.960166 
L 561.821013 392.552836 
L 563.870376 388.872138 
L 566.462579 384.924158 
L 569.585793 380.722786 
L 573.217279 376.289378 
L 577.323886 371.651992 
L 581.863086 366.844265 
L 586.784474 361.903987 
L 592.031659 356.871525 
L 597.544382 351.788179 
L 603.260721 346.694626 
L 615.060759 336.628461 
L 626.977732 326.940256 
L 638.637538 317.828234 
L 649.766762 309.418229 
L 660.192503 301.773293 
L 669.82849 294.909767 
L 678.655122 288.814324 
L 686.699142 283.458677 
L 694.01615 278.810601 
L 700.677058 274.84123 
L 706.758375 271.529227 
L 712.335598 268.862606 
L 717.478919 266.838908 
L 719.907666 266.069787 
L 722.250544 265.464316 
L 724.513832 265.024376 
L 726.703168 264.752195 
L 728.823552 264.650297 
L 730.879351 264.721462 
L 732.874326 264.9687 
L 734.811668 265.395238 
L 736.694043 266.004536 
L 738.523656 266.800326 
L 740.302316 267.786698 
L 742.031527 268.968229 
L 743.712572 270.350174 
L 745.346621 271.938734 
L 746.934826 273.741422 
L 748.47843 275.767558 
L 749.978862 278.028901 
L 751.437826 280.540501 
L 752.857361 283.321759 
L 754.239862 286.397693 
L 755.588042 289.800351 
L 756.90477 293.569685 
L 758.192712 297.752448 
L 759.453572 302.394832 
L 760.686473 307.519956 
L 763.062294 319.44716 
L 765.089982 331.071583 
L 766.869562 343.31983 
L 768.481586 356.135739 
L 770.54932 374.765552 
L 772.127248 391.334904 
L 773.212131 405.435655 
L 773.846492 417.166498 
L 774.086382 426.787934 
L 773.987579 434.598101 
L 773.60049 440.885358 
L 773.20407 444.360676 
L 772.710223 447.344217 
L 772.128865 449.897816 
L 771.468737 452.07665 
L 770.73751 453.929636 
L 769.941904 455.499912 
L 769.087789 456.825357 
L 768.180288 457.939118 
L 767.223867 458.870114 
L 765.705886 459.978071 
L 764.097564 460.802095 
L 762.407928 461.39981 
L 760.644333 461.817569 
L 758.188059 462.157867 
L 754.964709 462.327649 
L 750.893581 462.278713 
L 745.153006 461.956515 
L 734.328873 461.064794 
L 702.256263 458.128218 
L 691.131011 456.887494 
L 682.54019 455.708933 
L 675.758571 454.574765 
L 669.837683 453.387821 
L 663.618555 451.888795 
L 658.381764 450.376844 
L 654.270117 448.994945 
L 649.971099 447.331017 
L 645.450922 445.292406 
L 642.294632 443.658869 
L 639.008578 441.738332 
L 635.580366 439.447051 
L 632.004025 436.664868 
L 630.163493 435.037815 
L 628.295033 433.217192 
L 626.410429 431.169817 
L 624.53067 428.858844 
L 622.6909 426.247941 
L 620.945958 423.311293 
L 619.372891 420.051611 
L 618.062867 416.522433 
L 617.096686 412.837669 
L 616.513052 409.131793 
L 616.308002 405.378352 
L 616.495266 401.480588 
L 617.113627 397.376098 
L 618.210751 393.039382 
L 619.827866 388.479426 
L 621.987747 383.733179 
L 624.688239 378.856513 
L 627.901556 373.915218 
L 631.577798 368.977743 
L 635.6507 364.110156 
L 640.04389 359.373022 
L 644.676638 354.81964 
L 649.46861 350.495185 
L 654.343507 346.436459 
L 659.231605 342.67206 
L 664.071345 339.222846 
L 668.810135 336.102621 
L 673.404524 333.318963 
L 677.819925 330.874143 
L 682.030017 328.766071 
L 686.015946 326.989233 
L 689.765432 325.535583 
L 693.271839 324.39536 
L 696.533272 323.557832 
L 699.551737 323.011928 
L 702.332376 322.746796 
L 704.882794 322.752241 
L 707.212487 323.019077 
L 709.332355 323.539364 
L 711.254315 324.306507 
L 712.990984 325.315197 
L 714.555437 326.561103 
L 715.961003 328.040191 
L 717.221084 329.747566 
L 718.348909 331.675573 
L 719.357154 333.8111 
L 720.257287 336.132165 
L 721.058569 338.604621 
L 722.40725 344.034582 
L 723.342144 349.182775 
L 723.948319 354.253577 
L 724.340746 359.469306 
L 724.862629 370.602383 
L 726.602134 413.99855 
L 726.637444 422.369834 
L 726.428142 429.595855 
L 725.979822 435.7668 
L 725.496159 439.770168 
L 724.895518 443.293409 
L 724.186919 446.385609 
L 723.379325 449.093495 
L 722.481325 451.460595 
L 721.500956 453.526818 
L 720.445609 455.328316 
L 719.322009 456.897529 
L 717.72808 458.677923 
L 716.036126 460.155746 
L 714.256938 461.381055 
L 712.399677 462.395723 
L 709.979967 463.420306 
L 707.462659 464.224771 
L 704.326758 464.959509 
L 701.077319 465.495161 
L 697.154888 465.922153 
L 692.509432 466.201485 
L 687.081065 466.293854 
L 681.431482 466.169751 
L 675.536835 465.817555 
L 670.054707 465.278416 
L 665.027653 464.587203 
L 659.728206 463.630482 
L 654.905858 462.533766 
L 654.071533 462.320607 
L 654.071533 462.320607 
" clip-path="url(#p8ef2a50963)" style="fill: none; stroke: #800000; stroke-width: 1.5; stroke-linecap: square"/>
   </g>
   <g id="line2d_8">
    <path d="M 726.163654 340.930161 
L 727.246051 346.657065 
L 727.987539 352.295133 
L 728.517391 358.124969 
L 729.347411 370.61381 
L 731.385884 404.618471 
L 731.78178 414.876211 
L 731.891904 423.732388 
L 731.713571 431.262117 
L 731.40017 436.116171 
L 730.944142 440.359357 
L 730.356904 444.054882 
L 729.649969 447.263798 
L 728.834408 450.043362 
L 727.920563 452.446172 
L 726.917906 454.51983 
L 725.834992 456.306914 
L 724.679478 457.845181 
L 723.458163 459.167863 
L 721.737659 460.645819 
L 719.923043 461.850572 
L 718.024604 462.830702 
L 716.05093 463.626145 
L 713.488786 464.409904 
L 710.289325 465.106892 
L 706.967434 465.599437 
L 702.951197 465.977835 
L 698.188748 466.212206 
L 692.61981 466.276015 
L 686.166495 466.129781 
L 679.408836 465.747549 
L 673.021903 465.159565 
L 667.044 464.381089 
L 661.516789 463.433098 
L 656.494061 462.35372 
L 652.048652 461.205275 
L 647.296687 459.759271 
L 642.139689 457.918128 
L 637.623384 456.064191 
L 632.634485 453.75071 
L 628.476857 451.611655 
L 623.839344 449.004212 
L 618.55802 445.755738 
L 614.570769 443.10457 
L 610.126456 439.933073 
L 605.196512 436.098137 
L 602.583824 433.892295 
L 599.934711 431.490759 
L 597.334925 428.916471 
L 594.893956 426.219528 
L 592.71373 423.465667 
L 590.80093 420.649809 
L 589.121287 417.709875 
L 587.679109 414.595778 
L 586.512371 411.273304 
L 585.681407 407.724152 
L 585.255017 403.943939 
L 585.297282 399.938959 
L 585.857998 395.722977 
L 586.967644 391.314907 
L 588.636163 386.737493 
L 590.854214 382.016631 
L 593.595697 377.18094 
L 596.820835 372.261271 
L 600.4794 367.290047 
L 604.513854 362.300414 
L 608.862297 357.325282 
L 613.461147 352.396341 
L 618.247469 347.543157 
L 623.160932 342.792413 
L 628.145349 338.167347 
L 638.12934 329.368127 
L 647.865754 321.254582 
L 657.121234 313.878441 
L 665.754251 307.245303 
L 677.406312 298.625173 
L 687.509634 291.45493 
L 696.2062 285.554458 
L 703.700528 280.765109 
L 708.135103 278.129341 
L 712.190746 275.910173 
L 715.922145 274.09238 
L 719.378095 272.668619 
L 722.601283 271.638577 
L 725.628369 271.008091 
L 728.490278 270.788361 
L 731.212646 270.995346 
L 732.528216 271.265064 
L 733.816437 271.649474 
L 735.079333 272.151859 
L 736.318745 272.775845 
L 737.536374 273.525456 
L 738.733823 274.405185 
L 739.912637 275.420093 
L 741.074358 276.575947 
L 742.220578 277.879393 
L 744.473447 280.961465 
L 746.68707 284.747442 
L 748.881586 289.355354 
L 751.082563 294.960665 
L 753.319463 301.815448 
L 755.613251 310.196349 
L 757.974203 320.44019 
L 760.112804 330.629725 
L 762.094575 341.264017 
L 764.014254 352.683436 
L 766.711482 370.119584 
L 769.033171 386.403537 
L 770.90432 400.792995 
L 772.330004 413.147926 
L 773.347854 423.569942 
L 774.005064 432.251337 
L 774.348781 439.411442 
L 774.42226 445.267499 
L 774.263547 450.02102 
L 773.905299 453.851953 
L 773.375127 456.917034 
L 772.696132 459.350409 
L 771.887513 461.265421 
L 770.965151 462.7569 
L 769.942145 463.903598 
L 768.829279 464.770529 
L 767.635434 465.411121 
L 766.367925 465.86912 
L 764.573603 466.256504 
L 762.670456 466.44891 
L 760.152024 466.491312 
L 756.389125 466.304902 
L 750.579665 465.762846 
L 723.74029 463.021288 
L 688.77951 459.777423 
L 679.968423 458.641352 
L 672.7066 457.474668 
L 666.122432 456.173292 
L 660.316074 454.78172 
L 655.409567 453.388676 
L 650.213222 451.654596 
L 646.081569 450.053548 
L 641.702281 448.105607 
L 638.618021 446.555904 
L 635.378366 444.746757 
L 631.959591 442.606238 
L 628.337042 440.032118 
L 624.493474 436.87638 
L 622.491277 435.017087 
L 620.446072 432.927765 
L 618.378001 430.57345 
L 616.324206 427.923133 
L 614.345732 424.962519 
L 612.529465 421.713848 
L 610.975419 418.253703 
L 609.765731 414.707486 
L 608.921207 411.127374 
L 608.433345 407.419229 
L 608.327457 403.502549 
L 608.652978 399.331192 
L 609.46652 394.893843 
L 610.815701 390.209788 
L 612.727256 385.320927 
L 615.201525 380.28276 
L 618.212803 375.156721 
L 621.713514 370.004779 
L 625.640055 364.886036 
L 629.918829 359.854723 
L 634.471678 354.95904 
L 639.220368 350.240532 
L 644.09004 345.73381 
L 649.011698 341.466549 
L 653.923825 337.459728 
L 658.773264 333.72805 
L 663.515517 330.280529 
L 668.114579 327.121173 
L 672.542461 324.249717 
L 676.778478 321.662389 
L 680.808431 319.352638 
L 684.623733 317.311824 
L 688.220536 315.52984 
L 691.598914 313.99566 
L 694.762099 312.697807 
L 697.715817 311.62475 
L 700.467691 310.765229 
L 703.026752 310.10851 
L 705.403014 309.644601 
L 707.607141 309.36441 
L 709.650169 309.259874 
L 711.543292 309.324059 
L 713.297704 309.551241 
L 714.924471 309.936974 
L 716.434453 310.478146 
L 717.838245 311.173036 
L 719.146147 312.021358 
L 720.368153 313.024301 
L 721.513952 314.184551 
L 722.592932 315.506259 
L 723.614185 316.994936 
L 724.58649 318.657159 
L 725.518255 320.500018 
L 727.290811 324.751263 
L 728.980678 329.752934 
L 730.629668 335.496968 
L 732.108517 341.377603 
L 733.974896 350.094401 
L 746.765423 415.995666 
L 748.977167 428.639176 
L 750.578924 438.988649 
L 751.637768 447.277294 
L 752.232475 453.802947 
L 752.43806 458.868385 
L 752.366768 462.057499 
L 752.117153 464.616373 
L 751.71349 466.654171 
L 751.176165 468.264126 
L 750.522174 469.524805 
L 749.765611 470.501739 
L 748.918134 471.249154 
L 747.989377 471.811643 
L 746.726147 472.309644 
L 745.07658 472.6795 
L 742.988918 472.888162 
L 740.077481 472.928139 
L 735.479268 472.739473 
L 710.224701 471.395989 
L 687.023353 470.589042 
L 687.023353 470.589042 
" clip-path="url(#p8ef2a50963)" style="fill: none; stroke: #cd5c5c; stroke-width: 1.5; stroke-linecap: square"/>
   </g>
   <g id="line2d_9">
    <path d="M 718.847416 342.573763 
L 719.90293 347.110244 
L 720.695811 351.430915 
L 721.613807 357.963098 
L 723.803369 374.950676 
L 725.459277 385.549173 
L 728.209977 401.269355 
L 732.240988 424.0982 
L 733.963103 435.086065 
L 735.130664 444.067074 
L 735.717071 450.170748 
L 735.995117 455.18347 
L 736.006185 459.263553 
L 735.788794 462.560566 
L 735.377111 465.209074 
L 734.800593 467.326209 
L 734.08419 469.011592 
L 733.248808 470.348518 
L 732.311864 471.40577 
L 731.287835 472.239615 
L 729.960868 473.009054 
L 728.298698 473.665443 
L 726.274933 474.187448 
L 723.595844 474.612367 
L 719.923688 474.942474 
L 713.39003 475.25745 
L 697.043809 475.994025 
L 687.228805 476.687388 
L 679.034523 477.47243 
L 676.071856 477.93061 
L 675.851427 478.079504 
L 675.873411 478.106134 
L 676.226541 478.228528 
L 677.814879 478.469182 
L 687.850623 479.826901 
L 694.05849 480.937103 
L 700.938758 482.403137 
L 708.756492 484.312267 
L 718.695926 486.983953 
L 738.041338 492.233102 
L 745.377259 493.974366 
L 751.951686 495.31061 
L 757.731514 496.267332 
L 763.417915 496.979079 
L 768.98115 497.432285 
L 774.39245 497.624731 
L 779.623241 497.563518 
L 784.644627 497.262589 
L 789.427169 496.740224 
L 793.94093 496.01684 
L 798.155736 495.113279 
L 802.041587 494.049663 
L 805.569141 492.84477 
L 808.710208 491.515829 
L 811.120677 490.263674 
L 813.198358 488.938416 
L 814.928112 487.549278 
L 816.123477 486.314433 
L 817.045584 485.044514 
L 817.687747 483.744797 
L 818.004873 482.642693 
L 818.120799 481.526497 
L 818.033199 480.399172 
L 817.740223 479.263666 
L 817.240492 478.122903 
L 816.366652 476.751132 
L 815.193108 475.380919 
L 813.720098 474.01713 
L 811.948764 472.664517 
L 809.507883 471.106745 
L 806.66831 469.577493 
L 803.436051 468.083401 
L 799.270608 466.426799 
L 794.614503 464.832414 
L 789.48202 463.307323 
L 783.157893 461.681364 
L 776.273695 460.155497 
L 768.852912 458.731526 
L 760.005724 457.265422 
L 749.573663 455.779205 
L 736.334209 454.146966 
L 722.120025 452.546067 
L 722.120025 452.546067 
" clip-path="url(#p8ef2a50963)" style="fill: none; stroke: #cd5c5c; stroke-width: 1.5; stroke-linecap: square"/>
   </g>
   <g id="line2d_10">
    <path d="M 730.524294 349.785402 
L 731.128787 356.119586 
L 731.752896 366.199227 
L 732.691906 387.013594 
L 733.107733 399.794984 
L 733.247704 411.02961 
L 733.144745 418.377716 
L 732.861193 424.838004 
L 732.40395 430.475315 
L 731.784141 435.36663 
L 731.014721 439.591968 
L 730.109042 443.229245 
L 729.080026 446.351471 
L 727.939725 449.025366 
L 726.699119 451.310841 
L 725.368045 453.260998 
L 723.955215 454.922448 
L 722.46828 456.335791 
L 720.913908 457.536176 
L 719.297882 458.553881 
L 717.055792 459.670985 
L 714.722778 460.560402 
L 712.306822 461.263522 
L 709.179772 461.930297 
L 705.942285 462.407493 
L 701.920388 462.781402 
L 697.046822 462.998407 
L 691.239228 463.00791 
L 685.166328 462.787216 
L 678.799113 462.327937 
L 672.946376 461.696989 
L 666.773887 460.79424 
L 661.165247 459.735265 
L 656.20714 458.584609 
L 650.918346 457.10791 
L 646.382573 455.614646 
L 641.495413 453.748808 
L 637.534615 452.025742 
L 633.248376 449.933005 
L 628.543878 447.343532 
L 625.112961 445.247175 
L 621.39068 442.756286 
L 617.324609 439.747033 
L 612.8821 436.04932 
L 610.532511 433.879472 
L 608.13103 431.466742 
L 605.733721 428.806396 
L 603.427557 425.923361 
L 601.320386 422.882032 
L 599.509131 419.7745 
L 598.006854 416.607076 
L 596.789514 413.29957 
L 595.871755 409.788404 
L 595.299227 406.034215 
L 595.134171 402.022201 
L 595.439643 397.759016 
L 596.2661 393.267269 
L 597.643164 388.579709 
L 599.576863 383.734637 
L 602.050922 378.772892 
L 605.030239 373.736029 
L 608.465269 368.665153 
L 612.296439 363.600044 
L 616.458232 358.578371 
L 620.882731 353.634963 
L 625.50259 348.801166 
L 630.253394 344.104332 
L 635.075433 339.567489 
L 639.914933 335.209195 
L 649.464882 327.080584 
L 658.609781 319.783161 
L 667.161187 313.326993 
L 675.019121 307.682893 
L 682.150833 302.797499 
L 688.570089 298.6058 
L 694.319759 295.04032 
L 699.458565 292.037125 
L 704.051771 289.539283 
L 708.165142 287.498489 
L 711.861335 285.875517 
L 715.198007 284.639984 
L 718.227046 283.769786 
L 720.994519 283.250451 
L 723.541048 283.074556 
L 725.902426 283.241345 
L 728.110385 283.75662 
L 730.193447 284.633024 
L 732.177851 285.890856 
L 734.088551 287.559609 
L 735.95029 289.680575 
L 737.788767 292.310981 
L 739.631857 295.530347 
L 741.51072 299.449629 
L 743.460132 304.221602 
L 745.515391 310.039235 
L 747.696041 317.061723 
L 750.008024 325.439026 
L 752.160342 333.790269 
L 754.226594 342.483393 
L 757.368496 356.881933 
L 761.454587 376.998952 
L 765.013408 395.677791 
L 767.878186 411.808916 
L 770.063749 425.222693 
L 771.645435 436.10741 
L 772.711055 444.77952 
L 773.343479 451.585164 
L 773.614831 456.85449 
L 773.585336 460.881458 
L 773.304065 463.917097 
L 772.951885 465.67018 
L 772.493931 467.057119 
L 771.941547 468.140293 
L 771.304208 468.972345 
L 770.589818 469.597468 
L 769.528672 470.172014 
L 768.354821 470.514578 
L 766.744024 470.699625 
L 764.619947 470.669498 
L 761.493896 470.357906 
L 755.297769 469.446982 
L 744.463846 467.873619 
L 735.092596 466.754039 
L 724.163433 465.693677 
L 708.596822 464.438809 
L 691.339533 463.010545 
L 681.945775 462.017376 
L 674.697468 461.050741 
L 667.988863 459.938081 
L 661.891823 458.693905 
L 656.498433 457.367537 
L 651.924895 456.047872 
L 647.061062 454.419359 
L 643.175764 452.931302 
L 639.036386 451.1421 
L 634.579937 448.954764 
L 631.391385 447.205601 
L 627.99133 445.152397 
L 624.340942 442.706196 
L 620.399776 439.739645 
L 616.145146 436.072016 
L 613.912277 433.903874 
L 611.637663 431.474058 
L 609.369439 428.765262 
L 607.185383 425.787157 
L 605.188568 422.593197 
L 603.482919 419.283174 
L 602.120456 415.932847 
L 601.081512 412.469796 
L 600.373576 408.811546 
L 600.038502 404.904183 
L 600.137009 400.724232 
L 600.731525 396.276334 
L 601.87111 391.587104 
L 603.581935 386.697515 
L 605.864078 381.656193 
L 608.693176 376.514652 
L 612.024776 371.324312 
L 615.799655 366.134667 
L 619.949097 360.9921 
L 624.399622 355.939022 
L 629.076938 351.013212 
L 633.909104 346.247339 
L 638.828892 341.668678 
L 643.775441 337.299039 
L 648.695266 333.154885 
L 653.542725 329.247634 
L 662.877063 322.167055 
L 671.563874 316.066657 
L 679.489483 310.909876 
L 686.616852 306.632218 
L 692.961868 303.156051 
L 698.573461 300.401393 
L 703.518558 298.292963 
L 707.871605 296.764304 
L 711.707841 295.759849 
L 715.099375 295.235735 
L 718.113227 295.159963 
L 719.497898 295.283442 
L 720.810688 295.512371 
L 722.058395 295.846101 
L 723.247513 296.284758 
L 724.384264 296.829277 
L 725.47463 297.481447 
L 726.524391 298.243972 
L 728.524445 300.115959 
L 730.42814 302.48864 
L 732.278517 305.427185 
L 734.118947 309.023222 
L 735.992845 313.395492 
L 737.938482 318.66836 
L 739.968289 324.876511 
L 743.050268 335.485006 
L 745.853609 346.254327 
L 749.744088 362.565348 
L 754.662892 384.237483 
L 758.953042 404.138538 
L 762.346637 420.936253 
L 764.868726 434.482669 
L 766.633561 445.077224 
L 767.768909 453.169964 
L 768.390531 459.229309 
L 768.583492 462.901805 
L 768.550225 465.736943 
L 768.323882 467.896165 
L 767.931369 469.514292 
L 767.394348 470.702231 
L 766.730178 471.550181 
L 765.952723 472.130856 
L 765.073053 472.502479 
L 763.843029 472.742738 
L 762.193084 472.791914 
L 759.72576 472.590084 
L 755.508234 471.973839 
L 743.07998 470.078991 
L 735.023876 469.106865 
L 725.630518 468.205024 
L 713.560952 467.291425 
L 701.108828 466.467377 
L 701.108828 466.467377 
" clip-path="url(#p8ef2a50963)" style="fill: none; stroke: #8b0000; stroke-width: 1.5; stroke-linecap: square"/>
   </g>
   <g id="line2d_11">
    <path d="M 720.343715 344.543448 
L 721.238616 349.226414 
L 721.871711 353.80329 
L 722.556076 360.879183 
L 724.141493 379.184994 
L 725.611596 392.817428 
L 728.789531 421.361186 
L 729.572162 430.704113 
L 729.985304 438.559361 
L 730.064828 443.868295 
L 729.941048 448.405677 
L 729.63432 452.262495 
L 729.164854 455.526649 
L 728.551672 458.279815 
L 727.812115 460.595871 
L 726.961675 462.54035 
L 726.014005 464.170539 
L 724.981031 465.535959 
L 723.873116 466.679046 
L 722.396393 467.849738 
L 720.831426 468.787649 
L 718.854382 469.671755 
L 716.785878 470.352566 
L 714.276219 470.954812 
L 710.925153 471.51195 
L 706.681124 471.972479 
L 701.10837 472.345288 
L 693.352262 472.629314 
L 684.661939 472.723545 
L 677.620074 472.589789 
L 671.847805 472.260993 
L 667.332684 471.797545 
L 663.234296 471.158103 
L 659.53341 470.346126 
L 656.210297 469.380355 
L 653.249585 468.296808 
L 650.202542 466.935228 
L 647.481262 465.495526 
L 644.60481 463.746666 
L 641.495011 461.618585 
L 637.406182 458.533801 
L 621.386477 446.066543 
L 616.982605 443.073804 
L 613.505387 440.897188 
L 609.489332 438.578156 
L 604.856117 436.132601 
L 599.599181 433.592994 
L 585.385319 427.07335 
L 577.6109 423.080865 
L 570.128432 419.021909 
L 565.501966 416.188323 
L 563.412407 414.68294 
L 561.535206 413.086172 
L 559.919939 411.370019 
L 558.616041 409.504852 
L 557.671549 407.460712 
L 557.131924 405.208692 
L 557.038833 402.722356 
L 557.428851 399.979149 
L 558.332082 396.961726 
L 559.770763 393.659141 
L 561.757957 390.067783 
L 564.296466 386.191995 
L 567.378091 382.044292 
L 570.983365 377.645141 
L 575.081835 373.02229 
L 579.632916 368.209686 
L 584.58729 363.246067 
L 589.888748 358.173326 
L 595.47635 353.034796 
L 601.286712 347.873567 
L 613.323408 337.645333 
L 625.523605 327.777726 
L 637.490094 318.489004 
L 648.928726 309.920924 
L 659.650608 302.147647 
L 669.558807 295.192208 
L 678.627779 289.044526 
L 686.881919 283.677137 
L 694.37684 279.057077 
L 701.184799 275.153758 
L 707.38419 271.943483 
L 713.052431 269.411426 
L 715.710131 268.397602 
L 718.261387 267.551858 
L 720.713863 266.874762 
L 723.074605 266.36731 
L 725.350019 266.03088 
L 727.545869 265.867188 
L 729.667282 265.878251 
L 731.718766 266.066356 
L 733.704251 266.434057 
L 735.627124 266.984177 
L 737.490297 267.719856 
L 739.296267 268.644627 
L 741.0472 269.762531 
L 742.74502 271.078302 
L 744.391503 272.597612 
L 745.988374 274.327412 
L 747.537413 276.276386 
L 749.040547 278.455546 
L 750.499934 280.879009 
L 751.918034 283.564969 
L 753.297633 286.536898 
L 754.641821 289.824839 
L 755.953868 293.466402 
L 757.236919 297.506125 
L 758.493347 301.989888 
L 759.723357 306.946834 
L 760.935075 312.530682 
L 763.178566 324.323828 
L 765.08551 335.923867 
L 766.798244 348.297887 
L 769.064085 367.187621 
L 770.880262 384.586524 
L 772.205073 399.656212 
L 773.063214 412.328981 
L 773.505165 422.805327 
L 773.58635 431.364723 
L 773.358915 438.294683 
L 772.868885 443.862581 
L 772.415993 446.936056 
L 771.874044 449.571945 
L 771.251914 451.825664 
L 770.557414 453.74649 
L 769.797396 455.37799 
L 768.977859 456.758516 
L 768.104043 457.9217 
L 767.180526 458.896945 
L 765.71065 460.062592 
L 764.149199 460.935201 
L 762.505455 461.573738 
L 760.786996 462.02575 
L 758.390039 462.403273 
L 755.23994 462.60886 
L 751.256099 462.591287 
L 745.631973 462.29774 
L 735.804347 461.506176 
L 702.570829 458.496312 
L 691.600783 457.297519 
L 683.136256 456.166534 
L 676.459971 455.08424 
L 670.636384 453.95727 
L 664.526206 452.541673 
L 659.387693 451.122211 
L 655.358112 449.832118 
L 651.150018 448.288016 
L 646.731275 446.410362 
L 643.649025 444.917299 
L 640.441823 443.175305 
L 637.095264 441.116115 
L 633.597022 438.643183 
L 629.944882 435.616885 
L 628.06808 433.836015 
L 626.169113 431.835275 
L 624.266442 429.578426 
L 622.391733 427.028719 
L 620.595622 424.157665 
L 618.951444 420.961688 
L 617.549863 417.484409 
L 616.477144 413.82988 
L 615.782696 410.137107 
L 615.465948 406.408532 
L 615.535008 402.544792 
L 616.025921 398.477305 
L 616.98694 394.174336 
L 618.462712 389.639333 
L 620.48123 384.904993 
L 623.046155 380.024415 
L 626.135072 375.061925 
L 629.702415 370.085509 
L 633.684957 365.161483 
L 638.008086 360.351157 
L 642.591698 355.708918 
L 647.35517 351.28126 
L 652.221211 347.10644 
L 657.118617 343.214567 
L 661.984045 339.627992 
L 666.762969 336.361929 
L 671.40998 333.425239 
L 675.888592 330.821303 
L 680.170715 328.548948 
L 684.235891 326.603365 
L 688.070415 324.976992 
L 691.66642 323.660335 
L 695.020959 322.642708 
L 698.135151 321.912887 
L 701.013399 321.459664 
L 703.662693 321.272327 
L 706.092018 321.341032 
L 708.311839 321.657103 
L 710.333692 322.213229 
L 712.169838 323.003556 
L 713.833003 324.023635 
L 715.336173 325.270162 
L 716.692421 326.740438 
L 717.914751 328.431328 
L 719.015887 330.337649 
L 720.007934 332.449703 
L 720.901797 334.750042 
L 721.706261 337.209927 
L 723.092584 342.643892 
L 724.093531 347.883647 
L 724.772589 353.007292 
L 725.247426 358.262816 
L 725.971258 369.508306 
L 727.331866 390.27316 
L 728.56383 409.158944 
L 728.992976 418.394805 
L 729.169316 426.434763 
L 729.089553 433.341366 
L 728.76649 439.21707 
L 728.220378 444.17943 
L 727.678106 447.373461 
L 727.032811 450.168653 
L 726.293708 452.609915 
L 725.469413 454.738598 
L 724.567851 456.592281 
L 723.596227 458.204781 
L 722.202877 460.031291 
L 720.71 461.544545 
L 719.129218 462.797117 
L 717.470442 463.8331 
L 715.299996 464.878903 
L 713.034428 465.701614 
L 710.205638 466.458309 
L 706.772329 467.098068 
L 702.694742 467.591586 
L 697.93326 467.924481 
L 692.444568 468.085381 
L 686.174022 468.04938 
L 679.647654 467.790207 
L 677.204345 467.633355 
L 677.204345 467.633355 
" clip-path="url(#p8ef2a50963)" style="fill: none; stroke: #800000; stroke-width: 1.5; stroke-linecap: square"/>
   </g>
   <g id="line2d_12">
    <path d="M 709.72941 335.653799 
L 710.58727 337.047867 
L 711.367668 338.58351 
L 712.723425 342.025919 
L 713.847673 345.883969 
L 714.738807 349.933201 
L 715.332362 353.746185 
L 715.713319 357.499261 
L 716.058032 363.25426 
L 716.81562 377.945164 
L 717.568505 386.943065 
L 718.792758 398.175087 
L 722.781514 432.002181 
L 723.418233 440.225193 
L 723.652262 445.979418 
L 723.638616 450.842151 
L 723.403457 454.922937 
L 722.973931 458.32984 
L 722.375999 461.163763 
L 721.633399 463.515558 
L 720.767265 465.464955 
L 719.796111 467.080631 
L 718.735996 468.42093 
L 717.600787 469.534905 
L 716.156135 470.630026 
L 714.638105 471.515398 
L 712.794055 472.343683 
L 710.614365 473.088095 
L 707.817294 473.804286 
L 704.121942 474.504914 
L 698.741451 475.270687 
L 679.272428 477.831651 
L 678.094119 478.207785 
L 677.89886 478.442543 
L 678.039791 478.612035 
L 678.585503 478.84401 
L 680.158342 479.231218 
L 685.747177 480.277114 
L 694.114821 481.928928 
L 702.076284 483.730438 
L 711.392617 486.069328 
L 739.151868 493.200513 
L 746.273819 494.710083 
L 752.666953 495.84154 
L 758.295578 496.628594 
L 763.840003 497.188253 
L 769.269728 497.510371 
L 774.554898 497.594079 
L 779.665744 497.446095 
L 784.572257 497.078725 
L 789.244076 496.507842 
L 793.650609 495.751126 
L 797.761301 494.826702 
L 801.546028 493.752222 
L 804.97554 492.544365 
L 808.02191 491.218671 
L 810.352557 489.973418 
L 812.353566 488.658152 
L 814.010124 487.281587 
L 815.145766 486.059277 
L 816.011152 484.803312 
L 816.599795 483.518813 
L 816.874904 482.430259 
L 816.951267 481.32833 
L 816.826655 480.215929 
L 816.499304 479.095943 
L 815.967914 477.971242 
L 815.059766 476.619384 
L 813.856026 475.26969 
L 812.35702 473.926931 
L 810.563952 472.595767 
L 808.103164 471.063418 
L 805.249588 469.559871 
L 802.009232 468.091609 
L 797.841722 466.464478 
L 793.191112 464.89928 
L 788.071519 463.402854 
L 781.770447 461.808221 
L 774.917957 460.312382 
L 767.537029 458.91681 
L 758.742935 457.479965 
L 748.378845 456.022663 
L 735.230555 454.4195 
L 699.874248 450.2869 
L 691.001192 448.961599 
L 684.413279 447.793114 
L 677.587689 446.349159 
L 673.364815 445.301119 
L 673.364815 445.301119 
" clip-path="url(#p8ef2a50963)" style="fill: none; stroke: #cd5c5c; stroke-width: 1.5; stroke-linecap: square"/>
   </g>
   <g id="line2d_13">
    <path d="M 717.182883 345.545841 
L 718.052489 349.755781 
L 718.684868 353.823758 
L 719.389344 360.016614 
L 720.786059 373.60321 
L 722.068244 383.463579 
L 723.990451 395.932937 
L 729.779015 431.693593 
L 730.955256 440.863216 
L 731.570944 447.196106 
L 731.888062 452.472207 
L 731.942246 456.828763 
L 731.768703 460.400839 
L 731.399903 463.313643 
L 730.864651 465.678797 
L 730.187898 467.593142 
L 729.390948 469.139061 
L 728.49183 470.385628 
L 727.505739 471.390139 
L 726.225502 472.341785 
L 724.856733 473.07769 
L 723.167945 473.731021 
L 721.140444 474.281206 
L 718.494092 474.769768 
L 714.645415 475.233441 
L 707.868025 475.776182 
L 694.578357 476.830686 
L 687.988783 477.586607 
L 683.996847 478.246891 
L 682.009519 478.764716 
L 681.172724 479.182412 
L 680.992337 479.487875 
L 681.100165 479.738441 
L 681.508963 480.043412 
L 682.477807 480.462089 
L 684.552588 481.09353 
L 689.355865 482.278821 
L 709.690304 487.164916 
L 730.138173 492.167938 
L 738.893658 494.048262 
L 745.73298 495.303352 
L 751.900965 496.231099 
L 758.030282 496.929772 
L 764.074365 497.375336 
L 769.338781 497.549274 
L 774.468839 497.513308 
L 779.43332 497.272678 
L 784.200927 496.837016 
L 788.740298 496.218879 
L 793.020154 495.432453 
L 797.009584 494.492537 
L 800.678391 493.413846 
L 803.997486 492.210608 
L 806.939276 490.896418 
L 809.183551 489.665691 
L 811.103338 488.36831 
L 812.684175 487.012401 
L 813.759559 485.809655 
L 814.569201 484.574729 
L 815.106813 483.31255 
L 815.343127 482.243459 
L 815.384192 481.161685 
L 815.227862 480.070052 
L 814.872448 478.971374 
L 814.181455 477.6476 
L 813.200746 476.3225 
L 811.92995 475.000799 
L 810.369584 473.687135 
L 808.185048 472.170706 
L 805.611849 470.678289 
L 802.654977 469.216471 
L 798.814015 467.591187 
L 794.491421 466.022312 
L 789.700127 464.517201 
L 783.767497 462.907685 
L 777.281489 461.392831 
L 770.264483 459.975887 
L 761.87177 458.515462 
L 751.946954 457.037782 
L 740.32516 455.550107 
L 722.471545 453.534475 
L 704.115887 451.417841 
L 701.704972 451.108575 
L 701.704972 451.108575 
" clip-path="url(#p8ef2a50963)" style="fill: none; stroke: #800000; stroke-width: 1.5; stroke-linecap: square"/>
   </g>
   <g id="line2d_14">
    <path d="M 710.744706 340.682718 
L 711.975556 344.131928 
L 712.999429 347.987297 
L 713.748479 351.784274 
L 714.23096 355.410416 
L 714.627669 360.826402 
L 715.683145 382.897701 
L 716.483259 391.563138 
L 717.711528 402.209977 
L 721.37867 432.491496 
L 722.044857 440.457202 
L 722.320813 446.069767 
L 722.361747 450.843524 
L 722.191175 454.876153 
L 721.834068 458.265415 
L 721.314696 461.103725 
L 720.655537 463.475197 
L 719.876819 465.454377 
L 718.99643 467.106067 
L 718.030017 468.485782 
L 716.775815 469.848137 
L 715.437421 470.953415 
L 713.792175 471.989526 
L 711.828971 472.920677 
L 709.548056 473.734695 
L 706.702736 474.500575 
L 702.806265 475.295413 
L 696.300382 476.348309 
L 688.289507 477.683417 
L 685.28018 478.392944 
L 683.785304 478.948261 
L 683.185801 479.376344 
L 683.047143 479.703497 
L 683.148944 480.004066 
L 683.537858 480.36823 
L 684.460103 480.862975 
L 686.249485 481.532745 
L 689.597143 482.526562 
L 697.208207 484.508316 
L 722.349591 490.762523 
L 731.750769 492.883342 
L 739.562804 494.427314 
L 746.174304 495.525113 
L 752.805703 496.393742 
L 758.737233 496.946097 
L 764.586323 497.261695 
L 770.307891 497.332387 
L 775.857192 497.159198 
L 781.189537 496.750494 
L 786.260238 496.119859 
L 791.024821 495.284062 
L 794.967556 494.383672 
L 798.603755 493.348734 
L 801.904508 492.192169 
L 804.842369 490.926529 
L 807.095101 489.739177 
L 809.034455 488.485533 
L 810.64593 487.173359 
L 811.756312 486.007856 
L 812.608916 484.809759 
L 813.197329 483.583837 
L 813.516036 482.334848 
L 813.572254 481.279832 
L 813.435791 480.214843 
L 813.104919 479.14262 
L 812.449469 477.850237 
L 811.510843 476.556028 
L 810.288537 475.264601 
L 808.782911 473.980483 
L 806.669903 472.497465 
L 804.176198 471.037174 
L 801.306452 469.606059 
L 797.573952 468.013974 
L 793.368776 466.476153 
L 788.703282 464.999854 
L 782.921486 463.420038 
L 776.595406 461.932076 
L 769.746686 460.539435 
L 761.549986 459.103503 
L 751.851027 457.650905 
L 740.487476 456.19103 
L 724.094532 454.342866 
L 703.888722 452.053075 
L 694.229277 450.755038 
L 686.659039 449.546968 
L 680.104385 448.3039 
L 674.676618 447.089627 
L 669.06303 445.605411 
L 664.716438 444.254858 
L 663.239443 443.748127 
L 663.239443 443.748127 
" clip-path="url(#p8ef2a50963)" style="fill: none; stroke: #cd5c5c; stroke-width: 1.5; stroke-linecap: square"/>
   </g>
   <g id="line2d_15">
    <path d="M 704.152888 354.131911 
L 704.588273 356.783665 
L 704.800628 359.295917 
L 704.809418 362.937552 
L 704.575578 366.538445 
L 703.30322 381.548134 
L 703.248763 386.859795 
L 703.48827 392.291568 
L 704.009185 397.795223 
L 704.767043 403.315489 
L 705.956354 410.152611 
L 707.58261 418.125836 
L 710.619547 431.613806 
L 714.402875 448.519031 
L 716.159345 457.407911 
L 717.179619 463.618559 
L 717.796203 468.690963 
L 718.056453 472.669044 
L 718.043384 475.880731 
L 717.791509 479.03361 
L 717.680425 481.164637 
L 717.85503 482.116994 
L 718.207775 482.833863 
L 718.775407 483.486535 
L 719.648804 484.141671 
L 720.998686 484.847538 
L 722.853853 485.555713 
L 725.432702 486.29235 
L 728.685794 486.986388 
L 732.615947 487.591422 
L 736.951267 488.027225 
L 741.312674 488.245133 
L 745.518274 488.243865 
L 749.630832 488.019412 
L 753.297143 487.592083 
L 756.255876 487.037599 
L 758.686143 486.374752 
L 760.58822 485.640226 
L 761.988346 484.86794 
L 762.86715 484.154829 
L 763.40334 483.465767 
L 763.659776 482.817621 
L 763.692677 482.147853 
L 763.494514 481.461383 
L 763.059211 480.763271 
L 762.291889 479.98019 
L 761.098369 479.117991 
L 759.37641 478.187098 
L 757.217861 477.277773 
L 754.393876 476.329958 
L 750.802997 475.367151 
L 746.34925 474.417908 
L 740.947535 473.514522 
L 734.924692 472.734756 
L 727.908789 472.04616 
L 719.400957 471.439176 
L 708.289272 470.889932 
L 680.955259 469.658905 
L 673.941539 469.075762 
L 667.851072 468.36131 
L 667.851072 468.36131 
" clip-path="url(#p8ef2a50963)" style="fill: none; stroke: #cd5c5c; stroke-width: 1.5; stroke-linecap: square"/>
   </g>
   <g id="line2d_16">
    <path d="M 714.147184 350.552698 
L 714.768936 354.480457 
L 715.096345 358.342217 
L 715.211717 362.25888 
L 715.148462 368.365751 
L 714.683269 390.335285 
L 714.398425 418.107517 
L 714.021531 425.986727 
L 713.553963 431.489888 
L 712.934626 436.328832 
L 712.167485 440.559476 
L 711.260571 444.242066 
L 710.22394 447.436816 
L 709.068386 450.201253 
L 707.804644 452.588698 
L 706.442928 454.647516 
L 704.992681 456.420875 
L 703.462462 457.946817 
L 701.859913 459.258526 
L 699.765198 460.640227 
L 697.579234 461.778974 
L 695.311393 462.713363 
L 692.492525 463.608301 
L 689.576803 464.295463 
L 686.062072 464.875396 
L 682.431528 465.248027 
L 678.141744 465.444362 
L 673.694535 465.40384 
L 669.070655 465.115029 
L 664.852808 464.633055 
L 660.435677 463.897047 
L 656.448034 463.019734 
L 652.218036 461.858726 
L 648.450844 460.620211 
L 644.391309 459.070304 
L 639.937415 457.122569 
L 634.931018 454.651632 
L 629.113013 451.466231 
L 622.030457 447.254165 
L 612.859633 441.46627 
L 603.241189 435.092629 
L 597.731257 431.185562 
L 594.964741 429.077501 
L 592.313266 426.903083 
L 589.864542 424.694504 
L 587.610743 422.44206 
L 585.510072 420.113235 
L 583.550724 417.681406 
L 581.749082 415.126083 
L 580.144132 412.432134 
L 578.789433 409.588553 
L 577.744261 406.587196 
L 577.065807 403.421902 
L 576.803487 400.088221 
L 576.995571 396.583688 
L 577.667674 392.908428 
L 578.832474 389.065833 
L 580.490181 385.063111 
L 582.629446 380.911573 
L 585.22854 376.62662 
L 588.256744 372.227416 
L 591.675882 367.736289 
L 595.441982 363.177921 
L 599.506994 358.578419 
L 603.820518 353.96434 
L 608.331453 349.361738 
L 612.989514 344.795325 
L 622.557654 335.859161 
L 632.183036 327.304464 
L 641.595194 319.231942 
L 654.912862 308.135397 
L 677.712461 289.559199 
L 698.187746 273.095262 
L 705.461381 267.51718 
L 709.961693 264.285251 
L 714.249521 261.464699 
L 718.3766 259.087823 
L 722.388353 257.197966 
L 724.363063 256.451878 
L 726.32231 255.848018 
L 728.269286 255.394144 
L 730.206492 255.098315 
L 732.135703 254.968801 
L 734.057938 255.013985 
L 735.973447 255.242275 
L 737.881712 255.662015 
L 739.78147 256.281427 
L 741.670755 257.108568 
L 743.546966 258.151336 
L 745.406957 259.417529 
L 747.247158 260.914973 
L 749.063702 262.651763 
L 750.852583 264.636617 
L 752.609822 266.879389 
L 754.331631 269.391815 
L 756.014562 272.18852 
L 757.655634 275.28836 
L 759.252402 278.716214 
L 760.802936 282.505151 
L 762.305667 286.698691 
L 763.759027 291.351768 
L 765.160817 296.525904 
L 766.507151 302.266763 
L 767.800054 308.899086 
L 770.102657 322.392749 
L 771.09102 329.020034 
L 772.815252 342.904855 
L 774.263695 357.112977 
L 775.447174 370.676434 
L 776.364426 383.063462 
L 777.024944 394.108508 
L 777.446496 403.821116 
L 777.650386 412.285183 
L 777.658514 419.61332 
L 777.491857 425.925809 
L 777.16976 431.340519 
L 776.70967 435.968045 
L 776.127099 439.909531 
L 775.435705 443.255929 
L 774.64743 446.088065 
L 773.772673 448.477132 
L 772.820449 450.485421 
L 771.798562 452.167147 
L 770.71375 453.569299 
L 769.571829 454.732463 
L 768.377811 455.691601 
L 767.136018 456.476761 
L 765.191764 457.383655 
L 763.158778 458.02817 
L 761.045483 458.467186 
L 758.114354 458.809029 
L 755.064922 458.945166 
L 751.101005 458.913854 
L 745.290842 458.629161 
L 735.596228 457.880301 
L 716.309852 456.111282 
L 701.497883 454.56058 
L 691.319744 453.272331 
L 682.977225 451.980236 
L 676.746109 450.815558 
L 670.245163 449.356523 
L 664.815425 447.8927 
L 660.587324 446.559072 
L 656.206231 444.957179 
L 651.652127 442.99952 
L 648.509833 441.434701 
L 645.276864 439.599674 
L 641.952338 437.417772 
L 638.544996 434.780206 
L 636.818665 433.243907 
L 635.086742 431.52997 
L 633.361985 429.608112 
L 631.664484 427.443474 
L 630.025157 424.998493 
L 628.489882 422.238333 
L 627.122578 419.142644 
L 626.002757 415.724874 
L 625.211322 412.052955 
L 624.804388 408.253172 
L 624.791975 404.465101 
L 625.168049 400.665778 
L 625.951108 396.769845 
L 627.174436 392.726781 
L 628.871758 388.521283 
L 631.065402 384.169534 
L 633.758228 379.712723 
L 636.930272 375.208898 
L 640.539714 370.724889 
L 644.526903 366.329536 
L 648.819836 362.088769 
L 653.339817 358.062396 
L 658.006507 354.302278 
L 662.742001 350.851503 
L 667.473827 347.744272 
L 672.136946 345.006287 
L 676.674882 342.655462 
L 681.040178 340.702858 
L 685.194319 339.153723 
L 689.107316 338.008548 
L 692.757065 337.264054 
L 696.128607 336.914003 
L 699.213399 336.94974 
L 702.008647 337.360291 
L 704.516791 338.131883 
L 706.745131 339.24665 
L 708.705562 340.680425 
L 710.41426 342.399734 
L 711.890998 344.3587 
L 713.147801 346.554696 
L 715.095615 351.256353 
L 715.842387 353.492808 
L 716.43924 355.716497 
L 716.893383 357.959148 
L 717.215067 360.241878 
L 717.416361 362.576849 
L 717.509386 367.416101 
L 717.272511 372.448396 
L 716.790838 377.587367 
L 716.12783 382.725098 
L 714.882246 390.210233 
L 713.403416 397.208329 
L 712.307993 401.528163 
L 711.132544 405.54677 
L 709.881297 409.258185 
L 708.557544 412.665622 
L 707.164111 415.778382 
L 705.703574 418.609562 
L 704.178348 421.174388 
L 702.590697 423.489044 
L 700.942729 425.569859 
L 699.236369 427.432736 
L 697.473334 429.092787 
L 695.655113 430.564078 
L 693.782943 431.859477 
L 691.857795 432.990551 
L 689.880358 433.96751 
L 687.851021 434.799166 
L 684.709786 435.789954 
L 681.450731 436.488765 
L 678.070905 436.906443 
L 674.565371 437.045207 
L 670.927 436.897283 
L 667.146263 436.442553 
L 663.21112 435.644568 
L 660.494922 434.893724 
L 657.69923 433.938971 
L 654.819781 432.745566 
L 651.853695 431.265955 
L 648.801766 429.434442 
L 645.673601 427.159359 
L 644.08886 425.81729 
L 642.49877 424.313151 
L 640.914088 422.624148 
L 639.351118 420.725422 
L 637.833876 418.592104 
L 636.396487 416.2039 
L 635.08456 413.553144 
L 633.953278 410.656289 
L 633.059396 407.564667 
L 632.447069 404.365712 
L 632.134043 401.167103 
L 632.112222 397.99432 
L 632.378032 394.786258 
L 632.941526 391.4949 
L 633.819311 388.093238 
L 635.027768 384.573984 
L 636.577417 380.947328 
L 638.468909 377.237549 
L 640.691011 373.478875 
L 643.220588 369.711235 
L 646.024139 365.9765 
L 649.060306 362.315526 
L 652.282741 358.76607 
L 655.642897 355.3615 
L 659.092469 352.130097 
L 662.585338 349.094839 
L 666.079012 346.273496 
L 669.535569 343.678954 
L 672.922196 341.319668 
L 676.21138 339.200216 
L 679.380832 337.321882 
L 682.413226 335.683246 
L 685.295809 334.280753 
L 688.019935 333.10925 
L 690.580564 332.162467 
L 692.975753 331.433448 
L 695.206174 330.914919 
L 697.274658 330.599592 
L 699.185785 330.480417 
L 700.945523 330.550758 
L 702.560909 330.804525 
L 704.039782 331.23622 
L 705.390554 331.840917 
L 706.622012 332.614147 
L 707.743153 333.551668 
L 708.763019 334.649092 
L 709.69052 335.901326 
L 710.534233 337.301815 
L 711.302118 338.841567 
L 712.636913 342.284123 
L 713.746782 346.142281 
L 714.619446 350.154536 
L 715.199854 353.940029 
L 715.572383 357.67011 
L 715.911325 363.392508 
L 716.673532 377.998829 
L 717.435188 386.947603 
L 718.675939 398.128998 
L 722.906077 433.387442 
L 723.517444 441.379787 
L 723.734451 446.966851 
L 723.708688 451.685825 
L 723.466514 455.644998 
L 723.034845 458.950303 
L 722.439218 461.700162 
L 721.702882 463.982918 
L 720.84649 465.875942 
L 719.888108 467.4458 
L 718.843402 468.749002 
L 717.725904 469.833038 
L 716.305144 470.899862 
L 714.559073 471.891008 
L 712.474443 472.772506 
L 710.048833 473.534173 
L 707.014437 474.241601 
L 702.836759 474.965256 
L 702.836759 474.965256 
" clip-path="url(#p8ef2a50963)" style="fill: none; stroke: #800000; stroke-width: 1.5; stroke-linecap: square"/>
   </g>
   <g id="line2d_17">
    <path d="M 720.278663 338.105549 
L 721.072488 340.735617 
L 722.337672 346.18794 
L 723.164282 351.317214 
L 723.659284 356.460405 
L 723.936601 361.792095 
L 724.198999 373.119706 
L 724.517686 398.740595 
L 724.474675 408.746222 
L 724.221229 417.554364 
L 723.876538 423.373091 
L 723.397239 428.551054 
L 722.786954 433.133534 
L 722.052173 437.171626 
L 721.200865 440.717923 
L 720.241578 443.823866 
L 719.182868 446.538177 
L 718.032955 448.90599 
L 716.799525 450.968457 
L 715.48963 452.762644 
L 714.109654 454.321619 
L 712.665311 455.674664 
L 710.64807 457.202451 
L 708.5357 458.461898 
L 706.336822 459.496461 
L 704.058494 460.341952 
L 701.107371 461.17701 
L 698.049222 461.807224 
L 694.245913 462.34047 
L 690.301435 462.66928 
L 685.520826 462.829117 
L 680.538872 462.766148 
L 675.335519 462.478626 
L 669.876514 461.942755 
L 664.953527 461.248856 
L 659.752096 460.28489 
L 655.151022 459.219407 
L 650.240048 457.844602 
L 646.025997 456.456473 
L 641.483657 454.732905 
L 636.510708 452.56436 
L 632.40806 450.547222 
L 627.881948 448.077199 
L 622.796113 444.987218 
L 619.004265 442.456777 
L 614.818728 439.418644 
L 610.201474 435.719983 
L 607.747428 433.57184 
L 605.237031 431.206936 
L 602.734682 428.632253 
L 600.334512 425.883208 
L 598.144742 423.026017 
L 596.242603 420.125809 
L 594.606613 417.143512 
L 593.218168 414.013456 
L 592.096192 410.687615 
L 591.287514 407.13725 
L 590.853844 403.352188 
L 590.857716 399.3377 
L 591.350786 395.110191 
L 592.366632 390.69321 
L 593.918116 386.114599 
L 595.998055 381.404776 
L 598.581794 376.595757 
L 601.630568 371.720474 
L 605.095064 366.812151 
L 608.91883 361.903611 
L 613.041378 357.026526 
L 617.400918 352.210667 
L 621.936654 347.48322 
L 626.590663 342.868238 
L 631.30931 338.386244 
L 640.753055 329.884651 
L 649.953276 322.06863 
L 658.691922 314.97514 
L 666.837959 308.599344 
L 677.827246 300.303629 
L 687.352037 293.373039 
L 695.547686 287.620371 
L 702.60699 282.881183 
L 708.731387 279.03059 
L 714.106923 275.986858 
L 717.355257 274.383985 
L 720.383922 273.117154 
L 723.228575 272.189073 
L 725.919789 271.607842 
L 728.483374 271.38632 
L 730.940795 271.541642 
L 733.309682 272.095 
L 735.604479 273.071794 
L 737.83727 274.502364 
L 740.018812 276.423607 
L 742.159793 278.881949 
L 744.27231 281.938413 
L 746.371491 285.677034 
L 748.4771 290.218266 
L 750.614497 295.738621 
L 752.812853 302.487654 
L 755.091934 310.732686 
L 757.459904 320.790937 
L 759.61974 330.799725 
L 761.638415 341.256208 
L 764.569341 358.292007 
L 767.257351 375.349881 
L 769.541703 390.999414 
L 771.374167 404.729969 
L 772.771108 416.484831 
L 773.773243 426.388889 
L 774.427591 434.635543 
L 774.779951 441.436946 
L 774.871912 447.00041 
L 774.739887 451.517163 
L 774.415068 455.157569 
L 773.923807 458.069908 
L 773.288154 460.381104 
L 772.526441 462.198469 
L 771.653844 463.611878 
L 770.682889 464.696057 
L 769.623902 465.512775 
L 768.485392 466.112869 
L 767.274377 466.538019 
L 765.556779 466.890732 
L 763.259496 467.074358 
L 760.303526 467.034937 
L 756.057107 466.712566 
L 747.875338 465.805535 
L 732.593162 464.132019 
L 718.386039 462.821934 
L 692.06859 460.439048 
L 682.577401 459.315286 
L 675.540793 458.282197 
L 669.187558 457.147488 
L 663.61233 455.951338 
L 657.718276 454.43593 
L 652.716258 452.906963 
L 648.757641 451.511283 
L 644.582534 449.834292 
L 640.143969 447.785824 
L 637.008726 446.149407 
L 633.706618 444.231047 
L 630.21199 441.949703 
L 626.499609 439.189295 
L 622.557362 435.78169 
L 620.508558 433.764486 
L 618.426442 431.493378 
L 616.342288 428.935732 
L 614.309738 426.071365 
L 612.409137 422.910688 
L 610.739962 419.514431 
L 609.394221 415.996959 
L 608.41343 412.450895 
L 607.78585 408.801337 
L 607.52712 404.959731 
L 607.681893 400.870705 
L 608.307203 396.513688 
L 609.455627 391.90001 
L 611.16176 387.065719 
L 613.434761 382.062651 
L 616.257144 376.950371 
L 619.588033 371.790264 
L 623.368663 366.641748 
L 627.528424 361.560006 
L 631.990485 356.59466 
L 636.676548 351.789015 
L 641.51061 347.179671 
L 646.42173 342.79642 
L 651.345922 338.662379 
L 656.227248 334.794338 
L 661.018323 331.203261 
L 665.680296 327.894923 
L 670.182469 324.870613 
L 674.501668 322.127872 
L 678.621462 319.661228 
L 682.531311 317.462883 
L 686.225693 315.523351 
L 689.703269 313.832026 
L 692.966102 312.377671 
L 696.018958 311.148827 
L 698.868695 310.134158 
L 701.523731 309.322728 
L 703.993605 308.704217 
L 706.288607 308.269099 
L 708.419488 308.008771 
L 710.397221 307.915657 
L 712.232825 307.983291 
L 713.937229 308.20638 
L 715.521174 308.580861 
L 716.99515 309.103949 
L 718.369353 309.774191 
L 719.653672 310.59151 
L 720.857682 311.557254 
L 721.990657 312.674237 
L 723.061581 313.946741 
L 724.079164 315.380476 
L 725.051842 316.982419 
L 725.98774 318.7604 
L 727.779383 322.874902 
L 729.504765 327.755796 
L 731.190977 333.351018 
L 732.798438 339.412234 
L 734.170154 345.257921 
L 736.093721 354.45501 
L 744.004827 393.273988 
L 747.848013 412.539933 
L 750.344863 425.999326 
L 752.196082 437.056174 
L 753.468009 445.924153 
L 754.243544 452.905459 
L 754.603016 458.317762 
L 754.63886 461.71833 
L 754.48465 464.440083 
L 754.166557 466.600749 
L 753.706533 468.301093 
L 753.122827 469.626115 
L 752.430529 470.646709 
L 751.642073 471.421511 
L 750.767693 471.998686 
L 749.566582 472.501491 
L 748.257579 472.817613 
L 746.559034 473.015984 
L 744.10028 473.069626 
L 740.398912 472.90951 
L 730.40581 472.15206 
L 719.438643 471.440016 
L 707.400243 470.893552 
L 682.38582 469.828637 
L 678.963619 469.592525 
L 678.963619 469.592525 
" clip-path="url(#p8ef2a50963)" style="fill: none; stroke: #8b0000; stroke-width: 1.5; stroke-linecap: square"/>
   </g>
   <g id="line2d_18">
    <path d="M 715.756164 339.478904 
L 716.472894 341.61487 
L 717.684624 346.303481 
L 718.52216 350.784319 
L 719.04615 355.135964 
L 719.353785 359.543174 
L 719.661264 368.858568 
L 720.120778 383.923995 
L 721.031214 403.548555 
L 721.54145 416.386426 
L 721.679001 425.541548 
L 721.570831 431.869201 
L 721.268258 437.372001 
L 720.780618 442.124649 
L 720.121696 446.20787 
L 719.30703 449.70196 
L 718.35233 452.682998 
L 717.272599 455.220808 
L 716.081684 457.378046 
L 714.792081 459.210021 
L 713.414908 460.764945 
L 711.959955 462.084439 
L 710.435782 463.204153 
L 708.444473 464.368631 
L 706.368967 465.317239 
L 703.781627 466.225914 
L 701.102349 466.934254 
L 697.875537 467.561203 
L 694.071349 468.071057 
L 689.660339 468.436016 
L 684.609962 468.626302 
L 679.406143 468.60813 
L 674.038401 468.371106 
L 669.043668 467.938529 
L 664.441353 467.33685 
L 659.639361 466.473073 
L 655.218361 465.438848 
L 651.208527 464.28473 
L 646.921884 462.812057 
L 643.062691 461.273541 
L 638.844696 459.370929 
L 634.125056 456.995819 
L 628.673515 453.989 
L 622.094669 450.102806 
L 609.521544 442.347382 
L 599.470548 436.021729 
L 593.741031 432.226006 
L 590.89109 430.202408 
L 588.179908 428.128435 
L 585.674858 426.023082 
L 583.339859 423.865178 
L 581.140702 421.627645 
L 579.073694 419.28797 
L 577.162638 416.827559 
L 575.452904 414.230748 
L 574.003336 411.483744 
L 572.877713 408.573887 
L 572.137417 405.489486 
L 571.836152 402.220254 
L 572.016728 398.758188 
L 572.709412 395.098618 
L 573.931358 391.241197 
L 575.686682 387.190659 
L 577.966999 382.957232 
L 580.752291 378.556649 
L 584.01208 374.009784 
L 587.706887 369.341932 
L 591.789919 364.581812 
L 596.208955 359.760404 
L 600.908307 354.909691 
L 605.830781 350.061445 
L 610.91953 345.246112 
L 621.379828 335.823956 
L 631.897026 326.830436 
L 642.159532 318.395363 
L 651.946095 310.592212 
L 665.455566 300.1212 
L 677.426054 291.086956 
L 687.909542 283.37713 
L 697.07897 276.873366 
L 702.56983 273.16359 
L 707.641084 269.938 
L 712.356586 267.194305 
L 716.774994 264.940591 
L 720.948287 263.194402 
L 722.957159 262.519371 
L 724.920678 261.981382 
L 726.843029 261.584636 
L 728.727829 261.333624 
L 730.578122 261.23307 
L 732.396383 261.287886 
L 734.184525 261.503123 
L 735.943924 261.883944 
L 737.675451 262.435607 
L 739.379519 263.163477 
L 741.056138 264.073067 
L 742.704994 265.170117 
L 744.325525 266.46073 
L 745.917024 267.95157 
L 747.478738 269.65015 
L 749.009981 271.565211 
L 750.510242 273.707272 
L 751.979291 276.089317 
L 753.417275 278.727715 
L 754.824773 281.643421 
L 756.202816 284.863408 
L 757.552829 288.422242 
L 758.876434 292.363188 
L 760.175018 296.736902 
L 761.44886 301.592798 
L 762.695323 306.952167 
L 765.086367 319.357167 
L 767.119981 331.393615 
L 768.904539 344.141405 
L 770.503697 357.353152 
L 772.511575 376.286623 
L 773.998529 392.919702 
L 774.978349 406.94893 
L 775.50294 418.534008 
L 775.633181 427.972339 
L 775.427251 435.585293 
L 775.12894 439.797422 
L 774.717631 443.415253 
L 774.205213 446.512893 
L 773.602185 449.156875 
L 772.917774 451.406432 
L 772.160058 453.313935 
L 771.336087 454.925449 
L 770.452006 456.281311 
L 769.513163 457.416722 
L 768.524207 458.362308 
L 766.955499 459.48193 
L 765.294478 460.308604 
L 763.550448 460.902727 
L 761.730966 461.312689 
L 759.198089 461.638529 
L 755.87593 461.786867 
L 751.682058 461.710675 
L 745.77103 461.353003 
L 734.629909 460.404622 
L 702.61723 457.405971 
L 691.214201 456.100334 
L 682.403298 454.853241 
L 675.443423 453.646216 
L 669.362805 452.375571 
L 664.277399 451.116868 
L 658.956493 449.563307 
L 654.782655 448.139704 
L 650.423339 446.420476 
L 645.846745 444.306108 
L 642.656878 442.605201 
L 639.342986 440.597675 
L 635.896876 438.191501 
L 632.320817 435.254043 
L 630.492015 433.528843 
L 628.647449 431.593006 
L 626.804197 429.411029 
L 624.990844 426.945241 
L 623.252626 424.162337 
L 621.655731 421.047126 
L 620.28512 417.623827 
L 619.228328 413.975333 
L 618.545804 410.239129 
L 618.24868 406.502502 
L 618.336369 402.680895 
L 618.835955 398.69306 
L 619.790536 394.494375 
L 621.243586 390.076411 
L 623.225432 385.462539 
L 625.744263 380.700076 
L 628.782806 375.85109 
L 632.300006 370.984061 
L 636.235854 366.167548 
L 640.517495 361.465982 
L 645.065277 356.93713 
L 649.797997 352.630748 
L 654.637057 348.588039 
L 659.509498 344.841652 
L 664.349992 341.416051 
L 669.101968 338.328159 
L 673.718037 335.588188 
L 678.159881 333.200573 
L 682.397772 331.164972 
L 686.409836 329.477254 
L 690.181193 328.130464 
L 693.703027 327.115709 
L 696.971671 326.422962 
L 699.987734 326.041762 
L 702.755317 325.961787 
L 705.281308 326.173304 
L 707.574783 326.667454 
L 709.646518 327.436338 
L 711.50858 328.472842 
L 713.174023 329.770074 
L 714.656624 331.32028 
L 715.970635 333.113038 
L 717.130441 335.132628 
L 718.149988 337.354682 
L 719.041863 339.742916 
L 719.822913 342.366347 
L 721.03623 347.597331 
L 721.808947 352.553506 
L 722.243806 357.53704 
L 722.450161 362.701123 
L 722.531455 370.849009 
L 722.409262 393.16975 
L 722.151237 405.796916 
L 721.744975 414.655971 
L 721.299099 420.542412 
L 720.726589 425.802245 
L 720.028533 430.474143 
L 719.209463 434.604652 
L 718.275867 438.243213 
L 717.235174 441.439095 
L 716.095099 444.239532 
L 714.863218 446.688661 
L 713.546724 448.82698 
L 712.152283 450.691147 
L 710.685961 452.313994 
L 709.153209 453.724681 
L 707.55886 454.948924 
L 705.344495 456.329758 
L 703.036621 457.464437 
L 700.642122 458.390559 
L 698.166384 459.138838 
L 694.963441 459.861375 
L 691.644708 460.381821 
L 687.511942 460.776939 
L 683.212746 460.949277 
L 678.737992 460.912537 
L 674.070629 460.665235 
L 669.183535 460.190025 
L 664.035801 459.450881 
L 659.503699 458.590427 
L 654.697439 457.451286 
L 650.606288 456.286858 
L 646.238948 454.834577 
L 641.518865 453.009126 
L 637.681564 451.320252 
L 633.515937 449.270676 
L 628.92698 446.742325 
L 625.568318 444.704437 
L 621.911892 442.29553 
L 617.900556 439.405308 
L 613.490756 435.884553 
L 611.141712 433.833067 
L 608.722379 431.561944 
L 606.279564 429.065351 
L 603.889673 426.361166 
L 601.653481 423.500111 
L 599.672645 420.561669 
L 597.984082 417.57979 
L 596.556055 414.488492 
L 595.387215 411.226671 
L 594.509071 407.753098 
L 593.974625 404.047285 
L 593.844598 400.107639 
L 594.174248 395.947348 
L 595.003764 391.589585 
L 596.353451 387.063438 
L 598.223029 382.401149 
L 600.593577 377.636471 
L 603.430798 372.803682 
L 606.688696 367.936884 
L 610.313187 363.069367 
L 614.245407 358.232956 
L 618.424595 353.457372 
L 622.790541 348.769636 
L 627.285533 344.193584 
L 631.855876 339.749526 
L 641.033859 331.320096 
L 650.005917 323.570466 
L 658.548701 316.53702 
L 666.52553 310.214567 
L 677.299453 301.985287 
L 686.641788 295.102312 
L 697.095428 287.690369 
L 703.67666 283.241865 
L 709.39348 279.609371 
L 714.42071 276.715813 
L 717.464244 275.176622 
L 720.306568 273.944606 
L 722.980827 273.022298 
L 725.515536 272.417341 
L 727.934907 272.141916 
L 730.259245 272.212321 
L 732.505395 272.648754 
L 734.687302 273.475399 
L 736.816711 274.720981 
L 738.904042 276.420018 
L 740.959465 278.61515 
L 741.978636 279.915226 
L 741.978636 279.915226 
" clip-path="url(#p8ef2a50963)" style="fill: none; stroke: #8b0000; stroke-width: 1.5; stroke-linecap: square"/>
   </g>
   <g id="line2d_19">
    <path d="M 708.04429 337.019455 
L 708.834563 338.30359 
L 710.217688 341.242596 
L 711.373127 344.587361 
L 712.352051 348.30401 
L 713.081797 351.972555 
L 713.56345 355.475278 
L 713.987248 360.694837 
L 715.127591 379.878114 
L 716.028752 388.296387 
L 717.171894 396.771217 
L 719.072334 409.035126 
L 722.637848 431.678498 
L 723.882919 441.201618 
L 724.546464 447.939066 
L 724.869542 453.502083 
L 724.893957 458.048096 
L 724.663136 461.735253 
L 724.305356 464.258329 
L 723.819984 466.363531 
L 723.225904 468.11803 
L 722.392672 469.841858 
L 721.451183 471.228782 
L 720.422114 472.348108 
L 719.133917 473.390002 
L 717.773213 474.214044 
L 715.947768 475.039204 
L 713.645579 475.801535 
L 710.676221 476.532375 
L 705.511213 477.533159 
L 699.726684 478.708982 
L 697.044272 479.469743 
L 695.46986 480.129405 
L 694.623125 480.702667 
L 694.23512 481.215459 
L 694.152152 481.650938 
L 694.285915 482.11071 
L 694.711273 482.659187 
L 695.544604 483.310328 
L 696.922237 484.080984 
L 699.198674 485.069525 
L 702.454092 486.230157 
L 707.189838 487.670322 
L 713.35072 489.299798 
L 720.103468 490.863565 
L 727.140431 492.273892 
L 734.190016 493.457424 
L 741.030621 494.369091 
L 747.49391 494.996735 
L 753.461389 495.357184 
L 759.393647 495.48982 
L 765.215989 495.382354 
L 770.35051 495.073273 
L 775.275921 494.565877 
L 779.93651 493.867493 
L 784.277666 492.988679 
L 787.867847 492.05406 
L 791.119556 490.994131 
L 793.997943 489.820042 
L 796.216831 488.68999 
L 798.094169 487.487401 
L 799.441678 486.382436 
L 800.501692 485.234478 
L 801.173734 484.220848 
L 801.621484 483.183878 
L 801.840078 482.127434 
L 801.825403 481.055408 
L 801.574102 479.971708 
L 801.083578 478.880237 
L 800.351984 477.784883 
L 799.378218 476.689502 
L 797.935621 475.416588 
L 796.163543 474.154707 
L 793.737325 472.733389 
L 790.887942 471.342072 
L 787.621944 469.988366 
L 783.459995 468.51903 
L 778.795049 467.114755 
L 773.64277 465.782659 
L 767.367045 464.393461 
L 760.534528 463.103472 
L 752.403589 461.79801 
L 742.830058 460.498593 
L 730.76662 459.109546 
L 690.789684 454.760562 
L 682.768918 453.562777 
L 682.768918 453.562777 
" clip-path="url(#p8ef2a50963)" style="fill: none; stroke: #8b0000; stroke-width: 1.5; stroke-linecap: square"/>
   </g>
   <g id="line2d_20">
    <path d="M 702.761671 356.426297 
L 703.064376 358.841668 
L 703.155761 361.149835 
L 702.992306 364.507858 
L 702.581338 367.817214 
L 701.624355 373.33924 
L 700.285529 381.197185 
L 699.73174 385.762235 
L 699.409088 390.3697 
L 699.337816 395.004046 
L 699.511173 399.646996 
L 699.903517 404.278082 
L 700.645504 410.015878 
L 701.798829 416.763686 
L 703.342571 424.340764 
L 705.832636 435.330115 
L 710.720452 456.729377 
L 712.591551 466.048142 
L 715.016257 478.51973 
L 715.619942 480.166386 
L 716.302395 481.416096 
L 717.142523 482.478581 
L 718.167202 483.40326 
L 719.507077 484.288758 
L 721.232763 485.138265 
L 723.413085 485.950761 
L 726.107796 486.717478 
L 729.560768 487.456161 
L 733.397327 488.050515 
L 737.764425 488.497665 
L 742.329064 488.732168 
L 746.698634 488.735325 
L 750.736408 488.528575 
L 754.560671 488.112117 
L 757.852071 487.530288 
L 760.573044 486.824769 
L 762.721216 486.036651 
L 764.214202 485.271062 
L 765.268641 484.504697 
L 765.94547 483.761496 
L 766.311454 483.060462 
L 766.436552 482.334333 
L 766.338553 481.672179 
L 765.986524 480.913506 
L 765.373197 480.145713 
L 764.380584 479.28883 
L 762.907164 478.350624 
L 761.03366 477.426794 
L 758.537225 476.446781 
L 755.309571 475.431124 
L 751.243828 474.405872 
L 746.593251 473.465483 
L 740.999148 472.564197 
L 734.385678 471.732286 
L 726.692306 470.995163 
L 717.364432 470.333309 
L 704.048367 469.639133 
L 685.373912 468.65868 
L 677.192059 468.007606 
L 670.583813 467.278654 
L 664.326112 466.355498 
L 659.188286 465.384613 
L 654.533906 464.309569 
L 649.572745 462.933588 
L 645.126872 461.482391 
L 640.298065 459.662395 
L 636.06419 457.85683 
L 634.941007 457.345564 
L 634.941007 457.345564 
" clip-path="url(#p8ef2a50963)" style="fill: none; stroke: #8b0000; stroke-width: 1.5; stroke-linecap: square"/>
   </g>
  </g>
 </g>
 <defs>
  <clipPath id="p8ef2a50963">
   <rect x="435.9924" y="84.9312" width="544.9752" height="544.9752"/>
  </clipPath>
 </defs>
</svg>
